<svg version="1.1"
      xmlns="http://www.w3.org/2000/svg"
      xmlns:xlink="http://www.w3.org/1999/xlink"  id="snapshot-92316" width="250" height="250" viewBox="0 0 250 250"><desc>This image was made on Patterninja.com</desc><defs>
<!-- image 72735 -->
<g id="transformed-72735" data-image="72735" transform="translate(30.010308519175275, 8.473890771519578) rotate(17, 32.989691480824725, 33.52610922848042)"><g><svg version="1.1" width="65.97938296164945px" height="67.05221845696084px" viewBox="0 0 65.97938296164945 67.05221845696084"><g id="original-72735"><svg xmlns="http://www.w3.org/2000/svg" viewBox="0 0 70 71" xmlns:xlink="http://www.w3.org/1999/xlink" version="1.1" preserveAspectRatio="xMidYMid meet">
  <rect width="56" height="50" x="7" y="21" fill-rule="evenodd" rx="3" fill="rgba(99, 132, 190, 1)" stroke="none"/>
  <path fill-rule="evenodd" d="M35 21h25.009A2.991 2.991 0 0 1 63 23.997v44.006A2.996 2.996 0 0 1 60.009 71H35V21z" fill="rgba(76, 112, 175, 1)" stroke="none"/>
  <path fill-rule="evenodd" d="M63 57l7-4V38l-7-4v23zM0 38v15l7 4V34l-7 4z" fill="rgba(57, 81, 122, 1)" stroke="none"/>
  <path fill-rule="evenodd" d="M42 7a7 7 0 1 0-14 0 7 7 0 0 0 5 6.706V21h4v-7.294A7 7 0 0 0 42 7" fill="rgba(160, 171, 189, 1)" stroke="none"/>
  <path fill-rule="evenodd" d="M45 41a5 5 0 1 0 .001 10.001A5 5 0 0 0 45 41m-20 0a5 5 0 1 0 .001 10.001A5 5 0 0 0 25 41" fill="rgba(255, 255, 255, 1)" stroke="none"/>
</svg>
</g></svg></g></g>
<!-- /image 72735 -->

<!-- image 37873 -->
<g id="transformed-37873" data-image="37873" transform="translate(-23.021728866442675, -21.82459896538767) rotate(357, 23.021728866442675, 21.82459896538767)"><g><svg version="1.1" width="46.04345773288535px" height="43.64919793077534px" viewBox="0 0 46.04345773288535 43.64919793077534"><g id="original-37873"><svg xmlns="http://www.w3.org/2000/svg" viewBox="0 0 78 74" xmlns:xlink="http://www.w3.org/1999/xlink" version="1.1" preserveAspectRatio="xMidYMid meet">
  <path fill-rule="evenodd" d="M39 74l39-56H0z" fill="rgba(255, 200, 219, 1)" stroke="none"/>
  <path fill-rule="evenodd" d="M65.464 0L78 18H0L12.536 0z" fill="rgba(255, 200, 219, 1)" stroke="none"/>
  <path fill-rule="evenodd" d="M13 0l13 18H0z" fill="rgba(216, 117, 152, 1)" stroke="none"/>
  <path fill-rule="evenodd" d="M26 18L39 0H13z" fill="rgba(242, 160, 189, 1)" stroke="none"/>
  <path fill-rule="evenodd" d="M52 18L65 0H39z" fill="rgba(242, 160, 189, 1)" stroke="none"/>
  <path fill-rule="evenodd" d="M65 0l13 18H52z" fill="rgba(216, 117, 152, 1)" stroke="none"/>
  <path fill-rule="evenodd" d="M39 74l13-56H26z" fill="rgba(216, 117, 152, 1)" stroke="none"/>
  <path fill-rule="evenodd" d="M39 74l39-56H52z" fill="rgba(193, 81, 121, 1)" stroke="none"/>
</svg>
</g></svg></g></g>
<!-- /image 37873 -->

<!-- image 99475 -->
<g id="transformed-99475" data-image="99475" transform="translate(220.68202219765567, 76.51763571151822) rotate(350, 25.317977802344327, 22.482364288481776)"><g><svg version="1.1" width="50.635955604688654px" height="44.96472857696355px" viewBox="0 0 50.635955604688654 44.96472857696355"><g id="original-99475"><svg xmlns="http://www.w3.org/2000/svg" viewBox="0 0 72 64" xmlns:xlink="http://www.w3.org/1999/xlink" version="1.1" preserveAspectRatio="xMidYMid meet">
  <path fill-rule="evenodd" d="M36 64C29.7 64 0 42.055 0 20.112 0 13.812.67-.002 18.9-.002c7.482 0 14.106 5.712 17.1 11.886C38.994 5.71 45.618-.002 53.1-.002 71.33-.002 72 13.811 72 20.112 72 42.057 42.3 64 36 64z" fill="rgba(219, 89, 64, 1)" stroke="none"/>
  <path fill-rule="evenodd" d="M36 11.884C38.994 5.71 45.618-.002 53.1-.002 71.33-.002 72 13.811 72 20.112 72 42.057 42.3 64 36 64V11.884z" fill="rgba(198, 78, 55, 1)" stroke="none"/>
</svg>
</g></svg></g></g>
<!-- /image 99475 -->

<!-- image 37115 -->
<g id="transformed-37115" data-image="37115" transform="translate(175.6, 9) rotate(16, 23.4, 25)"><g><svg version="1.1" width="46.8px" height="50px" viewBox="0 0 46.8 50"><g id="original-37115"><svg xmlns="http://www.w3.org/2000/svg" viewBox="0 0 60 64" xmlns:xlink="http://www.w3.org/1999/xlink" version="1.1" preserveAspectRatio="xMidYMid meet">
  <g transform="translate(0 -1)">
    <path d="M17.584 3.1L38 35.794l-4 1.933-1-1.933c-4.136.666-4.506.044-6-2.9-4.337-8.545-14-29-14-29s-1.094-2.869 2.5-2.9c1.305-.005 1.983 1.893 2.084 2.106z" fill="rgba(176, 176, 176, 1)" stroke="none" fill-rule="evenodd"/>
    <path d="M33 37.727l6-2.9s.8 1.742 2 3.866c1.149 2.032 4.182 4.622 10 5.8s9 4.76 9 9.665c0 4.905-3.12 7.679-7 9.665-3.88 1.986-6.55 1.739-9-2.9S33 37.727 33 37.727zm18 10.631c3.59 0 6.114 3.554 6 5.8-.18 3.553-2.876 6.717-7 7.732-2.792.687-5.012-4.119-6-7.732-1.066-3.9 3.41-5.8 7-5.8z" fill="rgba(206, 73, 42, 1)" stroke="none" fill-rule="evenodd"/>
    <path d="M42.416 3.1L22 35.794l4 1.933 1-1.933c4.136.666 4.506.044 6-2.9 4.337-8.545 14-29 14-29s1.094-2.869-2.5-2.9C43.2.989 42.517 2.887 42.416 3.1z" fill="rgba(214, 214, 214, 1)" stroke="none" fill-rule="evenodd"/>
    <path d="M27 37.727l-6-2.9s-.8 1.742-2 3.866c-1.149 2.032-4.182 4.622-10 5.8s-9 4.76-9 9.665c0 4.905 3.12 7.679 7 9.665 3.88 1.986 6.55 1.739 9-2.9s11-23.196 11-23.196zM9 48.358c-3.59 0-6.114 3.554-6 5.8.18 3.553 2.876 6.717 7 7.732 2.792.687 5.012-4.119 6-7.732 1.066-3.9-3.41-5.8-7-5.8z" fill="rgba(206, 73, 42, 1)" stroke="none" fill-rule="evenodd"/>
    <circle cx="30" cy="30" r="3" fill="rgba(136, 136, 136, 1)" stroke="none" fill-rule="evenodd"/>
  </g>
</svg>
</g></svg></g></g>
<!-- /image 37115 -->

<!-- image 46372 -->
<g id="transformed-46372" data-image="46372" transform="translate(153.97917570107137, 65.70867505059424) rotate(2, 24.020824298928627, 22.291324949405762)"><g><svg version="1.1" width="48.041648597857254px" height="44.582649898811525px" viewBox="0 0 48.041648597857254 44.582649898811525"><g id="original-46372"><svg xmlns="http://www.w3.org/2000/svg" viewBox="0 0 72 67" xmlns:xlink="http://www.w3.org/1999/xlink" version="1.1" preserveAspectRatio="xMidYMid meet">
  <path fill-rule="evenodd" d="M1.013 20.69l33.539 45.222a2 2 0 0 0 3.213 0l33.539-45.221a2.01 2.01 0 0 0-.488-2.853C60.97 11.033 49.03 7.045 36.158 7.045c-12.873 0-24.813 3.988-34.657 10.793a2.01 2.01 0 0 0-.488 2.853z" fill="rgba(66, 61, 56, 1)" stroke="none"/>
  <path fill-rule="evenodd" d="M1.013 13.69l33.539 45.222a2 2 0 0 0 3.213 0l33.539-45.221a2.01 2.01 0 0 0-.488-2.853C60.97 4.033 49.03.045 36.158.045c-12.873 0-24.813 3.988-34.657 10.793a2.01 2.01 0 0 0-.488 2.853z" fill="rgba(229, 175, 110, 1)" stroke="none"/>
  <path fill-rule="evenodd" d="M2.02 15.05l1.114 1.5a60.73 60.73 0 0 1 33.024-9.708 60.73 60.73 0 0 1 33.025 9.709l1.113-1.501A60.73 60.73 0 0 0 36.158 4.602 60.73 60.73 0 0 0 2.02 15.05z" fill="rgba(188, 143, 72, 0.5)" stroke="none"/>
  <path fill-rule="evenodd" d="M4.763 18.748l29.789 40.164a2 2 0 0 0 3.213 0l29.788-40.164A52.462 52.462 0 0 0 36.158 8.376 52.462 52.462 0 0 0 4.763 18.748z" fill="rgba(255, 232, 194, 1)" stroke="none"/>
  <path fill-rule="evenodd" d="M14.622 15c4.928 0 4.928 8 9.856 8 4.927 0 4.927-8 9.853-8 4.93 0 4.93 8 9.86 8s11.134-10.219 13.41-5.845c2.017 3.88-9.28.332-13.154 2.361-3.873 2.029-.161 9.116-4.034 11.144-3.876 2.03-7.588-5.056-11.464-3.026-3.876 2.03-.463 5.232-2.24 9.23-1.209 2.716-.683 2.374 2.29 2.374 2.976 0 2.976-8 5.951-8 2.977 0 2.977 8 5.955 8 2.977 0 7.401-8.773 9.171-6.378 1.469 1.986-7.876 1.757-9.44 3.669-1.564 1.912 4.628 6.977 3.064 8.89-1.567 1.915-7.76-3.15-9.326-1.234-1.567 1.915 4.626 6.98 3.059 8.896" fill="rgba(0, 0, 0, 1)" stroke="rgba(209, 104, 84, 1)"/>
  <path fill-rule="evenodd" d="M29.441 33.048c1.511 2.022-.128 3.662-2.15 2.15-2.023 1.512-3.662-.128-2.151-2.15-1.511-2.022.128-3.662 2.15-2.15 2.023-1.512 3.662.128 2.151 2.15z" fill="rgba(153, 198, 74, 1)" stroke="none"/>
  <path fill-rule="evenodd" d="M47.176 33.048c1.511 2.022-.128 3.662-2.15 2.15-2.023 1.512-3.662-.128-2.15-2.15-1.512-2.022.127-3.662 2.15-2.15 2.022-1.512 3.661.128 2.15 2.15z" fill="rgba(153, 198, 74, 1)" stroke="none"/>
  <path fill-rule="evenodd" d="M37.765 56.912a2 2 0 0 1-3.213 0L5.733 18.056c-.324.23-.651.455-.97.692l29.789 40.164a2 2 0 0 0 3.213 0l29.788-40.164c-.318-.237-.646-.463-.97-.692L37.765 56.912z" fill="rgba(83, 71, 65, 0.1)" stroke="none"/>
  <path fill-rule="evenodd" d="M36.158 10.375a52.442 52.442 0 0 1 30.425 9.68l.97-1.307A52.462 52.462 0 0 0 36.158 8.375 52.462 52.462 0 0 0 4.763 18.748l.97 1.308a52.442 52.442 0 0 1 30.425-9.68z" fill="rgba(83, 71, 65, 0.1)" stroke="none"/>
  <circle cx="24.628" cy="23.382" r="6.096" fill-rule="evenodd" fill="rgba(83, 71, 65, 0.1)" stroke="none"/>
  <circle cx="24.628" cy="22.382" r="6.096" fill-rule="evenodd" fill="rgba(209, 104, 84, 1)" stroke="none"/>
  <circle cx="24.628" cy="22.382" r="5.398" fill-rule="evenodd" fill="rgba(181, 73, 44, 1)" stroke="none"/>
  <circle cx="24.628" cy="22.382" r="1.86" fill-rule="evenodd" fill="rgba(209, 104, 84, 1)" stroke="none"/>
  <circle cx="36.158" cy="40.388" r="6.096" fill-rule="evenodd" fill="rgba(83, 71, 65, 0.1)" stroke="none"/>
  <circle cx="36.158" cy="39.388" r="6.096" fill-rule="evenodd" fill="rgba(209, 104, 84, 1)" stroke="none"/>
  <circle cx="36.158" cy="39.388" r="5.398" fill-rule="evenodd" fill="rgba(181, 73, 44, 1)" stroke="none"/>
  <circle cx="36.158" cy="39.388" r="1.86" fill-rule="evenodd" fill="rgba(209, 104, 84, 1)" stroke="none"/>
  <circle cx="47.688" cy="23.382" r="6.096" fill-rule="evenodd" fill="rgba(83, 71, 65, 0.1)" stroke="none"/>
  <circle cx="47.688" cy="22.382" r="6.096" fill-rule="evenodd" fill="rgba(209, 104, 84, 1)" stroke="none"/>
  <circle cx="47.688" cy="22.382" r="5.398" fill-rule="evenodd" fill="rgba(181, 73, 44, 1)" stroke="none"/>
  <circle cx="47.688" cy="22.382" r="1.86" fill-rule="evenodd" fill="rgba(209, 104, 84, 1)" stroke="none"/>
  <circle cx="13.348" cy="19.194" r="1.908" fill-rule="evenodd" fill="rgba(188, 143, 72, 1)" stroke="none"/>
  <circle cx="58.968" cy="19.194" r="1.908" fill-rule="evenodd" fill="rgba(188, 143, 72, 1)" stroke="none"/>
  <circle cx="36.158" cy="28.477" r="1.908" fill-rule="evenodd" fill="rgba(188, 143, 72, 1)" stroke="none"/>
  <circle cx="36.158" cy="15.194" r="1.908" fill-rule="evenodd" fill="rgba(188, 143, 72, 1)" stroke="none"/>
  <circle cx="27.291" cy="33.048" r="1.244" fill-rule="evenodd" fill="rgba(135, 102, 54, 1)" stroke="none"/>
  <circle cx="45.026" cy="33.048" r="1.244" fill-rule="evenodd" fill="rgba(135, 102, 54, 1)" stroke="none"/>
  <path fill-rule="evenodd" d="M37.796 22.194c1.15 1.54-.098 2.788-1.638 1.637-1.54 1.151-2.788-.097-1.637-1.637-1.151-1.54.097-2.788 1.637-1.638 1.54-1.15 2.788.098 1.638 1.638z" fill="rgba(153, 198, 74, 1)" stroke="none"/>
  <path fill-rule="evenodd" d="M37.796 50.355c1.15 1.54-.098 2.789-1.638 1.638-1.54 1.15-2.788-.098-1.637-1.638-1.151-1.54.097-2.788 1.637-1.637 1.54-1.15 2.788.098 1.638 1.637z" fill="rgba(153, 198, 74, 1)" stroke="none"/>
</svg>
</g></svg></g></g>
<!-- /image 46372 -->

<!-- image 76812 -->
<g id="transformed-76812" data-image="76812" transform="translate(55.8763321686036, 85.97370240955955) rotate(356, 17.123667831396407, 19.026297590440446)"><g><svg version="1.1" width="34.247335662792814px" height="38.05259518088089px" viewBox="0 0 34.247335662792814 38.05259518088089"><g id="original-76812"><svg xmlns="http://www.w3.org/2000/svg" viewBox="0 0 65 72" xmlns:xlink="http://www.w3.org/1999/xlink" version="1.1" preserveAspectRatio="xMidYMid meet">
  <path fill-rule="evenodd" d="M32.314 8.093C14.933 8.093.833 22.193.833 39.574a31.4 31.4 0 0 0 8.593 21.62c.273.292.556.575.83.849l.029.029c5.683 5.566 13.456 8.993 22.029 8.993 8.446 0 16.121-3.33 21.775-8.749.01 0 .02-.01.03-.02.283-.273.566-.556.83-.84a31.353 31.353 0 0 0 8.856-21.882c0-17.38-14.1-31.48-31.491-31.48zm0 19.744c6.484 0 11.737 5.254 11.737 11.737 0 6.484-5.253 11.747-11.737 11.747-6.474 0-11.727-5.263-11.727-11.747 0-6.483 5.253-11.737 11.727-11.737z" fill="rgba(66, 61, 56, 1)" stroke="none"/>
  <path fill-rule="evenodd" d="M32.314 1.256c-9.29 0-17.64 4.03-23.4 10.43a31.326 31.326 0 0 0-8.08 21.05c0 8.37 3.27 15.99 8.59 21.62.28.29.56.58.83.85l.03.03c.28.28.57.55.87.81a31.325 31.325 0 0 0 21.16 8.18c8.01 0 15.33-3 20.89-7.93.3-.27.6-.54.89-.82.01 0 .01-.01.02-.01.29-.28.57-.56.83-.84 5.49-5.67 8.86-13.39 8.86-21.89 0-17.38-14.1-31.48-31.49-31.48zm-11.71 30.88c0-.11.01-.22.02-.32.04-.61.14-1.21.28-1.78.04-.21.1-.42.17-.63.17-.61.4-1.19.67-1.75.01-.02.02-.03.03-.05.11-.25.24-.49.38-.72.4-.71.88-1.36 1.42-1.96a11.914 11.914 0 0 1 2.43-2.08c.39-.25.8-.48 1.23-.68.15-.08.3-.15.45-.21.59-.26 1.21-.46 1.85-.61.14-.04.28-.07.42-.1.23-.05.46-.09.69-.12.21-.03.41-.06.62-.07.14-.02.28-.03.42-.03.21-.01.42-.02.63-.02a12.559 12.559 0 0 1 1.75.13l.53.09.13.03c.17.03.35.07.52.12.19.05.38.1.56.16.34.1.67.22.99.35a11.816 11.816 0 0 1 3.82 2.56c.26.26.52.54.76.83.12.15.23.29.34.44.12.15.23.31.33.46a11.782 11.782 0 0 1 .85 1.48c.07.14.14.29.2.43.32.75.57 1.54.73 2.35.04.16.06.32.08.48.03.16.05.31.07.47v.01c.02.15.03.29.04.44.01.1.02.2.02.3.01.2.02.4.02.6 0 .22-.01.44-.02.66 0 .06-.01.12-.02.18 0 .13-.01.27-.03.4-.2 1.99-.91 3.84-1.99 5.4-.09.13-.18.26-.28.39-.52.71-1.12 1.35-1.79 1.92-.11.09-.22.18-.33.26-.9.72-1.91 1.31-3 1.73-.12.05-.25.1-.37.14-.14.05-.28.1-.42.14-.14.04-.28.09-.43.12a8.653 8.653 0 0 1-1.27.27c-.25.04-.5.07-.76.09-.34.03-.68.05-1.03.05-.34 0-.68-.01-1.02-.05a11.326 11.326 0 0 1-1.34-.19c-.23-.05-.47-.1-.7-.17-.14-.03-.29-.08-.43-.12a4.93 4.93 0 0 1-.41-.14c-.13-.04-.25-.09-.37-.14-1.18-.45-2.26-1.1-3.22-1.89-.13-.12-.26-.23-.39-.35-.14-.12-.28-.25-.41-.39-.27-.26-.52-.54-.76-.84-.1-.12-.2-.25-.31-.38-.23-.32-.46-.65-.67-1-.1-.16-.19-.32-.28-.49-.55-1-.95-2.09-1.18-3.24a8.41 8.41 0 0 1-.17-1.12 2.69 2.69 0 0 1-.03-.4c-.01-.06-.02-.12-.02-.18-.01-.22-.02-.44-.02-.66 0-.2.01-.4.02-.6z" fill="rgba(244, 174, 105, 1)" stroke="none"/>
  <path fill-rule="evenodd" d="M32.314 1.256c-9.29 0-17.64 4.03-23.4 10.43a31.326 31.326 0 0 0-8.08 21.05c0 8.37 3.27 15.99 8.59 21.62.28.29.56.58.83.85l.03.03c.28.28.57.55.87.81 2.72-.8 4.08-2.39 5.09-3.59.91-1.06 1.39-1.58 2.39-1.76.29-.05.6-.07.91-.07 1.08 0 1.81.96 3.22 3.15.2.31.39.62.6.92 1.92 2.92 4.34 5.62 8.95 5.62 1.76 0 3.31-.31 4.73-.95 2.14-.94 3.55-2.4 4.78-3.69 1.56-1.62 2.45-2.47 4.02-2.47 1.98 0 2.66.47 3.8 1.24.86.59 1.91 1.32 3.56 1.85.3-.27.6-.54.89-.82.01 0 .01-.01.02-.01.29-.28.57-.56.83-.84 5.49-5.67 8.86-13.39 8.86-21.89 0-17.38-14.1-31.48-31.49-31.48zm-11.71 30.88c0-.11.01-.22.02-.32.012-.184.04-.366.062-.548a13.8 13.8 0 0 1 .218-1.232c.05-.21.11-.42.17-.63a9.52 9.52 0 0 1 .225-.677 11.818 11.818 0 0 1 .445-1.073c.01-.02.02-.03.03-.05.12-.24.25-.49.38-.72a11.914 11.914 0 0 1 3.85-4.04c.39-.25.8-.48 1.23-.68.15-.08.3-.15.45-.21.59-.26 1.21-.46 1.85-.61.14-.04.28-.07.42-.1.23-.05.46-.09.69-.12.21-.03.41-.06.62-.07.14-.02.28-.03.42-.03.21-.01.42-.02.63-.02a12.559 12.559 0 0 1 1.75.13c.18.02.35.05.53.09l.13.03c.17.03.35.07.52.12.19.05.38.1.56.16.34.1.67.22.99.35a11.816 11.816 0 0 1 3.82 2.56c.26.26.52.54.76.83.12.15.23.29.34.44.12.15.23.31.33.46a11.782 11.782 0 0 1 .85 1.48c.07.14.14.29.2.43.32.75.57 1.54.73 2.35.04.16.06.32.08.48.03.16.05.31.07.47v.01c.02.14.03.29.04.44.01.1.02.2.02.3.01.2.02.4.02.6 0 .22-.01.44-.02.66 0 .06-.01.12-.02.18 0 .13-.01.26-.03.4-.2 1.99-.91 3.84-1.99 5.4-.09.13-.18.26-.28.39-.52.71-1.12 1.35-1.79 1.92-.11.09-.22.18-.33.26-.9.72-1.91 1.31-3 1.73-.12.05-.24.1-.37.14-.14.05-.28.1-.42.14-.14.04-.28.09-.43.12a8.653 8.653 0 0 1-1.27.27c-.25.04-.5.07-.76.09-.34.03-.68.05-1.03.05-.34 0-.68-.01-1.02-.05a11.326 11.326 0 0 1-1.34-.19c-.23-.05-.47-.1-.7-.17-.14-.03-.29-.08-.43-.12a4.93 4.93 0 0 1-.41-.14c-.13-.04-.25-.09-.37-.14-1.18-.45-2.26-1.1-3.22-1.89-.13-.12-.26-.23-.39-.35-.14-.12-.28-.25-.41-.39-.27-.26-.52-.54-.76-.84-.1-.12-.2-.25-.31-.38-.23-.32-.46-.65-.67-1-.1-.16-.19-.32-.28-.49-.55-1-.95-2.09-1.18-3.24-.08-.37-.13-.74-.17-1.12-.02-.14-.03-.27-.03-.4-.01-.06-.02-.12-.02-.18-.01-.22-.02-.44-.02-.66 0-.2.01-.4.02-.6z" fill="rgba(244, 174, 105, 0.2)" stroke="none"/>
  <path fill-rule="evenodd" d="M64.586 31.47c-.283-7.441-3.154-14.296-7.743-19.657a14.54 14.54 0 0 0-.625-.722C50.778 5.086 43.123 1.11 34.579.525A32.23 32.23 0 0 0 9.611 9.782C3.694 15.642.032 23.756.032 32.74c0 .186 0 .371.01.557 0 .332.01.664.03.986a32.156 32.156 0 0 0 7.45 19.148c.605.723 1.542 1.074 2.46.87 4.883-1.104 4.56-4.903 8.33-5.576a7.67 7.67 0 0 1 1.23-.098c2.607 0 3.857 2.51 5.488 4.97 1.572 2.383 3.486 4.717 7.284 4.717 1.582 0 2.851-.293 3.925-.772 4.17-1.836 5.254-6.337 9.609-6.337 4.472 0 4.491 2.236 8.446 3.33.928.263 1.924-.059 2.558-.801a32.116 32.116 0 0 0 7.734-22.263zm-20.555 1.923c-.341 6.181-5.448 11.093-11.717 11.093-6.26 0-11.366-4.912-11.708-11.093a11.095 11.095 0 0 1 .068-2.06 12.23 12.23 0 0 1 .596-2.539c.147-.41.313-.81.508-1.191 1.904-3.916 5.908-6.601 10.536-6.601 1.582 0 3.105.312 4.482.889a11.737 11.737 0 0 1 7.177 9.491v.01c.049.439.078.888.078 1.347 0 .215-.01.44-.02.654z" fill="rgba(239, 96, 96, 1)" stroke="none"/>
  <path fill-rule="evenodd" d="M64.584 31.466c-.28-7.44-3.15-14.29-7.74-19.65-.2-.25-.41-.49-.63-.73-5.43-6-13.09-9.97-21.63-10.56-9.75-.66-18.65 3.01-24.97 9.26-.25.63-.49 1.26-.7 1.9a34.588 34.588 0 0 0-1.87 11.29c0 10.18 4.33 19.34 11.27 25.75.36-.06.77-.1 1.23-.1 2.61 0 3.86 2.51 5.49 4.97 3.42 1.91 7.19 3.27 11.21 3.94 4.17-1.83 5.25-6.33 9.6-6.33 4.48 0 4.5 2.23 8.45 3.33.22.06.43.09.65.09.72 0 1.42-.32 1.91-.89 5.1-5.94 8.06-13.76 7.73-22.27zm-20.55 1.93c0 .06-.01.12-.02.18 0 .13-.01.26-.03.4-.2 1.99-.91 3.84-1.99 5.4-.09.14-.18.27-.28.39-.52.71-1.12 1.35-1.79 1.92-.11.09-.22.18-.33.26-.9.72-1.91 1.31-3 1.73-.12.05-.24.1-.37.14-.14.05-.28.1-.42.14-.14.05-.28.09-.43.12a8.653 8.653 0 0 1-1.27.27c-.25.04-.5.07-.76.09-.34.03-.68.05-1.03.05-.34 0-.68-.01-1.02-.05a11.326 11.326 0 0 1-1.34-.19c-.23-.05-.47-.1-.7-.17a3.44 3.44 0 0 1-.43-.12 4.93 4.93 0 0 1-.41-.14c-.13-.04-.25-.09-.37-.14-1.18-.45-2.26-1.1-3.22-1.89-.13-.12-.26-.23-.39-.35-.14-.12-.28-.25-.41-.39-.27-.26-.52-.54-.76-.84-.11-.12-.21-.25-.31-.38-.23-.32-.46-.65-.67-1-.1-.16-.19-.32-.28-.49-.55-1-.95-2.09-1.18-3.24-.08-.37-.13-.74-.17-1.12-.02-.14-.03-.27-.03-.4-.01-.06-.02-.12-.02-.18-.01-.22-.02-.44-.02-.66 0-.2.01-.4.02-.6 0-.11.01-.21.02-.32.012-.184.04-.366.062-.548a13.8 13.8 0 0 1 .218-1.232c.05-.21.11-.42.17-.63a9.52 9.52 0 0 1 .225-.677 11.818 11.818 0 0 1 .445-1.073c.01-.02.02-.03.03-.05.12-.24.25-.49.38-.72a11.914 11.914 0 0 1 3.85-4.04c.39-.25.8-.48 1.23-.68.15-.08.3-.14.45-.21.59-.26 1.21-.46 1.85-.61.14-.04.28-.07.42-.1.23-.05.46-.09.69-.12.21-.03.41-.06.62-.07.14-.02.28-.03.42-.03.21-.01.42-.02.63-.02a12.559 12.559 0 0 1 1.75.13c.18.02.35.05.53.09l.13.03c.17.03.35.07.52.12.19.04.38.1.56.16.34.1.67.22.99.35a11.816 11.816 0 0 1 3.82 2.56 9.967 9.967 0 0 1 1.1 1.27c.12.15.23.31.33.46.22.33.43.67.61 1.01.09.16.17.31.24.47.07.14.14.29.2.43.32.75.57 1.54.73 2.35.03.16.06.32.08.48.03.16.05.31.07.47v.01c.02.14.03.29.04.44.01.1.02.2.02.3.01.2.02.4.02.6 0 .22-.01.44-.02.66z" fill="rgba(239, 96, 96, 0.2)" stroke="none"/>
  <path fill-rule="evenodd" d="M43.992 30.786c0 .205-.01.4-.02.596-.673-5.85-5.633-10.38-11.658-10.38-5.996 0-10.946 4.511-11.64 10.33-.02-.175-.02-.36-.02-.546 0-6.445 5.225-11.669 11.67-11.669 6.444 0 11.668 5.224 11.668 11.67z" fill="rgba(239, 96, 96, 0.28)" stroke="none"/>
  <ellipse cx="40.942" cy="6.614" fill-rule="evenodd" transform="rotate(-71.376 40.942 6.614)" rx="2.991" ry="10.608" fill="rgba(239, 96, 96, 0.4)" stroke="none"/>
  <path fill-rule="evenodd" d="M32.984 55.87a.487.487 0 0 1-.394-.777l.743-1.019a.488.488 0 1 1 .789.576l-.744 1.019a.487.487 0 0 1-.394.2z" fill="rgba(239, 96, 96, 0.3)" stroke="none"/>
  <path fill-rule="evenodd" d="M33.633 54.369l-.742 1.015a.49.49 0 0 1-.39.205.553.553 0 0 1-.293-.097.527.527 0 0 1-.176-.264.472.472 0 0 1 .078-.42l.742-1.016a.47.47 0 0 1 .42-.205c.088.01.186.04.264.098a.483.483 0 0 1 .097.684z" fill="rgba(247, 209, 102, 1)" stroke="none"/>
  <path fill-rule="evenodd" d="M33.204 54.007l-.742 1.016a.482.482 0 0 1-.4.205h-.03a.472.472 0 0 1 .078-.42l.742-1.016a.47.47 0 0 1 .42-.205.5.5 0 0 1-.068.42z" fill="rgba(239, 96, 96, 0.1)" stroke="none"/>
  <path fill-rule="evenodd" d="M38.67 47.118a.487.487 0 0 1-.858.15l-.757-1.01a.488.488 0 1 1 .78-.585l.758 1.008a.49.49 0 0 1 .076.437z" fill="rgba(239, 96, 96, 0.3)" stroke="none"/>
  <path fill-rule="evenodd" d="M37.424 46.058l.754 1.006a.49.49 0 0 1 .082.434.553.553 0 0 1-.179.251.526.526 0 0 1-.304.091.472.472 0 0 1-.378-.197l-.755-1.007a.47.47 0 0 1-.073-.461.544.544 0 0 1 .17-.224.483.483 0 0 1 .683.107z" fill="rgba(221, 60, 60, 1)" stroke="none"/>
  <path fill-rule="evenodd" d="M36.953 46.363l.754 1.006a.482.482 0 0 1 .079.443l-.009.028a.472.472 0 0 1-.378-.197l-.754-1.007a.47.47 0 0 1-.074-.461.5.5 0 0 1 .382.188z" fill="rgba(239, 96, 96, 0.1)" stroke="none"/>
  <path fill-rule="evenodd" d="M6.208 34.384a.487.487 0 0 1-.858.15l-.757-1.009a.488.488 0 1 1 .781-.586l.757 1.009c.098.13.12.292.077.436z" fill="rgba(239, 96, 96, 0.3)" stroke="none"/>
  <path fill-rule="evenodd" d="M4.962 33.324l.755 1.006a.49.49 0 0 1 .082.434.553.553 0 0 1-.18.252.527.527 0 0 1-.303.09.472.472 0 0 1-.379-.197l-.754-1.006a.47.47 0 0 1-.073-.462.545.545 0 0 1 .17-.224.483.483 0 0 1 .682.107z" fill="rgba(221, 60, 60, 1)" stroke="none"/>
  <path fill-rule="evenodd" d="M4.491 33.63l.755 1.006a.482.482 0 0 1 .079.443l-.009.028a.472.472 0 0 1-.379-.198l-.754-1.006a.47.47 0 0 1-.073-.462.5.5 0 0 1 .381.188z" fill="rgba(239, 96, 96, 0.1)" stroke="none"/>
  <path fill-rule="evenodd" d="M45.243 48.344a.487.487 0 0 1 .203-.846l1.226-.295a.488.488 0 1 1 .228.95l-1.226.294a.487.487 0 0 1-.431-.103z" fill="rgba(239, 96, 96, 0.3)" stroke="none"/>
  <path fill-rule="evenodd" d="M46.71 47.621l-1.223.294a.49.49 0 0 1-.43-.097.553.553 0 0 1-.16-.264.527.527 0 0 1 .036-.315.472.472 0 0 1 .332-.27l1.223-.292a.47.47 0 0 1 .453.115c.06.064.116.15.137.245a.483.483 0 0 1-.368.584z" fill="rgba(142, 84, 66, 1)" stroke="none"/>
  <path fill-rule="evenodd" d="M46.617 47.068l-1.224.293a.482.482 0 0 1-.437-.103l-.023-.019a.472.472 0 0 1 .332-.27l1.223-.292a.47.47 0 0 1 .453.115.5.5 0 0 1-.324.276z" fill="rgba(239, 96, 96, 0.1)" stroke="none"/>
  <path fill-rule="evenodd" d="M57.563 45.844a.487.487 0 0 1-.74-.458l.103-1.256a.488.488 0 1 1 .974.08l-.105 1.257a.487.487 0 0 1-.232.377z" fill="rgba(239, 96, 96, 0.3)" stroke="none"/>
  <path fill-rule="evenodd" d="M57.336 44.224l-.105 1.254a.49.49 0 0 1-.226.378.553.553 0 0 1-.301.07.526.526 0 0 1-.288-.134.472.472 0 0 1-.151-.4l.104-1.253a.47.47 0 0 1 .252-.393.545.545 0 0 1 .276-.054.483.483 0 0 1 .44.532z" fill="rgba(57, 99, 229, 1)" stroke="none"/>
  <path fill-rule="evenodd" d="M56.781 44.14l-.105 1.253a.482.482 0 0 1-.235.384l-.025.015a.472.472 0 0 1-.151-.4l.104-1.253a.47.47 0 0 1 .252-.393.5.5 0 0 1 .16.394z" fill="rgba(239, 96, 96, 0.1)" stroke="none"/>
  <path fill-rule="evenodd" d="M61.713 40.074a.488.488 0 0 1-.39-.778l.75-1.015a.488.488 0 1 1 .785.58l-.749 1.015a.487.487 0 0 1-.396.198z" fill="rgba(239, 96, 96, 0.3)" stroke="none"/>
  <path fill-rule="evenodd" d="M62.371 38.577l-.748 1.012a.49.49 0 0 1-.391.203.552.552 0 0 1-.293-.1.526.526 0 0 1-.174-.264.472.472 0 0 1 .08-.42l.748-1.011a.47.47 0 0 1 .421-.203c.088.01.185.04.263.1.214.157.261.46.094.683z" fill="rgba(255, 255, 255, 1)" stroke="none"/>
  <path fill-rule="evenodd" d="M61.943 38.214l-.747 1.011a.482.482 0 0 1-.402.203h-.029a.472.472 0 0 1 .08-.42l.748-1.011a.47.47 0 0 1 .421-.203.5.5 0 0 1-.07.42z" fill="rgba(239, 96, 96, 0.1)" stroke="none"/>
  <path fill-rule="evenodd" d="M4.396 46.01a.487.487 0 0 1-.39-.779l.749-1.015a.488.488 0 1 1 .785.58l-.749 1.015a.487.487 0 0 1-.395.199z" fill="rgba(239, 96, 96, 0.3)" stroke="none"/>
  <path fill-rule="evenodd" d="M5.053 44.512l-.747 1.012a.49.49 0 0 1-.392.203.553.553 0 0 1-.292-.1.527.527 0 0 1-.175-.264.472.472 0 0 1 .08-.42l.748-1.01a.47.47 0 0 1 .421-.204.53.53 0 0 1 .263.1c.214.157.262.46.094.683z" fill="rgba(105, 197, 237, 1)" stroke="none"/>
  <path fill-rule="evenodd" d="M4.626 44.149l-.748 1.011a.482.482 0 0 1-.401.203h-.03a.472.472 0 0 1 .08-.42l.748-1.01a.47.47 0 0 1 .421-.204.5.5 0 0 1-.07.42z" fill="rgba(239, 96, 96, 0.1)" stroke="none"/>
  <path fill-rule="evenodd" d="M25.363 45.833a.487.487 0 0 1 .466-.735l1.255.117a.488.488 0 1 1-.091.973l-1.256-.118a.487.487 0 0 1-.374-.237z" fill="rgba(239, 96, 96, 0.3)" stroke="none"/>
  <path fill-rule="evenodd" d="M26.985 45.624l-1.252-.118a.49.49 0 0 1-.376-.231.553.553 0 0 1-.066-.302.527.527 0 0 1 .137-.286.472.472 0 0 1 .4-.147l1.252.118a.47.47 0 0 1 .391.256c.037.08.062.18.051.277a.483.483 0 0 1-.537.433z" fill="rgba(255, 255, 255, 1)" stroke="none"/>
  <path fill-rule="evenodd" d="M27.076 45.07l-1.253-.118a.482.482 0 0 1-.38-.24l-.015-.025a.472.472 0 0 1 .4-.147l1.252.118a.47.47 0 0 1 .391.256.5.5 0 0 1-.395.156z" fill="rgba(239, 96, 96, 0.1)" stroke="none"/>
  <path fill-rule="evenodd" d="M19.437 46.11a.487.487 0 0 1-.524-.695l.554-1.133a.488.488 0 1 1 .877.43l-.554 1.132a.487.487 0 0 1-.353.267z" fill="rgba(239, 96, 96, 0.3)" stroke="none"/>
  <path fill-rule="evenodd" d="M19.814 44.52l-.553 1.13a.49.49 0 0 1-.349.27.553.553 0 0 1-.305-.046.527.527 0 0 1-.22-.228.472.472 0 0 1 .004-.428l.554-1.13a.47.47 0 0 1 .377-.274.544.544 0 0 1 .277.05c.239.116.34.406.215.656z" fill="rgba(249, 91, 48, 1)" stroke="none"/>
  <path fill-rule="evenodd" d="M19.328 44.239l-.553 1.13a.482.482 0 0 1-.358.271l-.03.006a.472.472 0 0 1 .004-.428l.554-1.13a.47.47 0 0 1 .377-.274.5.5 0 0 1 .006.425z" fill="rgba(239, 96, 96, 0.1)" stroke="none"/>
  <path fill-rule="evenodd" d="M46.648 34.327a.488.488 0 0 1-.523-.696l.554-1.133a.488.488 0 1 1 .877.43l-.554 1.132a.487.487 0 0 1-.354.267z" fill="rgba(239, 96, 96, 0.3)" stroke="none"/>
  <path fill-rule="evenodd" d="M47.026 32.736l-.553 1.13a.49.49 0 0 1-.35.27.553.553 0 0 1-.305-.046.526.526 0 0 1-.219-.228.472.472 0 0 1 .004-.428l.553-1.13a.47.47 0 0 1 .378-.274.544.544 0 0 1 .276.05c.24.116.34.406.216.656z" fill="rgba(249, 91, 48, 1)" stroke="none"/>
  <path fill-rule="evenodd" d="M46.54 32.455l-.553 1.13a.482.482 0 0 1-.359.271l-.029.006a.472.472 0 0 1 .004-.428l.553-1.13a.47.47 0 0 1 .378-.274.5.5 0 0 1 .006.425z" fill="rgba(239, 96, 96, 0.1)" stroke="none"/>
  <path fill-rule="evenodd" d="M12.263 43.94a.487.487 0 0 1-.696-.522l.218-1.243a.488.488 0 1 1 .962.17l-.218 1.241a.487.487 0 0 1-.266.355z" fill="rgba(239, 96, 96, 0.3)" stroke="none"/>
  <path fill-rule="evenodd" d="M12.185 42.307l-.219 1.239a.49.49 0 0 1-.26.356.553.553 0 0 1-.306.042.526.526 0 0 1-.274-.16.472.472 0 0 1-.115-.41l.218-1.24a.47.47 0 0 1 .287-.369.545.545 0 0 1 .28-.028.483.483 0 0 1 .389.57z" fill="rgba(255, 255, 255, 1)" stroke="none"/>
  <path fill-rule="evenodd" d="M11.64 42.172l-.219 1.24a.482.482 0 0 1-.268.36l-.027.013a.472.472 0 0 1-.115-.412l.218-1.238a.47.47 0 0 1 .287-.37.5.5 0 0 1 .124.407z" fill="rgba(239, 96, 96, 0.1)" stroke="none"/>
  <path d="M8.831 50.067a.487.487 0 0 1 .87-.002l.576 1.122a.488.488 0 1 1-.87.445l-.574-1.122a.487.487 0 0 1-.002-.443z" fill="rgba(239, 96, 96, 0.3)" stroke="none" fill-rule="evenodd"/>
  <path d="M9.879 51.323l-.573-1.12a.49.49 0 0 1-.007-.441.553.553 0 0 1 .219-.218.527.527 0 0 1 .314-.038c.14.027.27.115.34.259l.573 1.12a.47.47 0 0 1-.006.467.545.545 0 0 1-.206.192.483.483 0 0 1-.654-.221z" fill="rgba(128, 77, 226, 1)" stroke="none" fill-rule="evenodd"/>
  <path d="M10.395 51.102l-.573-1.12a.482.482 0 0 1-.003-.45l.013-.026c.14.027.27.115.34.259l.573 1.12a.47.47 0 0 1-.006.467.5.5 0 0 1-.344-.25z" fill="rgba(239, 96, 96, 0.1)" stroke="none" fill-rule="evenodd"/>
  <path d="M53.491 36.285a.487.487 0 0 1 .322.809l-.832.947a.488.488 0 1 1-.733-.644l.832-.947a.487.487 0 0 1 .411-.165z" fill="rgba(239, 96, 96, 0.3)" stroke="none" fill-rule="evenodd"/>
  <path d="M52.708 37.721l.831-.944a.49.49 0 0 1 .408-.17c.097.01.2.058.283.125.081.076.13.178.15.278a.472.472 0 0 1-.115.411l-.83.945a.47.47 0 0 1-.437.166.545.545 0 0 1-.254-.121.483.483 0 0 1-.036-.69z" fill="rgba(128, 77, 226, 1)" stroke="none" fill-rule="evenodd"/>
  <path d="M53.104 38.12l.83-.945a.482.482 0 0 1 .418-.167l.029.002a.472.472 0 0 1-.116.411l-.83.945a.47.47 0 0 1-.437.166.5.5 0 0 1 .106-.412z" fill="rgba(239, 96, 96, 0.1)" stroke="none" fill-rule="evenodd"/>
  <path d="M51.285 49.798a.487.487 0 0 1 .87-.002l.575 1.123a.488.488 0 1 1-.87.445l-.574-1.123a.487.487 0 0 1-.001-.443z" fill="rgba(239, 96, 96, 0.3)" stroke="none" fill-rule="evenodd"/>
  <path d="M52.332 51.054l-.573-1.12a.49.49 0 0 1-.007-.44.553.553 0 0 1 .22-.218.527.527 0 0 1 .314-.038.47.47 0 0 1 .34.258l.572 1.12a.47.47 0 0 1-.006.467.545.545 0 0 1-.206.192.483.483 0 0 1-.654-.22z" fill="rgba(255, 255, 255, 1)" stroke="none" fill-rule="evenodd"/>
  <path d="M52.848 50.833l-.572-1.12a.482.482 0 0 1-.003-.45l.013-.025a.47.47 0 0 1 .34.258l.572 1.12a.47.47 0 0 1-.006.467.5.5 0 0 1-.344-.25z" fill="rgba(239, 96, 96, 0.1)" stroke="none" fill-rule="evenodd"/>
  <path fill-rule="evenodd" d="M43.032 42.144a.487.487 0 0 1 .87-.002l.576 1.123a.488.488 0 1 1-.87.444l-.574-1.122a.487.487 0 0 1-.002-.443z" fill="rgba(239, 96, 96, 0.3)" stroke="none"/>
  <path fill-rule="evenodd" d="M44.08 43.4l-.573-1.12a.49.49 0 0 1-.007-.44.552.552 0 0 1 .219-.218.526.526 0 0 1 .314-.039c.14.027.27.115.34.26l.573 1.119a.47.47 0 0 1-.006.467.545.545 0 0 1-.206.192.483.483 0 0 1-.654-.22z" fill="rgba(174, 201, 91, 1)" stroke="none"/>
  <path fill-rule="evenodd" d="M44.596 43.18l-.573-1.12a.482.482 0 0 1-.003-.45l.013-.027c.14.027.27.115.34.26l.573 1.119a.47.47 0 0 1-.006.467.5.5 0 0 1-.344-.25z" fill="rgba(239, 96, 96, 0.1)" stroke="none"/>
  <g>
    <path d="M28.355 49.916a.487.487 0 0 1 .87-.002l.576 1.123a.488.488 0 1 1-.87.444l-.574-1.122a.487.487 0 0 1-.002-.443z" fill="rgba(239, 96, 96, 0.3)" stroke="none" fill-rule="evenodd"/>
    <path d="M29.403 51.172l-.573-1.12a.49.49 0 0 1-.007-.44.553.553 0 0 1 .219-.218.527.527 0 0 1 .314-.039c.14.027.27.115.34.26l.573 1.119a.47.47 0 0 1-.006.467.545.545 0 0 1-.206.192.483.483 0 0 1-.654-.22z" fill="rgba(239, 202, 48, 1)" stroke="none" fill-rule="evenodd"/>
    <path d="M29.919 50.951l-.573-1.12a.482.482 0 0 1-.003-.45l.013-.026c.14.027.27.115.34.26l.573 1.119a.47.47 0 0 1-.006.467.5.5 0 0 1-.344-.25z" fill="rgba(239, 96, 96, 0.1)" stroke="none" fill-rule="evenodd"/>
  </g>
  <g>
    <path d="M16.029 36.643a.488.488 0 0 1 .334.804l-.818.96a.488.488 0 1 1-.743-.634l.818-.96a.487.487 0 0 1 .409-.17z" fill="rgba(239, 96, 96, 0.3)" stroke="none" fill-rule="evenodd"/>
    <path d="M15.267 38.09l.817-.956a.49.49 0 0 1 .405-.175.553.553 0 0 1 .285.12.526.526 0 0 1 .155.275.472.472 0 0 1-.11.413l-.816.957a.47.47 0 0 1-.434.173.544.544 0 0 1-.256-.118.483.483 0 0 1-.046-.689z" fill="rgba(239, 202, 48, 1)" stroke="none" fill-rule="evenodd"/>
    <path d="M15.669 38.483l.816-.957a.482.482 0 0 1 .415-.174l.03.002a.472.472 0 0 1-.11.413l-.817.957a.47.47 0 0 1-.434.173.5.5 0 0 1 .1-.414z" fill="rgba(239, 96, 96, 0.1)" stroke="none" fill-rule="evenodd"/>
  </g>
</svg>
</g></svg></g></g>
<!-- /image 76812 -->

<!-- image 52972 -->
<g id="transformed-52972" data-image="52972" transform="translate(106.68202219765567, 8.002883248935962) rotate(350, 25.317977802344327, 17.997116751064038)"><g><svg version="1.1" width="50.635955604688654px" height="35.994233502128075px" viewBox="0 0 50.635955604688654 35.994233502128075"><g id="original-52972"><svg xmlns="http://www.w3.org/2000/svg" viewBox="0 0 76 54" xmlns:xlink="http://www.w3.org/1999/xlink" version="1.1" preserveAspectRatio="xMidYMid meet">
  <path fill-rule="evenodd" d="M73.38 53.382a2.5 2.5 0 0 0 2.497-2.663C74.51 31.083 58.15 15.58 38.167 15.58 18.188 15.58 1.827 31.084.46 50.719a2.5 2.5 0 0 0 2.497 2.663H73.38z" fill="rgba(66, 61, 56, 1)" stroke="none"/>
  <path fill-rule="evenodd" d="M73.277 36.024c-6.715 1.83-7.287-2.426-14.238-2.426-6.95 0-6.95 2.482-13.912 2.482-6.95 0-6.95-2.482-13.912-2.482-6.961 0-6.849 1.483-13.743 2.46-7.186 1.021-7.703 1.796-14.417-.034.258-3.717 2.481-8.085 3.604-11.43.415-1.225.606-2.55.775-3.874.067-.438.112-.876.18-1.314.258-2.055.606-4.042 1.706-5.614.55-.775 1.246-1.415 2.032-1.977 1.752-1.257 3.92-2.1 5.805-3.2h.023c.494-.28.966-.572 1.403-.91 2.864-2.155 4.975-6.006 8.5-7.13 2.684-.875 5.783.17 8.882.607h4.401c3.11-.438 6.21-1.482 8.882-.606 3.526 1.123 5.637 4.974 8.5 7.13.427.337.898.629 1.392.91 1.898 1.1 4.076 1.942 5.839 3.188.775.562 1.482 1.202 2.044 1.988 1.089 1.572 1.437 3.559 1.706 5.614l.169 1.314c.168 1.325.37 2.65.786 3.873 1.111 3.346 3.335 7.714 3.593 11.43z" fill="rgba(155, 188, 108, 1)" stroke="none"/>
  <path fill-rule="evenodd" d="M68.361 35.31H7.97a4.5 4.5 0 0 1-4.5-4.5v-5.622a4.5 4.5 0 0 1 4.5-4.5h60.391a4.5 4.5 0 0 1 4.5 4.5v5.623a4.5 4.5 0 0 1-4.5 4.5z" fill="rgba(242, 219, 121, 1)" stroke="none"/>
  <path fill-rule="evenodd" d="M64.867 18.597a6.497 6.497 0 0 1-8.994 1.988c-1.965-1.258-3.02-3.402-2.987-5.592-1.999 1.078-4.514 1.112-6.58-.202a6.475 6.475 0 0 1-2.762-3.818c-1.179 1.707-3.144 2.841-5.378 2.841a6.498 6.498 0 0 1-5.367-2.84 6.447 6.447 0 0 1-2.774 3.817c-2.055 1.314-4.57 1.28-6.58.202.034 2.19-1.01 4.334-2.986 5.592-3.02 1.942-7.052 1.055-8.983-1.988a6.45 6.45 0 0 1-.124-6.782c1.752-1.257 3.92-2.1 5.805-3.2h.023a6.75 6.75 0 0 1 2.863.798c-.034-2.19 1.01-4.335 2.987-5.592 2.975-1.909 6.905-1.067 8.87 1.83a6.496 6.496 0 0 1 4.065-4.469h4.401a6.496 6.496 0 0 1 4.065 4.47c1.988-2.898 5.895-3.74 8.882-1.831 1.965 1.257 3.009 3.402 2.986 5.592a6.615 6.615 0 0 1 2.841-.798c1.898 1.1 4.076 1.943 5.839 3.19a6.469 6.469 0 0 1-.112 6.792z" fill="rgba(83, 71, 65, 0.1)" stroke="none"/>
  <g transform="translate(8 2)">
    <circle cx="30.168" cy="6.872" r="6.296" fill="rgba(206, 70, 70, 1)" stroke="none" fill-rule="evenodd"/>
    <circle cx="30.168" cy="6.872" r="3.789" fill="rgba(188, 68, 68, 1)" stroke="none" fill-rule="evenodd"/>
    <g transform="rotate(-57.452 25.429 -20.394)">
      <ellipse cx="9.429" cy="8.8" rx="6.296" ry="6.296" fill="rgba(206, 70, 70, 1)" stroke="none" fill-rule="evenodd"/>
      <ellipse cx="9.429" cy="8.8" rx="3.789" ry="3.789" fill="rgba(188, 68, 68, 1)" stroke="none" fill-rule="evenodd"/>
    </g>
    <g transform="rotate(-57.452 34.753 -25.487)">
      <ellipse cx="9.691" cy="9.416" rx="6.296" ry="6.296" fill="rgba(206, 70, 70, 1)" stroke="none" fill-rule="evenodd"/>
      <ellipse cx="9.691" cy="9.416" rx="3.789" ry="3.789" fill="rgba(188, 68, 68, 1)" stroke="none" fill-rule="evenodd"/>
    </g>
    <g transform="rotate(-32.548 13.908 -8.324)">
      <ellipse cx="8.908" cy="8.804" rx="6.296" ry="6.296" fill="rgba(206, 70, 70, 1)" stroke="none" fill-rule="evenodd"/>
      <ellipse cx="8.908" cy="8.804" rx="3.789" ry="3.789" fill="rgba(188, 68, 68, 1)" stroke="none" fill-rule="evenodd"/>
    </g>
    <g transform="rotate(-32.548 18.209 11.92)">
      <ellipse cx="9.645" cy="9.421" rx="6.296" ry="6.296" fill="rgba(206, 70, 70, 1)" stroke="none" fill-rule="evenodd"/>
      <ellipse cx="9.645" cy="9.421" rx="3.789" ry="3.789" fill="rgba(188, 68, 68, 1)" stroke="none" fill-rule="evenodd"/>
    </g>
  </g>
  <path fill-rule="evenodd" d="M68.898 20.72a4.353 4.353 0 0 0-.54-.034H7.974c-.18 0-.36.011-.54.034.068-.438.113-.876.18-1.314.124-.023.236-.023.36-.023H68.36a2 2 0 0 1 .37.023l.169 1.314z" fill="rgba(83, 71, 65, 0.1)" stroke="none"/>
  <path fill-rule="evenodd" d="M73.38 45.777a2.5 2.5 0 0 0 2.497-2.663C74.51 23.479 58.15 7.976 38.167 7.976 18.188 7.976 1.827 23.479.46 43.114a2.5 2.5 0 0 0 2.497 2.663H73.38z" fill="rgba(247, 220, 191, 1)" stroke="none"/>
  <circle cx="39.776" cy="42.861" r=".804" fill-rule="evenodd" fill="rgba(247, 220, 191, 1)" stroke="none"/>
  <circle cx="48.159" cy="38.667" r=".804" fill-rule="evenodd" fill="rgba(247, 220, 191, 1)" stroke="none"/>
  <circle cx="69.825" cy="40.275" r=".804" fill-rule="evenodd" fill="rgba(247, 220, 191, 1)" stroke="none"/>
  <circle cx="56.946" cy="43.665" r=".804" fill-rule="evenodd" fill="rgba(247, 220, 191, 1)" stroke="none"/>
  <circle cx="60.74" cy="34.174" r=".804" fill-rule="evenodd" fill="rgba(247, 220, 191, 1)" stroke="none"/>
  <circle cx="30.698" cy="37.336" r=".804" fill-rule="evenodd" fill="rgba(247, 220, 191, 1)" stroke="none"/>
  <circle cx="19.007" cy="38.667" r=".804" fill-rule="evenodd" fill="rgba(247, 220, 191, 1)" stroke="none"/>
  <circle cx="38.168" cy="26.877" r=".804" fill-rule="evenodd" fill="rgba(247, 220, 191, 1)" stroke="none"/>
  <circle cx="23.943" cy="31.762" r=".804" fill-rule="evenodd" fill="rgba(247, 220, 191, 1)" stroke="none"/>
  <circle cx="13.053" cy="30.154" r=".804" fill-rule="evenodd" fill="rgba(247, 220, 191, 1)" stroke="none"/>
  <circle cx="5.815" cy="41.079" r=".804" fill-rule="evenodd" fill="rgba(247, 220, 191, 1)" stroke="none"/>
</svg>
</g></svg></g></g>
<!-- /image 52972 -->

<!-- image 93825 -->
<g id="transformed-93825" data-image="93825" transform="translate(150.06717312457332, 182.54093956450805) rotate(56, 24.932826875426688, 27.459060435491963)"><g><svg version="1.1" width="49.865653750853376px" height="54.91812087098393px" viewBox="0 0 49.865653750853376 54.91812087098393"><g id="original-93825"><svg xmlns="http://www.w3.org/2000/svg" viewBox="0 0 60 66" xmlns:xlink="http://www.w3.org/1999/xlink" version="1.1" preserveAspectRatio="xMidYMid meet">
  <path fill-rule="evenodd" d="M58.126 57L39 31v-7h3v-6H18v6h3v7L1.874 57c-3.728 4.946-1.681 8.993 4.546 8.993h47.16c6.228-.005 8.274-4.052 4.546-8.993z" fill="rgba(138, 211, 235, 1)" stroke="none"/>
  <path fill-rule="evenodd" d="M14 48c15 7 16-10 31-2l6.586 9.246c2.861 3.71 3.29 6.745-1.489 6.745H9.9c-4.779 0-4.35-3.035-1.489-6.745L14 48z" fill="rgba(106, 175, 13, 1)" stroke="none"/>
  <circle cx="22" cy="43" r="3" fill-rule="evenodd" fill="rgba(107, 173, 36, 1)" stroke="none"/>
  <circle cx="31" cy="34" r="5" fill-rule="evenodd" fill="rgba(107, 173, 36, 1)" stroke="none"/>
  <circle cx="28" cy="13" r="2" fill-rule="evenodd" fill="rgba(107, 173, 36, 1)" stroke="none"/>
  <circle cx="36" cy="4" r="4" fill-rule="evenodd" fill="rgba(107, 173, 36, 1)" stroke="none"/>
  <path fill-rule="evenodd" d="M24 18h-6v6h3v7L1.874 57c-3.728 4.946-1.681 8.993 4.546 8.993H30V18h-6z" fill="rgba(255, 255, 255, 0.394)" stroke="none"/>
</svg>
</g></svg></g></g>
<!-- /image 93825 -->

<!-- image 12975 -->
<g id="transformed-12975" data-image="12975" transform="translate(83.26136624629405, 205.26136624629405) rotate(14, 24.738633753705955, 24.73863375370596)"><g><svg version="1.1" width="49.47726750741191px" height="49.47726750741192px" viewBox="0 0 49.47726750741191 49.47726750741192"><g id="original-12975"><svg xmlns="http://www.w3.org/2000/svg" viewBox="0 0 66 66" xmlns:xlink="http://www.w3.org/1999/xlink" version="1.1" preserveAspectRatio="xMidYMid meet">
  <circle cx="33" cy="33" r="33" fill-rule="evenodd" fill="rgba(24, 24, 24, 1)" stroke="none"/>
  <path fill-rule="evenodd" d="M57.945 32C57.464 18.98 47.02 8.536 34 8.055v-4c15.867.483 27.462 12.3 27.942 27.941h-4l.003.004zm-5.171 0h-3.643c0-9.412-8.442-15.131-15.131-15.131v-3.643c9.8 0 18.774 6.874 18.774 18.774zM8.055 34C8.536 47.02 18.98 57.464 32 57.945v4c-15.867-.483-27.462-12.3-27.942-27.941h4L8.055 34zm5.171 0h3.643c0 9.412 8.442 15.131 15.131 15.131v3.643c-9.8 0-18.774-6.874-18.774-18.774z" fill="rgba(255, 255, 255, 0.2)" stroke="none"/>
  <circle cx="33" cy="33" r="13" fill-rule="evenodd" fill="rgba(220, 207, 185, 1)" stroke="none"/>
  <circle cx="33" cy="33" r="3" fill-rule="evenodd" fill="rgba(241, 236, 227, 1)" stroke="none"/>
</svg>
</g></svg></g></g>
<!-- /image 12975 -->

<!-- image 10072 -->
<g id="transformed-10072" data-image="10072" transform="translate(212.1540617176707, 160.54093956450805) rotate(349, 22.8459382823293, 27.459060435491963)"><g><svg version="1.1" width="45.6918765646586px" height="54.91812087098393px" viewBox="0 0 45.6918765646586 54.91812087098393"><g id="original-10072"><svg xmlns="http://www.w3.org/2000/svg" viewBox="0 0 40 48" xmlns:xlink="http://www.w3.org/1999/xlink" version="1.1" preserveAspectRatio="xMidYMid meet">
  <path fill-rule="evenodd" d="M18.854 6.242c-2.967-3.722-8.635-4.957-8.635-4.957s-2.867 5.22-1.908 9.954l3.173 6.985 10.617-4.835-3.247-7.147" fill="rgba(255, 255, 255, 1)" stroke="none"/>
  <path fill-rule="evenodd" d="M21.734 9.122c-2.968-3.722-8.635-4.957-8.635-4.957s-2.867 5.221-1.909 9.954l3.174 6.985 10.617-4.835-3.247-7.147" fill="rgba(45, 176, 141, 1)" stroke="none"/>
  <path fill-rule="evenodd" d="M9.174 10.962l2.756 6.069 8.98-4.089-2.828-6.224c-2.165-2.645-5.868-3.938-7.381-4.376-.675 1.456-2.175 5.211-1.527 8.62zm2.31 8.162a.901.901 0 0 1-.819-.528l-3.173-6.985a.93.93 0 0 1-.064-.193C6.416 6.419 9.306 1.076 9.43.852a.897.897 0 0 1 .981-.446c.244.053 6.015 1.348 9.147 5.275a.886.886 0 0 1 .115.188l3.247 7.148a.9.9 0 0 1-.446 1.191l-10.617 4.835a.898.898 0 0 1-.373.081z" fill="rgba(103, 26, 29, 1)" stroke="none"/>
  <path fill-rule="evenodd" d="M20.652 26.975s-7.913-14.34 1.104-24.273c8.078 10.717-1.104 24.273-1.104 24.273" fill="rgba(255, 255, 255, 1)" stroke="none"/>
  <path fill-rule="evenodd" d="M22.704 26.041s-5.596-15.396-19-15.119c2.76 13.139 19 15.119 19 15.119" fill="rgba(255, 255, 255, 1)" stroke="none"/>
  <path fill-rule="evenodd" d="M23.532 29.856s-7.914-14.34 1.103-24.274c8.079 10.717-1.103 24.274-1.103 24.274" fill="rgba(45, 176, 141, 1)" stroke="none"/>
  <path fill-rule="evenodd" d="M25.584 28.921s-5.596-15.395-19-15.119c2.76 13.139 19 15.119 19 15.119" fill="rgba(45, 176, 141, 1)" stroke="none"/>
  <path fill-rule="evenodd" d="M21.688 4.175c-5.847 7.449-2.541 17.214-.95 20.886 1.914-3.514 6.088-12.945.95-20.886zm-1.036 23.7l-.041-.001a.898.898 0 0 1-.747-.464c-.082-.149-8.116-15.022 1.225-25.313a.874.874 0 0 1 .708-.294.899.899 0 0 1 .678.357c8.368 11.102-.982 25.179-1.078 25.32a.9.9 0 0 1-.745.395z" fill="rgba(103, 26, 29, 1)" stroke="none"/>
  <path fill-rule="evenodd" d="M4.857 11.839c2.604 9.113 12.445 12.152 16.348 13.012-1.722-3.612-6.912-12.528-16.348-13.012zm17.847 15.102a.819.819 0 0 1-.109-.007c-.168-.02-16.913-2.215-19.772-15.827a.903.903 0 0 1 .176-.745.902.902 0 0 1 .687-.339c.124-.003.249-.004.372-.004 13.621 0 19.435 15.556 19.492 15.714a.9.9 0 0 1-.846 1.208z" fill="rgba(103, 26, 29, 1)" stroke="none"/>
  <path fill-rule="evenodd" d="M28.801 43.381l.9-.41c6.162-2.806 8.884-10.083 6.081-16.254l-3.05-6.714c-2.804-6.171-10.072-8.899-16.234-6.093l-.9.41c-6.162 2.806-8.885 10.084-6.081 16.255l3.05 6.713c2.804 6.171 10.072 8.899 16.234 6.093" fill="rgba(255, 255, 255, 1)" stroke="none"/>
  <path fill-rule="evenodd" d="M31.68 46.261l.9-.41c6.162-2.806 8.885-10.083 6.081-16.254l-3.05-6.714c-2.803-6.171-10.071-8.899-16.233-6.093l-.901.41c-6.162 2.806-8.884 10.084-6.08 16.255l3.05 6.713c2.803 6.171 10.071 8.899 16.233 6.093" fill="rgba(245, 184, 112, 1)" stroke="none"/>
  <path fill-rule="evenodd" d="M28.801 43.381h.007-.007zm-7.234-29.678a11.31 11.31 0 0 0-4.696 1.026l-.9.41c-5.701 2.596-8.229 9.354-5.635 15.063l3.05 6.714a11.296 11.296 0 0 0 6.355 5.943c2.84 1.066 5.926.96 8.686-.297l.9-.41c5.702-2.596 8.23-9.353 5.636-15.063l-3.05-6.714a11.297 11.297 0 0 0-6.355-5.942 11.346 11.346 0 0 0-3.991-.73zm2.166 31.686c-1.559 0-3.121-.281-4.624-.845a13.08 13.08 0 0 1-7.361-6.883l-3.05-6.714c-3.005-6.613-.076-14.439 6.527-17.446l.9-.41a13.059 13.059 0 0 1 10.066-.343 13.084 13.084 0 0 1 7.36 6.883l3.05 6.713c3.004 6.613.076 14.439-6.528 17.446l-.899.41a13.097 13.097 0 0 1-5.441 1.189z" fill="rgba(103, 26, 29, 1)" stroke="none"/>
  <path fill-rule="evenodd" d="M29.774 35.548a.901.901 0 0 1-.374-1.719l.728-.332a.9.9 0 0 1 .747 1.638l-.729.332a.898.898 0 0 1-.372.081" fill="rgba(103, 26, 29, 1)" stroke="none"/>
  <path fill-rule="evenodd" d="M21.759 39.198a.9.9 0 0 1-.374-1.72l.729-.332a.9.9 0 0 1 .747 1.639l-.729.332a.916.916 0 0 1-.373.081" fill="rgba(103, 26, 29, 1)" stroke="none"/>
  <path fill-rule="evenodd" d="M30.466 26.427a.9.9 0 0 1-.375-1.719l.729-.332a.9.9 0 0 1 .747 1.638l-.729.332a.898.898 0 0 1-.372.081" fill="rgba(103, 26, 29, 1)" stroke="none"/>
  <path fill-rule="evenodd" d="M22.451 30.077a.901.901 0 0 1-.374-1.72l.729-.331a.9.9 0 1 1 .746 1.638l-.728.332a.9.9 0 0 1-.373.081" fill="rgba(103, 26, 29, 1)" stroke="none"/>
  <path fill-rule="evenodd" d="M14.437 33.726a.9.9 0 0 1-.373-1.719l.729-.332a.899.899 0 1 1 .745 1.638l-.729.332a.895.895 0 0 1-.372.081" fill="rgba(103, 26, 29, 1)" stroke="none"/>
  <path fill-rule="evenodd" d="M23.144 20.956a.9.9 0 0 1-.373-1.72l.728-.331a.9.9 0 0 1 .745 1.638l-.728.331a.884.884 0 0 1-.372.082" fill="rgba(103, 26, 29, 1)" stroke="none"/>
  <path fill-rule="evenodd" d="M15.13 24.605a.9.9 0 0 1-.374-1.719l.729-.332a.899.899 0 1 1 .745 1.638l-.728.332a.898.898 0 0 1-.372.081" fill="rgba(103, 26, 29, 1)" stroke="none"/>
  <path fill-rule="evenodd" d="M.887 23.05a.901.901 0 0 1-.354-1.728c.057-.024 1.408-.591 3.243-.636a.89.89 0 0 1 .922.878.9.9 0 0 1-.877.922c-1.476.036-2.575.489-2.586.494a.912.912 0 0 1-.348.07" fill="rgba(103, 26, 29, 1)" stroke="none"/>
  <path fill-rule="evenodd" d="M8.639 24.067a.897.897 0 0 1-.562-.198 6.208 6.208 0 0 0-1.737-.985.9.9 0 0 1 .623-1.689 8.028 8.028 0 0 1 2.239 1.269.9.9 0 0 1-.563 1.603" fill="rgba(103, 26, 29, 1)" stroke="none"/>
  <path fill-rule="evenodd" d="M31.303 9.007a.9.9 0 0 1-.487-1.657c.157-.1.294-.183.409-.249a.9.9 0 1 1 .893 1.563c-.092.053-.203.12-.33.201a.896.896 0 0 1-.485.142" fill="rgba(103, 26, 29, 1)" stroke="none"/>
  <path fill-rule="evenodd" d="M27.555 15.05c-.018 0-.036 0-.055-.002a.9.9 0 0 1-.845-.951c.104-1.743.735-3.331 1.875-4.72a.899.899 0 1 1 1.391 1.142c-.894 1.089-1.388 2.329-1.468 3.684a.9.9 0 0 1-.898.847" fill="rgba(103, 26, 29, 1)" stroke="none"/>
</svg>
</g></svg></g></g>
<!-- /image 10072 -->

<!-- image 59809 -->
<g id="transformed-59809" data-image="59809" transform="translate(32.94720355358162, 151.98333796039273) rotate(1, 23.052796446418377, 30.01666203960727)"><g><svg version="1.1" width="46.10559289283675px" height="60.03332407921454px" viewBox="0 0 46.10559289283675 60.03332407921454"><g id="original-59809"><svg xmlns="http://www.w3.org/2000/svg" viewBox="0 0 53 69" xmlns:xlink="http://www.w3.org/1999/xlink" version="1.1" preserveAspectRatio="xMidYMid meet">
  <path fill-rule="evenodd" d="M14 0h31L24 40H0L14 0zm11 24h28L10 69l15-45z" fill="rgba(255, 217, 40, 1)" stroke="none"/>
  <path fill-rule="evenodd" d="M17 2h23L20 6 4 38 17 2zm8.5 38L14 63l8.306-23H25.5z" fill="rgba(255, 243, 185, 1)" stroke="none"/>
</svg>
</g></svg></g></g>
<!-- /image 59809 -->

<!-- image 45952 -->
<g id="transformed-45952" data-image="45952" transform="translate(108.95836943965739, 141.228031195864) rotate(16, 24.041630560342615, 20.77196880413602)"><g><svg version="1.1" width="48.08326112068523px" height="41.54393760827204px" viewBox="0 0 48.08326112068523 41.54393760827204"><g id="original-45952"><svg xmlns="http://www.w3.org/2000/svg" viewBox="0 0 74 64" xmlns:xlink="http://www.w3.org/1999/xlink" version="1.1" preserveAspectRatio="xMidYMid meet">
  <path fill-rule="evenodd" d="M25 40h24l10 24H15z" fill="rgba(255, 243, 185, 1)" stroke="none"/>
  <ellipse cx="37" cy="26" fill-rule="evenodd" rx="37" ry="15" fill="rgba(126, 140, 166, 1)" stroke="none"/>
  <path fill-rule="evenodd" d="M37 20a6 6 0 1 1 0 12 6 6 0 0 1 0-12z" fill="rgba(86, 98, 122, 1)" stroke="none"/>
  <path fill-rule="evenodd" d="M57 20a6 6 0 1 1 0 12 6 6 0 0 1 0-12z" fill="rgba(86, 98, 122, 1)" stroke="none"/>
  <path fill-rule="evenodd" d="M17 20a6 6 0 1 1 0 12 6 6 0 0 1 0-12z" fill="rgba(86, 98, 122, 1)" stroke="none"/>
  <path fill-rule="evenodd" d="M25 12c0-6.627 5.373-12 12-12s12 5.373 12 12H25z" fill="rgba(0, 0, 0, 1)" stroke="none"/>
</svg>
</g></svg></g></g>
<!-- /image 45952 -->

<!-- image 81744 -->
<g id="transformed-81744" data-image="81744" transform="translate(109.1505667587208, 73.85008967953478) rotate(130, 19.849433241279208, 17.149910320465228)"><g><svg version="1.1" width="39.698866482558415px" height="34.299820640930456px" viewBox="0 0 39.698866482558415 34.299820640930456"><g id="original-81744"><svg xmlns="http://www.w3.org/2000/svg" viewBox="0 0 74 64" xmlns:xlink="http://www.w3.org/1999/xlink" version="1.1" preserveAspectRatio="xMidYMid meet">
  <path fill-rule="evenodd" d="M5 64V11l15.9 11.133L37 0l16.1 22.133L69 11v53z" fill="rgba(207, 141, 0, 1)" stroke="none"/>
  <path fill-rule="evenodd" d="M37 0L20.9 22.133 5 11v53h32z" fill="rgba(232, 158, 0, 1)" stroke="none"/>
  <path fill-rule="evenodd" d="M37 35l-5-7 5-7 5 7z" fill="rgba(144, 0, 88, 1)" stroke="none"/>
  <path fill-rule="evenodd" d="M5 44h64a5 5 0 0 1 0 10H5a5 5 0 0 1 0-10z" fill="rgba(0, 0, 0, 1)" stroke="none"/>
  <path fill-rule="evenodd" d="M37 47a2 2 0 1 1 0 4 2 2 0 0 1 0-4zm10 0a2 2 0 1 1 0 4 2 2 0 0 1 0-4zm10 0a2 2 0 1 1 0 4 2 2 0 0 1 0-4zm10 0a2 2 0 1 1 0 4 2 2 0 0 1 0-4zM7 47a2 2 0 1 1 0 4 2 2 0 0 1 0-4zm10 0a2 2 0 1 1 0 4 2 2 0 0 1 0-4zm10 0a2 2 0 1 1 0 4 2 2 0 0 1 0-4z" fill="rgba(179, 179, 179, 1)" stroke="none"/>
</svg>
</g></svg></g></g>
<!-- /image 81744 -->
</defs><rect x="0" y="0" width="250" height="250" fill="rgba(255, 255, 255, 0)"></rect><use xlink:href="#transformed-72735" transform="translate(-250, -250)"></use><use xlink:href="#transformed-72735" transform="translate(0, -250)"></use><use xlink:href="#transformed-72735" transform="translate(250, -250)"></use><use xlink:href="#transformed-72735" transform="translate(-250, 0)"></use><use xlink:href="#transformed-72735" transform="translate(0, 0)"></use><use xlink:href="#transformed-72735" transform="translate(250, 0)"></use><use xlink:href="#transformed-72735" transform="translate(-250, 250)"></use><use xlink:href="#transformed-72735" transform="translate(0, 250)"></use><use xlink:href="#transformed-72735" transform="translate(250, 250)"></use><use xlink:href="#transformed-37873" transform="translate(-250, -250)"></use><use xlink:href="#transformed-37873" transform="translate(0, -250)"></use><use xlink:href="#transformed-37873" transform="translate(250, -250)"></use><use xlink:href="#transformed-37873" transform="translate(-250, 0)"></use><use xlink:href="#transformed-37873" transform="translate(0, 0)"></use><use xlink:href="#transformed-37873" transform="translate(250, 0)"></use><use xlink:href="#transformed-37873" transform="translate(-250, 250)"></use><use xlink:href="#transformed-37873" transform="translate(0, 250)"></use><use xlink:href="#transformed-37873" transform="translate(250, 250)"></use><use xlink:href="#transformed-99475" transform="translate(-250, -250)"></use><use xlink:href="#transformed-99475" transform="translate(0, -250)"></use><use xlink:href="#transformed-99475" transform="translate(250, -250)"></use><use xlink:href="#transformed-99475" transform="translate(-250, 0)"></use><use xlink:href="#transformed-99475" transform="translate(0, 0)"></use><use xlink:href="#transformed-99475" transform="translate(250, 0)"></use><use xlink:href="#transformed-99475" transform="translate(-250, 250)"></use><use xlink:href="#transformed-99475" transform="translate(0, 250)"></use><use xlink:href="#transformed-99475" transform="translate(250, 250)"></use><use xlink:href="#transformed-37115" transform="translate(-250, -250)"></use><use xlink:href="#transformed-37115" transform="translate(0, -250)"></use><use xlink:href="#transformed-37115" transform="translate(250, -250)"></use><use xlink:href="#transformed-37115" transform="translate(-250, 0)"></use><use xlink:href="#transformed-37115" transform="translate(0, 0)"></use><use xlink:href="#transformed-37115" transform="translate(250, 0)"></use><use xlink:href="#transformed-37115" transform="translate(-250, 250)"></use><use xlink:href="#transformed-37115" transform="translate(0, 250)"></use><use xlink:href="#transformed-37115" transform="translate(250, 250)"></use><use xlink:href="#transformed-46372" transform="translate(-250, -250)"></use><use xlink:href="#transformed-46372" transform="translate(0, -250)"></use><use xlink:href="#transformed-46372" transform="translate(250, -250)"></use><use xlink:href="#transformed-46372" transform="translate(-250, 0)"></use><use xlink:href="#transformed-46372" transform="translate(0, 0)"></use><use xlink:href="#transformed-46372" transform="translate(250, 0)"></use><use xlink:href="#transformed-46372" transform="translate(-250, 250)"></use><use xlink:href="#transformed-46372" transform="translate(0, 250)"></use><use xlink:href="#transformed-46372" transform="translate(250, 250)"></use><use xlink:href="#transformed-76812" transform="translate(-250, -250)"></use><use xlink:href="#transformed-76812" transform="translate(0, -250)"></use><use xlink:href="#transformed-76812" transform="translate(250, -250)"></use><use xlink:href="#transformed-76812" transform="translate(-250, 0)"></use><use xlink:href="#transformed-76812" transform="translate(0, 0)"></use><use xlink:href="#transformed-76812" transform="translate(250, 0)"></use><use xlink:href="#transformed-76812" transform="translate(-250, 250)"></use><use xlink:href="#transformed-76812" transform="translate(0, 250)"></use><use xlink:href="#transformed-76812" transform="translate(250, 250)"></use><use xlink:href="#transformed-52972" transform="translate(-250, -250)"></use><use xlink:href="#transformed-52972" transform="translate(0, -250)"></use><use xlink:href="#transformed-52972" transform="translate(250, -250)"></use><use xlink:href="#transformed-52972" transform="translate(-250, 0)"></use><use xlink:href="#transformed-52972" transform="translate(0, 0)"></use><use xlink:href="#transformed-52972" transform="translate(250, 0)"></use><use xlink:href="#transformed-52972" transform="translate(-250, 250)"></use><use xlink:href="#transformed-52972" transform="translate(0, 250)"></use><use xlink:href="#transformed-52972" transform="translate(250, 250)"></use><use xlink:href="#transformed-93825" transform="translate(-250, -250)"></use><use xlink:href="#transformed-93825" transform="translate(0, -250)"></use><use xlink:href="#transformed-93825" transform="translate(250, -250)"></use><use xlink:href="#transformed-93825" transform="translate(-250, 0)"></use><use xlink:href="#transformed-93825" transform="translate(0, 0)"></use><use xlink:href="#transformed-93825" transform="translate(250, 0)"></use><use xlink:href="#transformed-93825" transform="translate(-250, 250)"></use><use xlink:href="#transformed-93825" transform="translate(0, 250)"></use><use xlink:href="#transformed-93825" transform="translate(250, 250)"></use><use xlink:href="#transformed-12975" transform="translate(-250, -250)"></use><use xlink:href="#transformed-12975" transform="translate(0, -250)"></use><use xlink:href="#transformed-12975" transform="translate(250, -250)"></use><use xlink:href="#transformed-12975" transform="translate(-250, 0)"></use><use xlink:href="#transformed-12975" transform="translate(0, 0)"></use><use xlink:href="#transformed-12975" transform="translate(250, 0)"></use><use xlink:href="#transformed-12975" transform="translate(-250, 250)"></use><use xlink:href="#transformed-12975" transform="translate(0, 250)"></use><use xlink:href="#transformed-12975" transform="translate(250, 250)"></use><use xlink:href="#transformed-10072" transform="translate(-250, -250)"></use><use xlink:href="#transformed-10072" transform="translate(0, -250)"></use><use xlink:href="#transformed-10072" transform="translate(250, -250)"></use><use xlink:href="#transformed-10072" transform="translate(-250, 0)"></use><use xlink:href="#transformed-10072" transform="translate(0, 0)"></use><use xlink:href="#transformed-10072" transform="translate(250, 0)"></use><use xlink:href="#transformed-10072" transform="translate(-250, 250)"></use><use xlink:href="#transformed-10072" transform="translate(0, 250)"></use><use xlink:href="#transformed-10072" transform="translate(250, 250)"></use><use xlink:href="#transformed-59809" transform="translate(-250, -250)"></use><use xlink:href="#transformed-59809" transform="translate(0, -250)"></use><use xlink:href="#transformed-59809" transform="translate(250, -250)"></use><use xlink:href="#transformed-59809" transform="translate(-250, 0)"></use><use xlink:href="#transformed-59809" transform="translate(0, 0)"></use><use xlink:href="#transformed-59809" transform="translate(250, 0)"></use><use xlink:href="#transformed-59809" transform="translate(-250, 250)"></use><use xlink:href="#transformed-59809" transform="translate(0, 250)"></use><use xlink:href="#transformed-59809" transform="translate(250, 250)"></use><use xlink:href="#transformed-45952" transform="translate(-250, -250)"></use><use xlink:href="#transformed-45952" transform="translate(0, -250)"></use><use xlink:href="#transformed-45952" transform="translate(250, -250)"></use><use xlink:href="#transformed-45952" transform="translate(-250, 0)"></use><use xlink:href="#transformed-45952" transform="translate(0, 0)"></use><use xlink:href="#transformed-45952" transform="translate(250, 0)"></use><use xlink:href="#transformed-45952" transform="translate(-250, 250)"></use><use xlink:href="#transformed-45952" transform="translate(0, 250)"></use><use xlink:href="#transformed-45952" transform="translate(250, 250)"></use><use xlink:href="#transformed-81744" transform="translate(-250, -250)"></use><use xlink:href="#transformed-81744" transform="translate(0, -250)"></use><use xlink:href="#transformed-81744" transform="translate(250, -250)"></use><use xlink:href="#transformed-81744" transform="translate(-250, 0)"></use><use xlink:href="#transformed-81744" transform="translate(0, 0)"></use><use xlink:href="#transformed-81744" transform="translate(250, 0)"></use><use xlink:href="#transformed-81744" transform="translate(-250, 250)"></use><use xlink:href="#transformed-81744" transform="translate(0, 250)"></use><use xlink:href="#transformed-81744" transform="translate(250, 250)"></use></svg>