<svg version="1.1"
      xmlns="http://www.w3.org/2000/svg"
      xmlns:xlink="http://www.w3.org/1999/xlink"  id="snapshot-26556" width="250" height="250" viewBox="0 0 250 250"><desc>This image was made on Patterninja.com</desc><defs>
<!-- image 60185 -->
<g id="transformed-60185" data-image="60185" transform="translate(115.75171240910535, 187.75171240910535) rotate(350, 18.248287590894652, 18.24828759089466)"><g><svg version="1.1" width="36.496575181789304px" height="36.49657518178932px" viewBox="0 0 36.496575181789304 36.49657518178932"><g id="original-60185"><svg xmlns="http://www.w3.org/2000/svg" viewBox="0 0 400 400" xmlns:xlink="http://www.w3.org/1999/xlink" version="1.1" preserveAspectRatio="xMidYMid meet">
  <path d="M313.5 159.3c-.9-2.6-3.8-4-6.4-3.1l-20.4 7.1 8.7-18.9c1.2-2.5.1-5.5-2.4-6.6-2.5-1.2-5.5-.1-6.6 2.4l-12.8 27.7-19.6 6.8 9-19.4c1.2-2.5.1-5.5-2.4-6.6-2.5-1.2-5.5-.1-6.6 2.4l-11.2 24.2-29.4-23.4 20.8-16.8c2.1-1.7 2.5-4.9.8-7-1.7-2.1-4.9-2.5-7-.8l-16.2 13 2.1-19.1 24.1-19.4c2.1-1.7 2.5-4.9.8-7-1.7-2.1-4.9-2.5-7-.8l-16.2 13.1 2.5-22c.3-2.7-1.7-5.2-4.4-5.5-2.8-.3-5.2 1.7-5.5 4.4l-2.5 22.2-13.2-16.6c-1.7-2.2-4.9-2.5-7-.8-2.2 1.7-2.5 4.9-.8 7l19.5 24.4-2.2 19.2-13.2-16.6c-1.7-2.2-4.9-2.5-7-.8-2.2 1.7-2.5 4.9-.8 7l17.6 22-30.7 12-3.8-26.8c-.4-2.7-2.9-4.6-5.7-4.2-2.7.4-4.6 2.9-4.2 5.7l2.9 20.2-14-10.9-4.4-30.7c-.4-2.7-2.9-4.6-5.7-4.2-2.7.4-4.6 2.9-4.2 5.7l2.9 20.2-18.4-14.7c-2.2-1.7-5.3-1.4-7 .8-1.7 2.2-1.4 5.3.8 7l19.3 15.4-21.4 2.9c-2.7.4-4.6 2.9-4.3 5.6.3 2.5 2.5 4.3 4.9 4.3h.7l30.8-4.2 14.3 11.4-21.4 2.9c-2.7.4-4.6 2.9-4.3 5.6.3 2.5 2.5 4.3 4.9 4.3h.7l26.1-3.6-4.8 31.8-26.3-12c-2.5-1.1-5.5 0-6.6 2.5-1.1 2.5 0 5.5 2.5 6.6l20 9.1-21.3 7.4L92.1 208c-2.5-1.1-5.5 0-6.6 2.5-1.1 2.5 0 5.5 2.5 6.6l19.3 8.8-17.6 6.1c-2.6.9-4 3.8-3.1 6.4.7 2.1 2.7 3.4 4.7 3.4.5 0 1.1-.1 1.6-.3l17.3-6-8.7 18.9c-1.2 2.5-.1 5.5 2.4 6.6.7.3 1.4.5 2.1.5 1.9 0 3.7-1.1 4.5-2.9l12.8-27.7 20.8-7.3-8.4 18.2c-1.2 2.5-.1 5.5 2.4 6.6.7.3 1.4.5 2.1.5 1.9 0 3.7-1.1 4.5-2.9l11-23.9 32.1 25.6-22.3 18c-2.1 1.7-2.5 4.9-.8 7 1 1.2 2.4 1.9 3.9 1.9 1.1 0 2.2-.4 3.1-1.1l16-12.9-2.1 18.4-24.5 19.7c-2.1 1.7-2.5 4.9-.8 7 1 1.2 2.4 1.9 3.9 1.9 1.1 0 2.2-.4 3.1-1.1l16.6-13.4-2.2 19.4c-.3 2.7 1.7 5.2 4.4 5.5h.6c2.5 0 4.7-1.9 5-4.4l2.1-18.9 12.9 16.2c1 1.2 2.4 1.9 3.9 1.9 1.1 0 2.2-.4 3.1-1.1 2.2-1.7 2.5-4.9.8-7l-19.1-24 2.2-19.6 13.4 16.8c1 1.2 2.4 1.9 3.9 1.9 1.1 0 2.2-.4 3.1-1.1 2.2-1.7 2.5-4.9.8-7l-19.2-24 32.2-12.6 2.3 26.5c.2 2.6 2.4 4.6 5 4.6h.4c2.8-.2 4.8-2.7 4.5-5.4l-1.9-21.5 15 11.9 2.7 31c.2 2.6 2.4 4.6 5 4.6h.4c2.8-.2 4.8-2.7 4.5-5.4l-1.9-21.5 18.4 14.7c.9.7 2 1.1 3.1 1.1 1.5 0 2.9-.6 3.9-1.9 1.7-2.2 1.4-5.3-.8-7L275 252.9l20.3-1.7c2.8-.2 4.8-2.6 4.6-5.4-.2-2.8-2.6-4.8-5.4-4.6l-30.9 2.6-13.6-11.5 20.3-1.7c2.8-.2 4.8-2.6 4.6-5.4-.2-2.8-2.6-4.8-5.4-4.6l-27.3 2.3 4.9-32.8 25.4 11.5c.7.3 1.4.5 2.1.5 1.9 0 3.7-1.1 4.6-2.9 1.1-2.5 0-5.5-2.5-6.6l-18.8-8.5 18.3-6.4 28.8 13.1c.7.3 1.4.5 2.1.5 1.9 0 3.7-1.1 4.6-2.9 1.1-2.5 0-5.5-2.5-6.6l-19.3-8.8 20.6-7.2c2.5-1 3.9-3.9 3-6.5zm-104.1 2.2l25.2 20.1-28.5 10 3.3-30.1zm-13.2 27.9l-22.4-17.9 25.5-10-3.1 27.9zm-6.2 7.8l-26.9 9.4 4.2-27.5 22.7 18.1zm4.3 9l-3.5 30.9-25.8-20.6 29.3-10.3zm9.8 2.3l22.7 18.1-25.9 10.2 3.2-28.3zm6.3-7.9l26.5-9.3-4.1 27.1-22.4-17.8z" fill="rgba(0, 0, 0, 1)" stroke="none"/>
</svg>
</g></svg></g></g>
<!-- /image 60185 -->

<!-- image 33846 -->
<g id="transformed-33846" data-image="33846" transform="translate(90.97620395837136, 14.976203958371364) rotate(2, 21.02379604162864, 21.023796041628636)"><g><svg version="1.1" width="42.04759208325728px" height="42.04759208325727px" viewBox="0 0 42.04759208325728 42.04759208325727"><g id="original-33846"><svg xmlns="http://www.w3.org/2000/svg" viewBox="0 0 400 400" xmlns:xlink="http://www.w3.org/1999/xlink" version="1.1" preserveAspectRatio="xMidYMid meet">
  <path d="M282 144h-52.8c1.5-.7 3-1.4 4.6-2.1 7.1-3.4 12.7-6.5 17.1-9.4.1-.1.3-.2.4-.3 15.5-10.2 16.1-17.3 16.4-20 .6-6.6-3.4-12.3-12-16.9-6.7-3.6-13.6-4-20.6-1.3-5.2 2.1-10 5.9-14.3 10.6-.3.3-.6.6-.8.9-6.2 7.1-11.4 15.9-15.2 23.6-1-12.6-5.2-32.7-21.6-42.7-20.2-12.2-39.8 3.8-47.7 14.3-.9.8-1.8 1.7-2.6 2.7-5.2 5.9-4.8 11.4-3.6 15 3.1 9.1 15.6 17.2 38.4 24.9.5.2 1 .3 1.5.5h-52.8c-9.4 0-17 7.6-17 17v42c0 9.4 7.6 17 17 17h62v41.6c-.3-.1-.6-.1-.9-.1-8.7 0-15.7 7.1-15.7 15.7s7.1 15.7 15.7 15.7c.3 0 .6 0 .9-.1v20.1h-43.2c-3.9 0-7-3.1-7-7v-39.2c7.1-1.5 12.5-7.8 12.5-15.4 0-7.6-5.4-13.9-12.5-15.4V233c0-2.8-2.2-5-5-5s-5 2.2-5 5v73.1c0 9.4 7.6 17 17 17h129.6c9.4 0 17-7.6 17-17V233c0-2.8-2.2-5-5-5s-5 2.2-5 5v43.6c-2.8-2.7-6.6-4.3-10.8-4.3-8.7 0-15.7 7.1-15.7 15.7 0 8.7 7.1 15.7 15.7 15.7 4.2 0 8-1.6 10.8-4.3v6.6c0 3.9-3.1 7-7 7h-44.7v-56.7c8.2-.5 14.7-7.4 14.7-15.7 0-8.3-6.5-15.2-14.7-15.7v-5H282c9.4 0 17-7.6 17-17v-42c0-9.3-7.7-16.9-17-16.9zM130.6 251.5c0 1.9-1 3.7-2.5 4.7v-9.4c1.5 1 2.5 2.7 2.5 4.7zM261 293.8c-3.2 0-5.7-2.6-5.7-5.7 0-3.2 2.6-5.7 5.7-5.7s5.7 2.6 5.7 5.7-2.6 5.7-5.7 5.7zM212.6 154v56h-21.7v-56h9.1c.6.2 1.2.3 1.8.3.5 0 1-.1 1.6-.2 0 0 .1 0 .3-.1h8.9zm31.3-51.7c2.3 0 4.6.6 6.9 1.9 3.2 1.7 7 4.4 6.7 7.2-.2 2.3-2.1 4.9-5.2 7.6-1.1-4-3.1-7.3-6-9.9-2.8-2.6-6.2-4.1-9.5-4.9.6-.3 1.2-.6 1.8-.8 1.9-.8 3.6-1.1 5.3-1.1zm-17.3 10.8c3.5-.2 9.6.2 13.2 3.4 2.2 2 3.4 4.9 3.6 8.9-9.3 5.6-21.6 11.2-33 15.5 3.7-8.7 9.4-19.7 16.2-27.8zM178 95c12.2 7.4 15.8 23.3 16.7 33.9-8.9-13.2-23-30.1-37.8-33.8 6-3.2 13.4-4.7 21.1-.1zm-39.3 20.3c-.2-.7-.8-2.4 1.7-5.3 3.3-3.8 6.8-5.6 10.7-5.6.5 0 1 0 1.5.1 13 1.5 28.2 21 37.2 35.1-22.3-5.7-48.1-15.4-51.1-24.3zm11.5 38.7c-.2.5-.3 1-.3 1.5 0 3.2-2.6 5.7-5.7 5.7-3.2 0-5.7-2.6-5.7-5.7 0-.5-.1-1-.3-1.5h12zm-40.9 49v-42c0-3.9 3.1-7 7-7h12.4c-.2.5-.3 1-.3 1.5 0 8.7 7.1 15.7 15.7 15.7 8.7 0 15.7-7.1 15.7-15.7 0-.5-.1-1-.3-1.5h21.1v56h-4.9c-1-7.8-7.6-13.8-15.6-13.8s-14.6 6-15.6 13.8h-28.4c-3.6 0-6.8-3.1-6.8-7zm56.4 7h-10.8c.8-2.2 2.9-3.8 5.4-3.8s4.6 1.6 5.4 3.8zm11.7 73c-3.2 0-5.7-2.6-5.7-5.7 0-3.2 2.6-5.7 5.7-5.7.3 0 .6 0 .9-.1v11.7c-.2-.1-.5-.2-.9-.2zm10.9 30.1V220H210v93.1h-21.7zm36.5-72.4c0 2.8-2.1 5.2-4.7 5.7V235c2.7.5 4.7 2.9 4.7 5.7zM289 203c0 3.9-3.1 7-7 7h-59.4v-56H282c3.9 0 7 3.1 7 7v42z" fill="rgba(143, 73, 250, 1)" stroke="none"/>
  <path d="M262.8 163.3c-8.7 0-15.7 7.1-15.7 15.7s7.1 15.7 15.7 15.7c8.7 0 15.7-7.1 15.7-15.7s-7.1-15.7-15.7-15.7zm0 21.4c-3.2 0-5.7-2.6-5.7-5.7s2.6-5.7 5.7-5.7 5.7 2.6 5.7 5.7-2.6 5.7-5.7 5.7z" fill="rgba(143, 73, 250, 1)" stroke="none"/>
</svg>
</g></svg></g></g>
<!-- /image 33846 -->

<!-- image 29872 -->
<g id="transformed-29872" data-image="29872" transform="translate(145.93111629250274, -28.068883707497267) rotate(356, 29.06888370749726, 29.068883707497267)"><g><svg version="1.1" width="58.13776741499452px" height="58.137767414994535px" viewBox="0 0 58.13776741499452 58.137767414994535"><g id="original-29872"><svg xmlns="http://www.w3.org/2000/svg" viewBox="0 0 400 400" xmlns:xlink="http://www.w3.org/1999/xlink" version="1.1" preserveAspectRatio="xMidYMid meet">
  <path d="M286.2 241.5c-2.7.4-4.7 2.9-4.3 5.6.4 3.2.6 6.5.6 9.7 0 41.2-33.5 74.7-74.7 74.7s-74.7-33.5-74.7-74.7c0-17.5 6.6-33.1 20.2-48 .1-.1 5.5-6.3 9.8-10 2.1-1.8 2.3-5 .5-7.1-1.8-2.1-5-2.3-7.1-.5-4.8 4.2-10.6 10.7-10.8 10.9-10 10.9-16.6 22.4-20 34.6l-9.9-2.6-2.5-16.8c-.4-2.7-2.9-4.6-5.7-4.2-2.7.4-4.6 2.9-4.2 5.7l1.9 12.6-17.9-4.6c-2.7-.7-5.4.9-6.1 3.6-.7 2.7.9 5.4 3.6 6.1l38.9 10c-.5 3.4-.7 6.8-.7 10.3 0 46.7 38 84.7 84.7 84.7s84.7-38 84.7-84.7c0-3.7-.2-7.4-.7-11-.4-2.8-2.9-4.7-5.6-4.3z" fill="rgba(5, 59, 103, 1)" stroke="none"/>
  <path d="M256.2 167.5c-2.4-1.3-5.5-.4-6.8 2-2.5 4.6-5.7 8.7-9.6 12.2-1.3 1.2-1.9 2.9-1.5 4.6.3 1.7 1.5 3.1 3.1 3.7.2.1 20.2 7.9 31.6 30.3.9 1.7 2.6 2.7 4.5 2.7.8 0 1.5-.2 2.3-.5 2.5-1.3 3.4-4.3 2.2-6.7-9-17.6-22.5-27.4-30.4-31.9 2.5-3 4.8-6.2 6.7-9.7 1.2-2.4.3-5.4-2.1-6.7z" fill="rgba(5, 59, 103, 1)" stroke="none"/>
  <path d="M230 124.1c-9.7 0-9.7 15 0 15s9.7-15 0-15z" fill="rgba(5, 59, 103, 1)" stroke="none"/>
  <path d="M317 215.9c-1.2-2.5-4.2-3.5-6.7-2.3l-48 23.5c-2.5 1.2-3.5 4.2-2.3 6.7.9 1.8 2.6 2.8 4.5 2.8.7 0 1.5-.2 2.2-.5l48-23.5c2.5-1.2 3.5-4.2 2.3-6.7z" fill="rgba(5, 59, 103, 1)" stroke="none"/>
  <path d="M120.2 169.1c0 8 6.5 14.6 14.6 14.6 8 0 14.6-6.5 14.6-14.6 0-6.3-4-11.6-9.5-13.6.5-2.3 1.3-5 2.5-8 .3.4.6.8 1 1.2 2.2 2.4 4.7 3.9 7.1 4.8 3.9 28.7 28.3 50.2 57.4 50.2 2.8 0 5-2.2 5-5s-2.2-5-5-5c-23.5 0-43.3-16.8-47.3-39.7.5-.3.9-.7 1.3-1.2 30.4-40.3 81.1-37.9 81.6-37.9.4 0 .8 0 1.2-.1 5.6 6.7 9.2 14.6 10.6 23.2.4 2.5 2.5 4.2 4.9 4.2.3 0 .5 0 .8-.1 2.7-.4 4.6-3 4.2-5.7-1.8-11.3-6.8-21.6-14.6-30.1 1.5-4.9 1.3-9.5-.5-13.7-3.7-8.7-12.9-11.6-14-11.9-.4-.1-.9-.2-1.4-.2h-2.3c-.1-.3-.3-.6-.5-.9-.2-.4-6-9-17.5-14.4-19.1-8.8-38.8-2-52.1 5.2-29.3 16.1-36.8 40.6-37.9 58.4-.7 11.5 1 21.5 2.6 27.8-4.1 2.7-6.8 7.3-6.8 12.5zm14.5 4.5c-2.5 0-4.6-2-4.6-4.6 0-1.1.4-2.1 1.1-2.9.7.4 1.6.7 2.5.7.3 0 .5 0 .8-.1 1.1-.2 2.1-.7 2.8-1.5 1.2.8 2 2.2 2 3.8 0 2.6-2.1 4.6-4.6 4.6zm99-82.9c1.5.6 5.5 2.5 7.1 6.1.9 2.2.8 4.9-.4 8.1-12.6.1-55.8 3.1-85 39.7-1.5-.3-3.4-1-4.8-2.6-1.9-2.2-2.6-5.7-1.9-10.5 1.4-2.4 7.1-11.4 18.5-20.2 17.6-13.6 40-20.5 66.5-20.5-.1-.1 0-.1 0-.1zm-99.4 38.9c1.4-22.2 12.4-39.1 32.8-50.2 29-15.9 46.2-4.8 53 1.9-28.6 2.6-47.9 13.2-59.5 22.4-14.9 11.6-20.9 23.4-21.1 23.9-.2.5-.4 1-.5 1.5-.2 1.2-.3 2.3-.4 3.4-1.6 2.6-3 5.2-4.1 7.7-.3-3.3-.4-6.9-.2-10.6z" fill="rgba(5, 59, 103, 1)" stroke="none"/>
  <path d="M212.8 135.1c0-2.8-2.2-5-5-5h-8.7c-2.8 0-5 2.2-5 5s2.2 5 5 5h8.7c2.8 0 5-2.2 5-5z" fill="rgba(5, 59, 103, 1)" stroke="none"/>
  <path d="M185.6 156.6c-2.5 1.2-3.5 4.2-2.2 6.7.1.2.3.7.8 1.4 1 1.5 2.6 2.3 4.2 2.3.9 0 1.9-.3 2.7-.8 2.3-1.5 2.9-4.6 1.4-6.9-.1-.2-.2-.3-.2-.4-1.3-2.6-4.3-3.5-6.7-2.3z" fill="rgba(5, 59, 103, 1)" stroke="none"/>
  <path d="M203.3 168.1c-2.4-1.3-5.5-.4-6.8 2.1-1.3 2.4-.4 5.5 2.1 6.8.5.3 1.1.6 1.6.8.7.3 1.5.5 2.2.5 1.9 0 3.6-1 4.5-2.8 1.2-2.5.2-5.5-2.3-6.7-.4-.3-.9-.5-1.3-.7z" fill="rgba(5, 59, 103, 1)" stroke="none"/>
  <path d="M219.2 173.6c-2.7-.5-5.3 1.2-5.9 3.9-.5 2.7 1.2 5.3 3.9 5.9l1 .2c.3.1.6.1.9.1 2.3 0 4.4-1.7 4.9-4.1.5-2.7-1.3-5.3-4-5.9l-.8-.1z" fill="rgba(5, 59, 103, 1)" stroke="none"/>
  <path d="M220.2 155.3c0 2.8 2.2 5 5 5h58.5c2.8 0 5-2.2 5-5s-2.2-5-5-5h-58.5c-2.8 0-5 2.2-5 5z" fill="rgba(5, 59, 103, 1)" stroke="none"/>
</svg>
</g></svg></g></g>
<!-- /image 29872 -->

<!-- image 61811 -->
<g id="transformed-61811" data-image="61811" transform="translate(156.56925097228003, 148.56925097228003) rotate(320, 23.43074902771996, 23.430749027719962)"><g><svg version="1.1" width="46.86149805543992px" height="46.861498055439924px" viewBox="0 0 46.86149805543992 46.861498055439924"><g id="original-61811"><svg xmlns="http://www.w3.org/2000/svg" viewBox="0 0 400 400" xmlns:xlink="http://www.w3.org/1999/xlink" version="1.1" preserveAspectRatio="xMidYMid meet">
  <path d="M306.8 238.8l-17.2-7.2 18-7.4c2.6-1 3.8-4 2.7-6.5-1-2.6-4-3.8-6.5-2.7l-27.3 11.2-67.5-28.5 56.2-39.4 30.5 6.1c.3.1.7.1 1 .1 2.3 0 4.4-1.6 4.9-4 .5-2.7-1.2-5.3-3.9-5.9l-21.1-4.2 19.3-13.5c2.3-1.6 2.8-4.7 1.2-7-1.6-2.3-4.7-2.8-7-1.2l-18.3 12.8 4.1-20c.6-2.7-1.2-5.3-3.9-5.9-2.7-.6-5.3 1.2-5.9 3.9l-6.2 30.4-56.6 39.7-3.5-69.6 20.6-24c1.8-2.1 1.6-5.2-.5-7.1-2.1-1.8-5.2-1.6-7.1.5l-13.9 16-1.1-21.8c-.1-2.8-2.5-4.9-5.2-4.7-2.8.1-4.9 2.5-4.7 5.2l1.1 21.5-15.7-13.7c-2.1-1.8-5.2-1.6-7.1.5-1.8 2.1-1.6 5.2.5 7.1l23 20 3.6 71.5-65.2-27.4-11.9-28.5c-1.1-2.6-4-3.8-6.5-2.7-2.6 1.1-3.8 4-2.7 6.5l8 19.2-20.4-8.6c-2.5-1.1-5.5.1-6.5 2.7-1.1 2.5.1 5.5 2.7 6.5l20.6 8.6-19.6 8c-2.6 1-3.8 4-2.7 6.5.8 1.9 2.7 3.1 4.6 3.1.6 0 1.3-.1 1.9-.4l28.9-11.8 64.1 26.9-55.6 39-30.7-4.5c-2.7-.4-5.3 1.5-5.7 4.2-.4 2.7 1.5 5.3 4.2 5.7l20.2 2.9-19.2 13.5c-2.3 1.6-2.8 4.7-1.2 7 1 1.4 2.5 2.1 4.1 2.1 1 0 2-.3 2.9-.9l20.3-14.2-3.2 21.3c-.4 2.7 1.5 5.3 4.2 5.7.3 0 .5.1.8.1 2.4 0 4.6-1.8 4.9-4.3l4.6-30.7 55.2-38.7 3.7 73.5-19.1 22.1c-1.8 2.1-1.6 5.2.5 7.1.9.8 2.1 1.2 3.3 1.2 1.4 0 2.8-.6 3.8-1.7l12.3-14.2.9 17.9c.1 2.7 2.3 4.7 5 4.7h.3c2.8-.1 4.9-2.5 4.7-5.2l-1.1-21 17.4 15.2c.9.8 2.1 1.2 3.3 1.2 1.4 0 2.8-.6 3.8-1.7 1.8-2.1 1.6-5.2-.5-7.1l-24.6-21.5s-.1 0-.1-.1l-3.7-72.1 66.3 27.8 12.5 30.1c.8 1.9 2.7 3.1 4.6 3.1.6 0 1.3-.1 1.9-.4 2.6-1.1 3.8-4 2.7-6.5l-8.6-20.8 19.3 8.1c.6.3 1.3.4 1.9.4 2 0 3.8-1.2 4.6-3.1 1-2-.2-5-2.7-6z" fill="rgba(0, 0, 0, 1)" stroke="none"/>
</svg>
</g></svg></g></g>
<!-- /image 61811 -->

<!-- image 82305 -->
<g id="transformed-82305" data-image="82305" transform="translate(-6.231188426986204, 37.76881157301379) rotate(22, 28.231188426986204, 28.231188426986208)"><g><svg version="1.1" width="56.46237685397241px" height="56.462376853972415px" viewBox="0 0 56.46237685397241 56.462376853972415"><g id="original-82305"><svg xmlns="http://www.w3.org/2000/svg" viewBox="0 0 400 400" xmlns:xlink="http://www.w3.org/1999/xlink" version="1.1" preserveAspectRatio="xMidYMid meet">
  <circle cx="201.6" cy="173.8" r="6.4" fill="rgba(202, 48, 48, 1)" stroke="none"/>
  <circle cx="201.6" cy="196" r="6.4" fill="rgba(202, 48, 48, 1)" stroke="none"/>
  <circle cx="201.6" cy="216.7" r="6.4" fill="rgba(202, 48, 48, 1)" stroke="none"/>
  <circle cx="217.2" cy="90" r="6" fill="rgba(202, 48, 48, 1)" stroke="none"/>
  <circle cx="184" cy="90" r="6" fill="rgba(202, 48, 48, 1)" stroke="none"/>
  <path d="M217.2 103c-2.8 0-5 2.2-5 5 0 6.4-5.2 11.6-11.6 11.6-6.4 0-11.6-5.2-11.6-11.6 0-2.8-2.2-5-5-5s-5 2.2-5 5c0 11.9 9.7 21.6 21.6 21.6 11.9 0 21.6-9.7 21.6-21.6 0-2.7-2.2-5-5-5z" fill="rgba(202, 48, 48, 1)" stroke="none"/>
  <path d="M263.7 146.3h-31.2c12.6-9.6 20-24.5 20-40.8 0-28.4-23.1-51.5-51.5-51.5s-51.5 23.1-51.5 51.5c0 16 7.6 31.1 20.1 40.8h-34.1c-15.1 0-27.4 12.3-27.4 27.4 0 15.1 12.3 27.4 27.4 27.4h20.6l-17.9 111.3c-1.2 7.2.6 14.4 4.9 20.4 4.3 5.9 10.6 9.8 17.8 11 7.2 1.2 14.4-.6 20.4-4.9 5.9-4.3 9.8-10.6 11-17.8l7.6-47.1 7.6 47.1c1.2 7.2 5.1 13.5 11 17.8 4.7 3.4 10.3 5.2 16 5.2 1.5 0 2.9-.1 4.4-.4 7.2-1.2 13.5-5.1 17.8-11 4.3-5.9 6-13.2 4.9-20.4l-1.1-6.6c0-.3 0-.6-.1-.8 0-.2-.1-.4-.2-.6L243.6 201h20c15.1 0 27.4-12.3 27.4-27.4 0-15-12.2-27.3-27.3-27.3zm-145.5 27.4c0-8.1 5.6-14.9 13.1-16.8v33.6c-7.6-1.9-13.1-8.7-13.1-16.8zm57.2 157.1c-3.8 2.7-8.4 3.8-12.9 3.1-4.6-.7-8.6-3.2-11.3-7-2.7-3.8-3.8-8.4-3.1-12.9l.5-3.1 34.2 6.2-.4 2.4c-.7 4.5-3.2 8.5-7 11.3zm73.1-3.9c-2.7 3.8-6.7 6.3-11.3 7-4.6.7-9.1-.4-12.9-3.1-3.8-2.7-6.3-6.7-7-11.3l-.3-1.6 34.2-6.2.4 2.3c.7 4.5-.4 9.1-3.1 12.9zm-15.7-130.1l16.9 105-34.2 6.2-10.7-66.3c-.4-2.4-2.5-4.2-4.9-4.2-2.5 0-4.5 1.8-4.9 4.2l-10.5 65.5-34.2-6.2L167 196.8c.2-1.4-.2-2.9-1.1-4-.9-1.1-2.3-1.8-3.8-1.8h-20.8v-34.7h36c2.8 0 5-2.2 5-5v-5.8c0-1.8-.9-3.4-2.4-4.3-12.5-7.5-20.3-21.1-20.3-35.7 0-22.9 18.6-41.5 41.5-41.5s41.5 18.6 41.5 41.5c0 15.8-8.8 30-23 37.1-1.7.8-2.8 2.6-2.8 4.5v4.2c0 2.8 2.2 5 5 5h35.5V191h-19.5c-1.5 0-2.9.6-3.8 1.8-1 1.1-1.5 2.6-1.2 4zm34.4-6.1v-34c7.9 1.6 13.8 8.6 13.8 17 0 8.3-5.9 15.3-13.8 17z" fill="rgba(202, 48, 48, 1)" stroke="none"/>
</svg>
</g></svg></g></g>
<!-- /image 82305 -->

<!-- image 59394 -->
<g id="transformed-59394" data-image="59394" transform="translate(60.981487827787404, 85.98148782778742) rotate(2, 27.018512172212592, 27.01851217221259)"><g><svg version="1.1" width="54.037024344425184px" height="54.03702434442518px" viewBox="0 0 54.037024344425184 54.03702434442518"><g id="original-59394"><svg xmlns="http://www.w3.org/2000/svg" viewBox="0 0 400 400" xmlns:xlink="http://www.w3.org/1999/xlink" version="1.1" preserveAspectRatio="xMidYMid meet">
  <path d="M205.2 215.4l-12.5-1.8-5.6-11.3c-1.6-3.3-4.9-5.3-8.6-5.3-3.7 0-6.9 2-8.6 5.3l-5.6 11.3-12.5 1.8c-3.6.5-6.6 3-7.7 6.5-1.1 3.5-.2 7.2 2.4 9.8l9 8.8-2.1 12.4c-.6 3.6.8 7.2 3.8 9.3 1.7 1.2 3.6 1.8 5.6 1.8 1.5 0 3-.4 4.5-1.1l11.2-5.9 11.2 5.9c3.2 1.7 7.1 1.4 10.1-.7 3-2.2 4.4-5.7 3.8-9.3l-2.1-12.4 9-8.8c2.6-2.6 3.5-6.3 2.4-9.8-1.2-3.4-4.1-5.9-7.7-6.5zm-10.9 18.1c-2.2 2.2-3.3 5.4-2.7 8.4l2 11.8-10.6-5.6c-1.4-.7-2.9-1.1-4.4-1.1-1.5 0-3.1.4-4.4 1.1l-10.6 5.6 2-11.8c.5-3.1-.5-6.3-2.7-8.4l-8.5-8.3 11.8-1.7c3.1-.5 5.8-2.4 7.2-5.2l5.3-10.7 5.3 10.7c1.4 2.8 4.1 4.8 7.2 5.2l11.8 1.7-8.7 8.3z" fill="rgba(52, 181, 158, 1)" stroke="none"/>
  <path d="M168.4 120.4c-2.8.1-4.9 2.4-4.9 5.1.1 2.7 2.3 4.9 5 4.9h.1c5.1-.1 10.3-.2 15.4 0 2.7.1 5.1-2.1 5.1-4.9.1-2.8-2.1-5.1-4.9-5.1-5.1-.1-10.6-.1-15.8 0z" fill="rgba(52, 181, 158, 1)" stroke="none"/>
  <path d="M271.3 152c-3.1 0-6.2.4-9.3 1.1-.6-4.5-1.1-7.4-1.2-8.1-.9-14.5-31.1-20.4-49.2-22.7-2.7-.3-5.2 1.6-5.6 4.3-.3 2.7 1.6 5.2 4.3 5.6 30.5 3.8 40.4 11.3 40.4 13.4 0 1-3.3 5.4-19.4 9.6C217 159 197.6 161 177 161c-20.7 0-40-2.1-54.5-5.8-16.1-4.2-19.4-8.6-19.4-9.6 0-2.3 10.8-10.2 43.9-13.8 2.7-.3 4.7-2.8 4.4-5.5-.3-2.7-2.8-4.7-5.5-4.4-44.4 4.8-52.3 16.3-52.8 23.1-1.2 5.3-10.8 49.1-2.6 89.2 9.6 47 14.2 73.2 14.8 76.6.5 15.6 27.2 24.9 71.6 24.9 45.1 0 72.1-9.4 72.5-25.1.3-3 3.8-32.7 8.6-58.8 4.3 1.5 8.7 2.3 13.3 2.3 24.5 0 44.5-22.9 44.5-51.1 0-28.1-20-51-44.5-51zm0 92.1c-5.1 0-10-1.3-14.6-3.9-1.4-.8-3.1-.8-4.5-.2-1.5.7-2.5 2-2.8 3.6-5.7 29.1-9.8 65.8-9.9 66.1v.6c0 5-15.3 15.4-62.5 15.4-42.5 0-61.6-9-61.6-15.4 0-.3 0-.6-.1-.8 0-.3-4.6-27-14.9-77.3-5.8-28.1-2.1-59 .6-74.8 4.5 2.9 10.8 5.4 19 7.6 15.3 4 35.6 6.1 57 6.1 21.5 0 41.7-2.2 57-6.1 7.9-2.1 14.1-4.5 18.6-7.3.1.9.2 1.7.3 2.7.2 1.6 1.1 2.9 2.5 3.7 1.4.8 3 .9 4.5.3 3.7-1.6 7.6-2.4 11.5-2.4 19 0 34.5 18.4 34.5 41.1-.1 22.6-15.6 41-34.6 41z" fill="rgba(52, 181, 158, 1)" stroke="none"/>
  <path d="M271.3 172.3c-5.1 0-10.1 1.6-14.5 4.8-1.4 1-2.2 2.6-2.1 4.3.9 16 .5 30-1.3 41.7-.3 1.7.4 3.4 1.7 4.6 4.7 3.9 10.2 6 16.1 6 14.9 0 27-13.8 27-30.7.2-16.9-12-30.7-26.9-30.7zm0 51.4c-2.6 0-5.2-.7-7.5-2.1 1.4-11 1.8-23.6 1.1-37.7 2-1 4.2-1.5 6.4-1.5 9.4 0 17 9.3 17 20.7.1 11.4-7.6 20.6-17 20.6z" fill="rgba(52, 181, 158, 1)" stroke="none"/>
  <path d="M152.6 126.9c1.6 8.3 0 14.2 0 14.3-.8 2.6.7 5.4 3.4 6.2.5.1 1 .2 1.4.2 2.2 0 4.1-1.4 4.8-3.6.1-.3 2.4-8.1.2-19.1-1.5-7.8-4.9-15.3-10-22.3-9.2-12.6 5.7-30.7 5.8-30.8 1.8-2.1 1.5-5.3-.6-7-2.1-1.8-5.3-1.5-7 .6-.2.2-5 5.9-8.2 13.8-4.6 11.2-3.9 21.3 2 29.3 4.2 5.9 7 12.1 8.2 18.4z" fill="rgba(52, 181, 158, 1)" stroke="none"/>
  <path d="M184.7 108.6c12.4 17 8.4 31.9 8.2 32.6-.8 2.6.7 5.4 3.4 6.2.5.1 1 .2 1.4.2 2.2 0 4.1-1.4 4.8-3.6.2-.8 5.8-20.1-9.8-41.4-9.2-12.6 5.7-30.7 5.8-30.8 1.8-2.1 1.5-5.3-.6-7-2.1-1.8-5.3-1.5-7 .6-.2.2-5 5.9-8.2 13.8-4.5 11.3-3.8 21.4 2 29.4z" fill="rgba(52, 181, 158, 1)" stroke="none"/>
  <path d="M170.4 110.7c1 0 2.1-.3 2.9-1 2.2-1.6 2.7-4.8 1.1-7-9.2-12.6 5.7-30.7 5.8-30.8 1.8-2.1 1.5-5.3-.6-7-2.1-1.8-5.3-1.5-7 .6-.2.2-5 5.9-8.2 13.8-4.6 11.2-3.9 21.3 2 29.3.9 1.4 2.4 2.1 4 2.1z" fill="rgba(52, 181, 158, 1)" stroke="none"/>
</svg>
</g></svg></g></g>
<!-- /image 59394 -->

<!-- image 22006 -->
<g id="transformed-22006" data-image="22006" transform="translate(36.48527154325569, 174.1505667587208) rotate(49, 16.514728456744304, 19.849433241279208)"><g><svg version="1.1" width="33.02945691348861px" height="39.698866482558415px" viewBox="0 0 33.02945691348861 39.698866482558415"><g id="original-22006"><svg xmlns="http://www.w3.org/2000/svg" viewBox="0 0 40 48" xmlns:xlink="http://www.w3.org/1999/xlink" version="1.1" preserveAspectRatio="xMidYMid meet">
  <path fill-rule="evenodd" d="M21.407 1.667c-2.959 1.247-4.003 5.474-4.003 5.474s3.754 2.203 6.713.956c2.959-1.247 4.003-5.473 4.003-5.473S24.366.42 21.407 1.667" fill="rgba(255, 255, 255, 1)" stroke="none"/>
  <path fill-rule="evenodd" d="M24.287 4.547c-2.959 1.247-4.003 5.473-4.003 5.473s3.754 2.204 6.713.957C29.956 9.73 31 5.503 31 5.503s-3.754-2.203-6.713-.956" fill="rgba(45, 176, 141, 1)" stroke="none"/>
  <path fill-rule="evenodd" d="M18.49 6.683c1.1.507 3.428 1.364 5.278.585 1.849-.78 2.861-3.044 3.266-4.187-1.1-.507-3.428-1.363-5.277-.585-1.85.78-2.861 3.045-3.267 4.187zm3.604 2.695c-2.618 0-5.016-1.385-5.146-1.461a.9.9 0 0 1-.418-.992c.047-.191 1.191-4.681 4.528-6.087 3.334-1.405 7.349.91 7.518 1.009a.902.902 0 0 1 .419.993c-.048.19-1.192 4.68-4.529 6.086-.772.326-1.582.452-2.372.452z" fill="rgba(103, 26, 29, 1)" stroke="none"/>
  <path fill-rule="evenodd" d="M18.335 44.315a.982.982 0 0 0 1.103 0c3.345-2.266 15.165-2.791 17.169-15.346 2.271-14.225-9.812-21.992-17.721-14.992-7.908-7-19.991.767-17.72 14.992C3.17 41.524 14.99 42.049 18.335 44.315" fill="rgba(255, 255, 255, 1)" stroke="none"/>
  <path fill-rule="evenodd" d="M21.214 47.196a.987.987 0 0 0 1.104 0c3.345-2.267 15.165-2.792 17.169-15.347 2.271-14.225-9.812-21.992-17.721-14.992-7.908-7-19.991.767-17.72 14.992C6.05 44.404 17.87 44.929 21.214 47.196" fill="rgba(241, 169, 109, 1)" stroke="none"/>
  <path fill-rule="evenodd" d="M18.839 43.57c.029.02.067.02.095 0 .877-.594 2.185-1.051 3.699-1.58 4.91-1.716 11.633-4.067 13.086-13.163 1.315-8.244-2.397-13.464-5.976-15.43-3.415-1.876-7.252-1.407-10.26 1.254a.899.899 0 0 1-1.193 0c-3.007-2.662-6.843-3.131-10.26-1.254-3.579 1.966-7.291 7.186-5.976 15.431 1.453 9.095 8.176 11.446 13.085 13.162 1.515.529 2.823.986 3.7 1.58zm.047 1.817c-.367 0-.735-.109-1.056-.326v-.001c-.683-.462-1.889-.883-3.284-1.371C9.815 42.035 1.898 39.268.277 29.111c-1.205-7.545 1.499-14.333 6.886-17.292 3.829-2.102 8.254-1.71 11.723.989 3.468-2.699 7.896-3.092 11.724-.989 5.387 2.959 8.09 9.747 6.886 17.292-1.621 10.157-9.539 12.924-14.269 14.578-1.395.488-2.601.909-3.284 1.371a1.878 1.878 0 0 1-1.057.327z" fill="rgba(103, 26, 29, 1)" stroke="none"/>
  <path fill-rule="evenodd" d="M18.886 36.745c-3.14 0-7.123-4.153-7.123-8.82 0-2.606.608-4.789 1.759-6.313a.9.9 0 1 1 1.437 1.084c-.913 1.21-1.396 3.018-1.396 5.229 0 4.056 3.501 7.02 5.323 7.02 1.823 0 5.324-2.964 5.324-7.02 0-2.622-.691-7.02-5.324-7.02a.9.9 0 0 1 0-1.8c4.461 0 7.124 3.297 7.124 8.82 0 4.667-3.983 8.82-7.124 8.82" fill="rgba(103, 26, 29, 1)" stroke="none"/>
  <path fill-rule="evenodd" d="M20.385 30.855a.9.9 0 0 1-.869-1.134 6.949 6.949 0 0 0 .239-1.796c0-1.058-.111-2.032-.331-2.897a.9.9 0 1 1 1.743-.444c.258 1.009.388 2.133.388 3.341 0 .755-.101 1.517-.301 2.263a.901.901 0 0 1-.869.667" fill="rgba(103, 26, 29, 1)" stroke="none"/>
  <path fill-rule="evenodd" d="M12.367 2.485a.895.895 0 0 1-.495-.149 6.5 6.5 0 0 0-.433-.262.9.9 0 0 1 .866-1.578c.179.098.366.211.558.338a.9.9 0 0 1-.496 1.651" fill="rgba(103, 26, 29, 1)" stroke="none"/>
  <path fill-rule="evenodd" d="M18.945 14.877a.9.9 0 0 1-.9-.9c0-4.828-2.79-8.407-3.99-9.722a.9.9 0 0 1 1.33-1.214c1.341 1.47 4.46 5.478 4.46 10.936a.9.9 0 0 1-.9.9" fill="rgba(103, 26, 29, 1)" stroke="none"/>
</svg>
</g></svg></g></g>
<!-- /image 22006 -->

<!-- image 20950 -->
<g id="transformed-20950" data-image="20950" transform="translate(197.10895560563634, 86.43978022143897) rotate(344, 10.89104439436365, 14.560219778561036)"><g><svg version="1.1" width="21.7820887887273px" height="29.120439557122072px" viewBox="0 0 21.7820887887273 29.120439557122072"><g id="original-20950"><svg xmlns="http://www.w3.org/2000/svg" viewBox="0 0 48 64" xmlns:xlink="http://www.w3.org/1999/xlink" version="1.1" preserveAspectRatio="xMidYMid meet">
  <rect width="48" height="64" fill-rule="evenodd" rx="6" fill="rgba(143, 203, 57, 1)" stroke="none"/>
  <rect width="40" height="36" x="4" y="4" fill-rule="evenodd" rx="4" fill="rgba(103, 145, 43, 1)" stroke="none"/>
  <path fill-rule="evenodd" d="M16 49v-2a2 2 0 1 0-4 0v2h-2a2 2 0 1 0 0 4h2v2a2 2 0 1 0 4 0v-2h2a2 2 0 1 0 0-4h-2z" fill="rgba(92, 109, 68, 1)" stroke="none"/>
  <path fill-rule="evenodd" d="M40.657 46.343a4 4 0 0 1 0 5.657L36 56.657A4 4 0 0 1 30.343 51L35 46.343a4 4 0 0 1 5.657 0z" fill="rgba(92, 109, 68, 1)" stroke="none"/>
  <path fill-rule="evenodd" d="M38 47a2 2 0 1 1 0 4 2 2 0 0 1 0-4zm-5 5a2 2 0 1 1 0 4 2 2 0 0 1 0-4z" fill="rgba(0, 0, 0, 1)" stroke="none"/>
</svg>
</g></svg></g></g>
<!-- /image 20950 -->
</defs><rect x="0" y="0" width="250" height="250" fill="rgba(255, 255, 255, 0)"></rect><use xlink:href="#transformed-60185" transform="translate(-250, -250)"></use><use xlink:href="#transformed-60185" transform="translate(0, -250)"></use><use xlink:href="#transformed-60185" transform="translate(250, -250)"></use><use xlink:href="#transformed-60185" transform="translate(-250, 0)"></use><use xlink:href="#transformed-60185" transform="translate(0, 0)"></use><use xlink:href="#transformed-60185" transform="translate(250, 0)"></use><use xlink:href="#transformed-60185" transform="translate(-250, 250)"></use><use xlink:href="#transformed-60185" transform="translate(0, 250)"></use><use xlink:href="#transformed-60185" transform="translate(250, 250)"></use><use xlink:href="#transformed-33846" transform="translate(-250, -250)"></use><use xlink:href="#transformed-33846" transform="translate(0, -250)"></use><use xlink:href="#transformed-33846" transform="translate(250, -250)"></use><use xlink:href="#transformed-33846" transform="translate(-250, 0)"></use><use xlink:href="#transformed-33846" transform="translate(0, 0)"></use><use xlink:href="#transformed-33846" transform="translate(250, 0)"></use><use xlink:href="#transformed-33846" transform="translate(-250, 250)"></use><use xlink:href="#transformed-33846" transform="translate(0, 250)"></use><use xlink:href="#transformed-33846" transform="translate(250, 250)"></use><use xlink:href="#transformed-29872" transform="translate(-250, -250)"></use><use xlink:href="#transformed-29872" transform="translate(0, -250)"></use><use xlink:href="#transformed-29872" transform="translate(250, -250)"></use><use xlink:href="#transformed-29872" transform="translate(-250, 0)"></use><use xlink:href="#transformed-29872" transform="translate(0, 0)"></use><use xlink:href="#transformed-29872" transform="translate(250, 0)"></use><use xlink:href="#transformed-29872" transform="translate(-250, 250)"></use><use xlink:href="#transformed-29872" transform="translate(0, 250)"></use><use xlink:href="#transformed-29872" transform="translate(250, 250)"></use><use xlink:href="#transformed-61811" transform="translate(-250, -250)"></use><use xlink:href="#transformed-61811" transform="translate(0, -250)"></use><use xlink:href="#transformed-61811" transform="translate(250, -250)"></use><use xlink:href="#transformed-61811" transform="translate(-250, 0)"></use><use xlink:href="#transformed-61811" transform="translate(0, 0)"></use><use xlink:href="#transformed-61811" transform="translate(250, 0)"></use><use xlink:href="#transformed-61811" transform="translate(-250, 250)"></use><use xlink:href="#transformed-61811" transform="translate(0, 250)"></use><use xlink:href="#transformed-61811" transform="translate(250, 250)"></use><use xlink:href="#transformed-82305" transform="translate(-250, -250)"></use><use xlink:href="#transformed-82305" transform="translate(0, -250)"></use><use xlink:href="#transformed-82305" transform="translate(250, -250)"></use><use xlink:href="#transformed-82305" transform="translate(-250, 0)"></use><use xlink:href="#transformed-82305" transform="translate(0, 0)"></use><use xlink:href="#transformed-82305" transform="translate(250, 0)"></use><use xlink:href="#transformed-82305" transform="translate(-250, 250)"></use><use xlink:href="#transformed-82305" transform="translate(0, 250)"></use><use xlink:href="#transformed-82305" transform="translate(250, 250)"></use><use xlink:href="#transformed-59394" transform="translate(-250, -250)"></use><use xlink:href="#transformed-59394" transform="translate(0, -250)"></use><use xlink:href="#transformed-59394" transform="translate(250, -250)"></use><use xlink:href="#transformed-59394" transform="translate(-250, 0)"></use><use xlink:href="#transformed-59394" transform="translate(0, 0)"></use><use xlink:href="#transformed-59394" transform="translate(250, 0)"></use><use xlink:href="#transformed-59394" transform="translate(-250, 250)"></use><use xlink:href="#transformed-59394" transform="translate(0, 250)"></use><use xlink:href="#transformed-59394" transform="translate(250, 250)"></use><use xlink:href="#transformed-22006" transform="translate(-250, -250)"></use><use xlink:href="#transformed-22006" transform="translate(0, -250)"></use><use xlink:href="#transformed-22006" transform="translate(250, -250)"></use><use xlink:href="#transformed-22006" transform="translate(-250, 0)"></use><use xlink:href="#transformed-22006" transform="translate(0, 0)"></use><use xlink:href="#transformed-22006" transform="translate(250, 0)"></use><use xlink:href="#transformed-22006" transform="translate(-250, 250)"></use><use xlink:href="#transformed-22006" transform="translate(0, 250)"></use><use xlink:href="#transformed-22006" transform="translate(250, 250)"></use><use xlink:href="#transformed-20950" transform="translate(-250, -250)"></use><use xlink:href="#transformed-20950" transform="translate(0, -250)"></use><use xlink:href="#transformed-20950" transform="translate(250, -250)"></use><use xlink:href="#transformed-20950" transform="translate(-250, 0)"></use><use xlink:href="#transformed-20950" transform="translate(0, 0)"></use><use xlink:href="#transformed-20950" transform="translate(250, 0)"></use><use xlink:href="#transformed-20950" transform="translate(-250, 250)"></use><use xlink:href="#transformed-20950" transform="translate(0, 250)"></use><use xlink:href="#transformed-20950" transform="translate(250, 250)"></use></svg>