<svg xmlns="http://www.w3.org/2000/svg" xmlns:xlink="http://www.w3.org/1999/xlink" xmlns:fi="http://pattern.flaticon.com/" x="0" y="0" width="1980" height="990" viewBox="0 0 1935.754189944134 967.877094972067"><rect x="0px" y="0px" width="100%" height="100%" opacity="0" fill="#ffffff"/><defs><g transform="matrix(0.05860840156674385 0 0 0.05860840156674385 335 160)" id="L1_183"><path d="M436.452,358.027l-75.047-14.023c-0.484-0.086-0.977-0.133-1.469-0.133h-208    c-0.492,0-0.984,0.047-1.469,0.133l-75.726,14.187c-38.609,10.813-58.805,48.844-58.805,80.828v43.836    c0,16,14.352,29.016,32,29.016h416c17.648,0,32-13.016,32-29.016v-43.836C495.936,407.035,475.741,369.004,436.452,358.027z" fill="#996459"/><path d="M294.712,511.871l-14.885-89.312c-0.641-3.859-3.977-6.688-7.891-6.688h-32    c-3.914,0-7.25,2.828-7.891,6.688l-14.885,89.312L294.712,511.871L294.712,511.871z" fill="#4bb9ec"/><path d="M239.936,415.871c-2.044,0-3.903,0.799-5.331,2.086l53.346,53.351l-4.525-27.151l-28.283-28.286    H239.936z" fill="#009bca"/><path d="M287.882,376.019c-0.008-4.414-3.586-7.984-8-7.984h-40c-3.031,0-5.797,1.711-7.156,4.422l-8,16    c-0.563,1.117-0.852,2.352-0.844,3.609l0.055,15.812c0,13.227,10.766,23.992,24,23.992h16c13.234,0,24-10.766,24-24.016    L287.882,376.019z" fill="#3482ac"/><path d="M259.78,345.051l-71.945-40.164c-3.492-1.961-7.883-1.008-10.281,2.164l-30.195,40    c-2.063,2.734-2.164,6.477-0.242,9.305l48.773,71.992c2.688,3.961,6.961,6.492,11.719,6.945c0.516,0.047,1.031,0.07,1.539,0.07    c4.219,0,8.266-1.656,11.289-4.672c0.203-0.203,0.398-0.422,0.578-0.648l33.148-41.156c0.359-0.438,0.672-0.922,0.922-1.43    l7.945-15.836c0.563-1.109,0.852-2.344,0.852-3.586v-16C263.882,349.137,262.311,346.465,259.78,345.051z" fill="#b4b6bc"/><path d="M251.983,345.051l71.945-40.164c3.492-1.961,7.883-1.008,10.281,2.164l30.195,40    c2.063,2.734,2.164,6.477,0.242,9.305l-48.773,71.992c-2.688,3.961-6.961,6.492-11.719,6.945c-0.516,0.047-1.031,0.07-1.539,0.07    c-4.219,0-8.266-1.656-11.289-4.672c-0.203-0.203-0.398-0.422-0.578-0.648l-33.147-41.156c-0.359-0.438-0.672-0.922-0.922-1.43    l-7.945-15.836c-0.563-1.109-0.852-2.344-0.852-3.586v-16C247.882,349.137,249.452,346.465,251.983,345.051z" fill="#b4b6bc"/><path d="M367.882,152.035l-15.781-16c0,0-54.219-14.667-168.219,0l-48,16c0,11,0,17.55,0,56    c0,79.529,53.726,144,120,144s120-64.471,120-144c0-12.906,0-37.5,0-56C373.811,154.349,367.882,152.035,367.882,152.035z" fill="#ffdcad"/><circle cx="207" cy="208" r="32" fill="#aeefff"/><path d="M207.936,176.035c-8.78,0-16.726,3.547-22.507,9.273l45.234,45.234    c5.727-5.782,9.273-13.727,9.273-22.507C239.936,190.362,225.61,176.035,207.936,176.035z" fill="#ffffff"/><circle cx="303" cy="208" r="32" fill="#aeefff"/><path d="M303.936,176.035c-8.78,0-16.726,3.547-22.507,9.273l45.234,45.234    c5.727-5.782,9.273-13.727,9.273-22.507C335.936,190.362,321.61,176.035,303.936,176.035z" fill="#ffffff"/><path d="M272.101,216.035c-4.422,0-8-3.578-8-8c0-4.414-3.586-8-8-8s-8,3.586-8,8c0,4.422-3.578,8-8,8     s-8-3.578-8-8c0-13.234,10.766-24,24-24c13.234,0,24,10.766,24,24C280.101,212.457,276.522,216.035,272.101,216.035z" fill="#5c546a"/><path d="M176.101,208.035h-40.219c-4.422,0-8-3.578-8-8s3.578-8,8-8h40.219c4.422,0,8,3.578,8,8     S180.522,208.035,176.101,208.035z" fill="#5c546a"/><path d="M375.882,208.035h-39.781c-4.422,0-8-3.578-8-8s3.578-8,8-8h39.781c4.422,0,8,3.578,8,8     S380.304,208.035,375.882,208.035z" fill="#5c546a"/><path d="M208.101,248.035c-22.055,0-40-17.945-40-40s17.945-40,40-40s40,17.945,40,40     S230.155,248.035,208.101,248.035z M208.101,184.035c-13.234,0-24,10.766-24,24s10.766,24,24,24s24-10.766,24-24     C232.101,194.801,221.335,184.035,208.101,184.035z" fill="#868491"/><path d="M304.101,248.035c-22.055,0-40-17.945-40-40s17.945-40,40-40s40,17.945,40,40     S326.155,248.035,304.101,248.035z M304.101,184.035c-13.234,0-24,10.766-24,24s10.766,24,24,24s24-10.766,24-24     C328.1,194.801,317.335,184.035,304.101,184.035z" fill="#868491"/><path d="M221.827,282.629c-4.336,0-8.594-1.406-12.102-5.711c-2.781-3.43-2.266-8.469,1.164-11.258     c3.438-2.781,8.469-2.266,11.258,1.164c0.828,0.125,5.125-1.367,7.914-2.32c8.367-2.852,19.828-6.766,30.516,0.852     c3.602,2.563,4.438,7.555,1.875,11.156c-2.563,3.586-7.555,4.43-11.156,1.875c-3.727-2.664-8.562-1.297-16.078,1.266     C231.233,281.012,226.491,282.629,221.827,282.629z" fill="#ffffff"/><path d="M290.046,282.629c-4.656,0-9.406-1.617-13.391-2.977c-7.523-2.555-12.359-3.93-16.078-1.266     c-3.594,2.57-8.594,1.719-11.156-1.875c-2.563-3.602-1.727-8.594,1.875-11.156c10.672-7.602,22.148-3.703,30.516-0.852     c2.789,0.953,6.992,2.461,8.328,2.102c2.781-3.422,7.609-3.836,11.047-1.055c3.43,2.781,3.742,7.93,0.961,11.359     C298.647,281.223,294.382,282.629,290.046,282.629z" fill="#ffffff"/><path d="M287.874,303.371c-0.266-4.219-3.758-7.5-7.984-7.5h-47.906c-4.227,0-7.719,3.281-7.984,7.5    c-0.148,2.391-3.359,59,25.82,93.656c1.516,1.805,3.758,2.844,6.117,2.844s4.602-1.039,6.117-2.844    C291.233,362.371,288.022,305.762,287.874,303.371z" fill="#ffffff"/><path d="M415.936,207.871c-4.422,0-8-3.578-8-8v-95.383c0-4.422,3.578-8,8-8s8,3.578,8,8v95.383     C423.936,204.293,420.358,207.871,415.936,207.871z" fill="#5c546a"/><path d="M441.936,60.324L279.21,4.535c-17.617-6.047-37.047-6.047-54.68,0L61.804,60.324    c-8.508,2.922-14,10.609-14,19.602s5.492,16.68,14,19.602l79.57,27.281c0.836,0.281,1.711,0.43,2.594,0.43c0.031,0,0.07,0,0.102,0    l223.969-2.797c0.844-0.008,1.688-0.156,2.492-0.43l71.406-24.484c8.508-2.922,14-10.609,14-19.602S450.444,63.246,441.936,60.324    z" fill="#5c546a"/><g><path d="M228.498,141.195c8.483-0.616,17.577-0.996,27.439-0.996c9.862,0,18.956,0.379,27.439,0.996     c32.577,1.882,71.284,7.267,92.561,18.84v-64c0-27.484-62.203-40-120-40s-120,12.516-120,40v64     C157.214,148.461,195.92,143.077,228.498,141.195z" fill="#5d647f"/><path d="M255.936,100.363c-34.716,0-92.229,4.566-120,19.672v20.328c0-6.969,42.055-24,120-24     s120,17.031,120,24v-20.328C348.166,104.93,290.653,100.363,255.936,100.363z" fill="#5c546a"/><path d="M255.936,56.035c-0.018,0-0.037,0.001-0.055,0.001V140.2c0.019,0,0.036-0.001,0.055-0.001     c9.862,0,18.956,0.379,27.439,0.996c32.577,1.882,71.284,7.267,92.561,18.84v-64C375.936,68.551,313.733,56.035,255.936,56.035z" fill="#68748d"/><path d="M255.882,100.364v16c0.019,0,0.036-0.001,0.055-0.001c77.945,0,120,17.031,120,24v-20.328     c-27.771-15.105-85.284-19.672-120-19.672C255.919,100.363,255.899,100.364,255.882,100.364z" fill="#5d647f"/></g><path d="M423.882,256.035h-16c-4.418,0-8-3.582-8-8v-32c0-8.837,7.163-16,16-16l0,0c8.837,0,16,7.163,16,16    v32C431.882,252.453,428.3,256.035,423.882,256.035z" fill="#ffe671"/><path d="M399.882,216.035v32c0,4.418,3.582,8,8,8h8v-56C407.045,200.035,399.882,207.198,399.882,216.035z" fill="#ffcd00"/><path d="M95.938,458.382c0-16.974-6.743-33.252-18.745-45.255L41.667,377.6    c-16.948,16.802-25.73,40.394-25.73,61.419v43.836c0,16,14.352,29.016,32,29.016h48.002v-53.489H95.938z" fill="#b4b6bc"/><path d="M470.136,377.676l-35.451,35.452c-12.003,12.002-18.746,28.281-18.746,45.255v53.489h47.998    c17.648,0,32-13.016,32-29.016V439.02C495.936,418.045,487.194,394.516,470.136,377.676z" fill="#b4b6bc"/><path d="M229.159,439.882 225.926,459.275 278.517,511.871 294.712,511.871 293.427,504.156z" fill="#009bca"/><path d="M218.784,502.132 228.522,511.871 251.147,511.871 222.016,482.739z" fill="#009bca"/></g><path d="M165,0C74.019,0,0,74.019,0,165s74.019,165,165,165c90.982,0,165-74.019,165-165S255.982,0,165,0z" transform="matrix(0.03030303120613098 0 0 0.03030303120613098 257.5 257.5)" id="L1_184" fill="#f27140"/><g transform="matrix(0.1458333283662796 0 0 0.1458333283662796 140 140)" id="L1_185"><circle cx="240" cy="240" r="240" fill="#ff9100"/><path d="M240,480c66.274,0,126.274-26.862,169.706-70.294L70.294,70.294C26.862,113.726,0,173.726,0,240    C0,372.548,107.452,480,240,480z" fill="#ff4f19"/><path d="M328.203,248h151.594c0.088-2.662,0.203-5.317,0.203-8s-0.115-5.338-0.203-8H328.203    c2.239-65.623,31.862-124.404,77.758-165.276c-3.865-3.703-7.831-7.299-11.936-10.739C345.596,99.739,314.429,162.267,312.203,232    h-63.984V0.208C245.485,0.116,242.756,0,240,0c-2.61,0-5.192,0.114-7.781,0.197V232h-56.422    c-2.284-71.554-35.035-135.525-85.647-179.405c-4.219,3.378-8.343,6.868-12.323,10.519c48.277,40.98,79.664,101.29,81.971,168.887    H0.203C0.115,234.662,0,237.317,0,240s0.115,5.338,0.203,8h159.595c-2.307,67.597-33.693,127.906-81.971,168.887    c3.979,3.65,8.104,7.14,12.323,10.519c50.613-43.88,83.363-107.852,85.647-179.405h56.422v231.803    C234.808,479.886,237.39,480,240,480c2.756,0,5.485-0.116,8.219-0.208V248h63.984c2.226,69.733,33.393,132.261,81.822,176.015    c4.104-3.44,8.07-7.036,11.936-10.739C360.064,372.404,330.442,313.622,328.203,248z" fill="#74829c"/><g><path d="M394.025,424.015l0.007-0.006c4.099-3.435,8.059-7.025,11.918-10.723     c0.003-0.003,0.007-0.007,0.011-0.01c-16.007-14.254-29.977-30.727-41.553-48.868l-35.923-35.923     C342.621,365.33,365.238,398.007,394.025,424.015z" fill="#5c546a"/><path d="M248.219,248.219L232,232h-56.203c-0.756-23.692-4.917-46.523-11.896-68.099l-29.549-29.549     c15.161,29.475,24.248,62.563,25.445,97.648H0.203C0.115,234.662,0,237.317,0,240s0.115,5.338,0.203,8h159.595     c-2.307,67.597-33.693,127.906-81.971,168.887c3.977,3.648,8.099,7.136,12.316,10.513c0,0,0.005,0.003,0.007,0.005     c50.613-43.88,83.363-107.851,85.647-179.405h56.422v231.803C234.808,479.886,237.39,480,240,480     c2.756,0,5.485-0.116,8.219-0.208V248.219z" fill="#5c546a"/></g></g><g transform="matrix(0.09761430323123932 0 0 0.09761430323123932 150 325)" id="L1_186"><path d="M0,244.11v-82.746c0-10.604,4.212-20.773,11.709-28.271l22.635-22.639     c3.125-3.125,8.187-3.125,11.312,0c3.125,3.121,3.125,8.188,0,11.312l-22.625,22.633C18.529,148.903,16,155.01,16,161.378v58.732     c0,4.418,3.582,8,8,8h40c3.031,0,5.797,1.711,7.156,4.422c1.352,2.711,1.063,5.953-0.758,8.379l-24,32     c-1.51,2.014-3.881,3.199-6.398,3.199h-8C14.327,276.11,0,261.783,0,244.11z" fill="#5c546a"/><path d="M376,204.11c-52.935,0-96,43.065-96,96s43.065,96,96,96s96-43.065,96-96S428.935,204.11,376,204.11    z" fill="#aeefff"/><path d="M395.891,248.22c-17.645,0-32,14.355-32,32s14.355,32,32,32s32-14.355,32-32    S413.535,248.22,395.891,248.22z" fill="#ffffff"/><path d="M136.219,204.11c-52.935,0-96,43.065-96,96s43.065,96,96,96s96-43.065,96-96    S189.153,204.11,136.219,204.11z" fill="#aeefff"/><path d="M284.219,280.11c-4.422,0-8-3.582-8-8c0-11.027-8.969-20-20-20s-20,8.973-20,20     c0,4.418-3.578,8-8,8s-8-3.582-8-8c0-19.852,16.148-36,36-36s36,16.148,36,36C292.219,276.528,288.641,280.11,284.219,280.11z" fill="#5c546a"/><path d="M480.219,276.11h-8c-2.517,0-4.888-1.185-6.398-3.199l-24-32c-1.82-2.426-2.109-5.668-0.758-8.379     c1.359-2.711,4.125-4.422,7.156-4.422h40c4.418,0,8-3.582,8-8v-58.732c0-6.368-2.529-12.475-7.031-16.979l-22.625-22.633     c-3.125-3.125-3.125-8.191,0-11.312c3.125-3.125,8.188-3.125,11.313,0l22.635,22.639c7.497,7.499,11.709,17.668,11.709,28.271     v82.746C512.219,261.783,497.892,276.11,480.219,276.11z" fill="#5c546a"/><path d="M136.219,404.11c-57.344,0-104-46.652-104-104s46.656-104,104-104s104,46.652,104,104     S193.562,404.11,136.219,404.11z M136.219,212.11c-48.523,0-88,39.477-88,88s39.477,88,88,88s88-39.477,88-88     S184.742,212.11,136.219,212.11z" fill="#868491"/><path d="M376.219,404.11c-57.344,0-104-46.652-104-104s46.656-104,104-104s104,46.652,104,104     S433.562,404.11,376.219,404.11z M376.219,212.11c-48.523,0-88,39.477-88,88s39.477,88,88,88s88-39.477,88-88     S424.742,212.11,376.219,212.11z" fill="#868491"/><path d="M156.109,248.22c-17.645,0-32,14.355-32,32s14.355,32,32,32s32-14.355,32-32    S173.754,248.22,156.109,248.22z" fill="#ffffff"/></g><g transform="matrix(0.17578125 0 0 0.17578125 305 305)" id="L1_187"><path d="M448,112h-16c-30.875,0-56-25.121-56-56c0-22.055-17.945-40-40-40h-56c-39.703,0-72,32.301-72,72     c0,4.418-3.578,8-8,8s-8-3.582-8-8c0-48.523,39.477-88,88-88h56c30.875,0,56,25.121,56,56c0,22.055,17.945,40,40,40h16     c4.422,0,8,3.582,8,8S452.422,112,448,112z" fill="#5c546a"/><path d="M256,80H144c-48.523,0-88,39.477-88,88v200c0,79.402,64.602,144,144,144s144-64.598,144-144V168    C344,119.477,304.523,80,256,80z" fill="#868491"/><path d="M256,80h-56.219v431.989c0.074,0,0.145,0.011,0.219,0.011c79.398,0,144-64.598,144-144V168    C344,119.477,304.523,80,256,80z" fill="#b4b6bc"/><path d="M304,94.339C290.181,85.303,273.708,80,256,80H144c-17.708,0-34.181,5.303-48,14.339V232    c0,30.879,25.125,56,56,56h96c30.875,0,56-25.121,56-56V94.339z" fill="#5c546a"/><path d="M199.781,80v208H248c30.875,0,56-25.121,56-56V94.339C290.181,85.303,273.708,80,256,80H199.781z" fill="#868491"/><path d="M200,224L200,224c-8.837,0-16-7.163-16-16v-48c0-8.837,7.163-16,16-16l0,0c8.837,0,16,7.163,16,16    v48C216,216.836,208.837,224,200,224z" fill="#b4b6bc"/><path d="M200,144c-0.075,0-0.145,0.021-0.219,0.022v79.956c0.075,0.001,0.144,0.022,0.219,0.022    c8.836,0,16-7.164,16-16v-48C216,151.163,208.837,144,200,144z" fill="#ffffff"/></g></defs><g fi:class="KUsePattern"><pattern id="pattern_L1_183" width="350" height="350" patternUnits="userSpaceOnUse"><use xlink:href="#L1_183" x="-350" y="-350"/><use xlink:href="#L1_183" x="0" y="-350"/><use xlink:href="#L1_183" x="350" y="-350"/><use xlink:href="#L1_183" x="-350" y="0"/><use xlink:href="#L1_183" x="0" y="0"/><use xlink:href="#L1_183" x="350" y="0"/><use xlink:href="#L1_183" x="-350" y="350"/><use xlink:href="#L1_183" x="0" y="350"/><use xlink:href="#L1_183" x="350" y="350"/></pattern><rect x="0" y="0" width="100%" height="100%" fill="url(#pattern_L1_183)"/></g><g fi:class="KUsePattern"><pattern id="pattern_L1_184" width="350" height="350" patternUnits="userSpaceOnUse"><use xlink:href="#L1_184" x="-350" y="-350"/><use xlink:href="#L1_184" x="0" y="-350"/><use xlink:href="#L1_184" x="350" y="-350"/><use xlink:href="#L1_184" x="-350" y="0"/><use xlink:href="#L1_184" x="0" y="0"/><use xlink:href="#L1_184" x="350" y="0"/><use xlink:href="#L1_184" x="-350" y="350"/><use xlink:href="#L1_184" x="0" y="350"/><use xlink:href="#L1_184" x="350" y="350"/></pattern><rect x="0" y="0" width="100%" height="100%" fill="url(#pattern_L1_184)"/></g><g fi:class="KUsePattern"><pattern id="pattern_L1_185" width="350" height="350" patternUnits="userSpaceOnUse"><use xlink:href="#L1_185" x="-350" y="-350"/><use xlink:href="#L1_185" x="0" y="-350"/><use xlink:href="#L1_185" x="350" y="-350"/><use xlink:href="#L1_185" x="-350" y="0"/><use xlink:href="#L1_185" x="0" y="0"/><use xlink:href="#L1_185" x="350" y="0"/><use xlink:href="#L1_185" x="-350" y="350"/><use xlink:href="#L1_185" x="0" y="350"/><use xlink:href="#L1_185" x="350" y="350"/></pattern><rect x="0" y="0" width="100%" height="100%" fill="url(#pattern_L1_185)"/></g><g fi:class="KUsePattern"><pattern id="pattern_L1_186" width="350" height="350" patternUnits="userSpaceOnUse"><use xlink:href="#L1_186" x="-350" y="-350"/><use xlink:href="#L1_186" x="0" y="-350"/><use xlink:href="#L1_186" x="350" y="-350"/><use xlink:href="#L1_186" x="-350" y="0"/><use xlink:href="#L1_186" x="0" y="0"/><use xlink:href="#L1_186" x="350" y="0"/><use xlink:href="#L1_186" x="-350" y="350"/><use xlink:href="#L1_186" x="0" y="350"/><use xlink:href="#L1_186" x="350" y="350"/></pattern><rect x="0" y="0" width="100%" height="100%" fill="url(#pattern_L1_186)"/></g><g fi:class="KUsePattern"><pattern id="pattern_L1_187" width="350" height="350" patternUnits="userSpaceOnUse"><use xlink:href="#L1_187" x="-350" y="-350"/><use xlink:href="#L1_187" x="0" y="-350"/><use xlink:href="#L1_187" x="350" y="-350"/><use xlink:href="#L1_187" x="-350" y="0"/><use xlink:href="#L1_187" x="0" y="0"/><use xlink:href="#L1_187" x="350" y="0"/><use xlink:href="#L1_187" x="-350" y="350"/><use xlink:href="#L1_187" x="0" y="350"/><use xlink:href="#L1_187" x="350" y="350"/></pattern><rect x="0" y="0" width="100%" height="100%" fill="url(#pattern_L1_187)"/></g></svg>