<svg xmlns="http://www.w3.org/2000/svg" xmlns:xlink="http://www.w3.org/1999/xlink" xmlns:fi="http://pattern.flaticon.com/" x="0" y="0" width="1980" height="990" viewBox="0 0 1935.754189944134 967.877094972067"><rect x="0px" y="0px" width="100%" height="100%" opacity="0" fill="#f7f1f6"/><defs><g transform="matrix(0.16971871771127972 0.045475993351183075 -0.045475993351183075 0.16971871771127972 318.16177737116124 294.88914592921594)" id="L1_282"><path d="M0,244.11v-82.746c0-10.604,4.212-20.773,11.709-28.271l22.635-22.639     c3.125-3.125,8.187-3.125,11.312,0c3.125,3.121,3.125,8.188,0,11.312l-22.625,22.633C18.529,148.903,16,155.01,16,161.378v58.732     c0,4.418,3.582,8,8,8h40c3.031,0,5.797,1.711,7.156,4.422c1.352,2.711,1.063,5.953-0.758,8.379l-24,32     c-1.51,2.014-3.881,3.199-6.398,3.199h-8C14.327,276.11,0,261.783,0,244.11z" fill="#5c546a"/><path d="M376,204.11c-52.935,0-96,43.065-96,96s43.065,96,96,96s96-43.065,96-96S428.935,204.11,376,204.11    z" fill="#aeefff"/><path d="M395.891,248.22c-17.645,0-32,14.355-32,32s14.355,32,32,32s32-14.355,32-32    S413.535,248.22,395.891,248.22z" fill="#ffffff"/><path d="M136.219,204.11c-52.935,0-96,43.065-96,96s43.065,96,96,96s96-43.065,96-96    S189.153,204.11,136.219,204.11z" fill="#aeefff"/><path d="M284.219,280.11c-4.422,0-8-3.582-8-8c0-11.027-8.969-20-20-20s-20,8.973-20,20     c0,4.418-3.578,8-8,8s-8-3.582-8-8c0-19.852,16.148-36,36-36s36,16.148,36,36C292.219,276.528,288.641,280.11,284.219,280.11z" fill="#5c546a"/><path d="M480.219,276.11h-8c-2.517,0-4.888-1.185-6.398-3.199l-24-32c-1.82-2.426-2.109-5.668-0.758-8.379     c1.359-2.711,4.125-4.422,7.156-4.422h40c4.418,0,8-3.582,8-8v-58.732c0-6.368-2.529-12.475-7.031-16.979l-22.625-22.633     c-3.125-3.125-3.125-8.191,0-11.312c3.125-3.125,8.188-3.125,11.313,0l22.635,22.639c7.497,7.499,11.709,17.668,11.709,28.271     v82.746C512.219,261.783,497.892,276.11,480.219,276.11z" fill="#5c546a"/><path d="M136.219,404.11c-57.344,0-104-46.652-104-104s46.656-104,104-104s104,46.652,104,104     S193.562,404.11,136.219,404.11z M136.219,212.11c-48.523,0-88,39.477-88,88s39.477,88,88,88s88-39.477,88-88     S184.742,212.11,136.219,212.11z" fill="#868491"/><path d="M376.219,404.11c-57.344,0-104-46.652-104-104s46.656-104,104-104s104,46.652,104,104     S433.562,404.11,376.219,404.11z M376.219,212.11c-48.523,0-88,39.477-88,88s39.477,88,88,88s88-39.477,88-88     S424.742,212.11,376.219,212.11z" fill="#868491"/><path d="M156.109,248.22c-17.645,0-32,14.355-32,32s14.355,32,32,32s32-14.355,32-32    S173.754,248.22,156.109,248.22z" fill="#ffffff"/></g><g transform="matrix(0.0390625 0 0 0.0390625 77.5 340)" id="L1_283"><path d="M438.953,437.585L304,232.828V32h-96v200.828L73.046,437.585    C52.012,469.499,74.901,512,113.124,512h285.751C437.098,512,459.988,469.499,438.953,437.585z" fill="#aeefff"/><path d="M255.781,32H208v200.828L73.046,437.585C52.012,469.499,74.901,512,113.124,512H255.78V32H255.781z    " fill="#4cd7ff"/><path d="M418.913,450.793l-57.469-87.195c-1.477-2.246-3.992-3.598-6.68-3.598h-197.53    c-2.687,0-5.203,1.352-6.68,3.598l-57.469,87.191c-4.953,7.508-5.359,16.703-1.094,24.582C96.234,483.277,104.14,488,113.124,488    h285.75c8.984,0,16.891-4.723,21.125-12.609C424.273,467.492,423.867,458.297,418.913,450.793z" fill="#e3001e"/><path d="M361.445,363.598c-1.477-2.246-3.992-3.598-6.68-3.598h-98.984v128h143.094    c8.984,0,16.891-4.723,21.125-12.609c4.273-7.898,3.867-17.094-1.086-24.598L361.445,363.598z" fill="#ff4f19"/><path d="M304,32h-96c-8.837,0-16-7.163-16-16l0,0c0-8.837,7.163-16,16-16h96c8.837,0,16,7.163,16,16l0,0    C320,24.837,312.836,32,304,32z" fill="#4bb9ec"/><circle cx="200" cy="416" r="16" fill="#ff4f19"/><circle cx="328" cy="432" r="16" fill="#e3001e"/><path d="M280.023,416c-2.164,0-4.164-0.883-5.688-2.32c-1.516-1.52-2.313-3.602-2.313-5.68     c0-2.082,0.797-4.16,2.313-5.68c2.961-2.961,8.32-2.961,11.281,0c1.523,1.52,2.406,3.52,2.406,5.68s-0.883,4.16-2.406,5.68     C284.179,415.117,282.101,416,280.023,416z" fill="#e3001e"/><path d="M231.781,328c-2.164,0-4.164-0.883-5.688-2.32c-1.516-1.52-2.313-3.602-2.313-5.68     c0-2.082,0.797-4.16,2.313-5.68c2.961-2.961,8.242-2.961,11.281,0c1.523,1.52,2.406,3.598,2.406,5.68     c0,2.078-0.883,4.16-2.32,5.68C235.937,327.117,233.859,328,231.781,328z" fill="#aeefff"/><path d="M279.781,264c-2.164,0-4.164-0.883-5.688-2.32c-1.516-1.52-2.313-3.602-2.313-5.68     c0-2.082,0.797-4.16,2.313-5.68c2.961-2.961,8.242-2.961,11.281,0c1.523,1.52,2.406,3.598,2.406,5.68     c0,2.078-0.883,4.16-2.406,5.68C283.937,263.117,281.859,264,279.781,264z" fill="#4cd7ff"/><path d="M231.781,208c-2.164,0-4.242-0.883-5.688-2.402c-1.516-1.438-2.313-3.52-2.313-5.598     c0-2.082,0.797-4.16,2.313-5.68c2.961-2.961,8.32-2.961,11.281,0c1.523,1.52,2.406,3.598,2.406,5.68     c0,2.078-0.883,4.16-2.406,5.68C235.937,207.117,233.859,208,231.781,208z" fill="#aeefff"/><path d="M231.781,463.9c-2.164,0-4.164-0.883-5.688-2.32c-1.516-1.52-2.313-3.602-2.313-5.68     c0-2.082,0.797-4.16,2.313-5.68c2.961-2.961,8.32-2.961,11.281,0c1.523,1.52,2.406,3.598,2.406,5.68     c0,2.078-0.883,4.16-2.406,5.68C235.937,463.017,233.859,463.9,231.781,463.9z" fill="#ff4f19"/><path d="M152.023,456c-2.164,0-4.242-0.883-5.688-2.32c-1.516-1.52-2.313-3.602-2.313-5.68     c0-2.082,0.797-4.16,2.313-5.68c2.961-2.961,8.32-2.961,11.281,0c1.523,1.52,2.406,3.598,2.406,5.68     c0,2.078-0.883,4.16-2.406,5.68C156.179,455.117,154.101,456,152.023,456z" fill="#ff4f19"/></g><g transform="matrix(0.078125 0 0 0.078125 155 330)" id="L1_284"><path d="M377.078,458.898c-17.828,0-37.922-3.766-59.703-11.344     c-50.266-17.484-104.203-53.367-151.883-101.047S81.93,244.891,64.445,194.625C46.289,142.422,50.031,99.937,74.984,74.984     c24.945-24.945,67.43-28.703,119.641-10.539c50.266,17.484,104.203,53.367,151.883,101.047s83.562,101.617,101.047,151.883     c18.156,52.203,14.414,94.687-10.539,119.641l0,0l0,0C422.476,451.555,401.984,458.898,377.078,458.898z M134.906,69.055     c-20.539,0-37.141,5.773-48.609,17.242c-20.383,20.375-22.773,56.984-6.742,103.07c16.711,48.031,51.242,99.82,97.25,145.828     s97.797,80.539,145.828,97.25c46.094,16.023,82.687,13.633,103.07-6.742l0,0c20.383-20.375,22.773-56.984,6.742-103.07     c-16.711-48.031-51.242-99.82-97.25-145.828s-97.797-80.539-145.828-97.25C169.211,72.547,150.867,69.055,134.906,69.055z" fill="#ffcd00"/><path d="M134.922,458.898c-24.906,0-45.398-7.344-59.937-21.883     c-24.953-24.953-28.695-67.437-10.539-119.641c17.484-50.266,53.367-104.203,101.047-151.883S267.109,81.93,317.375,64.445     c52.211-18.164,94.695-14.406,119.641,10.539l0,0l0,0c24.953,24.953,28.695,67.437,10.539,119.641     c-17.484,50.266-53.367,104.203-101.047,151.883S244.891,430.07,194.625,447.555C172.844,455.133,152.75,458.898,134.922,458.898     z M377.094,69.055c-15.969,0-34.305,3.492-54.461,10.5c-48.031,16.711-99.82,51.242-145.828,97.25s-80.539,97.797-97.25,145.828     c-16.031,46.086-13.641,82.695,6.742,103.07c20.375,20.391,56.992,22.766,103.07,6.742c48.031-16.711,99.82-51.242,145.828-97.25     s80.539-97.797,97.25-145.828c16.031-46.086,13.641-82.695-6.742-103.07l0,0C414.234,74.828,397.633,69.055,377.094,69.055z" fill="#ff9100"/><path d="M256,512c-71.773,0-128-112.445-128-256S184.227,0,256,0s128,112.445,128,256S327.773,512,256,512     z M256,16c-60.711,0-112,109.906-112,240s51.289,240,112,240s112-109.906,112-240S316.711,16,256,16z" fill="#ff4f19"/><circle cx="255" cy="256" r="55" fill="#ff4f19"/><circle cx="269" cy="242" r="19" fill="#ff8c62"/><path d="M256,384C112.445,384,0,327.773,0,256s112.445-128,256-128s256,56.227,256,128     S399.555,384,256,384z M256,144c-130.094,0-240,51.289-240,112s109.906,112,240,112s240-51.289,240-112S386.094,144,256,144z" fill="#e3001e"/></g><g transform="matrix(0.0390625 0 0 0.0390625 252.5 340)" id="L1_285"><path d="M277.066,379.385c6.933-3.845,11.833-10.951,12.373-19.385l19.068-304.109    C310.4,25.604,286.346,0,256,0s-54.4,25.604-52.507,55.891L222.561,360c0.54,8.435,5.44,15.541,12.373,19.385H277.066z" fill="#ffd788"/><path d="M255.781,0.012c-30.241,0.125-54.176,25.666-52.288,55.879L222.561,360    c0.54,8.435,5.44,15.541,12.373,19.385h20.847V0.012z" fill="#e6be8a"/><path d="M289.439,360l6.019-96h-78.916l6.019,96c0.54,8.435,5.44,15.541,12.373,19.385h42.132    C283.999,375.54,288.899,368.434,289.439,360z" fill="#868491"/><path d="M255.781,379.385h21.285c6.933-3.845,11.833-10.951,12.373-19.385l6.019-96h-39.677V379.385z" fill="#b4b6bc"/><path d="M304,414.5c0,31.203-29.209,80.463-42.056,94.82c-3.188,3.563-8.714,3.575-11.916,0.025    C237.165,495.081,208,446.069,208,414.5c0-26.51,21.49-48,48-48C282.51,366.5,304,387.99,304,414.5z" fill="#996459"/><path d="M255.781,366.511C229.373,366.631,208,388.064,208,414.5c0,31.569,29.165,80.582,42.027,94.845    c1.548,1.717,3.646,2.56,5.753,2.612L255.781,366.511L255.781,366.511z" fill="#7e5c62"/><path d="M293.452,296 294.455,280 217.545,280 218.548,296z" fill="#868491"/><g><path d="M255.781,280 217.545,280 218.548,296 255.781,296z" fill="#5c546a"/><path d="M293.452,296 294.455,280 294.455,280z" fill="#5c546a"/></g></g><g transform="matrix(0.07809159904718399 0 0 0.07809159904718399 67.5 67.5)" id="L1_286"><ellipse cx="256px" cy="268px" rx="255px" ry="232px" fill="#7e5c62"/><path d="M302.719,351.445l-40.219-56c-1.508-2.094-3.922-3.336-6.5-3.336c-0.008,0-0.016,0-0.023,0    c-2.578,0.008-5,1.258-6.5,3.367l-39.781,56c-1.781,2.508-1.969,5.828-0.469,8.516l40,72c1.406,2.539,4.086,4.117,6.992,4.117    s5.586-1.578,6.992-4.117l40-72C304.719,357.289,304.523,353.961,302.719,351.445z" fill="#ffcd00"/><path d="M249.476,295.477l-39.781,56c-1.781,2.508-1.969,5.828-0.469,8.516l40,72    c1.37,2.474,3.954,4.009,6.773,4.088V292.109c-0.008,0-0.016,0-0.023,0C253.398,292.117,250.976,293.367,249.476,295.477z" fill="#ff9100"/><path d="M376.004,157.221c-53.829-7.459-101.497,23.404-119.894,69.182    c-18.398-45.779-66.066-76.642-119.896-69.182c-49.922,6.919-89.733,48.001-95.284,98.093    c-7.489,67.585,45.219,124.795,111.289,124.795c41.549,0,77.757-22.652,97.077-56.259c2.989-5.2,10.639-5.2,13.628,0    c19.32,33.607,55.527,56.259,97.076,56.259c66.07,0,118.779-57.211,111.289-124.796    C465.737,205.221,425.926,164.139,376.004,157.221z" fill="#e6be94"/><circle cx="360" cy="268" r="72" fill="#996459"/><circle cx="152" cy="268" r="72" fill="#996459"/><path d="M400,76.109h40c30.875,0,56-25.125,56-56c0-4.422,3.578-8,8-8s8,3.578,8,8v96    c0,39.703-32.297,72-72,72h-96c-44.109,0-80,35.891-80,80c0,4.422-3.578,8-8,8s-8-3.578-8-8v-40    C248,144.297,316.187,76.109,400,76.109z" fill="#996459"/><path d="M112.219,76.109h-40c-30.875,0-56-25.125-56-56c0-4.422-3.578-8-8-8s-8,3.578-8,8v96    c0,39.703,32.297,72,72,72h96c44.109,0,80,35.891,80,80c0,4.422,3.578,8,8,8s8-3.578,8-8v-40    C264.219,144.297,196.031,76.109,112.219,76.109z" fill="#996459"/><g><circle cx="152" cy="268" r="48" fill="#ffcd00"/><circle cx="152" cy="268" r="24" fill="#5c546a"/><circle cx="168" cy="252" r="16" fill="#ffffff"/></g><g><circle cx="360" cy="268" r="48" fill="#ffcd00"/><circle cx="360" cy="268" r="24" fill="#5c546a"/><circle cx="375" cy="252" r="16" fill="#ffffff"/></g><path d="M504.219,12.109c-4.422,0-8,3.578-8,8c0,30.875-25.125,56-56,56h-40    c-67.028,0-123.954,43.663-144.109,103.999C235.954,119.772,179.028,76.109,112,76.109H72c-30.875,0-56-25.125-56-56    c0-4.422-3.578-8-8-8s-8,3.578-8,8v48c0,30.928,25.072,56,56,56h56c54.303,0,101.859,28.707,128.675,71.684    c3.288,5.27,9.202,8.316,15.413,8.316h0.043c6.211,0,12.125-3.046,15.413-8.316c26.816-42.977,74.372-71.684,128.675-71.684h56    c30.928,0,56-25.072,56-56v-48C512.219,15.687,508.64,12.109,504.219,12.109z" fill="#e6be94"/></g><g transform="matrix(0.13745947182178497 0 0 0.13745947182178497 315 140)" id="L1_287"><path d="M502.008,397.838L24.773,84.651c-4.922-3.234-11.203-3.496-16.375-0.695    C3.219,86.752,0,92.147,0,98.034v313.18c0,8.824,7.18,16,16,16h477.226c7.125,0,13.289-4.59,15.328-11.418    C510.601,408.967,507.969,401.748,502.008,397.838z M279.055,347.213H80V216.584L279.055,347.213z" fill="#ffd788"/><path d="M264,395.213c-4.422,0-8,3.582-8,8v24h16v-24C272,398.795,268.422,395.213,264,395.213z" fill="#e6be8a"/><path d="M296,379.213c-4.422,0-8,3.582-8,8v40h16v-40C304,382.795,300.422,379.213,296,379.213z" fill="#c9a07c"/><path d="M144,427.213v-24c0-4.418-3.578-8-8-8s-8,3.582-8,8v24H144z" fill="#e6be8a"/><path d="M392,395.213c-4.422,0-8,3.582-8,8v24h16v-24C400,398.795,396.422,395.213,392,395.213z" fill="#e6be8a"/><path d="M360,379.213c-4.422,0-8,3.582-8,8v40h16v-40C368,382.795,364.422,379.213,360,379.213z" fill="#c9a07c"/><path d="M328,395.213c-4.422,0-8,3.582-8,8v24h16v-24C336,398.795,332.422,395.213,328,395.213z" fill="#e6be8a"/><path d="M208,403.213c0-4.418-3.578-8-8-8s-8,3.582-8,8v24h16V403.213z" fill="#e6be8a"/><path d="M40,379.213c-4.422,0-8,3.582-8,8v40h16v-40C48,382.795,44.422,379.213,40,379.213z" fill="#c9a07c"/><path d="M72,395.213c-4.422,0-8,3.582-8,8v24h16v-24C80,398.795,76.422,395.213,72,395.213z" fill="#e6be8a"/><path d="M176,387.213c0-4.418-3.578-8-8-8s-8,3.582-8,8v40h16V387.213z" fill="#c9a07c"/><path d="M424,379.213c-4.422,0-8,3.582-8,8v40h16v-40C432,382.795,428.422,379.213,424,379.213z" fill="#c9a07c"/><path d="M240,387.213c0-4.418-3.578-8-8-8s-8,3.582-8,8v40h16V387.213z" fill="#c9a07c"/><path d="M112,387.213c0-4.418-3.578-8-8-8s-8,3.582-8,8v40h16V387.213z" fill="#c9a07c"/></g><path d="M112.246,483.246c-0.121,0-0.238,0-0.359,0l-48.289-0.305C28.531,482.723,0,454.02,0,418.949   v-47.734c0-14.953,5.824-29.016,16.395-39.594L303.918,44.105c10.566-10.578,24.629-16.406,39.598-16.406h103.43   c35.289,0,64,28.711,64,64v103.43c0,14.953-5.824,29.016-16.395,39.594L346.854,382.416c-6.242,6.25-16.375,6.25-22.625,0   s-6.25-16.375,0-22.625l147.689-147.685c4.527-4.539,7.027-10.57,7.027-16.977V91.699c0-17.648-14.355-32-32-32h-103.43   c-6.414,0-12.438,2.492-16.965,7.023L39.027,354.238C34.5,358.777,32,364.809,32,371.215v47.734   c0,17.531,14.266,31.883,31.797,31.992l48.297,0.305c6.324,0.328,12.613-2.523,17.121-7.023l217.281-217.281l-30.082-30.086   L127.312,385.957c-6.242,6.25-16.375,6.25-22.625,0s-6.25-16.375,0-22.625L293.785,174.23c12.477-12.477,32.777-12.492,45.254,0   l30.086,30.086c6.043,6.047,9.371,14.078,9.371,22.625s-3.328,16.578-9.375,22.625L151.84,466.848   C141.406,477.285,126.992,483.246,112.246,483.246z" transform="matrix(0.13233259575589637 -0.035458412165106645 0.035458412165106645 0.13233259575589637 132.13173874141222 150.23448840967743)" fill="#ff4f19" id="L1_288"/><g transform="matrix(0.09765625 0 0 0.09765625 62.5 237.5)" id="L1_289"><rect x="255px" y="392px" width="32px" height="48px" fill="#868491"/><rect x="255px" y="392px" width="16px" height="48px" fill="#5c546a"/><path d="M224.11,472v-16c0-8.837,7.163-16,16-16h64c8.837,0,16,7.163,16,16v16" fill="#ba7958"/><path d="M271.891,440H240.11c-8.836,0-16,7.163-16,16v16h47.781V440z" fill="#996459"/><path d="M272.109,48c-4.422,0-8-3.582-8-8V8c0-4.418,3.578-8,8-8s8,3.582,8,8v32     C280.109,44.418,276.531,48,272.109,48z" fill="#5c546a"/><path d="M272.109,400c-4.422,0-8-3.582-8-8v-32c0-4.418,3.578-8,8-8s8,3.582,8,8v32     C280.109,396.418,276.531,400,272.109,400z" fill="#5c546a"/><path d="M328.109,464h-112c-22.055,0-40,17.945-40,40c0,4.418,3.578,8,8,8h176c4.422,0,8-3.582,8-8    C368.109,481.945,350.164,464,328.109,464z" fill="#996459"/><circle cx="271" cy="200" r="168" fill="#ffd788"/><path d="M271.891,368c46.392,0,88.392-18.804,118.794-49.206L153.097,81.206    c-30.402,30.402-49.206,72.402-49.206,118.794C103.891,292.784,179.107,368,271.891,368z" fill="#e6be8a"/><path d="M438.642,179.823c-9.04-75.474-68.083-135.546-143.073-146.13l-9.383,15.284     c-0.361,0.664-0.968,1.143-1.695,1.348c-0.738,0.197-1.498,0.107-2.155-0.271l-24.549-14.139     c-1.006-0.577-2.259-0.479-3.155,0.246l-35.066,28.282c-5.966,4.81-9.384,11.957-9.384,19.614v7.675     c0,0.837,0.372,1.63,1.023,2.163c0.645,0.53,1.498,0.741,2.319,0.585l24.888-4.884l-3.834,6.686     c-0.941,1.652-2.188,3.068-3.708,4.214l-22.263,16.803c-0.705,0.528-1.116,1.356-1.116,2.234v13.234l-7.459,0.793     c-7.41,0.785-12.901,7.23-12.502,14.67l0.405,7.484c0.323,6.007,4.43,11.126,10.227,12.739l7.607,2.116     c-8.329,2.535-14.016,10.248-13.82,19.171l0.126,5.772l-8.57,16.529c-7.071,13.628-6.152,30.01,2.406,42.752l4.074,6.068     c5.573,8.296,15.559,12.532,25.348,10.762l37.22-6.645l8.663,10.73c5.868,7.262,13.573,12.873,22.291,16.226l3.784,1.455v23.373     c0,2.543,0.919,7.112,2.811,13.97c2.39,8.657,8.034,15.848,15.892,20.254c5.108,2.866,10.741,4.323,16.434,4.323     c3.123,0,6.267-0.438,9.357-1.326c0.837-0.238,1.515-0.853,1.832-1.66l24.516-61.972l32.813-30.915     c0.438-0.41,0.727-0.949,0.837-1.537l3.27-18.025c0.153-0.85-0.093-1.723-0.667-2.368c-0.58-0.645-1.422-0.965-2.28-0.927     l-7.952,0.544c-5.173,0.358-10.079-1.321-13.885-4.49L322.291,172l53.6,52l22.935-12.513c4.966-3.68,7.93-9.568,7.93-15.75     v-15.214c0-0.9-0.432-1.745-1.159-2.27c-0.733-0.533-1.663-0.675-2.521-0.388l-6.229,2.062c-2.275,0.752-4.681,0.52-6.77-0.662     c-2.089-1.184-3.533-3.123-4.063-5.466l-2.516-11.184l53.949,17.145C437.84,179.88,438.246,179.872,438.642,179.823z      M319.573,166.758l-4.326,3.907l-25.866,8.648c-3.269,1.093-6.86,0.62-9.734-1.283l-14.379-9.519     c-5.091-3.369-10.965-5.121-16.964-5.121c-1.794,0-3.598,0.159-5.392,0.476l-26.091,4.605l7.736-5.777     c1.657-1.237,2.939-2.91,3.704-4.831l4.873-12.24c4.391-4.066,10.817-4.892,16.056-2.125l15.241,13.513     c0.87,0.774,2.133,0.924,3.161,0.383c1.034-0.541,1.619-1.665,1.477-2.819l-1.58-12.466c0.077-1.646,1.345-2.294,1.728-2.453     c0.383-0.161,1.739-0.596,2.959,0.522l18.359,16.803c0.726,0.665,1.748,0.9,2.693,0.62l27.331-8.11     c1.952,2.22,3.057,5.094,3.073,8.086C323.641,161.071,322.165,164.418,319.573,166.758z M330.756,130.645l-8.717,6.445     c-0.962,0.711-2.133,1.096-3.33,1.096h-15.553c-3.095,0-5.6-2.507-5.6-5.6s2.505-5.6,5.6-5.6h13.71l7.23-5.348     c2.488-1.84,6.005-1.31,7.831,1.173C333.769,125.3,333.244,128.805,330.756,130.645z M355.808,130.667     c-0.995,0.725-2.149,1.075-3.292,1.075c-1.728,0-3.434-0.798-4.528-2.3l-14.334-19.66c-1.827-2.499-1.274-6.005,1.225-7.826     c2.499-1.824,5.999-1.269,7.82,1.225l14.334,19.66C358.86,125.341,358.308,128.846,355.808,130.667z" fill="#e6be8a"/><path d="M194.492,120c-0.405,0-0.809-0.041-1.22-0.134c-3.019-0.67-4.922-3.661-4.255-6.68l3.095-13.929      l-5.551-3.407c-2.636-1.616-3.462-5.067-1.843-7.703c1.624-2.639,5.07-3.467,7.705-1.84l8.952,5.496      c2.034,1.25,3.052,3.653,2.537,5.986l-3.959,17.825C199.375,118.225,197.057,120,194.492,120z" fill="#e6be8a"/><path d="M236.829,164.938l-20.009,3.531l7.736-5.777c1.657-1.237,2.939-2.91,3.704-4.831l0.425-1.066    L204.93,133.04l-4.899,0.521c-7.41,0.785-12.901,7.229-12.501,14.67l0.405,7.484c0.322,6.007,4.43,11.126,10.227,12.74    l7.607,2.116c-8.329,2.535-14.017,10.249-13.82,19.171l0.126,5.772l-8.569,16.529c-7.071,13.628-6.152,30.01,2.406,42.752    l4.074,6.068c5.572,8.296,15.559,12.531,25.348,10.762l37.22-6.645l8.663,10.73c5.868,7.262,13.573,12.873,22.291,16.226    l3.784,1.455v23.374c0,2.543,0.919,7.112,2.811,13.97c2.39,8.657,8.034,15.849,15.892,20.254    c5.108,2.865,10.741,4.323,16.434,4.323c3.123,0,6.267-0.438,9.357-1.326c0.837-0.238,1.515-0.853,1.832-1.66l24.517-61.972    l2.116-1.994L236.829,164.938z" fill="#c9a07c"/><path d="M304.109,400h-32c-110.281,0-200-89.719-200-200s89.719-200,200-200h32c4.422,0,8,3.582,8,8     s-3.578,8-8,8h-32c-101.461,0-184,82.543-184,184s82.539,184,184,184h32c4.422,0,8,3.582,8,8S308.531,400,304.109,400z" fill="#996459"/><path d="M271.891,464H216.11c-22.055,0-40,17.945-40,40c0,4.418,3.578,8,8,8h87.781V464z" fill="#7e5c62"/></g><g transform="matrix(0.1757483035326004 0 0 0.1757483035326004 217.5 217.5)" id="L1_290"><path d="M296.158,0h-80c-4.418,0-8,3.582-8,8v376l44.282,125.466c1.238,3.507,6.198,3.507,7.435,0    L304.158,384V8C304.158,3.582,300.576,0,296.158,0z" fill="#e6be94"/><path d="M255.939,280v232h0.544c1.431-0.119,2.82-0.909,3.393-2.534L304.158,384V280H255.939z" fill="#ffd788"/><path d="M296.158,0h-80c-4.418,0-8,3.582-8,8v376c0-8.837,7.164-16,16-16s16,7.163,16,16    c0-8.837,7.164-16,16-16s16,7.163,16,16c0-8.837,7.164-16,16-16s16,7.163,16,16V8C304.158,3.582,300.576,0,296.158,0z" fill="#ffcd00"/><path d="M240.158,384c0-8.837,7.164-16,16-16c8.092,0,14.711,6.028,15.781,13.826V0h-32v381.826    C240.037,382.544,240.158,383.255,240.158,384z" fill="#ffcd00"/><path d="M208.158,384c0-8.837,7.164-16,16-16c8.092,0,14.711,6.028,15.781,13.826V0h-24    c-4.418,0-8,3.582-8,8v373.826C208.037,382.544,208.158,383.255,208.158,384z" fill="#ff9100"/><path d="M303.719,384c0-8.837-7.164-16-16-16c-8.092,0-14.711,6.028-15.781,13.826V0h24    c4.418,0,8,3.582,8,8v373.826C303.84,382.544,303.719,383.255,303.719,384z" fill="#ffe671"/><path d="M233.57,456l18.871,53.466c1.238,3.507,6.198,3.507,7.436,0L278.746,456H233.57z" fill="#5c546a"/><path d="M255.939,512.031c1.624,0.091,3.288-0.724,3.937-2.565L278.746,456h-22.808L255.939,512.031    L255.939,512.031z" fill="#868491"/></g><g transform="matrix(0.0781237781047821 0 0 0.0781237781047821 242.5 67.5)" id="L1_291"><path d="M280.01,464.008h-48c-4.422,0-8,3.578-8,8v8c0,17.648,14.352,32,32,32s32-14.352,32-32v-8    C288.01,467.586,284.432,464.008,280.01,464.008z" fill="#868491"/><path d="M256.002,464.008H232.01c-4.422,0-8,3.578-8,8v8c0,17.646,14.347,31.995,31.992,31.999    L256.002,464.008L256.002,464.008z" fill="#5c546a"/><path d="M381.983,49.895c-37.391-35.141-86.367-52.742-137.734-49.52    C150.639,6.2,75.014,84.286,72.092,178.149c-2.156,69.547,34.375,133.578,95.344,167.117c15.156,8.344,24.57,24.367,24.57,41.828    v60.914c0,17.648,14.352,32,32,32h64c17.648,0,32-14.352,32-32v-60.914c0-17.445,9.484-33.508,24.766-41.93    c58.742-32.406,95.234-94.156,95.234-161.156C440.006,133.43,418.858,84.547,381.983,49.895z" fill="#ffcd00"/><circle cx="256" cy="184" r="128" fill="#ffe671"/><path d="M283.986,232.008c-10.633,0-16.07-6.203-20.031-10.727c-3.492-3.984-4.883-5.273-8-5.273     c-3.102,0-4.484,1.289-7.961,5.266c-3.734,4.273-9.383,10.734-20.016,10.734c-10.625,0-16.273-6.461-20.008-10.734     c-3.477-3.977-4.859-5.266-7.961-5.266c-4.422,0-8-3.578-8-8s3.578-8,8-8c10.625,0,16.273,6.461,20.008,10.734     c3.477,3.977,4.859,5.266,7.961,5.266s4.492-1.289,7.969-5.266c3.734-4.273,9.383-10.734,20.008-10.734     c10.633,0,16.07,6.203,20.031,10.727c3.492,3.984,4.883,5.273,8,5.273c3.109,0,4.5-1.289,7.992-5.266     c3.742-4.273,9.391-10.734,20.031-10.734c4.422,0,8,3.578,8,8s-3.578,8-8,8c-3.117,0-4.508,1.289-8,5.273     C300.267,225.555,294.619,232.008,283.986,232.008z" fill="#ffffff"/><path d="M232.002,384.008c-3.68,0-6.992-2.555-7.813-6.297l-40-184c-0.938-4.32,1.805-8.578,6.117-9.523     c4.344-0.953,8.578,1.805,9.523,6.117l40,184c0.938,4.32-1.805,8.578-6.117,9.523     C233.135,383.954,232.564,384.008,232.002,384.008z" fill="#5c546a"/><path d="M280.017,384.008c-0.563,0-1.133-0.055-1.711-0.18c-4.313-0.945-7.055-5.203-6.117-9.523l40-184     c0.945-4.313,5.164-7.063,9.523-6.117c4.313,0.945,7.055,5.203,6.117,9.523l-40,184     C287.01,381.454,283.697,384.008,280.017,384.008z" fill="#5c546a"/><path d="M190.633,376.008c0.851,3.593,1.374,7.293,1.374,11.086v60.914c0,17.648,14.352,32,32,32h64    c17.648,0,32-14.352,32-32v-60.914c0-3.79,0.527-7.491,1.384-11.086H190.633z" fill="#b4b6bc"/><path d="M256.002,376.008h-65.369c0.851,3.593,1.374,7.293,1.374,11.086v60.914c0,17.648,14.352,32,32,32    h31.995V376.008z" fill="#868491"/><rect x="256px" y="400px" width="64px" height="16px" fill="#868491"/><rect x="256px" y="432px" width="64px" height="16px" fill="#868491"/><rect x="192px" y="400px" width="64px" height="16px" fill="#5c546a"/><rect x="192px" y="432px" width="64px" height="16px" fill="#5c546a"/></g></defs><g fi:class="KUsePattern"><pattern id="pattern_L1_282" width="350" height="350" patternUnits="userSpaceOnUse"><use xlink:href="#L1_282" x="-350" y="-350"/><use xlink:href="#L1_282" x="0" y="-350"/><use xlink:href="#L1_282" x="350" y="-350"/><use xlink:href="#L1_282" x="-350" y="0"/><use xlink:href="#L1_282" x="0" y="0"/><use xlink:href="#L1_282" x="350" y="0"/><use xlink:href="#L1_282" x="-350" y="350"/><use xlink:href="#L1_282" x="0" y="350"/><use xlink:href="#L1_282" x="350" y="350"/></pattern><rect x="0" y="0" width="100%" height="100%" fill="url(#pattern_L1_282)"/></g><g fi:class="KUsePattern"><pattern id="pattern_L1_283" width="350" height="350" patternUnits="userSpaceOnUse"><use xlink:href="#L1_283" x="-350" y="-350"/><use xlink:href="#L1_283" x="0" y="-350"/><use xlink:href="#L1_283" x="350" y="-350"/><use xlink:href="#L1_283" x="-350" y="0"/><use xlink:href="#L1_283" x="0" y="0"/><use xlink:href="#L1_283" x="350" y="0"/><use xlink:href="#L1_283" x="-350" y="350"/><use xlink:href="#L1_283" x="0" y="350"/><use xlink:href="#L1_283" x="350" y="350"/></pattern><rect x="0" y="0" width="100%" height="100%" fill="url(#pattern_L1_283)"/></g><g fi:class="KUsePattern"><pattern id="pattern_L1_284" width="350" height="350" patternUnits="userSpaceOnUse"><use xlink:href="#L1_284" x="-350" y="-350"/><use xlink:href="#L1_284" x="0" y="-350"/><use xlink:href="#L1_284" x="350" y="-350"/><use xlink:href="#L1_284" x="-350" y="0"/><use xlink:href="#L1_284" x="0" y="0"/><use xlink:href="#L1_284" x="350" y="0"/><use xlink:href="#L1_284" x="-350" y="350"/><use xlink:href="#L1_284" x="0" y="350"/><use xlink:href="#L1_284" x="350" y="350"/></pattern><rect x="0" y="0" width="100%" height="100%" fill="url(#pattern_L1_284)"/></g><g fi:class="KUsePattern"><pattern id="pattern_L1_285" width="350" height="350" patternUnits="userSpaceOnUse"><use xlink:href="#L1_285" x="-350" y="-350"/><use xlink:href="#L1_285" x="0" y="-350"/><use xlink:href="#L1_285" x="350" y="-350"/><use xlink:href="#L1_285" x="-350" y="0"/><use xlink:href="#L1_285" x="0" y="0"/><use xlink:href="#L1_285" x="350" y="0"/><use xlink:href="#L1_285" x="-350" y="350"/><use xlink:href="#L1_285" x="0" y="350"/><use xlink:href="#L1_285" x="350" y="350"/></pattern><rect x="0" y="0" width="100%" height="100%" fill="url(#pattern_L1_285)"/></g><g fi:class="KUsePattern"><pattern id="pattern_L1_286" width="350" height="350" patternUnits="userSpaceOnUse"><use xlink:href="#L1_286" x="-350" y="-350"/><use xlink:href="#L1_286" x="0" y="-350"/><use xlink:href="#L1_286" x="350" y="-350"/><use xlink:href="#L1_286" x="-350" y="0"/><use xlink:href="#L1_286" x="0" y="0"/><use xlink:href="#L1_286" x="350" y="0"/><use xlink:href="#L1_286" x="-350" y="350"/><use xlink:href="#L1_286" x="0" y="350"/><use xlink:href="#L1_286" x="350" y="350"/></pattern><rect x="0" y="0" width="100%" height="100%" fill="url(#pattern_L1_286)"/></g><g fi:class="KUsePattern"><pattern id="pattern_L1_287" width="350" height="350" patternUnits="userSpaceOnUse"><use xlink:href="#L1_287" x="-350" y="-350"/><use xlink:href="#L1_287" x="0" y="-350"/><use xlink:href="#L1_287" x="350" y="-350"/><use xlink:href="#L1_287" x="-350" y="0"/><use xlink:href="#L1_287" x="0" y="0"/><use xlink:href="#L1_287" x="350" y="0"/><use xlink:href="#L1_287" x="-350" y="350"/><use xlink:href="#L1_287" x="0" y="350"/><use xlink:href="#L1_287" x="350" y="350"/></pattern><rect x="0" y="0" width="100%" height="100%" fill="url(#pattern_L1_287)"/></g><g fi:class="KUsePattern"><pattern id="pattern_L1_288" width="350" height="350" patternUnits="userSpaceOnUse"><use xlink:href="#L1_288" x="-350" y="-350"/><use xlink:href="#L1_288" x="0" y="-350"/><use xlink:href="#L1_288" x="350" y="-350"/><use xlink:href="#L1_288" x="-350" y="0"/><use xlink:href="#L1_288" x="0" y="0"/><use xlink:href="#L1_288" x="350" y="0"/><use xlink:href="#L1_288" x="-350" y="350"/><use xlink:href="#L1_288" x="0" y="350"/><use xlink:href="#L1_288" x="350" y="350"/></pattern><rect x="0" y="0" width="100%" height="100%" fill="url(#pattern_L1_288)"/></g><g fi:class="KUsePattern"><pattern id="pattern_L1_289" width="350" height="350" patternUnits="userSpaceOnUse"><use xlink:href="#L1_289" x="-350" y="-350"/><use xlink:href="#L1_289" x="0" y="-350"/><use xlink:href="#L1_289" x="350" y="-350"/><use xlink:href="#L1_289" x="-350" y="0"/><use xlink:href="#L1_289" x="0" y="0"/><use xlink:href="#L1_289" x="350" y="0"/><use xlink:href="#L1_289" x="-350" y="350"/><use xlink:href="#L1_289" x="0" y="350"/><use xlink:href="#L1_289" x="350" y="350"/></pattern><rect x="0" y="0" width="100%" height="100%" fill="url(#pattern_L1_289)"/></g><g fi:class="KUsePattern"><pattern id="pattern_L1_290" width="350" height="350" patternUnits="userSpaceOnUse"><use xlink:href="#L1_290" x="-350" y="-350"/><use xlink:href="#L1_290" x="0" y="-350"/><use xlink:href="#L1_290" x="350" y="-350"/><use xlink:href="#L1_290" x="-350" y="0"/><use xlink:href="#L1_290" x="0" y="0"/><use xlink:href="#L1_290" x="350" y="0"/><use xlink:href="#L1_290" x="-350" y="350"/><use xlink:href="#L1_290" x="0" y="350"/><use xlink:href="#L1_290" x="350" y="350"/></pattern><rect x="0" y="0" width="100%" height="100%" fill="url(#pattern_L1_290)"/></g><g fi:class="KUsePattern"><pattern id="pattern_L1_291" width="350" height="350" patternUnits="userSpaceOnUse"><use xlink:href="#L1_291" x="-350" y="-350"/><use xlink:href="#L1_291" x="0" y="-350"/><use xlink:href="#L1_291" x="350" y="-350"/><use xlink:href="#L1_291" x="-350" y="0"/><use xlink:href="#L1_291" x="0" y="0"/><use xlink:href="#L1_291" x="350" y="0"/><use xlink:href="#L1_291" x="-350" y="350"/><use xlink:href="#L1_291" x="0" y="350"/><use xlink:href="#L1_291" x="350" y="350"/></pattern><rect x="0" y="0" width="100%" height="100%" fill="url(#pattern_L1_291)"/></g></svg>