<svg xmlns="http://www.w3.org/2000/svg" xmlns:xlink="http://www.w3.org/1999/xlink" xmlns:fi="http://pattern.flaticon.com/" x="0" y="0" width="1980" height="990" viewBox="0 0 1935.754189944134 967.877094972067"><rect x="0px" y="0px" width="100%" height="100%" opacity="0" fill="#ffffff"/><defs><g transform="matrix(0.19318344092652429 0.05176334698732768 -0.05176334698732768 0.19318344092652429 318.15551536204117 294.88333794358226)" id="L1_164"><rect x="85px" y="106px" width="39px" height="304px" fill="#ff382e"/><rect x="324px" y="106px" width="39px" height="304px" fill="#ff382e"/><path d="M364.332,401.054c16.48,0,29.97,13.48,29.97,29.96h-100.9c0-16.48,14.49-29.96,30.97-29.96H364.332z   " fill="#3f3736"/><path d="M125.632,401.054c16.48,0,29.97,13.48,29.97,29.96h-99.9c0-16.48,13.49-29.96,29.97-29.96H125.632z" fill="#3f3736"/><rect x="197px" y="106px" width="54px" height="79px" fill="#3f3736"/><path d="M25.742,46.464l5.25,15.75c2.61,7.82,11.49,14.22,19.73,14.22h348.56c8.24,0,17.12-6.4,19.72-14.22   l5.25-15.75H25.742z" fill="#3f3736"/><rect x="50px" y="176px" width="348px" height="29px" fill="#de2f1b"/><path d="M50.722,76.434v24.97c0,8.24,6.74,14.98,14.98,14.98h318.6c8.24,0,14.98-6.74,14.98-14.98v-24.97   H50.722z" fill="#de2f1b"/><path d="M414.256,53.967H35.746c-15.796,0-29.985-10.026-35.308-24.949   c-1.392-3.901,0.643-8.192,4.544-9.583c3.901-1.395,8.192,0.643,9.583,4.544c3.198,8.965,11.709,14.988,21.18,14.988h378.51   c9.472,0,17.984-6.025,21.181-14.993c1.391-3.901,5.682-5.937,9.583-4.546c3.902,1.391,5.938,5.681,4.546,9.583   C444.246,43.938,430.056,53.967,414.256,53.967z" fill="#3f3736"/></g><g transform="matrix(0.04324324429035187 0 0 0.04324324429035187 77.5 340)" id="L1_165"><path d="M223.75,287.88V455c0,4.142,3.357,7.5,7.5,7.5s7.5-3.358,7.5-7.5V287.88H223.75z" fill="#d19884"/><path d="M3.75,148.54l136.42,59.87h85.072L95.355,40.453C55.265,66.708,23.223,104.235,3.75,148.54z" fill="#ff382e"/><path d="M231.166,0.001c-50.13,0.017-96.784,14.893-135.812,40.452L205.242,208.41h45.925L231.166,0.001z" fill="#ff5700"/><path d="M277.482,208.41l89.82-167.855C328.221,14.918,281.479,0,231.25,0c-0.028,0-0.056,0.001-0.084,0.001   V208.41H277.482z" fill="#ff382e"/><path d="M322.33,208.41l136.42-59.87c-19.447-44.247-51.431-81.735-91.448-107.985L257.482,208.41H322.33z" fill="#ff5700"/><path d="M268.956,445.583l-20.271-94.609h-34.871l-20.271,94.609c-0.867,4.05,1.713,8.037,5.763,8.905   c4.05,0.871,8.036-1.711,8.905-5.762l17.729-82.752h10.617l17.729,82.752c0.869,4.051,4.855,6.633,8.905,5.762   C267.243,453.62,269.823,449.633,268.956,445.583z" fill="#d19884"/><path d="M176.9,165.1l38.342,43.314l16.118,39.916l-0.11,0.05l-91.08-39.97   C147.97,190.65,160.82,175.61,176.9,165.1z" fill="#d19884"/><path d="M231.25,248.38l45.34,19.9c-7.66,17.43-25.08,29.6-45.34,29.6s-37.68-12.17-45.34-29.6   L231.25,248.38z" fill="#ffbc99"/><path d="M231.25,148.94l10.066,59.47l-9.956,39.92L176.9,165.1C192.52,154.88,211.19,148.94,231.25,148.94z" fill="#ffbc99"/><circle cx="231" cy="352" r="20" fill="#de2f1b"/><path d="M231.25,148.94c20.12,0,38.85,5.98,54.5,16.26l-18.27,43.209l-36.12,39.921L231.25,148.94z" fill="#d19884"/><path d="M322.33,208.41l-90.97,39.92l54.39-83.13C301.76,175.7,314.55,190.71,322.33,208.41z" fill="#ffbc99"/></g><g transform="matrix(0.08648648858070374 0 0 0.08648648858070374 155 330)" id="L1_166"><path d="M353.574,326 353.574,205.609 231.25,185.609 108.926,205.609 108.926,326 231.25,346.004z" fill="#ff382e"/><path d="M281.724,99.11l-50.474-10l-50.474,10c-42.12,17.02-71.849,58.279-71.85,106.499h244.647   C353.573,157.389,323.843,116.13,281.724,99.11z" fill="#de2f1b"/><path d="M108.926,326.004c0.002,48.218,29.731,89.487,71.85,106.496l50.474,10l50.474-10   c42.119-17.01,71.848-58.278,71.85-106.496H108.926z" fill="#de2f1b"/><path d="M248.075,99.11l-16.825-10l-16.825,10c-14.04,17.02-23.95,58.279-23.95,106.499l40.775,10l40.775-10   C272.024,157.389,262.114,116.13,248.075,99.11z" fill="#ff382e"/><path d="M190.475,326.004c0,48.218,9.91,89.487,23.95,106.496l16.825,10l16.825-10   c14.04-17.01,23.95-58.278,23.95-106.496l-40.775-10L190.475,326.004z" fill="#ff382e"/><rect x="190px" y="205px" width="81px" height="120px" fill="#ff8882"/><path d="M231.25,0c-27.831,0-50.474,22.643-50.474,50.474V99.11h100.947V50.474   C281.724,22.643,259.081,0,231.25,0z M231.25,15c19.56,0,35.474,15.913,35.474,35.474V69.11h-70.947V50.474   C195.776,30.913,211.69,15,231.25,15z" fill="#3f3736"/><rect x="180px" y="432px" width="100px" height="30px" fill="#3f3736"/></g><g transform="matrix(0.08791209012269974 0 0 0.08791209012269974 67.5 67.5)" id="L1_167"><path d="M287.38,7.75c-10.39-2.78-20.9-1.94-30.18,1.75l11.615,67.558L312.64,24.36   C306.45,16.52,297.77,10.54,287.38,7.75z" fill="#ffe3a1"/><path d="M169.483,7.251c-10.388,2.787-19.07,8.77-25.262,16.606l43.838,52.699l11.604-67.55   C190.383,5.311,179.876,4.472,169.483,7.251z" fill="#ffe3a1"/><path d="M67.131,65.767c-7.603,7.608-12.13,17.13-13.574,27.012l64.315,23.72L94.145,52.197   C84.261,53.637,74.742,58.164,67.131,65.767z" fill="#ffe3a1"/><path d="M7.75,167.62c-2.78,10.39-1.94,20.9,1.75,30.18l67.558-11.615L24.36,142.36   C16.52,148.55,10.54,157.23,7.75,167.62z" fill="#ffe3a1"/><path d="M7.251,285.517c2.787,10.388,8.77,19.07,16.606,25.262l52.699-43.838l-67.55-11.604   C5.311,264.617,4.472,275.124,7.251,285.517z" fill="#ffe3a1"/><path d="M65.767,387.869c7.608,7.603,17.13,12.13,27.012,13.574l23.72-64.315l-64.302,23.726   C53.637,370.739,58.164,380.258,65.767,387.869z" fill="#ffe3a1"/><path d="M167.62,447.25c10.39,2.78,20.9,1.94,30.18-1.75l-11.615-67.558L142.36,430.64   C148.55,438.48,157.23,444.46,167.62,447.25z" fill="#ffe3a1"/><path d="M285.517,447.749c10.388-2.787,19.07-8.77,25.262-16.606l-43.838-52.699l-11.604,67.55   C264.617,449.689,275.124,450.528,285.517,447.749z" fill="#ffe3a1"/><path d="M387.869,389.233c7.603-7.608,12.13-17.13,13.574-27.012l-64.315-23.72l23.726,64.302   C370.739,401.363,380.258,396.836,387.869,389.233z" fill="#ffe3a1"/><path d="M447.25,287.38c2.78-10.39,1.94-20.9-1.75-30.18l-67.558,11.615l52.698,43.825   C438.48,306.45,444.46,297.77,447.25,287.38z" fill="#ffe3a1"/><path d="M447.749,169.483c-2.787-10.388-8.77-19.07-16.606-25.262l-52.699,43.838l67.55,11.604   C449.689,190.383,450.528,179.876,447.749,169.483z" fill="#ffe3a1"/><path d="M389.233,67.131c-7.608-7.603-17.13-12.13-27.012-13.574l-23.72,64.315l64.302-23.726   C401.363,84.261,396.836,74.742,389.233,67.131z" fill="#ffe3a1"/><path d="M445.5,198.8c-8.759-11.758-22.766-19.378-38.563-19.38L358.851,96.15   c7.889-13.67,8.299-29.62,2.489-43.09c-3.94-9.18-10.78-17.2-20.09-22.58c-9.32-5.38-19.69-7.29-29.61-6.11   c-14.57,1.7-28.17,10.03-36.06,23.71l-96.159-0.015c-7.901-13.676-21.506-22.003-36.066-23.709   c-9.922-1.165-20.286,0.743-29.605,6.123c-9.318,5.38-16.153,13.402-20.105,22.577c-5.804,13.465-5.399,29.405,2.498,43.086   L48.065,179.42c-15.794,0.015-29.798,7.623-38.555,19.38C3.53,206.81,0,216.74,0,227.5s3.53,20.69,9.51,28.7   c8.76,11.76,22.77,19.37,38.57,19.37c-0.005,0.003,48.07,83.28,48.07,83.28c-7.89,13.67-8.3,29.62-2.49,43.09   c3.94,9.18,10.78,17.2,20.09,22.58c9.32,5.38,19.69,7.29,29.61,6.11c14.57-1.7,28.17-10.03,36.06-23.71l96.16,0.01   c7.89,13.67,21.49,22,36.06,23.7c9.92,1.18,20.29-0.73,29.61-6.11c9.31-5.38,16.15-13.4,20.09-22.58   c5.81-13.47,5.4-29.42-2.49-43.09l48.084-83.271c15.794-0.005,29.808-7.623,38.565-19.38c5.97-8.01,9.5-17.94,9.5-28.7   S451.47,206.81,445.5,198.8z" fill="#ffb914"/><path d="M179.42,406.935c0.005,15.794,7.623,29.808,19.38,38.565c8.01,5.97,17.94,9.5,28.7,9.5   s20.69-3.53,28.7-9.5c11.758-8.759,19.378-22.766,19.38-38.563L227.5,227.5L179.42,406.935z" fill="#ffc743"/><path d="M275.58,48.065c-0.005-15.794-7.623-29.808-19.38-38.565C248.19,3.53,238.26,0,227.5,0   c-10.76,0-20.69,3.53-28.7,9.5c-11.758,8.759-19.378,22.766-19.38,38.563L227.5,227.5L275.58,48.065z" fill="#ffc743"/><path d="M227.5,227.5l131.35,131.35c13.67,7.89,29.62,8.3,43.09,2.49c9.18-3.94,17.2-10.78,22.58-20.09   c5.38-9.32,7.29-19.69,6.11-29.61c-1.7-14.57-10.03-28.17-23.71-36.06C406.935,275.58,227.5,227.5,227.5,227.5z" fill="#ffc743"/><path d="M227.5,227.5l179.435-48.079c13.671-7.901,21.996-21.496,23.695-36.061   c1.18-9.92-0.73-20.29-6.11-29.61c-5.38-9.31-13.4-16.15-22.58-20.09c-13.47-5.81-29.419-5.4-43.089,2.49L227.5,227.5z" fill="#ffc743"/><path d="M227.5,227.5L96.15,96.15c-13.67-7.89-29.62-8.3-43.09-2.49c-9.18,3.94-17.2,10.78-22.58,20.09   c-5.38,9.32-7.29,19.69-6.11,29.61c1.7,14.57,10.03,28.17,23.71,36.06C48.065,179.42,227.5,227.5,227.5,227.5z" fill="#ffc743"/><path d="M227.5,227.5L48.065,275.579c-13.671,7.901-21.996,21.496-23.695,36.061   c-1.18,9.92,0.73,20.29,6.11,29.61c5.38,9.31,13.4,16.15,22.58,20.09c13.47,5.81,29.42,5.4,43.09-2.49L227.5,227.5z" fill="#ffc743"/><circle cx="227" cy="227" r="45" fill="#ffd572"/></g><g transform="matrix(0.08510638028383255 0 0 0.08510638028383255 242.5 67.5)" id="L1_168"><rect x="170px" y="102px" width="128px" height="70px" fill="#ff382e"/><rect x="140px" y="222px" width="188px" height="70px" fill="#ff382e"/><rect x="150px" y="342px" width="168px" height="30px" fill="#de2f1b"/><rect x="110px" y="342px" width="50px" height="120px" fill="#ff382e"/><rect x="309px" y="342px" width="49px" height="120px" fill="#ff382e"/><path d="M234.999,60c-4.142,0-7.5-3.358-7.5-7.5v-45c0-4.142,3.358-7.5,7.5-7.5s7.5,3.358,7.5,7.5v45   C242.499,56.642,239.141,60,234.999,60z" fill="#1c1918"/><rect x="235px" y="372px" width="74px" height="90px" fill="#d19884"/><rect x="160px" y="372px" width="74px" height="90px" fill="#c1765b"/><path d="M349.25,282.5 120.74,282.5 90.74,342.5 379.25,342.5z" fill="#3f3736"/><path d="M319.25,162.5 150.74,162.5 120.74,222.5 349.25,222.5z" fill="#3f3736"/><path d="M235,42.5 150.74,102.5 319.25,102.5z" fill="#3f3736"/><path d="M339.254,230h-208.51c-15.796,0-29.985-10.026-35.308-24.949c-1.392-3.901,0.643-8.192,4.544-9.583   c3.899-1.394,8.191,0.643,9.583,4.544c3.198,8.965,11.709,14.988,21.18,14.988h208.51c9.472,0,17.984-6.025,21.181-14.992   c1.391-3.901,5.68-5.937,9.583-4.546c3.901,1.391,5.937,5.681,4.546,9.583C369.244,219.971,355.054,230,339.254,230z" fill="#3f3736"/><path d="M309.254,110h-148.51c-15.796,0-29.985-10.026-35.308-24.949c-1.392-3.901,0.643-8.192,4.544-9.583   c3.897-1.394,8.192,0.643,9.583,4.544C142.762,88.977,151.273,95,160.744,95h148.51c9.473,0,17.984-6.025,21.181-14.993   c1.391-3.901,5.679-5.937,9.583-4.546c3.901,1.391,5.937,5.681,4.546,9.583C339.244,99.971,325.054,110,309.254,110z" fill="#3f3736"/><path d="M369.254,350h-268.51c-15.796,0-29.985-10.026-35.308-24.949c-1.392-3.901,0.643-8.192,4.544-9.583   c3.897-1.394,8.192,0.643,9.583,4.544C82.762,328.977,91.273,335,100.744,335h268.51c9.473,0,17.984-6.025,21.181-14.992   c1.391-3.902,5.682-5.938,9.583-4.546c3.902,1.391,5.938,5.681,4.546,9.583C399.244,339.971,385.054,350,369.254,350z" fill="#3f3736"/><path d="M309.254,380h-148.51c-4.142,0-7.5-3.358-7.5-7.5s3.358-7.5,7.5-7.5h148.51   c4.142,0,7.5,3.358,7.5,7.5S313.396,380,309.254,380z" fill="#d19884"/><path d="M397.5,470h-325c-4.142,0-7.5-3.358-7.5-7.5s3.358-7.5,7.5-7.5h325c4.142,0,7.5,3.358,7.5,7.5   S401.642,470,397.5,470z" fill="#ff382e"/></g><g transform="matrix(0.1538461595773697 0 0 0.1538461595773697 315 140)" id="L1_169"><path d="M425,87.307H140.414v30H455C455,100.738,441.569,87.307,425,87.307z" fill="#b2afaf"/><path d="M284.586,103.807c-4.142,0-7.5,3.357-7.5,7.5v99.333h15v-99.333   C292.086,107.164,288.729,103.807,284.586,103.807z" fill="#c1765b"/><rect x="0px" y="80px" width="140px" height="43px" fill="#ff382e"/><path d="M140.414,133.973c-4.142,0-7.5-3.357-7.5-7.5V78.14c0-4.143,3.358-7.5,7.5-7.5s7.5,3.357,7.5,7.5   v48.333C147.914,130.615,144.556,133.973,140.414,133.973z" fill="#ff382e"/><path d="M330.957,328.524h-46.371c-9.325-17.827-27.983-30-49.495-30h-15.182   c-21.512,0-40.171,12.173-49.495,30h-46.371c-30.837,0-55.836,24.998-55.836,55.836h318.586   C386.793,353.523,361.795,328.524,330.957,328.524z" fill="#d19884"/><path d="M170.414,103.807c-4.142,0-7.5,3.357-7.5,7.5v99.333h15v-99.333   C177.914,107.164,174.556,103.807,170.414,103.807z" fill="#c1765b"/><rect x="68px" y="200px" width="318px" height="43px" fill="#3f3736"/><path d="M98.207,253.974c-4.142,0-7.5-3.357-7.5-7.5v-48.333c0-4.143,3.358-7.5,7.5-7.5s7.5,3.357,7.5,7.5   v48.333C105.707,250.616,102.349,253.974,98.207,253.974z" fill="#3f3736"/><path d="M128.207,253.974c-4.142,0-7.5-3.357-7.5-7.5v-48.333c0-4.143,3.358-7.5,7.5-7.5s7.5,3.357,7.5,7.5   v48.333C135.707,250.616,132.349,253.974,128.207,253.974z" fill="#3f3736"/><path d="M170.414,230.474c-4.142,0-7.5,3.357-7.5,7.5V384.36h15V237.974   C177.914,233.831,174.556,230.474,170.414,230.474z" fill="#c1765b"/><path d="M284.586,230.474c-4.142,0-7.5,3.357-7.5,7.5V384.36h15V237.974   C292.086,233.831,288.729,230.474,284.586,230.474z" fill="#c1765b"/></g><g transform="matrix(0.14860397881117068 -0.03981831611450485 0.03981831611450485 0.14860397881117068 132.1339292082604 150.25126304036013)" id="L1_170"><path d="M260.829,310.84c0,0.01-60,107.33-60,107.33l-59.99-107.32c18.47-7.71,38.73-11.96,59.99-11.96   S242.359,303.14,260.829,310.84z" fill="#1c1918"/><path d="M128.759,210.84l72.075-10l72.075,10c-11.75,28.22-39.6,48.05-72.08,48.05   C168.359,258.89,140.509,239.06,128.759,210.84z" fill="#3f3736"/><path d="M272.909,150.84l-72.075,10l-72.075-10c11.75-28.22,39.6-48.05,72.07-48.05   C233.309,102.79,261.159,122.62,272.909,150.84z" fill="#3f3736"/><path d="M363.609,30v284.59h30V0C377.039,0,363.609,13.43,363.609,30z" fill="#b2afaf"/><rect x="356px" y="314px" width="43px" height="140px" fill="#ff382e"/><path d="M44.729,455h104.24l51.862-20v-46.84l-59.993-77.31C84.399,334.35,44.729,390.04,44.729,455z" fill="#3f3736"/><path d="M356.939,455h-207.97l111.86-144.15C317.269,334.35,356.939,390.04,356.939,455z" fill="#655f5e"/><path d="M272.909,150.84c3.85,9.23,5.98,19.37,5.98,30c0,10.63-2.13,20.77-5.98,30h-144.15   c-3.85-9.23-5.98-19.37-5.98-30c0-10.63,2.13-20.77,5.98-30H272.909z" fill="#ffbc99"/><path d="M402.771,322.086h-48.333c-4.143,0-7.5-3.357-7.5-7.5s3.357-7.5,7.5-7.5h48.333   c4.143,0,7.5,3.357,7.5,7.5S406.914,322.086,402.771,322.086z" fill="#de2f1b"/><path d="M181.131,194.341c-3.628,0-6.655-2.577-7.35-6h-9.92c-4.143,0-7.5-3.357-7.5-7.5s3.357-7.5,7.5-7.5   h17.27c4.143,0,7.5,3.357,7.5,7.5v6C188.631,190.983,185.273,194.341,181.131,194.341z" fill="#3f3736"/><path d="M220.533,194.341c-4.143,0-7.5-3.357-7.5-7.5v-6c0-4.143,3.357-7.5,7.5-7.5h17.27   c4.143,0,7.5,3.357,7.5,7.5s-3.357,7.5-7.5,7.5h-9.92C227.188,191.764,224.161,194.341,220.533,194.341z" fill="#3f3736"/></g><g transform="matrix(0.10988938808441162 0 0 0.10988938808441162 62.5 237.5)" id="L1_171"><path d="M448.092,28.12 406.043,70.17 317.723,158.5 296.503,179.71 275.293,158.5 296.503,137.29    384.832,48.96 426.883,6.91z" fill="#ffbc99"/><rect x="142px" y="244px" width="105px" height="29px" transform="matrix(0.7071 -0.7071 0.7071 0.7071 -126.5779 214.104)" fill="#ffbc99"/><path d="M147.232,286.56 61.501,372.371 82.631,393.501 168.442,307.77z" fill="#ff382e"/><rect x="221px" y="180px" width="75px" height="29px" transform="matrix(0.7071 -0.7071 0.7071 0.7071 -62.5479 240.6261)" fill="#ff382e"/><path d="M377.922,0 384.832,48.96 296.503,137.29 289.592,88.33z" fill="#ff382e"/><path d="M455.003,77.08 366.672,165.41 317.723,158.5 406.043,70.17z" fill="#ff382e"/><rect x="264px" y="254px" width="63px" height="194px" fill="#ffe3a1"/><path d="M296.503,269.846c-4.143,0-7.5-3.358-7.5-7.5v-79.527l-19.017-19.017   c-2.929-2.929-2.929-7.678,0-10.606c2.931-2.929,7.679-2.929,10.607,0l21.213,21.213c1.406,1.407,2.196,3.314,2.196,5.303v82.633   C304.003,266.488,300.646,269.846,296.503,269.846z" fill="#655f5e"/><path d="M45.072,441.46l-7.01,7.01c-8.7,8.71-22.82,8.71-31.53,0s-8.71-22.83,0-31.53l7.01-7.01   L45.072,441.46z" fill="#655f5e"/><path d="M89.702,386.43c0.31,6.08-1.86,12.26-6.5,16.9l-38.13,38.13l-31.53-31.53l38.13-38.13   c4.64-4.64,10.82-6.81,16.9-6.5c5.32,0.27,10.56,2.43,14.63,6.5C87.272,375.87,89.433,381.11,89.702,386.43z" fill="#3f3736"/></g><g transform="matrix(0.19780220091342926 0 0 0.19780220091342926 217.5 217.5)" id="L1_172"><path d="M7.36,108.5v192.04c0,22.27,18.22,40.49,40.48,40.49h68.18l26.869-193.063L7.36,108.5z" fill="#ff5700"/><path d="M145.58,20.24l-19.44-0.05c-5.57-0.02-13.65,2.84-17.97,6.35L7.36,108.5l125.529,49.468   L145.58,20.24z" fill="#ff8882"/><path d="M7.36,108.5l100.81-81.96c4.32-3.51,12.4-6.37,17.97-6.35l19.44,0.05L175.95,0l107.49,151.32   l-150.551,6.647L7.36,108.5z" fill="#ff8882"/><path d="M447.64,108.5v192.04c0,22.27-18.22,40.49-40.48,40.49h-68.18l-26.869-193.063L447.64,108.5z" fill="#ff8882"/><path d="M447.64,108.5L346.83,26.54c-4.32-3.51-12.4-6.37-17.97-6.35l-19.44,0.05L279.05,0L171.56,151.32   l150.551,6.647L447.64,108.5z" fill="#ffb8b4"/><path d="M146.38,250.05 146.38,455 338.98,455 338.98,260.05z" fill="#ffb8b4"/><path d="M116.02,260.05 116.02,455 146.38,455 146.38,250.05z" fill="#ff8882"/><path d="M116.02,205.688 116.02,260.05 338.98,260.05 338.98,205.688 227.5,195.688z" fill="#de2f1b"/><rect x="116px" y="151px" width="222px" height="54px" fill="#ff382e"/></g><g transform="matrix(0.04136504605412483 0 0 0.04136504605412483 252.5 340)" id="L1_173"><path d="M321.514,159.642L28.5,452.656c12.96,12.96,33.974,12.961,46.934,0l269.547-269.547L321.514,159.642   z" fill="#b2afaf"/><path d="M483.5,55.02 449.603,21.123 424.003,46.723 433.88,70.743 457.9,80.62z" fill="#ff382e"/><path d="M457.9,80.62 424.003,46.723 398.403,72.323 408.28,96.343 432.3,106.22z" fill="#de2f1b"/><path d="M432.3,106.22 398.403,72.323 372.803,97.924 382.68,121.943 406.7,131.82z" fill="#ff382e"/><path d="M406.7,131.821 372.803,97.924 347.203,123.524 357.08,147.543 381.1,157.421z" fill="#de2f1b"/><rect x="326px" y="131px" width="43px" height="47px" transform="matrix(-0.7071 0.7071 -0.7071 -0.7071 705.5222 19.6107)" fill="#ff382e"/><path d="M308.477,146.605c2.929-2.929,7.677-2.929,10.607,0l38.935,38.935c2.929,2.929,2.929,7.678,0,10.607   c-2.929,2.929-7.677,2.929-10.607,0l-38.935-38.935C305.548,154.282,305.548,149.534,308.477,146.605z" fill="#de2f1b"/><path d="M161.986,159.642L455,452.656c-12.96,12.96-33.974,12.961-46.934,0L138.519,183.109L161.986,159.642   z" fill="#655f5e"/><path d="M33.897,21.123 0,55.02 25.6,80.62 49.62,70.743 59.497,46.723z" fill="#19abbf"/><path d="M59.497,46.723 25.6,80.62 51.2,106.22 75.22,96.343 85.097,72.323z" fill="#0b7786"/><path d="M85.097,72.323 51.2,106.22 76.8,131.82 100.82,121.943 110.697,97.924z" fill="#19abbf"/><path d="M110.697,97.924 76.8,131.821 102.4,157.421 126.42,147.543 136.297,123.524z" fill="#0b7786"/><rect x="112px" y="131px" width="43px" height="47px" transform="matrix(0.7071 0.7071 -0.7071 0.7071 149.7369 -49.6493)" fill="#19abbf"/><path d="M125.481,196.146c-2.929-2.929-2.929-7.677,0-10.607l38.935-38.935   c2.929-2.929,7.678-2.929,10.607,0c2.929,2.929,2.929,7.677,0,10.607l-38.935,38.935   C133.159,199.076,128.41,199.075,125.481,196.146z" fill="#0b7786"/></g></defs><g fi:class="KUsePattern"><pattern id="pattern_L1_164" width="350" height="350" patternUnits="userSpaceOnUse"><use xlink:href="#L1_164" x="-350" y="-350"/><use xlink:href="#L1_164" x="0" y="-350"/><use xlink:href="#L1_164" x="350" y="-350"/><use xlink:href="#L1_164" x="-350" y="0"/><use xlink:href="#L1_164" x="0" y="0"/><use xlink:href="#L1_164" x="350" y="0"/><use xlink:href="#L1_164" x="-350" y="350"/><use xlink:href="#L1_164" x="0" y="350"/><use xlink:href="#L1_164" x="350" y="350"/></pattern><rect x="0" y="0" width="100%" height="100%" fill="url(#pattern_L1_164)"/></g><g fi:class="KUsePattern"><pattern id="pattern_L1_165" width="350" height="350" patternUnits="userSpaceOnUse"><use xlink:href="#L1_165" x="-350" y="-350"/><use xlink:href="#L1_165" x="0" y="-350"/><use xlink:href="#L1_165" x="350" y="-350"/><use xlink:href="#L1_165" x="-350" y="0"/><use xlink:href="#L1_165" x="0" y="0"/><use xlink:href="#L1_165" x="350" y="0"/><use xlink:href="#L1_165" x="-350" y="350"/><use xlink:href="#L1_165" x="0" y="350"/><use xlink:href="#L1_165" x="350" y="350"/></pattern><rect x="0" y="0" width="100%" height="100%" fill="url(#pattern_L1_165)"/></g><g fi:class="KUsePattern"><pattern id="pattern_L1_166" width="350" height="350" patternUnits="userSpaceOnUse"><use xlink:href="#L1_166" x="-350" y="-350"/><use xlink:href="#L1_166" x="0" y="-350"/><use xlink:href="#L1_166" x="350" y="-350"/><use xlink:href="#L1_166" x="-350" y="0"/><use xlink:href="#L1_166" x="0" y="0"/><use xlink:href="#L1_166" x="350" y="0"/><use xlink:href="#L1_166" x="-350" y="350"/><use xlink:href="#L1_166" x="0" y="350"/><use xlink:href="#L1_166" x="350" y="350"/></pattern><rect x="0" y="0" width="100%" height="100%" fill="url(#pattern_L1_166)"/></g><g fi:class="KUsePattern"><pattern id="pattern_L1_167" width="350" height="350" patternUnits="userSpaceOnUse"><use xlink:href="#L1_167" x="-350" y="-350"/><use xlink:href="#L1_167" x="0" y="-350"/><use xlink:href="#L1_167" x="350" y="-350"/><use xlink:href="#L1_167" x="-350" y="0"/><use xlink:href="#L1_167" x="0" y="0"/><use xlink:href="#L1_167" x="350" y="0"/><use xlink:href="#L1_167" x="-350" y="350"/><use xlink:href="#L1_167" x="0" y="350"/><use xlink:href="#L1_167" x="350" y="350"/></pattern><rect x="0" y="0" width="100%" height="100%" fill="url(#pattern_L1_167)"/></g><g fi:class="KUsePattern"><pattern id="pattern_L1_168" width="350" height="350" patternUnits="userSpaceOnUse"><use xlink:href="#L1_168" x="-350" y="-350"/><use xlink:href="#L1_168" x="0" y="-350"/><use xlink:href="#L1_168" x="350" y="-350"/><use xlink:href="#L1_168" x="-350" y="0"/><use xlink:href="#L1_168" x="0" y="0"/><use xlink:href="#L1_168" x="350" y="0"/><use xlink:href="#L1_168" x="-350" y="350"/><use xlink:href="#L1_168" x="0" y="350"/><use xlink:href="#L1_168" x="350" y="350"/></pattern><rect x="0" y="0" width="100%" height="100%" fill="url(#pattern_L1_168)"/></g><g fi:class="KUsePattern"><pattern id="pattern_L1_169" width="350" height="350" patternUnits="userSpaceOnUse"><use xlink:href="#L1_169" x="-350" y="-350"/><use xlink:href="#L1_169" x="0" y="-350"/><use xlink:href="#L1_169" x="350" y="-350"/><use xlink:href="#L1_169" x="-350" y="0"/><use xlink:href="#L1_169" x="0" y="0"/><use xlink:href="#L1_169" x="350" y="0"/><use xlink:href="#L1_169" x="-350" y="350"/><use xlink:href="#L1_169" x="0" y="350"/><use xlink:href="#L1_169" x="350" y="350"/></pattern><rect x="0" y="0" width="100%" height="100%" fill="url(#pattern_L1_169)"/></g><g fi:class="KUsePattern"><pattern id="pattern_L1_170" width="350" height="350" patternUnits="userSpaceOnUse"><use xlink:href="#L1_170" x="-350" y="-350"/><use xlink:href="#L1_170" x="0" y="-350"/><use xlink:href="#L1_170" x="350" y="-350"/><use xlink:href="#L1_170" x="-350" y="0"/><use xlink:href="#L1_170" x="0" y="0"/><use xlink:href="#L1_170" x="350" y="0"/><use xlink:href="#L1_170" x="-350" y="350"/><use xlink:href="#L1_170" x="0" y="350"/><use xlink:href="#L1_170" x="350" y="350"/></pattern><rect x="0" y="0" width="100%" height="100%" fill="url(#pattern_L1_170)"/></g><g fi:class="KUsePattern"><pattern id="pattern_L1_171" width="350" height="350" patternUnits="userSpaceOnUse"><use xlink:href="#L1_171" x="-350" y="-350"/><use xlink:href="#L1_171" x="0" y="-350"/><use xlink:href="#L1_171" x="350" y="-350"/><use xlink:href="#L1_171" x="-350" y="0"/><use xlink:href="#L1_171" x="0" y="0"/><use xlink:href="#L1_171" x="350" y="0"/><use xlink:href="#L1_171" x="-350" y="350"/><use xlink:href="#L1_171" x="0" y="350"/><use xlink:href="#L1_171" x="350" y="350"/></pattern><rect x="0" y="0" width="100%" height="100%" fill="url(#pattern_L1_171)"/></g><g fi:class="KUsePattern"><pattern id="pattern_L1_172" width="350" height="350" patternUnits="userSpaceOnUse"><use xlink:href="#L1_172" x="-350" y="-350"/><use xlink:href="#L1_172" x="0" y="-350"/><use xlink:href="#L1_172" x="350" y="-350"/><use xlink:href="#L1_172" x="-350" y="0"/><use xlink:href="#L1_172" x="0" y="0"/><use xlink:href="#L1_172" x="350" y="0"/><use xlink:href="#L1_172" x="-350" y="350"/><use xlink:href="#L1_172" x="0" y="350"/><use xlink:href="#L1_172" x="350" y="350"/></pattern><rect x="0" y="0" width="100%" height="100%" fill="url(#pattern_L1_172)"/></g><g fi:class="KUsePattern"><pattern id="pattern_L1_173" width="350" height="350" patternUnits="userSpaceOnUse"><use xlink:href="#L1_173" x="-350" y="-350"/><use xlink:href="#L1_173" x="0" y="-350"/><use xlink:href="#L1_173" x="350" y="-350"/><use xlink:href="#L1_173" x="-350" y="0"/><use xlink:href="#L1_173" x="0" y="0"/><use xlink:href="#L1_173" x="350" y="0"/><use xlink:href="#L1_173" x="-350" y="350"/><use xlink:href="#L1_173" x="0" y="350"/><use xlink:href="#L1_173" x="350" y="350"/></pattern><rect x="0" y="0" width="100%" height="100%" fill="url(#pattern_L1_173)"/></g></svg>