<svg id="svg" version="1.1" width="400" height="58.49535080304311" viewBox="0 0 400 58.49535080304311" xmlns="http://www.w3.org/2000/svg" xmlns:xlink="http://www.w3.org/1999/xlink" ><g id="svgg"><path id="path0" d="M168.331 27.875 C 168.329 43.167,168.407 42.123,167.180 43.336 C 165.364 45.131,163.006 45.521,158.750 44.730 C 157.380 44.476,160.366 46.508,161.917 46.885 C 162.924 47.130,166.178 47.222,166.389 47.011 C 166.487 46.913,166.735 46.833,166.940 46.833 C 167.146 46.833,167.360 46.758,167.417 46.667 C 167.473 46.575,167.687 46.500,167.891 46.500 C 168.264 46.500,169.706 45.130,170.126 44.377 C 170.287 44.088,170.333 40.919,170.333 30.260 L 170.333 16.516 169.463 15.591 C 168.985 15.083,168.535 14.667,168.463 14.667 C 168.392 14.667,168.333 20.610,168.331 27.875 M49.630 26.109 L 49.583 28.250 34.583 28.336 C 26.333 28.383,19.565 28.439,19.542 28.461 C 19.519 28.482,19.500 30.863,19.500 33.750 L 19.500 39.000 20.583 39.000 L 21.667 39.000 21.667 34.833 L 21.667 30.667 36.667 30.667 L 51.667 30.667 51.667 28.321 C 51.667 26.668,51.605 25.914,51.458 25.767 C 51.344 25.652,51.022 25.301,50.743 24.987 C 49.651 23.757,49.682 23.725,49.630 26.109 M355.460 34.631 L 355.417 45.083 353.250 45.127 C 350.510 45.182,350.428 45.211,351.169 45.863 C 352.711 47.219,352.556 47.167,355.057 47.167 L 357.333 47.167 357.333 36.617 L 357.333 26.067 356.625 25.212 C 356.235 24.741,355.823 24.317,355.710 24.267 C 355.546 24.197,355.493 26.378,355.460 34.631 M386.500 26.249 L 386.500 28.331 375.875 28.374 L 365.250 28.417 365.206 33.415 C 365.154 39.277,365.055 38.764,366.229 38.693 L 367.167 38.636 367.167 34.651 L 367.167 30.667 377.833 30.667 L 388.500 30.667 388.500 28.429 C 388.500 25.963,388.597 26.244,387.181 24.626 C 386.552 23.908,386.500 24.031,386.500 26.249 M161.525 32.004 C 161.643 39.381,161.639 39.336,162.203 39.328 C 163.184 39.314,163.167 39.432,163.165 32.898 L 163.163 26.917 162.330 26.042 C 161.871 25.560,161.478 25.167,161.456 25.167 C 161.435 25.166,161.466 28.243,161.525 32.004 M215.579 25.667 C 216.335 29.843,215.838 32.520,213.914 34.635 L 213.126 35.500 210.030 35.500 L 206.933 35.500 208.077 36.583 L 209.221 37.667 212.029 37.667 C 213.966 37.667,214.954 37.602,215.211 37.458 C 215.795 37.132,216.333 36.628,216.333 36.408 C 216.333 36.298,216.444 36.115,216.580 36.003 C 216.900 35.737,217.333 34.864,217.333 34.484 C 217.333 34.320,217.408 34.140,217.500 34.083 C 217.592 34.027,217.667 33.737,217.667 33.440 C 217.667 33.143,217.750 32.817,217.851 32.716 C 218.153 32.414,217.794 28.406,217.369 27.329 C 217.278 27.098,216.814 26.498,216.339 25.996 L 215.474 25.083 215.579 25.667 M324.333 32.003 L 324.333 38.659 324.745 38.928 C 325.044 39.125,325.338 39.167,325.828 39.084 L 326.500 38.971 326.500 33.577 C 326.500 28.446,326.433 27.579,326.003 27.167 C 325.956 27.121,325.560 26.693,325.125 26.215 L 324.333 25.348 324.333 32.003 M279.055 25.849 C 279.114 26.070,279.163 29.083,279.164 32.546 L 279.167 38.842 279.604 39.008 C 279.844 39.099,280.294 39.127,280.604 39.068 L 281.167 38.963 281.167 33.470 C 281.167 28.033,281.129 27.607,280.599 27.074 C 280.499 26.973,280.186 26.628,279.905 26.307 C 279.184 25.485,278.919 25.342,279.055 25.849 M88.996 34.183 C 88.993 42.429,88.980 42.766,88.667 43.167 C 88.487 43.396,88.339 43.669,88.337 43.774 C 88.332 44.046,87.232 44.978,86.789 45.086 C 86.584 45.136,79.430 45.156,70.891 45.130 C 61.348 45.101,55.402 45.143,55.461 45.238 C 55.606 45.473,56.647 46.368,57.267 46.792 L 57.816 47.167 73.449 47.154 C 90.568 47.141,89.767 47.187,90.265 46.197 C 90.365 45.998,90.571 45.698,90.723 45.530 C 90.974 45.253,91.000 44.400,91.000 36.546 L 91.000 27.867 90.292 27.077 C 89.902 26.642,89.452 26.135,89.292 25.951 C 89.013 25.631,89.000 26.007,88.996 34.183 M346.333 35.416 L 346.333 45.167 344.000 45.167 C 341.478 45.167,341.395 45.202,342.208 45.934 C 343.623 47.206,343.504 47.167,345.939 47.167 L 348.167 47.167 348.167 37.448 C 348.167 28.428,348.146 27.706,347.875 27.403 C 347.715 27.224,347.302 26.759,346.958 26.371 L 346.333 25.666 346.333 35.416 M128.500 34.301 L 128.500 42.768 128.023 43.509 C 127.761 43.917,127.343 44.438,127.093 44.667 L 126.640 45.083 110.735 45.083 L 94.829 45.083 95.373 45.586 C 95.672 45.863,96.227 46.332,96.607 46.628 L 97.298 47.167 113.066 47.167 C 123.466 47.167,128.833 47.110,128.833 47.000 C 128.833 46.908,128.951 46.833,129.095 46.833 C 129.416 46.833,129.833 46.437,129.833 46.132 C 129.833 46.008,129.983 45.799,130.167 45.667 C 130.493 45.432,130.500 45.235,130.500 36.639 L 130.500 27.851 129.661 26.842 C 129.199 26.287,128.749 25.833,128.661 25.833 C 128.560 25.833,128.500 28.980,128.500 34.301 M255.333 34.245 C 255.333 43.567,255.382 43.124,254.215 44.363 C 253.433 45.193,253.850 45.174,237.375 45.127 C 228.827 45.103,221.833 45.138,221.833 45.205 C 221.833 45.271,222.335 45.740,222.949 46.246 L 224.065 47.167 239.773 47.167 C 250.065 47.167,255.516 47.109,255.583 47.000 C 255.640 46.908,255.800 46.833,255.938 46.833 C 256.233 46.833,256.667 46.439,256.667 46.172 C 256.667 46.070,256.817 45.825,257.000 45.628 C 257.324 45.280,257.333 45.040,257.333 36.579 L 257.333 27.887 256.792 27.247 C 256.131 26.467,255.511 25.833,255.409 25.833 C 255.367 25.833,255.333 29.619,255.333 34.245 M301.000 35.465 L 301.000 45.167 298.667 45.167 C 296.006 45.167,296.038 45.144,297.208 46.210 C 298.286 47.192,298.279 47.191,300.833 47.132 L 302.917 47.083 302.960 37.695 C 303.008 27.155,303.078 27.804,301.745 26.495 L 301.000 25.764 301.000 35.465 M138.333 33.583 L 138.333 39.000 139.333 39.000 L 140.333 39.000 140.333 34.667 L 140.333 30.333 147.816 30.333 C 156.227 30.333,155.500 30.461,155.500 28.986 L 155.500 28.167 146.917 28.167 L 138.333 28.167 138.333 33.583 M194.167 36.667 L 194.167 45.167 191.833 45.167 C 189.155 45.167,189.229 45.114,190.375 46.191 C 191.443 47.195,191.427 47.191,194.000 47.132 L 196.083 47.083 196.127 38.734 L 196.170 30.385 198.695 30.276 C 200.083 30.216,203.083 30.167,205.360 30.167 L 209.500 30.167 209.500 29.167 L 209.500 28.167 201.833 28.167 L 194.167 28.167 194.167 36.667 M264.833 36.667 L 264.833 45.167 262.528 45.167 C 259.833 45.167,259.818 45.174,260.721 45.972 C 261.102 46.308,261.513 46.677,261.635 46.791 C 261.995 47.129,262.470 47.182,264.667 47.132 L 266.750 47.083 266.793 38.708 L 266.836 30.333 270.064 30.333 L 273.292 30.333 273.396 29.813 C 273.453 29.526,273.500 29.039,273.500 28.729 L 273.500 28.167 269.167 28.167 L 264.833 28.167 264.833 36.667 M286.500 34.944 L 286.500 41.721 286.101 42.402 C 284.790 44.638,281.239 45.656,277.504 44.866 L 275.924 44.532 276.647 45.186 C 277.669 46.112,278.758 46.710,279.739 46.886 C 281.098 47.130,284.187 47.213,284.389 47.011 C 284.487 46.913,284.735 46.833,284.940 46.833 C 285.146 46.833,285.360 46.758,285.417 46.667 C 285.473 46.575,285.694 46.500,285.906 46.500 C 286.119 46.500,286.392 46.380,286.514 46.233 C 286.636 46.086,286.909 45.899,287.121 45.819 C 287.333 45.738,287.572 45.499,287.652 45.288 C 287.733 45.076,287.919 44.803,288.066 44.681 C 288.296 44.490,288.333 43.966,288.333 40.930 C 288.333 38.851,288.400 37.333,288.496 37.237 C 288.589 37.145,288.679 35.627,288.705 33.745 L 288.750 30.417 291.853 30.371 L 294.956 30.326 295.061 29.556 C 295.272 28.019,295.722 28.167,290.833 28.167 L 286.500 28.167 286.500 34.944 M310.127 36.625 L 310.083 45.083 307.750 45.167 C 305.175 45.259,305.176 45.258,306.198 46.153 C 307.311 47.127,307.453 47.167,309.821 47.167 L 311.997 47.167 312.040 38.792 L 312.083 30.417 315.353 30.372 L 318.622 30.326 318.728 29.557 C 318.939 28.019,319.388 28.167,314.502 28.167 L 310.170 28.167 310.127 36.625 M331.833 34.958 C 331.832 41.573,331.823 41.765,331.480 42.333 C 330.085 44.646,326.609 45.664,322.833 44.866 L 321.250 44.531 322.083 45.280 C 323.649 46.687,324.576 46.985,327.792 47.112 C 329.049 47.162,329.667 47.129,329.667 47.010 C 329.667 46.913,329.892 46.833,330.167 46.833 C 330.442 46.833,330.667 46.758,330.667 46.667 C 330.667 46.575,330.882 46.500,331.146 46.500 C 331.410 46.500,331.726 46.380,331.848 46.233 C 331.970 46.086,332.243 45.899,332.454 45.819 C 332.666 45.738,332.905 45.499,332.986 45.288 C 333.066 45.076,333.252 44.803,333.399 44.681 C 333.630 44.490,333.667 43.959,333.667 40.846 C 333.667 38.715,333.733 37.167,333.830 37.070 C 333.921 36.979,334.012 35.488,334.038 33.662 L 334.083 30.417 337.188 30.371 L 340.293 30.326 340.375 29.371 C 340.421 28.846,340.426 28.360,340.386 28.292 C 340.346 28.223,338.406 28.167,336.073 28.167 L 331.833 28.167 331.833 34.958 M59.268 29.430 C 59.212 29.575,59.167 31.788,59.167 34.347 L 59.167 39.000 60.164 39.000 L 61.160 39.000 61.205 35.208 L 61.250 31.417 71.937 31.374 L 82.623 31.331 82.727 30.707 C 82.783 30.364,82.830 29.877,82.831 29.625 L 82.833 29.167 71.101 29.167 C 60.557 29.167,59.359 29.193,59.268 29.430 M98.833 34.083 L 98.833 39.000 99.747 39.000 L 100.660 39.000 100.705 35.208 L 100.750 31.417 111.542 31.374 L 122.333 31.331 122.333 30.249 L 122.333 29.167 110.583 29.167 L 98.833 29.167 98.833 34.083 M225.667 34.083 L 225.667 39.000 226.580 39.000 L 227.494 39.000 227.539 35.208 L 227.583 31.417 238.273 31.374 L 248.962 31.331 249.062 30.957 C 249.117 30.752,249.163 30.265,249.164 29.875 L 249.167 29.167 237.417 29.167 L 225.667 29.167 225.667 34.083 M375.509 34.375 C 375.247 35.411,374.335 36.395,373.474 36.572 C 372.204 36.831,371.630 36.864,371.452 36.686 C 371.350 36.583,371.199 36.500,371.117 36.500 C 370.921 36.500,371.902 37.452,372.748 38.082 C 373.554 38.683,375.279 38.865,376.000 38.426 C 376.229 38.286,376.548 38.125,376.708 38.067 C 376.869 38.009,377.000 37.869,377.000 37.756 C 377.000 37.644,377.150 37.416,377.333 37.250 C 377.780 36.846,377.788 35.691,377.348 35.184 C 377.173 34.982,376.789 34.521,376.493 34.159 C 375.809 33.319,375.774 33.326,375.509 34.375 M49.636 40.308 C 49.705 45.647,49.896 45.166,47.705 45.169 C 45.692 45.172,45.256 45.302,45.883 45.713 C 46.105 45.858,46.391 46.078,46.518 46.202 C 47.411 47.071,47.732 47.167,49.734 47.167 L 51.667 47.167 51.667 42.891 L 51.667 38.615 51.259 38.081 C 51.035 37.787,50.566 37.249,50.218 36.886 L 49.583 36.226 49.636 40.308 M43.200 38.367 C 43.058 38.509,43.000 39.522,43.000 41.867 L 43.000 45.167 29.667 45.167 C 22.333 45.167,16.333 45.214,16.333 45.272 C 16.333 45.404,17.045 46.044,17.900 46.682 L 18.550 47.167 31.775 47.167 L 45.000 47.167 45.000 46.268 C 45.000 45.596,44.932 45.343,44.732 45.266 C 44.497 45.176,44.472 44.774,44.522 41.873 C 44.553 40.064,44.519 38.490,44.446 38.375 C 44.277 38.110,43.462 38.104,43.200 38.367 M386.500 42.490 L 386.500 45.167 374.444 45.167 C 361.992 45.167,361.925 45.170,362.545 45.703 C 362.749 45.879,363.114 46.198,363.355 46.412 C 364.227 47.185,363.916 47.167,376.489 47.167 L 388.500 47.167 388.500 44.592 L 388.500 42.017 387.671 41.021 C 387.215 40.473,386.765 39.977,386.671 39.919 C 386.557 39.849,386.500 40.703,386.500 42.490 M153.664 42.521 C 153.663 43.747,153.601 44.845,153.528 44.961 C 153.421 45.128,151.477 45.163,144.197 45.128 C 137.750 45.097,135.000 45.137,135.000 45.262 C 135.000 45.462,135.504 45.926,136.525 46.666 L 137.217 47.167 146.358 47.167 L 155.500 47.167 155.500 44.765 L 155.500 42.363 154.861 41.557 C 153.643 40.019,153.667 39.999,153.664 42.521 M209.167 45.301 C 209.167 45.452,210.010 46.264,210.731 46.805 C 211.183 47.145,211.392 47.167,214.271 47.167 L 217.330 47.167 217.040 46.807 C 216.881 46.609,216.498 46.159,216.189 45.807 L 215.628 45.167 212.397 45.167 C 210.620 45.167,209.167 45.227,209.167 45.301 " stroke="none" fill="#424242" fill-rule="evenodd"></path><path id="path1" d="M168.950 15.083 C 169.271 15.404,169.578 15.667,169.633 15.667 C 169.687 15.667,169.478 15.404,169.167 15.083 C 168.856 14.762,168.548 14.500,168.484 14.500 C 168.419 14.500,168.629 14.762,168.950 15.083 M170.338 30.211 C 170.334 40.903,170.287 44.088,170.126 44.377 C 169.706 45.130,168.264 46.500,167.891 46.500 C 167.687 46.500,167.473 46.575,167.417 46.667 C 167.360 46.758,167.146 46.833,166.940 46.833 C 166.735 46.833,166.487 46.913,166.389 47.011 C 166.178 47.222,162.924 47.130,161.917 46.885 C 160.829 46.621,159.799 46.072,159.000 45.333 L 158.250 44.639 158.917 44.726 L 159.583 44.813 158.917 44.586 C 158.550 44.461,158.060 44.353,157.827 44.346 C 157.389 44.333,155.833 42.925,155.833 42.542 C 155.833 42.309,153.862 40.167,153.648 40.167 C 153.566 40.167,153.516 41.235,153.534 42.542 L 153.569 44.917 153.659 42.615 L 153.750 40.313 154.264 40.865 C 155.522 42.216,155.500 42.147,155.500 44.772 L 155.500 47.167 146.358 47.167 L 137.217 47.167 136.525 46.666 C 135.380 45.836,135.000 45.455,135.000 45.137 C 135.000 44.821,134.753 44.725,134.596 44.980 C 134.546 45.060,134.898 45.486,135.378 45.925 C 135.857 46.364,136.662 47.106,137.167 47.574 C 137.671 48.041,138.450 48.741,138.898 49.128 L 139.714 49.833 148.940 49.833 L 158.167 49.833 158.167 47.417 C 158.167 46.087,158.202 45.000,158.246 45.000 C 158.289 45.000,158.645 45.293,159.037 45.651 C 161.915 48.280,163.010 49.125,163.784 49.318 C 164.224 49.427,164.814 49.588,165.095 49.675 C 165.776 49.886,168.952 49.879,169.083 49.667 C 169.140 49.575,169.365 49.500,169.583 49.500 C 169.802 49.500,170.027 49.425,170.083 49.333 C 170.140 49.242,170.353 49.167,170.557 49.167 C 170.930 49.167,172.537 47.635,172.959 46.877 C 173.120 46.588,173.167 43.449,173.167 32.930 L 173.167 19.355 171.754 17.886 L 170.342 16.417 170.338 30.211 M49.499 26.034 C 49.454 27.290,49.475 28.259,49.547 28.187 C 49.618 28.115,49.656 27.087,49.630 25.903 L 49.582 23.750 49.499 26.034 M355.294 34.567 C 355.270 40.380,355.306 45.100,355.375 45.058 C 355.444 45.015,355.500 40.293,355.500 34.564 C 355.500 26.732,355.548 24.177,355.692 24.266 C 355.812 24.340,355.840 24.312,355.766 24.192 C 355.386 23.578,355.335 24.702,355.294 34.567 M50.333 24.552 C 50.333 24.581,50.577 24.825,50.875 25.094 L 51.417 25.583 50.927 25.042 C 50.471 24.537,50.333 24.423,50.333 24.552 M356.000 24.552 C 356.000 24.581,356.244 24.825,356.542 25.094 L 357.083 25.583 356.594 25.042 C 356.138 24.537,356.000 24.423,356.000 24.552 M215.183 24.866 C 215.192 24.985,215.260 25.271,215.333 25.500 L 215.467 25.917 215.488 25.500 L 215.510 25.083 216.017 25.641 C 216.296 25.948,216.556 26.166,216.596 26.127 C 216.635 26.087,216.330 25.738,215.917 25.352 C 215.504 24.965,215.174 24.746,215.183 24.866 M161.377 31.967 C 161.417 35.845,161.518 39.085,161.600 39.167 C 161.689 39.256,161.703 38.417,161.636 37.117 C 161.573 35.907,161.521 32.715,161.520 30.023 C 161.520 27.332,161.470 25.082,161.411 25.023 C 161.351 24.965,161.336 28.089,161.377 31.967 M387.667 25.075 C 387.667 25.145,387.854 25.425,388.083 25.697 C 388.482 26.171,388.500 26.286,388.500 28.429 L 388.500 30.667 377.833 30.667 L 367.167 30.667 367.167 34.667 L 367.167 38.667 366.292 38.692 C 365.719 38.708,365.590 38.742,365.917 38.791 C 366.192 38.832,367.185 38.814,368.125 38.750 L 369.833 38.635 369.833 37.295 C 369.833 36.234,369.773 35.899,369.542 35.684 C 368.727 34.927,368.562 33.355,369.202 32.442 C 370.962 29.928,375.683 30.877,375.468 33.703 C 375.397 34.630,375.407 34.679,375.557 34.125 C 375.767 33.345,375.832 33.347,376.493 34.159 C 376.789 34.521,377.173 34.982,377.348 35.184 C 377.788 35.691,377.780 36.846,377.333 37.250 C 377.150 37.416,377.000 37.644,377.000 37.756 C 377.000 37.869,376.869 38.009,376.708 38.067 C 376.548 38.125,376.229 38.286,376.000 38.426 C 375.277 38.867,373.553 38.683,372.751 38.080 C 371.133 36.864,371.043 36.713,371.986 36.803 C 372.345 36.838,372.752 36.802,372.891 36.724 C 373.047 36.637,372.706 36.583,371.988 36.583 C 370.605 36.583,370.626 36.492,371.768 37.550 C 373.259 38.931,373.122 38.898,376.898 38.777 C 380.901 38.647,380.864 38.674,379.371 37.046 C 378.733 36.349,377.263 34.691,376.597 33.917 L 376.168 33.417 383.667 33.373 L 391.167 33.330 391.167 31.104 C 391.167 28.571,391.251 28.774,389.394 26.833 C 388.824 26.238,388.203 25.570,388.012 25.349 C 387.822 25.129,387.667 25.006,387.667 25.075 M325.168 26.246 C 325.580 26.701,325.956 27.114,326.003 27.162 C 326.435 27.599,326.500 28.444,326.500 33.577 L 326.500 38.971 325.828 39.084 C 325.338 39.167,325.033 39.123,324.703 38.922 L 324.250 38.647 324.643 38.990 C 325.069 39.361,325.828 39.437,326.344 39.161 C 326.653 38.995,326.667 38.753,326.667 33.281 L 326.667 27.574 325.543 26.495 C 324.674 25.662,324.589 25.605,325.168 26.246 M301.878 26.627 C 303.090 27.971,303.020 27.238,302.964 37.917 L 302.917 47.083 300.673 47.130 C 298.619 47.173,298.386 47.147,297.923 46.826 C 297.644 46.633,298.193 47.230,299.142 48.154 L 300.867 49.833 303.267 49.833 L 305.667 49.833 305.667 47.918 L 305.667 46.003 306.014 46.293 C 306.916 47.047,309.149 49.017,309.601 49.458 C 309.963 49.812,310.120 49.833,312.409 49.833 L 314.833 49.833 314.833 41.417 L 314.833 33.000 316.727 33.000 L 318.620 33.000 318.725 32.125 C 318.783 31.644,318.819 30.800,318.805 30.250 C 318.791 29.681,318.751 29.482,318.713 29.788 L 318.646 30.326 315.365 30.372 L 312.083 30.417 312.040 38.792 L 311.997 47.167 309.790 47.161 C 308.370 47.157,307.460 47.083,307.238 46.952 C 306.587 46.570,305.349 45.443,305.433 45.307 C 305.479 45.233,305.302 45.215,305.041 45.267 C 304.092 45.457,304.103 45.567,304.232 37.067 C 304.368 28.067,304.564 29.104,302.311 26.917 C 301.097 25.738,301.047 25.704,301.878 26.627 M357.133 25.867 C 357.285 26.018,357.333 28.633,357.333 36.617 L 357.333 47.167 355.042 47.161 C 353.503 47.158,352.663 47.089,352.486 46.953 C 351.430 46.142,350.690 45.431,350.768 45.304 C 350.821 45.219,350.672 45.201,350.428 45.262 C 349.479 45.500,349.500 45.686,349.500 36.931 L 349.500 28.903 348.042 27.398 C 346.754 26.069,346.672 26.043,347.806 27.323 L 348.167 27.730 348.167 37.448 L 348.167 47.167 345.939 47.167 C 343.938 47.167,343.667 47.132,343.272 46.821 C 342.522 46.231,342.789 46.606,343.778 47.532 C 344.298 48.019,345.046 48.735,345.440 49.125 L 346.158 49.833 348.579 49.833 L 351.000 49.833 351.000 47.915 L 351.000 45.997 351.532 46.457 C 352.092 46.942,353.661 48.337,354.701 49.276 L 355.319 49.833 357.659 49.833 L 360.000 49.833 360.000 46.998 C 360.000 44.358,359.917 43.750,359.500 43.333 C 359.033 42.867,359.000 42.313,359.000 35.044 L 359.000 27.583 358.101 26.625 C 357.607 26.098,357.142 25.667,357.068 25.667 C 356.994 25.667,357.023 25.757,357.133 25.867 M162.625 26.341 L 163.167 26.933 163.167 32.948 C 163.167 38.375,163.140 38.975,162.893 39.069 C 162.742 39.127,162.665 39.221,162.722 39.278 C 163.253 39.809,163.333 38.977,163.333 32.929 L 163.333 26.899 162.708 26.324 L 162.083 25.750 162.625 26.341 M280.004 26.413 C 280.322 26.778,280.628 27.115,280.683 27.163 C 281.112 27.535,281.167 28.245,281.167 33.470 L 281.167 38.963 280.604 39.068 C 280.294 39.127,279.845 39.100,279.606 39.009 L 279.171 38.843 279.125 32.380 L 279.079 25.917 279.040 32.355 C 278.996 39.509,278.934 39.122,280.141 39.284 C 281.525 39.470,281.524 39.471,281.467 33.160 L 281.417 27.670 280.420 26.710 C 279.849 26.159,279.671 26.033,280.004 26.413 M51.667 28.333 L 51.667 30.667 36.667 30.667 L 21.667 30.667 21.667 34.833 L 21.667 39.000 20.583 39.000 L 19.500 39.000 19.500 33.764 C 19.500 30.354,19.560 28.498,19.671 28.443 C 19.765 28.396,19.746 28.378,19.629 28.401 C 19.372 28.453,19.227 38.794,19.481 39.047 C 19.570 39.136,20.608 39.149,21.979 39.079 L 24.325 38.958 24.371 36.187 L 24.417 33.417 32.250 33.333 L 40.083 33.250 41.212 32.792 C 42.450 32.289,44.387 32.160,45.284 32.521 C 45.540 32.624,45.900 32.764,46.083 32.833 C 46.267 32.902,46.626 33.043,46.883 33.146 C 47.164 33.259,48.470 33.333,50.175 33.333 L 53.000 33.333 53.000 30.283 L 53.000 27.232 52.436 26.616 C 51.653 25.761,51.667 25.731,51.667 28.333 M215.620 26.861 C 215.721 28.082,215.805 28.248,215.818 27.250 C 215.823 26.792,215.765 26.317,215.687 26.194 C 215.605 26.064,215.577 26.341,215.620 26.861 M346.245 35.583 C 346.245 40.900,346.266 43.099,346.292 40.470 C 346.317 37.841,346.317 33.491,346.292 30.804 C 346.266 28.116,346.245 30.267,346.245 35.583 M90.083 26.811 C 90.358 27.133,90.677 27.500,90.792 27.627 C 91.153 28.027,91.088 45.127,90.723 45.530 C 90.571 45.698,90.365 45.998,90.265 46.197 C 89.767 47.187,90.568 47.141,73.449 47.154 L 57.816 47.167 57.267 46.792 C 55.905 45.861,55.020 44.894,55.687 45.066 L 56.083 45.168 55.703 44.973 C 54.627 44.420,55.061 45.184,56.617 46.581 C 59.259 48.953,59.394 49.072,59.897 49.461 L 60.378 49.833 76.189 49.833 C 86.619 49.833,92.000 49.777,92.000 49.667 C 92.000 49.575,92.135 49.500,92.300 49.500 C 92.670 49.500,93.000 49.188,93.000 48.837 C 93.000 48.692,93.150 48.465,93.333 48.333 C 93.989 47.861,93.820 44.907,93.085 43.982 L 92.503 43.250 92.502 36.226 L 92.500 29.202 91.042 27.713 C 90.240 26.894,89.808 26.488,90.083 26.811 M256.517 26.909 C 256.737 27.180,257.010 27.504,257.125 27.629 C 257.534 28.076,257.415 45.183,257.000 45.628 C 256.817 45.825,256.667 46.070,256.667 46.172 C 256.667 46.439,256.233 46.833,255.938 46.833 C 255.800 46.833,255.640 46.908,255.583 47.000 C 255.516 47.109,250.065 47.167,239.773 47.167 L 224.065 47.167 222.949 46.246 C 221.847 45.337,221.557 44.932,222.125 45.094 C 222.285 45.140,222.247 45.088,222.040 44.979 C 221.241 44.559,221.464 45.071,222.500 46.039 C 224.848 48.230,225.441 48.774,226.047 49.293 L 226.678 49.833 242.397 49.833 C 259.482 49.833,258.975 49.860,259.327 48.934 C 259.403 48.734,259.586 48.470,259.733 48.348 C 259.934 48.181,260.000 47.822,260.000 46.898 L 260.000 45.670 260.356 45.960 C 260.552 46.119,261.133 46.634,261.648 47.104 C 262.162 47.574,262.846 48.173,263.167 48.435 C 263.487 48.698,263.949 49.120,264.192 49.373 L 264.634 49.833 267.067 49.833 L 269.500 49.833 269.500 41.417 L 269.500 33.000 271.396 33.000 L 273.292 33.000 273.396 32.479 C 273.453 32.193,273.490 31.424,273.477 30.771 C 273.465 30.118,273.422 29.752,273.382 29.958 C 273.310 30.332,273.298 30.333,270.073 30.333 L 266.836 30.333 266.793 38.708 L 266.750 47.083 264.667 47.132 C 262.470 47.182,261.995 47.129,261.635 46.791 C 261.513 46.677,261.102 46.308,260.721 45.972 C 260.340 45.635,260.059 45.330,260.096 45.292 C 260.134 45.255,259.949 45.256,259.685 45.295 C 258.921 45.407,258.914 45.316,258.977 37.152 L 259.038 29.388 257.577 27.902 C 256.774 27.085,256.296 26.638,256.517 26.909 M129.667 26.742 C 129.667 26.812,129.854 27.091,130.083 27.364 L 130.500 27.859 130.500 36.643 C 130.500 45.235,130.493 45.432,130.167 45.667 C 129.983 45.799,129.833 46.008,129.833 46.132 C 129.833 46.437,129.416 46.833,129.095 46.833 C 128.951 46.833,128.833 46.908,128.833 47.000 C 128.833 47.110,123.466 47.167,113.066 47.167 L 97.298 47.167 96.607 46.628 C 95.273 45.588,94.687 44.956,95.167 45.077 C 95.532 45.170,95.545 45.159,95.276 44.991 C 95.065 44.859,94.914 44.853,94.797 44.970 C 94.602 45.164,94.699 45.268,96.921 47.250 C 97.744 47.983,98.517 48.678,98.639 48.794 C 98.762 48.910,99.107 49.191,99.405 49.419 L 99.948 49.833 115.615 49.833 C 132.644 49.833,132.141 49.860,132.493 48.934 C 132.570 48.734,132.752 48.470,132.899 48.348 C 133.430 47.907,133.195 43.667,132.640 43.667 C 132.563 43.667,132.500 40.508,132.500 36.648 L 132.500 29.629 131.429 28.523 C 130.840 27.915,130.203 27.236,130.012 27.016 C 129.822 26.796,129.667 26.673,129.667 26.742 M217.283 27.182 C 217.762 28.143,218.196 32.370,217.851 32.716 C 217.750 32.817,217.667 33.143,217.667 33.440 C 217.667 33.737,217.592 34.027,217.500 34.083 C 217.408 34.140,217.333 34.320,217.333 34.484 C 217.333 34.864,216.900 35.737,216.580 36.003 C 216.444 36.115,216.333 36.298,216.333 36.408 C 216.333 36.628,215.795 37.132,215.211 37.458 C 214.953 37.602,213.965 37.667,212.022 37.667 L 209.207 37.667 208.506 36.986 C 208.120 36.612,207.773 36.338,207.735 36.376 C 207.696 36.415,208.600 37.358,209.743 38.473 L 211.821 40.500 214.663 40.500 C 219.378 40.500,219.333 40.564,219.333 33.796 L 219.333 28.976 218.596 28.196 C 218.191 27.768,217.713 27.248,217.535 27.042 C 217.082 26.518,216.980 26.575,217.283 27.182 M168.243 34.333 C 168.243 38.321,168.265 39.952,168.291 37.958 C 168.318 35.965,168.318 32.702,168.291 30.708 C 168.265 28.715,168.243 30.346,168.243 34.333 M146.875 28.125 L 155.500 28.170 155.500 28.988 C 155.500 30.461,156.226 30.333,147.816 30.333 L 140.333 30.333 140.333 34.667 L 140.333 39.000 139.306 39.000 C 138.740 39.000,138.322 39.044,138.375 39.097 C 138.429 39.151,139.490 39.141,140.733 39.075 L 142.992 38.955 143.038 36.019 L 143.083 33.083 149.206 33.040 L 155.328 32.996 155.411 32.623 C 155.625 31.657,155.784 28.404,155.627 28.208 C 155.496 28.046,153.577 28.009,146.855 28.040 L 138.250 28.080 146.875 28.125 M201.833 28.124 L 209.500 28.170 209.500 29.168 L 209.500 30.167 205.360 30.167 C 203.083 30.167,200.083 30.216,198.695 30.276 L 196.170 30.385 196.127 38.734 L 196.083 47.083 193.839 47.130 C 191.775 47.173,191.555 47.148,191.089 46.821 C 190.811 46.625,191.355 47.223,192.298 48.149 L 194.012 49.833 196.434 49.833 L 198.857 49.833 198.803 42.092 C 198.763 36.179,198.701 34.300,198.542 34.142 C 198.204 33.804,198.279 32.008,198.657 31.388 C 199.261 30.398,199.580 30.342,204.833 30.293 L 209.583 30.250 209.583 29.167 L 209.583 28.083 201.875 28.081 L 194.167 28.078 201.833 28.124 M266.958 28.125 C 268.173 28.153,270.160 28.153,271.375 28.125 C 272.590 28.096,271.596 28.073,269.167 28.073 C 266.737 28.073,265.744 28.096,266.958 28.125 M288.625 28.125 C 289.840 28.153,291.827 28.153,293.042 28.125 C 294.256 28.096,293.262 28.073,290.833 28.073 C 288.404 28.073,287.410 28.096,288.625 28.125 M310.079 28.208 C 309.946 28.566,309.910 45.139,310.042 45.058 C 310.110 45.015,310.167 41.198,310.167 36.576 L 310.167 28.172 314.542 28.125 L 318.917 28.078 314.536 28.039 C 311.156 28.009,310.139 28.048,310.079 28.208 M331.778 28.111 C 331.717 28.172,331.666 31.266,331.666 34.986 C 331.665 42.573,331.735 42.111,330.384 43.432 C 330.035 43.773,329.934 43.908,330.160 43.734 C 331.916 42.375,331.832 42.814,331.833 34.953 L 331.833 28.156 336.167 28.203 C 338.550 28.229,340.500 28.194,340.500 28.125 C 340.500 27.971,331.932 27.957,331.778 28.111 M286.373 35.025 L 286.333 41.800 285.744 42.675 C 285.421 43.156,285.275 43.451,285.421 43.330 C 285.567 43.209,285.870 42.796,286.095 42.412 L 286.504 41.714 286.458 34.982 L 286.413 28.250 286.373 35.025 M365.000 33.583 C 365.000 36.471,365.056 38.833,365.125 38.833 C 365.194 38.833,365.250 36.471,365.250 33.583 C 365.250 30.696,365.194 28.333,365.125 28.333 C 365.056 28.333,365.000 30.696,365.000 33.583 M194.077 36.833 C 194.077 41.462,194.099 43.356,194.125 41.042 C 194.151 38.727,194.151 34.940,194.125 32.625 C 194.099 30.310,194.077 32.204,194.077 36.833 M215.879 29.167 C 215.879 29.579,215.911 29.748,215.951 29.542 C 215.991 29.335,215.991 28.998,215.951 28.792 C 215.911 28.585,215.879 28.754,215.879 29.167 M340.360 29.538 L 340.333 30.326 337.208 30.371 L 334.083 30.417 334.038 33.662 C 334.012 35.488,333.921 36.979,333.830 37.070 C 333.733 37.167,333.667 38.715,333.667 40.846 C 333.667 43.959,333.630 44.490,333.399 44.681 C 333.252 44.803,333.066 45.076,332.986 45.288 C 332.905 45.499,332.666 45.738,332.454 45.819 C 332.243 45.899,331.970 46.086,331.848 46.233 C 331.726 46.380,331.410 46.500,331.146 46.500 C 330.882 46.500,330.667 46.575,330.667 46.667 C 330.667 46.758,330.442 46.833,330.167 46.833 C 329.892 46.833,329.667 46.913,329.667 47.010 C 329.667 47.129,329.049 47.162,327.792 47.112 C 324.602 46.986,323.620 46.675,322.167 45.333 L 321.417 44.640 322.083 44.723 C 322.755 44.807,322.625 44.722,321.551 44.375 C 320.559 44.054,320.593 44.095,323.917 47.238 C 324.954 48.218,326.571 49.311,327.148 49.422 C 327.387 49.468,327.903 49.579,328.294 49.669 C 329.224 49.884,332.284 49.882,332.417 49.667 C 332.473 49.575,332.698 49.500,332.917 49.500 C 333.135 49.500,333.360 49.425,333.417 49.333 C 333.473 49.242,333.694 49.167,333.906 49.167 C 334.119 49.167,334.392 49.046,334.514 48.899 C 334.636 48.752,334.909 48.566,335.121 48.486 C 335.333 48.405,335.572 48.166,335.652 47.954 C 335.733 47.743,335.919 47.470,336.066 47.348 C 336.296 47.157,336.333 46.631,336.333 43.583 C 336.333 40.638,336.375 40.006,336.583 39.833 C 336.790 39.662,336.833 39.054,336.833 36.313 L 336.833 33.000 338.568 33.000 L 340.302 33.000 340.416 31.458 C 340.479 30.610,340.498 29.654,340.459 29.333 C 340.396 28.828,340.383 28.855,340.360 29.538 M59.244 29.177 C 59.183 29.275,59.178 29.401,59.233 29.456 C 59.288 29.511,59.333 29.468,59.333 29.361 C 59.333 29.215,62.242 29.167,71.083 29.167 L 82.833 29.167 82.831 29.625 C 82.830 29.877,82.783 30.364,82.727 30.707 L 82.623 31.331 71.937 31.374 L 61.250 31.417 61.205 35.208 L 61.160 39.000 60.136 39.000 C 59.572 39.000,59.157 39.045,59.212 39.101 C 59.268 39.156,60.328 39.148,61.569 39.081 L 63.825 38.960 63.871 36.522 L 63.917 34.083 73.280 34.040 L 82.643 33.997 82.737 33.124 C 82.788 32.643,82.850 31.537,82.874 30.667 L 82.917 29.083 71.136 29.041 C 62.882 29.011,59.321 29.051,59.244 29.177 M98.778 29.111 C 98.588 29.301,98.647 38.968,98.839 39.087 C 98.933 39.145,100.021 39.139,101.255 39.074 L 103.500 38.955 103.500 36.478 L 103.500 34.000 112.898 34.000 L 122.296 34.000 122.416 31.680 C 122.482 30.404,122.486 29.279,122.425 29.180 C 122.301 28.980,98.977 28.912,98.778 29.111 M225.612 29.110 C 225.419 29.303,225.480 38.968,225.674 39.088 C 225.770 39.147,226.819 39.142,228.003 39.077 L 230.158 38.958 230.204 36.521 L 230.250 34.083 239.618 34.040 L 248.985 33.997 249.074 33.457 C 249.123 33.160,249.183 32.054,249.207 31.000 L 249.250 29.083 237.487 29.041 C 231.018 29.017,225.674 29.048,225.612 29.110 M122.333 30.249 L 122.333 31.331 111.542 31.374 L 100.750 31.417 100.705 35.208 L 100.660 39.000 99.747 39.000 L 98.833 39.000 98.833 34.083 L 98.833 29.167 110.583 29.167 L 122.333 29.167 122.333 30.249 M249.164 29.875 C 249.163 30.265,249.117 30.752,249.062 30.957 L 248.962 31.331 238.273 31.374 L 227.583 31.417 227.539 35.208 L 227.494 39.000 226.580 39.000 L 225.667 39.000 225.667 34.083 L 225.667 29.167 237.417 29.167 L 249.167 29.167 249.164 29.875 M295.028 29.788 L 295.000 30.326 291.875 30.371 L 288.750 30.417 288.705 33.745 C 288.679 35.627,288.589 37.145,288.496 37.237 C 288.400 37.333,288.333 38.851,288.333 40.930 C 288.333 43.966,288.296 44.490,288.066 44.681 C 287.919 44.803,287.733 45.076,287.652 45.288 C 287.572 45.499,287.333 45.738,287.121 45.819 C 286.909 45.899,286.636 46.086,286.514 46.233 C 286.392 46.380,286.119 46.500,285.906 46.500 C 285.694 46.500,285.473 46.575,285.417 46.667 C 285.360 46.758,285.146 46.833,284.940 46.833 C 284.735 46.833,284.487 46.913,284.389 47.011 C 284.187 47.213,281.098 47.130,279.739 46.886 C 278.765 46.711,277.677 46.117,276.739 45.247 L 276.083 44.639 276.833 44.723 C 277.564 44.805,277.568 44.803,277.000 44.639 C 276.679 44.545,276.248 44.403,276.042 44.322 C 275.391 44.065,275.627 44.414,276.962 45.684 C 280.042 48.614,281.011 49.302,282.406 49.552 C 283.765 49.796,286.854 49.879,287.056 49.677 C 287.153 49.580,287.401 49.500,287.607 49.500 C 287.812 49.500,288.027 49.425,288.083 49.333 C 288.140 49.242,288.345 49.167,288.538 49.167 C 288.732 49.167,289.028 49.042,289.196 48.890 C 289.365 48.738,289.669 48.530,289.873 48.428 C 290.077 48.327,290.327 48.077,290.428 47.873 C 290.530 47.669,290.738 47.365,290.890 47.196 C 291.129 46.932,291.167 46.417,291.167 43.372 C 291.167 41.206,291.231 39.813,291.333 39.750 C 291.435 39.687,291.500 38.359,291.500 36.323 L 291.500 33.000 293.236 33.000 L 294.972 33.000 295.083 31.792 C 295.145 31.127,295.164 30.283,295.125 29.917 C 295.064 29.327,295.053 29.312,295.028 29.788 M88.833 36.283 C 88.787 39.969,88.807 42.926,88.877 42.856 C 88.947 42.787,88.984 39.772,88.960 36.156 L 88.916 29.583 88.833 36.283 M255.167 36.367 C 255.121 40.006,255.140 42.926,255.210 42.856 C 255.280 42.787,255.318 39.809,255.294 36.240 L 255.250 29.750 255.167 36.367 M215.693 30.611 C 215.679 30.902,215.624 31.277,215.571 31.445 C 215.480 31.733,215.486 31.733,215.664 31.455 C 215.769 31.292,215.824 30.917,215.787 30.621 L 215.720 30.083 215.693 30.611 M214.589 33.598 C 214.434 33.835,214.335 34.058,214.370 34.093 C 214.406 34.128,214.566 33.934,214.727 33.662 C 215.086 33.053,214.978 33.004,214.589 33.598 M213.587 34.830 L 213.112 35.326 210.264 35.375 L 207.417 35.425 210.259 35.463 L 213.101 35.500 213.667 34.917 C 213.978 34.596,214.194 34.333,214.147 34.333 C 214.101 34.333,213.848 34.557,213.587 34.830 M374.881 35.471 C 374.689 35.731,374.281 36.066,373.975 36.218 C 373.668 36.369,373.522 36.494,373.651 36.496 C 373.960 36.501,374.949 35.740,375.170 35.327 C 375.422 34.856,375.285 34.925,374.881 35.471 M49.426 36.152 C 49.357 36.264,49.345 36.401,49.400 36.456 C 49.455 36.511,49.500 36.462,49.500 36.348 C 49.500 36.126,50.580 37.190,51.259 38.081 L 51.667 38.615 51.667 42.891 L 51.667 47.167 49.734 47.167 C 47.732 47.167,47.411 47.071,46.518 46.202 C 46.391 46.078,46.105 45.858,45.883 45.713 C 45.578 45.513,45.533 45.415,45.698 45.310 C 45.840 45.220,45.727 45.171,45.375 45.169 L 44.833 45.167 44.833 41.854 C 44.833 38.943,44.799 38.513,44.551 38.312 C 44.308 38.115,44.290 38.118,44.424 38.333 C 44.510 38.473,44.553 40.033,44.522 41.873 C 44.472 44.774,44.497 45.176,44.732 45.266 C 44.932 45.343,45.000 45.596,45.000 46.268 L 45.000 47.167 31.787 47.167 C 17.288 47.167,18.490 47.248,17.250 46.189 C 16.564 45.603,18.874 47.877,20.064 48.958 L 21.027 49.833 34.339 49.833 L 47.651 49.833 47.701 48.739 C 47.750 47.656,47.753 47.648,48.085 47.948 C 48.269 48.114,48.794 48.549,49.252 48.914 C 49.709 49.279,50.108 49.635,50.139 49.705 C 50.169 49.776,51.163 49.833,52.347 49.833 L 54.500 49.833 54.500 47.442 C 54.500 45.246,54.471 45.018,54.148 44.651 C 53.001 43.346,53.000 43.344,53.000 41.425 L 53.000 39.632 52.030 38.608 C 51.496 38.044,50.721 37.215,50.306 36.766 C 49.788 36.204,49.512 36.012,49.426 36.152 M49.539 40.611 C 49.517 42.827,49.457 44.777,49.404 44.945 C 49.317 45.222,49.325 45.224,49.490 44.968 C 49.613 44.778,49.657 43.361,49.625 40.634 L 49.577 36.583 49.539 40.611 M128.370 40.528 C 128.350 41.689,128.290 42.777,128.237 42.945 C 128.149 43.225,128.157 43.227,128.326 42.964 C 128.443 42.782,128.491 41.908,128.458 40.547 L 128.406 38.417 128.370 40.528 M387.568 40.877 L 388.500 42.004 388.500 44.586 L 388.500 47.167 376.489 47.167 C 363.916 47.167,364.227 47.185,363.355 46.412 C 363.114 46.198,362.743 45.874,362.531 45.691 C 362.318 45.508,362.155 45.299,362.168 45.225 C 362.181 45.152,362.104 45.062,361.996 45.027 C 361.705 44.929,362.092 45.595,362.488 45.873 C 362.663 45.995,363.325 46.580,363.958 47.173 C 364.592 47.765,365.499 48.606,365.974 49.042 L 366.839 49.833 379.003 49.833 L 391.167 49.833 391.167 47.265 L 391.167 44.697 390.512 43.890 C 390.152 43.446,389.133 42.333,388.247 41.417 C 386.930 40.054,386.806 39.955,387.568 40.877 M168.000 42.026 C 168.000 42.350,167.170 43.329,166.458 43.845 C 166.087 44.113,165.876 44.333,165.988 44.333 C 166.289 44.333,168.167 42.405,168.167 42.097 C 168.167 41.952,168.129 41.833,168.083 41.833 C 168.037 41.833,168.000 41.920,168.000 42.026 M42.808 44.333 C 42.776 44.792,42.806 45.167,42.875 45.167 C 42.944 45.167,43.000 44.792,43.000 44.333 C 43.000 43.258,42.882 43.258,42.808 44.333 M87.762 44.318 L 87.274 44.917 87.837 44.380 C 88.146 44.085,88.366 43.816,88.325 43.781 C 88.284 43.747,88.030 43.988,87.762 44.318 M127.127 44.421 C 126.785 44.740,126.564 45.000,126.636 45.000 C 126.709 45.000,127.022 44.737,127.333 44.417 C 128.059 43.668,127.934 43.671,127.127 44.421 M254.073 44.375 L 253.583 44.917 254.125 44.427 C 254.630 43.971,254.743 43.833,254.615 43.833 C 254.586 43.833,254.342 44.077,254.073 44.375 M159.875 44.948 C 160.035 44.990,160.298 44.990,160.458 44.948 C 160.619 44.906,160.487 44.872,160.167 44.872 C 159.846 44.872,159.715 44.906,159.875 44.948 M163.000 45.008 C 162.719 45.104,162.855 45.118,163.417 45.054 C 163.875 45.001,164.281 44.929,164.319 44.895 C 164.451 44.778,163.416 44.867,163.000 45.008 M278.250 45.001 C 278.924 45.149,280.114 45.220,279.986 45.104 C 279.948 45.069,279.392 44.999,278.750 44.948 C 277.853 44.876,277.738 44.888,278.250 45.001 M281.000 45.008 C 280.719 45.104,280.855 45.118,281.417 45.054 C 281.875 45.001,282.281 44.929,282.319 44.895 C 282.451 44.778,281.416 44.867,281.000 45.008 M323.583 45.010 C 323.950 45.085,324.475 45.142,324.750 45.136 C 325.125 45.128,325.062 45.092,324.500 44.991 C 323.494 44.813,322.706 44.828,323.583 45.010 M326.875 44.948 C 327.035 44.990,327.298 44.990,327.458 44.948 C 327.619 44.906,327.487 44.872,327.167 44.872 C 326.846 44.872,326.715 44.906,326.875 44.948 M161.127 45.118 C 161.334 45.158,161.634 45.156,161.794 45.115 C 161.953 45.073,161.783 45.040,161.417 45.042 C 161.050 45.044,160.920 45.078,161.127 45.118 M216.083 45.684 C 216.450 46.102,216.881 46.607,217.040 46.805 L 217.330 47.167 214.263 47.167 L 211.197 47.167 210.363 46.508 C 209.905 46.146,209.411 45.679,209.265 45.471 C 209.119 45.263,209.000 45.175,209.000 45.276 C 209.000 45.376,209.798 46.199,210.773 47.104 C 211.749 48.009,212.796 48.994,213.101 49.292 L 213.656 49.833 216.827 49.833 L 219.998 49.833 219.624 49.387 C 218.229 47.723,216.093 45.377,215.785 45.171 C 215.581 45.035,215.715 45.264,216.083 45.684 M296.167 45.312 C 296.167 45.383,296.354 45.618,296.583 45.833 C 296.813 46.049,297.000 46.178,297.000 46.120 C 297.000 46.062,296.813 45.828,296.583 45.598 C 296.354 45.369,296.167 45.240,296.167 45.312 M341.500 45.317 C 341.500 45.382,341.762 45.689,342.083 46.000 C 342.404 46.311,342.667 46.521,342.667 46.466 C 342.667 46.411,342.404 46.104,342.083 45.783 C 341.762 45.462,341.500 45.253,341.500 45.317 " stroke="none" fill="#848484" fill-rule="evenodd"></path><path id="path2" d="M168.167 20.667 C 168.167 24.272,168.202 27.186,168.246 27.143 C 168.358 27.031,168.369 14.314,168.258 14.202 C 168.208 14.152,168.167 17.061,168.167 20.667 M171.250 17.308 C 171.708 17.810,172.327 18.473,172.625 18.782 L 173.167 19.344 173.167 32.924 C 173.167 43.448,173.120 46.588,172.959 46.877 C 172.537 47.635,170.930 49.167,170.557 49.167 C 170.353 49.167,170.140 49.242,170.083 49.333 C 170.027 49.425,169.802 49.500,169.583 49.500 C 169.365 49.500,169.140 49.575,169.083 49.667 C 168.952 49.879,165.776 49.886,165.095 49.675 C 164.814 49.588,164.224 49.427,163.784 49.318 C 163.010 49.125,161.915 48.280,159.037 45.651 C 158.645 45.293,158.289 45.000,158.246 45.000 C 158.202 45.000,158.167 46.087,158.167 47.417 L 158.167 49.833 148.940 49.833 L 139.714 49.833 138.898 49.128 C 138.450 48.741,137.671 48.041,137.167 47.574 C 136.662 47.106,135.857 46.364,135.378 45.925 C 134.898 45.486,134.546 45.060,134.596 44.980 C 134.646 44.899,134.569 44.833,134.426 44.833 C 134.283 44.833,133.791 44.472,133.333 44.031 C 132.875 43.589,132.500 43.327,132.500 43.447 C 132.500 43.568,132.563 43.667,132.640 43.667 C 133.195 43.667,133.430 47.907,132.899 48.348 C 132.752 48.470,132.570 48.734,132.493 48.934 C 132.141 49.860,132.644 49.833,115.615 49.833 L 99.948 49.833 99.405 49.419 C 99.107 49.191,98.762 48.910,98.639 48.794 C 98.517 48.678,97.744 47.983,96.921 47.250 C 94.820 45.377,94.636 45.185,94.751 44.999 C 94.807 44.908,94.733 44.833,94.585 44.833 C 94.438 44.833,93.946 44.462,93.492 44.008 L 92.667 43.183 92.667 36.167 L 92.667 29.152 92.250 28.735 C 92.021 28.506,91.833 28.385,91.833 28.467 C 91.833 28.548,91.983 28.751,92.167 28.917 C 92.490 29.209,92.500 29.431,92.502 36.234 L 92.503 43.250 93.085 43.982 C 93.820 44.907,93.989 47.861,93.333 48.333 C 93.150 48.465,93.000 48.692,93.000 48.837 C 93.000 49.188,92.670 49.500,92.300 49.500 C 92.135 49.500,92.000 49.575,92.000 49.667 C 92.000 49.777,86.619 49.833,76.189 49.833 L 60.378 49.833 59.897 49.461 C 59.633 49.257,59.154 48.855,58.833 48.568 C 55.747 45.811,55.014 45.112,55.087 44.994 C 55.133 44.919,55.027 44.812,54.851 44.756 C 54.675 44.700,54.224 44.321,53.849 43.914 L 53.167 43.174 53.167 41.352 L 53.167 39.529 52.167 38.513 C 50.956 37.284,50.961 37.333,52.057 37.333 L 52.948 37.333 53.057 34.958 C 53.275 30.199,53.203 27.050,52.875 26.925 C 52.641 26.836,52.625 26.855,52.792 27.023 C 52.943 27.176,53.000 28.066,53.000 30.283 L 53.000 33.333 50.156 33.333 C 48.463 33.333,47.177 33.261,46.980 33.156 C 46.797 33.058,46.559 33.008,46.449 33.045 C 46.340 33.081,46.550 33.252,46.917 33.424 C 47.805 33.840,49.565 35.590,49.435 35.929 C 49.381 36.069,49.403 36.144,49.483 36.094 C 49.563 36.045,49.949 36.359,50.341 36.794 C 50.733 37.228,51.491 38.044,52.027 38.608 L 53.000 39.632 53.000 41.425 C 53.000 43.344,53.001 43.346,54.148 44.651 C 54.471 45.018,54.500 45.246,54.500 47.442 L 54.500 49.833 52.347 49.833 C 51.163 49.833,50.169 49.776,50.139 49.705 C 50.108 49.635,49.709 49.279,49.252 48.914 C 48.794 48.549,48.269 48.114,48.085 47.948 C 47.753 47.648,47.750 47.656,47.701 48.739 L 47.651 49.833 34.339 49.833 L 21.027 49.833 20.055 48.978 C 18.883 47.947,22.087 51.117,23.826 52.708 L 25.054 53.833 38.360 53.833 L 51.667 53.833 51.667 52.861 C 51.667 51.695,51.753 51.574,52.242 52.052 C 52.447 52.252,52.903 52.642,53.254 52.917 C 53.605 53.192,53.986 53.510,54.101 53.625 C 54.246 53.770,54.951 53.833,56.405 53.833 L 58.500 53.833 58.500 51.253 L 58.500 48.672 59.013 49.128 C 59.295 49.378,59.690 49.733,59.890 49.917 C 60.090 50.100,60.928 50.850,61.752 51.583 C 62.576 52.317,63.288 52.957,63.333 53.006 C 63.379 53.055,63.633 53.261,63.897 53.464 L 64.378 53.833 80.080 53.833 C 96.924 53.833,96.665 53.846,96.954 53.023 C 97.007 52.873,97.186 52.598,97.352 52.412 C 97.600 52.136,97.664 51.731,97.703 50.203 L 97.750 48.332 98.685 49.208 C 99.484 49.956,101.348 51.646,102.567 52.727 C 102.759 52.898,103.149 53.217,103.432 53.436 L 103.948 53.833 119.615 53.833 C 136.644 53.833,136.141 53.860,136.493 52.934 C 136.570 52.734,136.752 52.470,136.899 52.348 C 137.118 52.166,137.167 51.753,137.167 50.063 C 137.167 47.703,137.117 47.778,138.061 48.708 C 138.752 49.388,140.756 51.213,142.330 52.594 C 142.741 52.955,143.224 53.381,143.403 53.542 C 143.706 53.812,144.408 53.833,153.031 53.833 L 162.333 53.833 162.333 51.419 L 162.333 49.005 162.792 49.416 C 163.044 49.642,163.550 50.097,163.917 50.429 C 164.283 50.760,164.995 51.381,165.497 51.807 C 166.000 52.234,166.549 52.706,166.717 52.857 C 166.886 53.007,167.374 53.218,167.803 53.325 C 168.232 53.432,168.855 53.590,169.186 53.677 C 169.991 53.886,173.119 53.878,173.250 53.667 C 173.307 53.575,173.532 53.500,173.750 53.500 C 173.968 53.500,174.193 53.425,174.250 53.333 C 174.307 53.242,174.520 53.167,174.724 53.167 C 175.165 53.167,176.833 51.548,176.833 51.120 C 176.833 50.962,176.908 50.833,177.000 50.833 C 177.326 50.833,177.219 23.648,176.891 23.180 C 176.459 22.564,175.446 21.480,172.833 18.839 C 171.504 17.496,170.792 16.807,171.250 17.308 M49.300 25.992 C 49.273 27.271,49.304 28.264,49.370 28.197 C 49.436 28.131,49.511 27.104,49.536 25.914 L 49.583 23.750 50.417 24.483 L 51.250 25.216 50.468 24.441 C 49.366 23.349,49.358 23.360,49.300 25.992 M356.083 24.500 C 356.441 24.867,356.772 25.167,356.818 25.167 C 356.863 25.167,356.608 24.867,356.250 24.500 C 355.892 24.133,355.562 23.833,355.516 23.833 C 355.470 23.833,355.725 24.133,356.083 24.500 M386.333 25.986 C 386.333 27.290,386.266 28.172,386.162 28.224 C 386.069 28.270,386.087 28.289,386.204 28.266 C 386.438 28.219,386.690 23.832,386.458 23.833 C 386.390 23.833,386.333 24.802,386.333 25.986 M215.076 24.678 C 215.016 24.776,215.012 24.901,215.067 24.956 C 215.122 25.011,215.168 24.949,215.169 24.819 C 215.171 24.679,215.221 24.651,215.294 24.750 C 215.362 24.842,215.604 25.065,215.833 25.247 C 216.181 25.524,216.169 25.489,215.760 25.039 C 215.206 24.428,215.225 24.438,215.076 24.678 M161.239 25.052 C 161.193 25.172,161.179 26.128,161.209 27.177 L 161.262 29.083 161.298 27.021 C 161.331 25.084,161.351 24.973,161.625 25.188 C 161.889 25.395,161.895 25.389,161.688 25.125 C 161.414 24.776,161.349 24.765,161.239 25.052 M278.833 31.891 L 278.916 38.750 278.960 32.006 L 279.004 25.263 280.210 26.423 L 281.417 27.583 280.333 26.446 C 278.588 24.615,278.738 24.070,278.833 31.891 M324.129 31.916 C 324.170 38.211,324.198 38.817,324.462 39.016 C 324.707 39.201,324.719 39.199,324.542 39.000 C 324.382 38.822,324.333 37.180,324.333 32.014 L 324.333 25.260 325.375 26.255 L 326.417 27.250 325.500 26.279 C 323.951 24.639,324.077 24.121,324.129 31.916 M88.906 25.719 C 88.860 25.839,88.846 26.795,88.875 27.844 L 88.929 29.750 88.964 27.672 L 89.000 25.594 90.042 26.589 L 91.083 27.583 90.089 26.542 C 88.987 25.388,89.023 25.413,88.906 25.719 M162.583 26.167 C 162.941 26.533,163.272 26.833,163.318 26.833 C 163.363 26.833,163.108 26.533,162.750 26.167 C 162.392 25.800,162.062 25.500,162.016 25.500 C 161.970 25.500,162.225 25.800,162.583 26.167 M389.250 26.654 C 389.800 27.251,390.290 27.779,390.339 27.828 C 391.106 28.593,391.167 28.832,391.167 31.104 L 391.167 33.330 383.667 33.373 L 376.168 33.417 376.597 33.917 C 377.263 34.691,378.733 36.349,379.371 37.046 C 380.864 38.674,380.901 38.647,376.898 38.777 C 373.122 38.898,373.259 38.931,371.768 37.550 C 370.718 36.577,370.681 36.507,371.208 36.484 C 371.445 36.473,371.327 36.396,370.890 36.275 C 370.029 36.037,369.542 35.611,369.147 34.750 C 368.978 34.383,368.839 34.216,368.837 34.377 C 368.833 34.734,369.147 35.317,369.542 35.684 C 369.772 35.899,369.833 36.234,369.833 37.287 L 369.833 38.618 368.558 38.726 C 367.857 38.785,366.770 38.833,366.144 38.833 L 365.005 38.833 364.957 33.583 L 364.910 28.333 364.913 33.625 L 364.917 38.917 366.833 38.916 C 367.887 38.915,369.725 38.907,370.917 38.897 C 372.108 38.887,374.833 38.878,376.972 38.876 C 381.232 38.873,381.432 38.827,380.671 38.031 C 380.394 37.740,380.167 37.465,380.167 37.418 C 380.167 37.372,383.542 37.333,387.667 37.333 L 395.167 37.333 395.167 35.006 L 395.167 32.679 393.708 31.141 C 392.906 30.296,391.350 28.696,390.250 27.586 C 389.150 26.476,388.700 26.057,389.250 26.654 M255.231 27.750 C 255.232 28.942,255.258 29.407,255.290 28.785 C 255.323 28.162,255.322 27.187,255.290 26.618 C 255.257 26.049,255.231 26.558,255.231 27.750 M300.911 35.250 C 300.911 40.567,300.932 42.766,300.958 40.137 C 300.984 37.508,300.984 33.158,300.958 30.470 C 300.933 27.782,300.911 29.933,300.911 35.250 M302.000 26.583 C 302.498 27.087,302.943 27.500,302.989 27.500 C 303.034 27.500,302.665 27.087,302.167 26.583 C 301.669 26.079,301.224 25.667,301.178 25.667 C 301.132 25.667,301.502 26.079,302.000 26.583 M128.373 31.015 C 128.351 33.911,128.301 37.773,128.261 39.598 L 128.189 42.917 128.344 39.750 C 128.430 38.008,128.480 34.146,128.456 31.167 L 128.412 25.750 128.373 31.015 M215.357 26.000 C 215.357 26.137,215.421 26.400,215.500 26.583 C 215.590 26.793,215.643 26.824,215.643 26.667 C 215.643 26.529,215.579 26.267,215.500 26.083 C 215.410 25.873,215.357 25.842,215.357 26.000 M257.083 27.333 C 257.720 27.975,258.279 28.500,258.324 28.500 C 258.370 28.500,257.887 27.975,257.250 27.333 C 256.613 26.692,256.055 26.167,256.009 26.167 C 255.963 26.167,256.447 26.692,257.083 27.333 M358.625 27.177 L 359.000 27.605 359.000 35.055 C 359.000 42.313,359.033 42.867,359.500 43.333 C 359.917 43.750,360.000 44.358,360.000 46.998 L 360.000 49.833 357.659 49.833 L 355.319 49.833 354.701 49.276 C 353.661 48.337,352.092 46.942,351.532 46.457 L 351.000 45.997 351.000 47.915 L 351.000 49.833 348.587 49.833 L 346.173 49.833 344.628 48.336 C 343.779 47.512,343.025 46.837,342.954 46.836 C 342.781 46.833,345.296 49.276,348.355 52.083 C 350.437 53.995,350.039 53.833,352.669 53.833 L 355.000 53.833 355.000 51.918 L 355.000 50.003 355.354 50.293 C 355.549 50.453,355.868 50.733,356.063 50.917 C 356.257 51.100,357.084 51.831,357.899 52.542 L 359.380 53.833 361.774 53.833 L 364.167 53.833 364.167 50.742 L 364.167 47.652 364.562 48.034 C 364.779 48.245,365.773 49.172,366.770 50.094 C 368.350 51.555,369.011 52.156,370.568 53.542 C 370.874 53.814,371.710 53.833,383.031 53.833 L 395.167 53.833 395.167 51.171 L 395.167 48.510 394.042 47.303 C 393.423 46.640,392.089 45.231,391.077 44.173 C 390.065 43.115,388.684 41.669,388.007 40.958 C 386.308 39.174,386.326 39.160,386.370 42.208 L 386.407 44.750 386.458 42.292 C 386.486 40.940,386.568 39.833,386.640 39.833 C 386.795 39.833,390.238 43.473,390.788 44.218 C 391.143 44.699,391.167 44.891,391.167 47.282 L 391.167 49.833 379.003 49.833 L 366.839 49.833 365.974 49.042 C 365.499 48.606,364.592 47.765,363.958 47.173 C 363.325 46.580,362.663 45.995,362.488 45.873 C 361.318 45.054,360.914 45.080,373.963 45.128 C 380.617 45.153,386.118 45.115,386.188 45.045 C 386.259 44.974,380.698 44.933,373.830 44.952 L 361.343 44.988 360.537 44.202 C 359.100 42.800,359.167 43.254,359.167 34.920 L 359.167 27.558 358.708 27.154 L 358.250 26.750 358.625 27.177 M217.668 27.137 C 217.669 27.199,218.041 27.625,218.494 28.083 L 219.319 28.917 219.326 33.766 C 219.336 40.565,219.381 40.500,214.677 40.500 C 211.973 40.500,211.831 40.484,211.451 40.125 C 211.232 39.919,210.385 39.113,209.568 38.333 L 208.083 36.917 209.514 38.417 C 210.301 39.242,211.313 40.328,211.764 40.832 C 212.215 41.335,213.202 42.390,213.958 43.176 C 215.808 45.099,215.905 45.000,212.177 45.000 C 210.068 45.000,208.982 45.061,208.907 45.183 C 208.801 45.354,210.265 47.000,210.523 47.000 C 210.588 47.000,210.254 46.630,209.781 46.179 C 209.308 45.727,208.960 45.317,209.010 45.268 C 209.293 44.985,215.889 45.149,216.164 45.446 C 216.601 45.916,219.204 48.880,219.624 49.384 L 219.998 49.833 216.836 49.833 L 213.673 49.833 212.628 48.834 C 212.054 48.285,211.534 47.835,211.475 47.834 C 211.372 47.833,212.575 49.005,216.137 52.375 L 217.679 53.833 220.756 53.833 C 222.449 53.833,223.833 53.785,223.833 53.726 C 223.833 53.526,221.786 51.184,218.333 47.436 C 217.292 46.306,217.331 46.350,216.525 45.375 L 215.802 44.500 218.093 44.500 C 220.289 44.500,220.371 44.488,220.056 44.208 C 219.470 43.689,219.446 43.346,219.491 36.117 L 219.535 28.984 218.601 28.004 C 218.087 27.466,217.667 27.075,217.668 27.137 M131.167 28.246 C 131.763 28.885,132.269 29.441,132.292 29.482 C 132.315 29.522,132.369 29.520,132.412 29.477 C 132.455 29.434,131.949 28.877,131.287 28.241 L 130.083 27.083 131.167 28.246 M168.077 34.583 C 168.077 38.617,168.098 40.243,168.125 38.197 C 168.151 36.151,168.151 32.851,168.125 30.864 C 168.098 28.876,168.077 30.550,168.077 34.583 M281.467 33.094 C 281.501 36.794,281.459 38.609,281.333 38.870 C 281.156 39.234,281.159 39.236,281.407 38.926 C 281.686 38.578,281.814 27.945,281.542 27.776 C 281.473 27.733,281.439 30.126,281.467 33.094 M326.630 33.378 C 326.592 38.046,326.624 39.118,326.792 38.888 C 327.048 38.537,327.090 28.232,326.836 27.833 C 326.733 27.671,326.660 29.619,326.630 33.378 M138.241 33.583 C 138.242 36.700,138.264 37.951,138.291 36.364 C 138.319 34.777,138.319 32.227,138.291 30.698 C 138.264 29.168,138.241 30.467,138.241 33.583 M215.712 28.667 C 215.712 29.079,215.745 29.248,215.784 29.042 C 215.824 28.835,215.824 28.498,215.784 28.292 C 215.745 28.085,215.712 28.254,215.712 28.667 M264.627 36.458 L 264.583 44.917 262.000 45.003 C 260.367 45.058,259.330 45.028,259.181 44.920 C 259.003 44.791,258.966 44.811,259.029 45.000 C 259.134 45.318,264.499 45.261,264.706 44.940 C 264.840 44.732,264.885 28.000,264.752 28.000 C 264.707 28.000,264.650 31.806,264.627 36.458 M295.229 29.750 C 295.229 30.758,295.257 31.149,295.290 30.619 C 295.323 30.088,295.323 29.263,295.289 28.786 C 295.256 28.308,295.229 28.742,295.229 29.750 M318.896 29.750 C 318.896 30.758,318.924 31.149,318.957 30.619 C 318.990 30.088,318.990 29.263,318.956 28.786 C 318.922 28.308,318.895 28.742,318.896 29.750 M348.833 28.115 C 348.833 28.207,348.983 28.417,349.167 28.583 C 349.491 28.877,349.500 29.097,349.500 36.933 C 349.500 43.191,349.546 45.009,349.708 45.110 C 349.956 45.264,355.031 45.188,355.201 45.028 C 355.265 44.967,354.140 44.955,352.701 45.001 C 351.261 45.047,349.990 45.058,349.875 45.025 C 349.712 44.977,349.667 43.216,349.666 36.941 L 349.666 28.917 349.250 28.432 C 349.021 28.166,348.833 28.023,348.833 28.115 M340.558 29.500 C 340.558 30.279,340.587 30.598,340.622 30.208 C 340.657 29.819,340.657 29.181,340.622 28.792 C 340.587 28.402,340.558 28.721,340.558 29.500 M303.839 28.433 C 303.842 28.516,303.957 28.733,304.096 28.917 C 304.317 29.208,304.333 30.230,304.231 37.099 C 304.132 43.753,304.150 44.970,304.349 45.094 C 304.615 45.259,309.687 45.198,309.867 45.028 C 309.932 44.967,308.807 44.957,307.367 45.005 C 305.928 45.054,304.669 45.037,304.570 44.967 C 304.445 44.878,304.413 42.482,304.464 36.962 C 304.538 29.127,304.536 29.081,304.186 28.683 C 303.992 28.463,303.836 28.350,303.839 28.433 M258.500 28.787 C 258.500 28.882,258.622 29.061,258.772 29.185 C 259.017 29.389,259.037 30.145,258.980 37.080 C 258.945 41.299,258.964 44.000,259.022 43.083 C 259.307 38.587,259.183 29.404,258.833 29.000 C 258.650 28.789,258.500 28.693,258.500 28.787 M155.615 30.637 C 155.541 31.674,155.440 32.630,155.390 32.760 C 155.314 32.957,154.281 33.003,149.191 33.040 L 143.083 33.083 143.038 36.042 L 142.992 39.000 141.704 39.027 C 140.996 39.041,140.679 39.086,141.000 39.126 C 141.321 39.166,142.799 39.146,144.284 39.082 L 146.984 38.965 147.034 38.024 L 147.083 37.083 151.191 37.039 C 155.286 36.994,155.299 36.993,155.389 36.622 C 155.554 35.941,155.861 30.933,155.805 29.833 C 155.756 28.868,155.735 28.955,155.615 30.637 M59.075 29.210 C 59.031 29.326,59.015 31.595,59.039 34.252 L 59.084 39.083 59.167 34.042 C 59.213 31.269,59.229 29.000,59.203 29.000 C 59.177 29.000,59.120 29.095,59.075 29.210 M82.877 30.636 C 82.855 31.524,82.794 32.643,82.740 33.124 L 82.643 33.997 73.280 34.040 L 63.917 34.083 63.871 36.542 L 63.824 39.000 62.621 39.023 C 61.958 39.035,61.604 39.081,61.833 39.124 C 62.063 39.167,63.544 39.149,65.125 39.083 L 68.000 38.964 68.000 38.482 L 68.000 38.000 75.320 38.000 L 82.640 38.000 82.738 36.958 C 82.959 34.606,83.172 29.272,83.049 29.152 C 82.976 29.081,82.899 29.749,82.877 30.636 M122.410 29.138 C 122.479 29.260,122.482 30.404,122.416 31.680 L 122.296 34.000 112.898 34.000 L 103.500 34.000 103.500 36.500 L 103.500 39.000 102.208 39.023 C 101.498 39.035,101.104 39.081,101.333 39.124 C 101.563 39.167,103.040 39.149,104.616 39.084 L 107.481 38.965 107.532 38.524 L 107.583 38.083 114.958 38.040 L 122.333 37.997 122.332 37.457 C 122.332 37.160,122.418 35.207,122.525 33.118 C 122.683 30.019,122.678 29.281,122.501 29.118 C 122.330 28.959,122.311 28.964,122.410 29.138 M225.444 29.111 C 225.231 29.324,225.316 38.916,225.533 39.133 C 225.643 39.243,225.962 39.323,226.242 39.311 C 226.746 39.290,226.746 39.289,226.167 39.186 L 225.583 39.083 225.583 34.042 C 225.583 31.269,225.577 29.000,225.569 29.000 C 225.562 29.000,225.506 29.050,225.444 29.111 M249.210 30.970 C 249.188 32.041,249.128 33.160,249.078 33.457 L 248.985 33.997 239.618 34.040 L 230.250 34.083 230.204 36.542 L 230.158 39.000 228.954 39.023 C 228.292 39.035,227.938 39.081,228.167 39.124 C 228.396 39.167,229.873 39.149,231.449 39.084 L 234.315 38.965 234.366 38.524 L 234.417 38.083 241.698 38.040 L 248.980 37.997 249.073 37.290 C 249.266 35.827,249.518 29.285,249.387 29.157 C 249.312 29.083,249.232 29.899,249.210 30.970 M273.530 30.521 C 273.514 31.311,273.453 32.193,273.396 32.479 L 273.292 33.000 271.396 33.000 L 269.500 33.000 269.500 41.417 L 269.500 49.833 267.067 49.833 L 264.634 49.833 264.192 49.373 C 263.949 49.120,263.487 48.698,263.167 48.435 C 262.846 48.173,262.162 47.574,261.648 47.104 C 261.133 46.634,260.552 46.119,260.356 45.960 L 260.000 45.670 260.000 46.898 C 260.000 47.822,259.934 48.181,259.733 48.348 C 259.586 48.470,259.403 48.734,259.327 48.934 C 258.975 49.860,259.482 49.833,242.397 49.833 L 226.678 49.833 226.047 49.293 C 225.272 48.629,223.777 47.248,222.383 45.907 C 221.806 45.352,221.333 44.964,221.333 45.046 C 221.333 45.128,221.834 45.657,222.446 46.222 C 223.057 46.788,223.867 47.550,224.244 47.917 C 224.622 48.283,225.902 49.483,227.089 50.583 C 228.276 51.683,229.348 52.678,229.471 52.794 C 229.595 52.910,229.940 53.191,230.238 53.419 L 230.781 53.833 246.448 53.833 C 263.477 53.833,262.975 53.860,263.327 52.934 C 263.403 52.734,263.586 52.470,263.733 52.348 C 263.934 52.181,264.000 51.821,264.000 50.896 C 264.000 49.514,264.025 49.483,264.641 50.131 C 264.884 50.387,265.908 51.324,266.917 52.215 L 268.750 53.833 271.152 53.833 L 273.554 53.833 273.447 45.636 C 273.380 40.583,273.406 36.155,273.515 34.094 C 273.611 32.255,273.661 30.375,273.625 29.917 C 273.581 29.352,273.550 29.547,273.530 30.521 M198.964 30.958 C 198.322 31.694,198.061 33.661,198.542 34.142 C 198.701 34.300,198.763 36.179,198.803 42.092 L 198.857 49.833 196.387 49.838 L 193.917 49.842 195.515 51.380 C 198.341 54.096,197.808 53.833,200.499 53.833 L 202.833 53.833 202.833 46.850 L 202.833 39.867 202.201 39.025 C 201.852 38.561,201.084 37.641,200.492 36.980 C 198.836 35.129,198.786 35.016,198.767 33.061 C 198.752 31.619,198.797 31.320,199.067 31.019 C 199.242 30.825,199.347 30.667,199.302 30.667 C 199.256 30.667,199.104 30.798,198.964 30.958 M215.429 31.262 C 215.367 31.506,215.349 31.738,215.389 31.777 C 215.428 31.817,215.510 31.649,215.571 31.405 C 215.633 31.161,215.651 30.929,215.611 30.889 C 215.572 30.850,215.490 31.018,215.429 31.262 M371.058 31.128 C 370.952 31.195,371.451 31.250,372.167 31.250 C 372.882 31.250,373.382 31.195,373.276 31.128 C 373.170 31.060,372.671 31.005,372.167 31.005 C 371.662 31.005,371.163 31.060,371.058 31.128 M369.913 31.631 C 369.405 32.062,368.833 32.930,368.833 33.269 C 368.833 33.435,369.002 33.237,369.208 32.828 C 369.415 32.420,369.838 31.917,370.150 31.710 C 370.461 31.503,370.611 31.336,370.483 31.339 C 370.355 31.342,370.098 31.473,369.913 31.631 M340.333 32.250 L 340.333 33.000 338.583 33.000 L 336.833 33.000 336.833 36.313 C 336.833 39.054,336.790 39.662,336.583 39.833 C 336.375 40.006,336.333 40.638,336.333 43.583 C 336.333 46.631,336.296 47.157,336.066 47.348 C 335.919 47.470,335.733 47.743,335.652 47.954 C 335.572 48.166,335.333 48.405,335.121 48.486 C 334.909 48.566,334.636 48.752,334.514 48.899 C 334.392 49.046,334.119 49.167,333.906 49.167 C 333.694 49.167,333.473 49.242,333.417 49.333 C 333.360 49.425,333.135 49.500,332.917 49.500 C 332.698 49.500,332.473 49.575,332.417 49.667 C 332.284 49.882,329.224 49.884,328.294 49.669 C 327.903 49.579,327.387 49.468,327.148 49.422 C 326.417 49.282,324.842 48.116,322.940 46.305 C 321.944 45.358,321.050 44.554,320.952 44.518 C 320.763 44.449,321.077 44.763,323.431 47.000 C 329.602 52.866,330.040 53.214,331.667 53.546 C 332.884 53.794,336.178 53.889,336.385 53.681 C 336.485 53.582,336.772 53.500,337.023 53.500 C 337.275 53.500,337.527 53.425,337.583 53.333 C 337.640 53.242,337.869 53.167,338.092 53.167 C 338.317 53.167,338.590 53.018,338.705 52.833 C 338.820 52.650,339.013 52.500,339.135 52.500 C 339.373 52.500,339.833 52.104,339.833 51.900 C 339.833 51.832,339.965 51.631,340.125 51.454 C 340.379 51.174,340.625 31.500,340.375 31.500 C 340.352 31.500,340.333 31.837,340.333 32.250 M374.812 32.171 C 375.199 32.558,375.330 32.857,375.378 33.462 L 375.440 34.250 375.470 33.406 C 375.496 32.679,375.436 32.501,375.033 32.115 C 374.388 31.497,374.188 31.547,374.812 32.171 M295.000 32.417 L 295.000 33.000 293.250 33.000 L 291.500 33.000 291.500 36.323 C 291.500 38.359,291.435 39.687,291.333 39.750 C 291.231 39.813,291.167 41.206,291.167 43.372 C 291.167 46.417,291.129 46.932,290.890 47.196 C 290.738 47.365,290.530 47.669,290.428 47.873 C 290.327 48.077,290.077 48.327,289.873 48.428 C 289.669 48.530,289.365 48.738,289.196 48.890 C 289.028 49.042,288.732 49.167,288.538 49.167 C 288.345 49.167,288.140 49.242,288.083 49.333 C 288.027 49.425,287.812 49.500,287.607 49.500 C 287.401 49.500,287.153 49.580,287.056 49.677 C 286.854 49.879,283.765 49.796,282.406 49.552 C 280.962 49.293,279.769 48.427,276.767 45.460 C 275.952 44.653,275.245 44.032,275.198 44.080 C 275.150 44.128,275.199 44.167,275.306 44.167 C 275.413 44.167,275.500 44.249,275.500 44.350 C 275.500 44.451,275.744 44.760,276.042 45.038 C 276.340 45.316,277.633 46.537,278.917 47.751 C 285.260 53.754,284.988 53.594,289.144 53.779 C 290.395 53.834,291.099 53.801,291.219 53.681 C 291.318 53.582,291.568 53.500,291.773 53.500 C 291.979 53.500,292.193 53.425,292.250 53.333 C 292.307 53.242,292.527 53.167,292.739 53.167 C 292.952 53.167,293.226 53.046,293.348 52.899 C 293.470 52.752,293.743 52.566,293.956 52.485 C 294.168 52.404,294.389 52.206,294.446 52.044 C 294.504 51.882,294.671 51.611,294.817 51.441 C 295.048 51.172,295.270 31.834,295.042 31.833 C 295.019 31.833,295.000 32.096,295.000 32.417 M318.667 32.417 L 318.667 33.000 316.750 33.000 L 314.833 33.000 314.833 41.417 L 314.833 49.833 312.409 49.833 C 310.120 49.833,309.963 49.812,309.601 49.458 C 309.149 49.017,306.916 47.047,306.014 46.293 L 305.667 46.003 305.667 47.918 L 305.667 49.833 303.270 49.833 L 300.873 49.833 299.169 48.208 C 298.232 47.315,297.381 46.553,297.278 46.515 C 297.174 46.477,297.471 46.815,297.937 47.265 C 300.146 49.399,303.269 52.318,304.474 53.375 C 304.991 53.828,305.023 53.833,307.327 53.833 L 309.656 53.833 309.703 51.895 L 309.750 49.957 310.421 50.604 C 310.790 50.959,311.614 51.700,312.251 52.250 C 312.889 52.800,313.557 53.381,313.737 53.542 C 314.015 53.791,314.412 53.833,316.447 53.833 L 318.831 53.833 318.791 42.833 C 318.768 36.783,318.731 31.833,318.708 31.833 C 318.685 31.833,318.667 32.096,318.667 32.417 M41.167 32.800 L 40.083 33.250 32.250 33.333 L 24.417 33.417 24.371 36.208 L 24.325 39.000 23.038 39.027 C 22.329 39.041,22.012 39.086,22.333 39.126 C 22.654 39.166,24.132 39.146,25.617 39.082 L 28.316 38.965 28.367 38.191 L 28.417 37.417 33.024 37.372 L 37.631 37.328 37.739 36.750 C 38.107 34.789,39.856 33.235,42.500 32.521 C 42.970 32.394,43.002 32.362,42.667 32.357 C 42.438 32.353,41.762 32.552,41.167 32.800 M44.417 32.500 C 44.910 32.712,45.495 32.712,45.167 32.500 C 45.029 32.411,44.729 32.343,44.500 32.348 C 44.118 32.356,44.111 32.369,44.417 32.500 M45.583 32.833 C 45.640 32.925,45.799 33.000,45.936 33.000 C 46.074 33.000,46.140 32.925,46.083 32.833 C 46.027 32.742,45.868 32.667,45.730 32.667 C 45.593 32.667,45.527 32.742,45.583 32.833 M213.575 34.708 L 212.917 35.417 213.625 34.758 C 214.015 34.395,214.333 34.077,214.333 34.050 C 214.333 33.923,214.188 34.050,213.575 34.708 M161.366 37.425 C 161.333 39.134,161.448 39.513,161.992 39.488 C 162.170 39.480,162.147 39.436,161.917 39.347 C 161.622 39.233,161.573 39.016,161.491 37.484 L 161.399 35.750 161.366 37.425 M372.583 36.500 C 372.159 36.683,372.597 36.683,373.167 36.500 C 373.502 36.393,373.518 36.366,373.250 36.362 C 373.067 36.359,372.767 36.421,372.583 36.500 M49.406 40.667 C 49.406 43.004,49.429 43.960,49.458 42.792 C 49.487 41.623,49.487 39.710,49.458 38.542 C 49.429 37.373,49.406 38.329,49.406 40.667 M43.833 38.124 C 44.837 38.245,44.833 38.229,44.833 41.854 L 44.833 45.167 47.125 45.130 L 49.417 45.094 47.208 45.042 L 45.000 44.990 45.000 41.771 C 45.000 38.152,44.944 37.974,43.820 38.027 L 43.250 38.053 43.833 38.124 M88.703 40.445 C 88.683 41.652,88.624 42.777,88.571 42.945 C 88.483 43.225,88.490 43.226,88.659 42.964 C 88.777 42.781,88.824 41.884,88.791 40.464 L 88.739 38.250 88.703 40.445 M255.066 40.583 C 255.066 41.867,255.092 42.370,255.124 41.701 C 255.156 41.032,255.155 39.982,255.123 39.368 C 255.091 38.753,255.065 39.300,255.066 40.583 M42.900 41.000 C 42.900 42.421,42.926 43.002,42.957 42.292 C 42.988 41.581,42.988 40.419,42.957 39.708 C 42.926 38.998,42.900 39.579,42.900 41.000 M98.813 39.213 C 98.894 39.294,99.175 39.333,99.438 39.300 C 99.879 39.245,99.867 39.233,99.292 39.153 C 98.934 39.104,98.729 39.129,98.813 39.213 M19.875 39.282 C 20.035 39.323,20.298 39.323,20.458 39.282 C 20.619 39.240,20.487 39.205,20.167 39.205 C 19.846 39.205,19.715 39.240,19.875 39.282 M59.542 39.282 C 59.702 39.323,59.965 39.323,60.125 39.282 C 60.285 39.240,60.154 39.205,59.833 39.205 C 59.512 39.205,59.381 39.240,59.542 39.282 M279.718 39.368 C 279.975 39.532,280.791 39.537,280.890 39.375 C 280.932 39.306,280.641 39.248,280.243 39.246 C 279.844 39.244,279.608 39.299,279.718 39.368 M324.942 39.375 C 324.985 39.444,325.273 39.500,325.583 39.500 C 325.893 39.500,326.182 39.444,326.224 39.375 C 326.267 39.306,325.978 39.250,325.583 39.250 C 325.188 39.250,324.900 39.306,324.942 39.375 M154.500 40.930 C 155.036 41.441,155.588 42.098,155.727 42.388 C 156.115 43.199,157.334 44.285,157.950 44.368 C 158.610 44.457,158.523 44.246,157.843 44.110 C 157.289 43.999,156.000 42.920,156.000 42.567 C 156.000 42.323,153.882 40.000,153.659 40.000 C 153.585 40.000,153.963 40.418,154.500 40.930 M166.991 43.292 L 166.417 43.917 167.042 43.342 C 167.623 42.808,167.743 42.667,167.616 42.667 C 167.588 42.667,167.307 42.948,166.991 43.292 M254.094 44.130 C 253.506 44.835,253.495 44.864,253.983 44.417 C 254.446 43.992,254.953 43.321,254.798 43.339 C 254.771 43.342,254.455 43.698,254.094 44.130 M87.573 44.375 L 87.083 44.917 87.625 44.427 C 87.923 44.158,88.167 43.914,88.167 43.885 C 88.167 43.757,88.029 43.870,87.573 44.375 M159.250 44.667 C 159.433 44.745,159.696 44.810,159.833 44.810 C 159.991 44.810,159.960 44.757,159.750 44.667 C 159.567 44.588,159.304 44.523,159.167 44.523 C 159.009 44.523,159.040 44.576,159.250 44.667 M153.333 44.810 C 153.333 44.961,151.178 44.997,144.182 44.962 C 139.149 44.937,135.118 44.972,135.224 45.039 C 135.330 45.106,139.443 45.163,144.365 45.164 C 152.895 45.167,153.841 45.119,153.433 44.711 C 153.378 44.656,153.333 44.700,153.333 44.810 M16.000 45.054 C 16.000 45.130,16.387 45.580,16.859 46.054 L 17.719 46.917 16.943 46.049 C 16.516 45.571,16.167 45.159,16.167 45.132 C 16.167 45.105,22.105 45.103,29.364 45.128 C 36.622 45.153,42.618 45.115,42.689 45.045 C 42.759 44.974,36.783 44.917,29.408 44.917 C 22.034 44.917,16.000 44.978,16.000 45.054 M55.891 45.039 C 55.997 45.106,62.908 45.145,71.250 45.125 C 79.592 45.105,84.504 45.069,82.167 45.045 C 71.335 44.932,55.717 44.929,55.891 45.039 M95.391 45.039 C 95.633 45.193,125.814 45.184,126.202 45.030 C 126.359 44.968,119.448 44.917,110.843 44.917 C 102.239 44.917,95.285 44.972,95.391 45.039 M161.520 45.015 C 162.035 45.089,162.662 45.094,162.913 45.027 C 163.211 44.948,162.887 44.901,161.976 44.893 C 160.629 44.881,160.614 44.885,161.520 45.015 M191.583 45.000 L 189.250 45.098 191.625 45.132 C 193.120 45.154,194.000 45.105,194.000 45.000 C 194.000 44.908,193.981 44.849,193.958 44.868 C 193.935 44.887,192.867 44.946,191.583 45.000 M222.224 45.039 C 222.476 45.199,252.691 45.199,252.942 45.039 C 253.048 44.972,246.137 44.917,237.583 44.917 C 229.030 44.917,222.118 44.972,222.224 45.039 M278.960 44.951 C 279.168 44.991,279.468 44.990,279.627 44.948 C 279.786 44.906,279.617 44.874,279.250 44.875 C 278.883 44.877,278.753 44.911,278.960 44.951 M280.333 45.000 C 280.003 45.106,279.986 45.133,280.250 45.133 C 280.433 45.133,280.771 45.073,281.000 45.000 C 281.330 44.894,281.347 44.867,281.083 44.867 C 280.900 44.867,280.563 44.927,280.333 45.000 M324.807 45.027 C 325.297 45.105,325.920 45.111,326.193 45.040 C 326.546 44.948,326.290 44.908,325.303 44.898 C 323.975 44.885,323.954 44.891,324.807 45.027 M343.785 44.958 C 341.110 45.018,340.902 45.144,341.940 46.080 C 342.294 46.398,342.640 46.661,342.709 46.663 C 342.778 46.665,342.534 46.395,342.167 46.064 C 341.207 45.196,341.261 45.167,343.833 45.167 C 345.278 45.167,346.167 45.103,346.167 45.000 C 346.167 44.908,346.148 44.850,346.125 44.870 C 346.102 44.890,345.049 44.930,343.785 44.958 M296.075 45.180 C 295.961 45.364,296.775 46.333,297.044 46.333 C 297.126 46.333,296.961 46.139,296.679 45.902 C 295.883 45.232,296.008 45.179,298.542 45.125 L 300.917 45.073 298.552 45.037 C 296.998 45.013,296.148 45.062,296.075 45.180 M191.408 47.454 C 192.136 48.207,192.764 48.792,192.803 48.753 C 192.841 48.714,192.765 48.585,192.632 48.466 C 192.500 48.347,191.873 47.763,191.238 47.167 C 190.098 46.098,190.100 46.101,191.408 47.454 M193.000 48.968 C 193.000 49.145,193.644 49.749,193.729 49.652 C 193.762 49.614,193.611 49.412,193.394 49.202 C 193.177 48.993,193.000 48.888,193.000 48.968 " stroke="none" fill="#b1b1b1" fill-rule="evenodd"></path><path id="path3" d="M168.078 14.205 C 168.033 14.322,168.017 17.342,168.042 20.917 L 168.087 27.417 168.127 20.771 C 168.162 14.839,168.194 14.148,168.421 14.337 C 168.560 14.453,168.707 14.515,168.746 14.476 C 168.786 14.436,168.670 14.311,168.489 14.198 C 168.225 14.034,168.143 14.035,168.078 14.205 M171.917 17.833 C 173.106 19.025,174.116 20.000,174.162 20.000 C 174.208 20.000,173.272 19.025,172.083 17.833 C 170.894 16.642,169.884 15.667,169.838 15.667 C 169.792 15.667,170.728 16.642,171.917 17.833 M175.187 21.269 C 175.588 21.691,176.069 22.198,176.255 22.394 C 177.235 23.427,177.167 22.310,177.167 37.204 C 177.167 46.179,177.110 50.833,177.000 50.833 C 176.908 50.833,176.833 50.967,176.833 51.131 C 176.833 51.553,175.152 53.167,174.713 53.167 C 174.515 53.167,174.307 53.242,174.250 53.333 C 174.193 53.425,173.968 53.500,173.750 53.500 C 173.532 53.500,173.307 53.575,173.250 53.667 C 173.119 53.878,169.991 53.886,169.186 53.677 C 168.855 53.590,168.232 53.432,167.803 53.325 C 167.374 53.218,166.886 53.007,166.717 52.857 C 166.549 52.706,166.000 52.234,165.497 51.807 C 164.995 51.381,164.283 50.760,163.917 50.429 C 163.550 50.097,163.044 49.642,162.792 49.416 L 162.333 49.005 162.333 51.419 L 162.333 53.833 153.031 53.833 C 144.408 53.833,143.706 53.812,143.403 53.542 C 143.224 53.381,142.741 52.955,142.330 52.594 C 140.756 51.213,138.752 49.388,138.061 48.708 C 137.117 47.778,137.167 47.703,137.167 50.063 C 137.167 51.753,137.118 52.166,136.899 52.348 C 136.752 52.470,136.570 52.734,136.493 52.934 C 136.141 53.860,136.644 53.833,119.615 53.833 L 103.948 53.833 103.432 53.436 C 103.149 53.217,102.759 52.898,102.567 52.727 C 101.348 51.646,99.484 49.956,98.685 49.208 L 97.750 48.332 97.703 50.203 C 97.664 51.731,97.600 52.136,97.352 52.412 C 97.186 52.598,97.007 52.873,96.954 53.023 C 96.665 53.846,96.924 53.833,80.080 53.833 L 64.378 53.833 63.897 53.464 C 63.633 53.261,63.379 53.055,63.333 53.006 C 63.241 52.907,60.536 50.489,59.785 49.833 C 59.522 49.604,59.126 49.245,58.904 49.034 L 58.500 48.652 58.500 51.242 L 58.500 53.833 56.405 53.833 C 54.951 53.833,54.246 53.770,54.101 53.625 C 53.986 53.510,53.605 53.192,53.254 52.917 C 52.903 52.642,52.447 52.252,52.242 52.052 C 51.753 51.574,51.667 51.695,51.667 52.861 L 51.667 53.833 38.360 53.833 L 25.054 53.833 23.822 52.708 C 23.145 52.090,21.514 50.533,20.200 49.250 C 18.885 47.967,17.721 46.885,17.613 46.847 C 17.505 46.809,18.729 48.058,20.333 49.624 C 21.938 51.189,24.600 53.787,26.250 55.398 L 29.250 58.326 48.375 58.330 C 65.266 58.333,67.500 58.304,67.500 58.083 C 67.500 57.946,67.543 57.833,67.595 57.833 C 67.648 57.833,67.803 57.946,67.940 58.083 C 68.160 58.303,70.550 58.333,87.429 58.333 L 106.667 58.333 106.667 57.917 C 106.667 57.688,106.742 57.500,106.833 57.500 C 106.925 57.500,107.000 57.559,107.000 57.631 C 107.000 58.337,106.899 58.333,127.067 58.333 L 146.167 58.333 146.167 57.586 L 146.167 56.839 146.946 57.586 L 147.726 58.333 166.946 58.331 L 186.167 58.330 186.167 45.313 L 186.167 32.296 185.042 31.112 C 184.423 30.461,182.598 28.576,180.986 26.923 C 179.374 25.269,177.312 23.148,176.403 22.209 C 175.494 21.270,174.684 20.501,174.604 20.501 C 174.524 20.500,174.786 20.846,175.187 21.269 M386.167 25.833 C 386.167 27.147,386.200 28.189,386.241 28.148 C 386.357 28.032,386.383 23.660,386.268 23.546 C 386.212 23.490,386.167 24.519,386.167 25.833 M355.126 34.292 L 355.083 44.750 352.500 44.750 L 349.917 44.750 349.829 36.667 C 349.781 32.221,349.725 28.565,349.704 28.542 C 349.684 28.519,349.577 28.500,349.467 28.500 C 349.311 28.500,349.311 28.544,349.467 28.700 C 349.617 28.850,349.667 30.907,349.667 36.932 C 349.667 43.215,349.712 44.977,349.875 45.024 C 349.990 45.057,351.246 45.046,352.667 45.000 L 355.250 44.917 355.333 34.375 C 355.379 28.577,355.361 23.833,355.293 23.833 C 355.225 23.833,355.150 28.540,355.126 34.292 M386.681 23.904 C 389.263 26.545,392.008 29.276,391.969 29.166 C 391.899 28.970,386.832 23.833,386.708 23.833 C 386.655 23.833,386.642 23.865,386.681 23.904 M214.773 24.282 C 214.586 24.470,214.659 24.667,214.917 24.667 C 215.054 24.667,215.167 24.596,215.167 24.510 C 215.167 24.300,214.906 24.149,214.773 24.282 M162.375 25.755 L 163.333 26.760 163.333 32.930 C 163.333 37.507,163.282 39.152,163.133 39.300 C 163.000 39.434,162.994 39.500,163.116 39.500 C 163.467 39.500,163.500 38.925,163.500 32.856 L 163.500 26.740 162.458 25.745 L 161.417 24.750 162.375 25.755 M278.576 25.011 C 278.516 25.109,278.507 25.229,278.556 25.278 C 278.675 25.397,279.000 25.187,279.000 24.990 C 279.000 24.777,278.712 24.791,278.576 25.011 M323.910 25.011 C 323.849 25.109,323.840 25.229,323.889 25.278 C 324.008 25.397,324.333 25.187,324.333 24.990 C 324.333 24.777,324.046 24.791,323.910 25.011 M280.393 26.457 L 281.667 27.830 281.667 33.256 L 281.667 38.683 281.226 39.091 C 280.983 39.316,280.858 39.500,280.947 39.500 C 281.769 39.500,281.833 39.047,281.833 33.276 L 281.833 27.823 280.476 26.453 L 279.119 25.083 280.393 26.457 M300.667 25.500 C 300.667 25.592,300.835 25.666,301.042 25.664 C 301.345 25.662,301.369 25.631,301.167 25.500 C 300.844 25.291,300.667 25.291,300.667 25.500 M128.333 25.677 C 128.333 25.774,128.416 25.802,128.518 25.739 C 128.624 25.673,129.508 26.428,130.601 27.518 L 132.500 29.411 132.540 36.331 L 132.580 43.250 132.625 36.338 L 132.670 29.425 130.713 27.463 C 128.905 25.650,128.333 25.221,128.333 25.677 M255.417 25.657 C 255.600 25.733,256.529 26.600,257.481 27.586 L 259.212 29.378 259.134 37.113 C 259.081 42.353,259.111 44.882,259.228 44.955 C 259.455 45.095,264.382 45.009,264.534 44.863 C 264.598 44.801,263.442 44.774,261.965 44.804 L 259.279 44.857 259.395 37.170 L 259.511 29.483 257.561 27.491 C 256.489 26.396,255.493 25.505,255.348 25.511 C 255.156 25.518,255.175 25.558,255.417 25.657 M52.500 26.583 C 52.715 26.813,52.957 27.000,53.037 27.000 C 53.116 27.000,52.994 26.813,52.765 26.583 C 52.536 26.354,52.295 26.167,52.229 26.167 C 52.163 26.167,52.285 26.354,52.500 26.583 M358.414 26.830 C 358.770 27.195,359.093 27.463,359.131 27.425 C 359.216 27.339,358.058 26.167,357.888 26.167 C 357.821 26.167,358.057 26.465,358.414 26.830 M215.348 26.583 C 215.343 26.767,215.411 27.029,215.500 27.167 C 215.714 27.498,215.714 27.082,215.500 26.583 L 215.357 26.250 215.348 26.583 M218.583 28.000 C 219.035 28.458,219.436 28.833,219.476 28.833 C 219.617 28.833,218.080 27.200,217.923 27.184 C 217.835 27.174,218.132 27.542,218.583 28.000 M302.839 27.197 C 302.836 27.260,303.218 27.706,303.689 28.189 L 304.544 29.068 304.467 36.954 C 304.414 42.484,304.444 44.878,304.570 44.965 C 304.669 45.034,305.912 45.051,307.333 45.003 L 309.917 44.917 309.920 36.500 L 309.923 28.083 309.836 36.417 L 309.750 44.750 307.181 44.796 L 304.613 44.842 304.729 37.015 L 304.844 29.187 303.845 28.135 C 303.295 27.557,302.842 27.135,302.839 27.197 M326.571 27.429 C 326.715 27.573,326.833 27.773,326.833 27.873 C 326.833 27.973,326.877 28.012,326.930 27.959 C 327.065 27.824,326.693 27.167,326.482 27.167 C 326.387 27.167,326.427 27.285,326.571 27.429 M53.198 29.917 C 53.180 31.383,53.117 33.652,53.057 34.958 L 52.948 37.333 52.057 37.333 C 50.962 37.333,50.958 37.286,52.148 38.494 L 53.129 39.490 53.245 34.454 C 53.309 31.683,53.332 28.929,53.296 28.333 C 53.260 27.738,53.216 28.450,53.198 29.917 M91.822 28.323 L 92.667 29.145 92.667 36.164 L 92.667 43.183 93.476 43.991 C 94.554 45.070,93.804 45.029,111.583 44.968 C 126.973 44.915,127.167 44.906,127.167 44.267 C 127.167 44.184,127.009 44.258,126.816 44.433 C 126.477 44.739,125.944 44.752,111.524 44.801 C 93.908 44.861,94.688 44.903,93.625 43.839 L 92.833 43.048 92.833 36.059 L 92.833 29.071 92.036 28.285 C 91.597 27.853,91.180 27.500,91.108 27.500 C 91.036 27.500,91.358 27.870,91.822 28.323 M138.007 28.154 C 137.643 28.833,137.783 38.903,138.160 39.244 C 138.467 39.522,138.746 39.529,142.702 39.353 C 145.020 39.249,148.383 39.165,150.174 39.166 L 153.432 39.167 153.372 41.792 C 153.339 43.235,153.280 44.514,153.242 44.633 C 153.185 44.807,151.377 44.839,143.870 44.799 C 133.661 44.745,134.327 44.812,133.251 43.736 C 133.010 43.495,132.777 43.334,132.733 43.378 C 132.466 43.645,134.214 44.793,135.038 44.892 C 137.179 45.149,153.293 45.013,153.399 44.736 C 153.454 44.591,153.500 43.466,153.500 42.236 C 153.500 39.659,153.450 39.713,154.685 40.935 L 155.631 41.870 155.760 39.560 C 155.832 38.290,155.896 35.150,155.904 32.583 L 155.917 27.917 147.048 27.874 C 138.414 27.832,138.175 27.839,138.007 28.154 M201.792 27.957 L 209.667 28.003 209.667 29.168 L 209.667 30.333 204.958 30.341 C 198.681 30.352,198.569 30.405,198.735 33.279 C 198.836 35.039,198.927 35.231,200.492 36.980 C 201.084 37.641,201.852 38.561,202.201 39.025 L 202.833 39.867 202.833 46.850 L 202.833 53.833 200.499 53.833 C 197.804 53.833,198.357 54.109,195.432 51.305 C 194.507 50.419,193.723 49.721,193.690 49.754 C 193.638 49.807,196.544 52.685,201.066 57.060 L 202.383 58.333 207.108 58.333 L 211.833 58.333 211.833 53.500 C 211.833 50.842,211.866 48.667,211.906 48.667 C 211.978 48.667,213.370 50.005,218.968 55.455 L 221.917 58.326 225.458 58.330 C 227.406 58.332,229.000 58.290,229.000 58.238 C 229.000 58.186,228.906 58.048,228.792 57.932 C 227.927 57.056,225.703 54.554,225.503 54.231 C 225.367 54.012,225.198 53.833,225.128 53.833 C 225.058 53.833,225.000 53.758,225.000 53.667 C 225.000 53.563,225.889 53.500,227.334 53.500 L 229.668 53.500 231.042 54.830 C 231.798 55.561,232.942 56.646,233.583 57.241 L 234.750 58.323 258.625 58.328 L 282.500 58.333 282.500 55.083 C 282.500 53.296,282.543 51.833,282.595 51.833 C 282.648 51.833,282.790 51.927,282.911 52.042 C 283.032 52.156,283.939 53.000,284.926 53.917 C 285.913 54.833,287.364 56.201,288.152 56.956 L 289.583 58.328 296.875 58.331 L 304.167 58.333 304.167 56.083 C 304.167 53.439,304.050 53.520,305.646 55.059 C 306.345 55.733,307.404 56.744,308.000 57.304 L 309.083 58.324 318.458 58.329 L 327.833 58.333 327.833 55.083 C 327.833 53.296,327.876 51.833,327.929 51.833 C 327.981 51.833,328.121 51.927,328.240 52.042 C 328.359 52.156,329.339 53.075,330.417 54.083 C 331.495 55.092,332.948 56.460,333.647 57.124 L 334.917 58.331 342.208 58.332 L 349.500 58.333 349.500 56.083 C 349.500 54.846,349.538 53.833,349.585 53.833 C 349.632 53.833,350.363 54.495,351.210 55.304 C 352.057 56.113,353.133 57.125,353.601 57.554 L 354.451 58.333 363.809 58.333 L 373.167 58.333 373.167 57.583 C 373.167 56.663,373.155 56.663,374.126 57.582 L 374.917 58.331 387.458 58.332 L 400.000 58.333 399.999 55.708 L 399.998 53.083 398.733 51.750 C 398.037 51.017,396.612 49.537,395.567 48.462 C 394.522 47.387,393.667 46.469,393.667 46.421 C 393.667 46.373,395.092 46.333,396.833 46.333 L 400.000 46.333 399.998 41.792 L 399.997 37.250 396.082 33.278 C 393.928 31.094,392.168 29.369,392.169 29.445 C 392.170 29.521,392.845 30.279,393.669 31.128 L 395.167 32.673 395.167 35.003 L 395.167 37.333 387.667 37.333 C 383.542 37.333,380.167 37.372,380.167 37.418 C 380.167 37.465,380.394 37.740,380.671 38.031 C 381.432 38.827,381.232 38.873,376.972 38.876 C 374.833 38.878,372.108 38.887,370.917 38.897 C 369.725 38.907,367.887 38.915,366.833 38.916 L 364.917 38.917 364.873 33.626 L 364.829 28.336 375.373 28.291 L 385.917 28.246 375.333 28.248 L 364.750 28.250 364.703 33.333 C 364.678 36.129,364.697 38.580,364.745 38.780 L 364.834 39.144 373.078 39.149 C 378.173 39.152,381.360 39.092,381.421 38.993 C 381.557 38.773,385.772 38.789,386.188 39.012 C 386.431 39.141,386.474 39.247,386.349 39.398 C 386.250 39.517,386.156 40.719,386.130 42.178 L 386.083 44.750 373.970 44.750 C 367.308 44.750,361.958 44.807,362.082 44.876 C 362.206 44.945,367.695 44.983,374.279 44.959 L 386.250 44.917 386.296 42.292 C 386.351 39.160,386.318 39.185,388.007 40.958 C 388.684 41.669,390.065 43.115,391.077 44.173 C 392.089 45.231,393.423 46.640,394.042 47.303 L 395.167 48.510 395.167 51.171 L 395.167 53.833 383.031 53.833 C 371.710 53.833,370.874 53.814,370.568 53.542 C 369.011 52.156,368.350 51.555,366.770 50.094 C 365.773 49.172,364.779 48.245,364.562 48.034 L 364.167 47.652 364.167 50.742 L 364.167 53.833 361.774 53.833 L 359.380 53.833 357.899 52.542 C 357.084 51.831,356.257 51.100,356.063 50.917 C 355.868 50.733,355.549 50.453,355.354 50.293 L 355.000 50.003 355.000 51.918 L 355.000 53.833 352.669 53.833 C 350.695 53.833,350.283 53.789,349.981 53.542 C 349.205 52.905,345.614 49.554,343.419 47.417 C 342.948 46.958,342.277 46.342,341.928 46.047 C 340.861 45.147,341.114 45.000,343.735 45.000 C 344.970 45.000,346.015 44.944,346.058 44.875 C 346.174 44.688,341.284 44.833,341.055 45.024 C 340.508 45.478,340.445 44.569,340.596 38.338 C 340.677 34.990,340.744 31.275,340.746 30.083 L 340.750 27.917 336.167 27.911 L 331.583 27.906 336.083 27.995 L 340.583 28.083 340.548 29.583 C 340.528 30.408,340.491 35.594,340.465 41.107 C 340.420 50.381,340.395 51.156,340.125 51.454 C 339.965 51.631,339.833 51.832,339.833 51.900 C 339.833 52.104,339.373 52.500,339.135 52.500 C 339.013 52.500,338.820 52.650,338.705 52.833 C 338.590 53.018,338.317 53.167,338.092 53.167 C 337.869 53.167,337.640 53.242,337.583 53.333 C 337.527 53.425,337.275 53.500,337.023 53.500 C 336.772 53.500,336.485 53.582,336.385 53.681 C 336.178 53.889,332.884 53.794,331.667 53.546 C 330.040 53.214,329.602 52.866,323.431 47.000 C 320.071 43.806,319.983 43.678,321.583 44.322 C 322.276 44.600,323.530 44.832,324.211 44.809 C 324.894 44.785,324.887 44.780,324.000 44.662 C 322.427 44.452,321.769 44.289,321.189 43.964 C 320.880 43.792,320.588 43.689,320.541 43.737 C 320.370 43.907,319.536 43.163,319.271 42.603 C 318.971 41.971,318.905 35.206,319.154 30.667 C 319.327 27.528,319.828 27.826,314.452 27.872 L 309.917 27.911 314.476 27.958 L 319.035 28.005 318.892 31.711 C 318.814 33.749,318.779 39.560,318.813 44.625 L 318.877 53.833 316.470 53.833 C 314.413 53.833,314.015 53.791,313.737 53.542 C 313.557 53.381,312.889 52.800,312.251 52.250 C 311.614 51.700,310.790 50.959,310.421 50.604 L 309.750 49.957 309.703 51.895 L 309.656 53.833 307.327 53.833 C 305.023 53.833,304.991 53.828,304.474 53.375 C 303.210 52.266,300.874 50.080,297.437 46.789 C 295.585 45.016,295.595 45.000,298.510 45.000 C 299.788 45.000,300.833 44.944,300.834 44.875 C 300.834 44.806,299.709 44.773,298.334 44.800 C 296.958 44.828,295.833 44.919,295.833 45.003 C 295.833 45.087,295.721 45.113,295.583 45.060 C 295.304 44.953,295.239 35.187,295.488 30.667 C 295.660 27.528,296.161 27.826,290.786 27.872 L 286.250 27.911 290.817 27.958 L 295.384 28.005 295.235 30.878 C 295.153 32.457,295.085 37.661,295.085 42.441 C 295.083 50.161,295.054 51.166,294.817 51.441 C 294.671 51.611,294.504 51.882,294.446 52.044 C 294.389 52.206,294.168 52.404,293.956 52.485 C 293.743 52.566,293.470 52.752,293.348 52.899 C 293.226 53.046,292.952 53.167,292.739 53.167 C 292.527 53.167,292.307 53.242,292.250 53.333 C 292.193 53.425,291.979 53.500,291.773 53.500 C 291.568 53.500,291.318 53.582,291.219 53.681 C 291.099 53.801,290.395 53.834,289.144 53.779 C 284.988 53.594,285.260 53.754,278.917 47.751 C 277.633 46.537,276.340 45.316,276.042 45.038 C 275.744 44.760,275.500 44.457,275.500 44.364 C 275.500 44.271,275.406 44.151,275.292 44.099 C 274.980 43.956,275.864 44.166,276.250 44.326 C 276.922 44.606,278.432 44.862,279.000 44.792 C 279.561 44.723,279.557 44.719,278.877 44.693 C 278.008 44.660,276.775 44.371,276.000 44.018 C 275.679 43.872,275.342 43.745,275.250 43.735 C 273.671 43.570,273.302 40.274,273.835 31.100 C 274.046 27.460,274.582 27.825,269.105 27.872 L 264.583 27.911 269.150 27.958 L 273.716 28.005 273.566 32.044 C 273.484 34.266,273.446 40.077,273.482 44.958 L 273.548 53.833 271.149 53.833 L 268.750 53.833 266.917 52.215 C 265.908 51.324,264.884 50.387,264.641 50.131 C 264.025 49.483,264.000 49.514,264.000 50.896 C 264.000 51.821,263.934 52.181,263.733 52.348 C 263.586 52.470,263.403 52.734,263.327 52.934 C 262.975 53.860,263.477 53.833,246.448 53.833 L 230.781 53.833 230.238 53.419 C 229.940 53.191,229.595 52.910,229.471 52.794 C 229.348 52.678,228.276 51.683,227.089 50.583 C 225.902 49.483,224.622 48.283,224.244 47.917 C 223.867 47.550,223.057 46.788,222.446 46.222 C 221.834 45.657,221.333 45.132,221.333 45.056 C 221.333 44.979,228.532 44.917,237.331 44.917 L 253.328 44.917 253.956 44.253 L 254.583 43.590 253.949 44.170 L 253.315 44.750 238.047 44.795 C 220.907 44.846,221.237 44.864,220.275 43.796 L 219.633 43.083 219.621 36.000 L 219.609 28.917 219.506 36.083 C 219.399 43.463,219.408 43.597,220.067 44.207 C 220.371 44.488,220.290 44.500,218.093 44.500 L 215.802 44.500 216.524 45.375 C 216.921 45.856,217.585 46.616,217.998 47.064 C 218.412 47.512,218.825 47.962,218.917 48.065 C 219.008 48.168,219.799 49.039,220.675 50.001 C 222.547 52.059,223.833 53.576,223.833 53.726 C 223.833 53.785,222.449 53.833,220.756 53.833 L 217.679 53.833 216.134 52.375 C 214.698 51.019,213.862 50.224,210.183 46.717 C 208.357 44.976,208.329 45.000,212.177 45.000 C 215.905 45.000,215.809 45.098,213.957 43.178 C 213.199 42.392,212.176 41.300,211.683 40.750 C 210.155 39.046,207.302 36.130,207.474 36.448 C 207.563 36.614,208.262 37.391,209.027 38.175 C 209.791 38.959,210.673 39.896,210.986 40.258 C 211.299 40.620,212.330 41.733,213.277 42.730 C 214.225 43.727,215.000 44.608,215.000 44.688 C 215.000 44.768,213.590 44.833,211.867 44.833 C 209.881 44.833,208.669 44.898,208.557 45.010 C 208.377 45.190,208.023 44.830,202.883 39.250 C 199.494 35.571,199.430 35.497,199.181 35.028 C 198.555 33.847,198.931 30.833,199.705 30.833 C 199.830 30.833,200.007 30.760,200.097 30.669 C 200.195 30.572,202.179 30.487,205.006 30.461 L 209.750 30.417 209.750 29.167 L 209.750 27.917 201.833 27.914 L 193.917 27.912 201.792 27.957 M155.833 29.809 C 155.833 31.586,155.591 35.396,155.411 36.455 L 155.319 36.994 151.201 37.039 L 147.083 37.083 147.033 38.042 L 146.983 39.000 146.200 39.011 C 145.769 39.017,143.879 39.080,142.000 39.152 C 140.121 39.223,138.490 39.248,138.375 39.206 C 138.214 39.148,138.167 37.867,138.167 33.566 L 138.167 28.000 147.000 28.000 L 155.833 28.000 155.833 29.809 M19.278 28.278 C 19.020 28.536,19.154 39.116,19.418 39.335 C 19.619 39.501,20.543 39.505,23.960 39.355 C 26.320 39.251,30.398 39.166,33.024 39.166 C 38.437 39.167,38.000 39.299,38.000 37.661 C 38.000 36.748,38.084 36.400,38.561 35.333 C 38.776 34.853,39.587 34.012,40.128 33.708 C 41.375 33.009,41.721 32.887,43.377 32.554 C 43.631 32.503,44.043 32.539,44.294 32.633 C 44.545 32.727,45.106 32.902,45.542 33.022 C 45.977 33.142,46.333 33.298,46.333 33.370 C 46.333 33.441,46.483 33.500,46.667 33.500 C 46.850 33.500,47.000 33.575,47.000 33.667 C 47.000 33.758,47.094 33.834,47.208 33.835 C 47.763 33.840,49.025 35.317,49.160 36.119 C 49.234 36.558,49.303 36.754,49.314 36.555 C 49.325 36.357,49.378 36.077,49.433 35.934 C 49.575 35.563,47.788 33.844,46.750 33.352 C 44.445 32.261,43.021 32.118,41.508 32.826 C 40.109 33.482,39.644 33.760,39.154 34.237 C 38.482 34.890,37.891 35.940,37.739 36.750 L 37.631 37.328 33.024 37.372 L 28.417 37.417 28.366 38.208 L 28.315 39.000 27.533 39.010 C 27.102 39.016,25.175 39.081,23.250 39.154 C 21.325 39.227,19.656 39.252,19.542 39.209 C 19.381 39.149,19.333 37.899,19.333 33.733 L 19.333 28.335 34.292 28.292 L 49.250 28.248 34.319 28.207 C 26.108 28.185,19.339 28.217,19.278 28.278 M331.540 34.695 C 331.518 38.331,331.451 41.443,331.392 41.611 C 331.313 41.837,331.335 41.870,331.477 41.740 C 331.619 41.610,331.658 39.770,331.625 34.823 L 331.579 28.083 331.540 34.695 M59.042 28.944 C 58.704 29.080,58.744 39.052,59.083 39.333 C 59.280 39.497,60.210 39.501,63.541 39.352 C 65.856 39.249,71.139 39.165,75.282 39.166 C 79.643 39.166,82.853 39.103,82.908 39.015 C 83.129 38.656,83.368 29.326,83.162 29.078 C 82.962 28.837,59.629 28.707,59.042 28.944 M98.534 29.032 C 98.386 29.180,98.333 30.538,98.333 34.172 L 98.333 39.110 98.732 39.324 C 99.053 39.495,99.932 39.501,103.207 39.352 C 105.449 39.250,110.701 39.167,114.877 39.167 L 122.472 39.167 122.586 37.945 C 122.649 37.274,122.712 34.967,122.725 32.820 L 122.750 28.917 110.743 28.874 C 101.542 28.841,98.689 28.878,98.534 29.032 M225.375 28.944 C 225.032 29.082,225.078 38.935,225.423 39.280 C 225.650 39.508,226.167 39.516,229.965 39.351 C 232.322 39.249,237.602 39.166,241.698 39.166 C 246.580 39.166,249.183 39.108,249.252 38.997 C 249.512 38.576,249.736 29.146,249.490 28.990 C 249.243 28.834,225.759 28.789,225.375 28.944 M83.079 29.160 C 83.176 29.317,82.932 34.894,82.738 36.958 L 82.640 38.000 75.320 38.000 L 68.000 38.000 68.000 38.500 C 68.000 38.991,67.984 39.000,67.125 39.010 C 66.644 39.015,64.712 39.081,62.833 39.156 C 60.590 39.247,59.345 39.236,59.208 39.126 C 58.984 38.946,58.890 29.332,59.111 29.111 C 59.292 28.930,82.967 28.978,83.079 29.160 M122.575 30.750 C 122.570 31.667,122.505 33.672,122.432 35.207 L 122.298 37.997 114.941 38.040 L 107.583 38.083 107.532 38.524 L 107.481 38.965 104.532 39.069 C 102.910 39.126,100.946 39.191,100.167 39.212 L 98.750 39.250 98.706 34.124 L 98.662 28.998 110.623 29.041 L 122.583 29.083 122.575 30.750 M161.206 33.945 C 161.167 38.899,161.203 39.500,161.538 39.500 C 161.645 39.500,161.639 39.418,161.523 39.278 C 161.399 39.129,161.323 37.383,161.292 33.986 L 161.245 28.917 161.206 33.945 M249.418 29.168 C 249.524 29.340,249.241 36.016,249.073 37.290 L 248.980 37.997 241.698 38.040 L 234.417 38.083 234.364 38.542 C 234.314 38.974,234.263 39.001,233.447 39.010 C 232.972 39.015,231.046 39.081,229.167 39.156 C 226.924 39.247,225.678 39.236,225.542 39.126 C 225.317 38.946,225.224 29.332,225.444 29.111 C 225.633 28.923,249.301 28.979,249.418 29.168 M88.625 29.722 C 88.556 29.890,88.511 32.927,88.525 36.472 C 88.550 42.632,88.557 42.773,88.691 39.667 C 88.854 35.915,88.809 29.271,88.625 29.722 M128.204 32.917 C 128.183 34.750,128.134 37.787,128.094 39.667 L 128.023 43.083 128.177 39.833 C 128.263 38.046,128.312 35.008,128.288 33.083 L 128.243 29.583 128.204 32.917 M254.958 29.764 C 254.890 29.833,254.845 32.858,254.859 36.486 C 254.883 42.788,254.891 42.934,255.024 39.750 C 255.185 35.917,255.143 29.578,254.958 29.764 M215.444 30.611 C 215.383 30.672,215.338 30.878,215.344 31.069 C 215.354 31.389,215.367 31.385,215.514 31.017 C 215.677 30.609,215.644 30.412,215.444 30.611 M370.941 31.312 C 370.770 31.379,371.227 31.430,371.955 31.425 C 374.145 31.411,375.148 32.127,375.198 33.740 L 375.230 34.750 375.290 33.798 C 375.408 31.915,372.962 30.517,370.941 31.312 M369.839 31.937 C 369.553 32.178,369.350 32.405,369.387 32.442 C 369.424 32.479,369.697 32.283,369.995 32.005 C 370.658 31.385,370.551 31.338,369.839 31.937 M214.605 33.208 L 214.306 33.750 214.649 33.333 C 214.954 32.964,215.089 32.667,214.953 32.667 C 214.927 32.667,214.770 32.910,214.605 33.208 M213.740 34.375 L 213.250 34.917 213.792 34.427 C 214.297 33.971,214.410 33.833,214.281 33.833 C 214.252 33.833,214.009 34.077,213.740 34.375 M369.000 34.425 C 369.000 34.659,369.536 35.519,369.626 35.429 C 369.682 35.373,369.639 35.239,369.531 35.131 C 369.422 35.022,369.333 34.798,369.333 34.633 C 369.333 34.468,369.258 34.333,369.167 34.333 C 369.075 34.333,369.000 34.375,369.000 34.425 M286.166 38.284 C 286.121 40.227,286.141 41.759,286.212 41.688 C 286.283 41.618,286.320 40.027,286.295 38.155 L 286.249 34.750 286.166 38.284 M374.625 35.339 C 374.086 35.927,374.013 36.191,374.515 35.736 C 374.826 35.455,375.255 34.828,375.131 34.836 C 375.105 34.838,374.877 35.065,374.625 35.339 M369.985 35.898 C 370.207 36.165,371.000 36.357,371.000 36.144 C 371.000 36.065,370.854 36.000,370.677 36.000 C 370.499 36.000,370.307 35.925,370.250 35.833 C 370.193 35.742,370.067 35.667,369.970 35.667 C 369.852 35.667,369.857 35.744,369.985 35.898 M371.792 36.505 C 372.015 36.595,372.318 36.595,372.542 36.505 C 372.848 36.382,372.779 36.354,372.167 36.354 C 371.554 36.354,371.485 36.382,371.792 36.505 M44.724 38.305 C 44.961 38.566,45.000 39.066,45.000 41.805 L 45.000 45.000 47.167 45.000 C 48.358 45.000,49.333 44.944,49.334 44.875 C 49.334 44.806,48.396 44.773,47.250 44.801 L 45.167 44.852 45.161 41.718 C 45.156 38.662,45.053 38.000,44.581 38.000 C 44.508 38.000,44.572 38.137,44.724 38.305 M278.833 38.890 C 278.833 39.126,279.647 39.575,279.799 39.423 C 279.849 39.374,279.801 39.333,279.694 39.333 C 279.587 39.333,279.350 39.183,279.167 39.000 C 278.943 38.776,278.833 38.740,278.833 38.890 M326.500 39.138 C 326.123 39.506,326.118 39.527,326.449 39.355 C 326.650 39.250,326.864 39.085,326.924 38.988 C 327.129 38.656,326.917 38.731,326.500 39.138 M324.167 38.969 C 324.167 39.048,324.354 39.199,324.583 39.303 C 324.813 39.407,325.000 39.466,325.000 39.432 C 325.000 39.399,324.813 39.249,324.583 39.099 C 324.354 38.949,324.167 38.890,324.167 38.969 M53.195 41.482 L 53.167 43.214 53.976 44.024 C 54.639 44.686,54.888 44.831,55.351 44.820 C 55.931 44.807,55.896 44.765,55.167 44.603 C 54.938 44.552,54.450 44.249,54.083 43.931 L 53.417 43.351 53.320 41.551 L 53.223 39.750 53.195 41.482 M156.002 42.606 C 155.999 42.877,157.225 43.946,157.690 44.077 C 157.906 44.138,158.233 44.250,158.417 44.326 C 159.071 44.599,160.592 44.864,161.083 44.791 C 161.544 44.722,161.535 44.715,160.966 44.692 C 159.315 44.625,157.066 43.764,156.428 42.955 C 156.195 42.659,156.003 42.502,156.002 42.606 M285.099 43.084 C 284.833 43.313,284.688 43.500,284.778 43.500 C 284.868 43.500,285.118 43.313,285.333 43.083 C 285.835 42.549,285.720 42.549,285.099 43.084 M359.500 42.958 C 359.500 43.220,361.280 45.000,361.542 45.000 C 361.652 45.000,361.466 44.772,361.128 44.493 C 360.790 44.215,360.285 43.710,360.007 43.372 C 359.728 43.034,359.500 42.848,359.500 42.958 M42.625 43.389 C 42.556 43.557,42.500 43.950,42.500 44.263 L 42.500 44.831 29.458 44.875 L 16.417 44.919 29.417 44.957 C 36.567 44.978,42.515 44.933,42.635 44.856 C 42.780 44.765,42.836 44.441,42.802 43.901 C 42.766 43.341,42.711 43.180,42.625 43.389 M127.557 43.585 C 127.451 43.813,127.432 43.959,127.515 43.908 C 127.735 43.772,128.034 43.166,127.881 43.168 C 127.809 43.169,127.663 43.356,127.557 43.585 M166.602 43.469 C 166.520 43.603,165.397 44.184,164.750 44.428 C 164.567 44.497,164.042 44.606,163.583 44.670 L 162.750 44.786 163.450 44.810 C 164.161 44.834,164.517 44.728,165.794 44.118 C 166.425 43.817,167.032 43.333,166.780 43.333 C 166.729 43.333,166.649 43.394,166.602 43.469 M329.936 43.469 C 329.701 43.848,327.543 44.653,326.655 44.692 C 326.098 44.716,326.096 44.718,326.578 44.790 C 327.086 44.864,327.970 44.651,329.000 44.204 C 329.667 43.915,330.467 43.333,330.199 43.333 C 330.100 43.333,329.982 43.394,329.936 43.469 M87.535 44.208 L 86.994 44.750 71.455 44.838 L 55.917 44.925 71.456 44.921 L 86.995 44.917 87.619 44.292 C 87.963 43.948,88.207 43.667,88.161 43.667 C 88.115 43.667,87.833 43.910,87.535 44.208 M283.762 44.007 C 283.402 44.186,282.989 44.339,282.845 44.346 C 282.665 44.356,282.650 44.386,282.797 44.446 C 283.004 44.529,284.500 43.917,284.500 43.749 C 284.500 43.638,284.505 43.636,283.762 44.007 M281.500 44.667 L 280.750 44.783 281.417 44.806 C 281.783 44.818,282.196 44.756,282.333 44.667 C 282.471 44.578,282.508 44.515,282.417 44.528 C 282.325 44.540,281.912 44.603,281.500 44.667 M15.944 44.778 C 15.770 44.952,15.815 45.333,16.010 45.333 C 16.107 45.333,16.135 45.250,16.072 45.148 C 16.009 45.046,16.061 44.897,16.187 44.817 C 16.313 44.737,16.335 44.671,16.236 44.669 C 16.137 44.668,16.006 44.717,15.944 44.778 M191.375 44.791 C 188.943 44.844,188.777 44.897,189.167 45.500 C 189.297 45.702,189.329 45.678,189.331 45.375 C 189.333 45.005,189.362 45.000,191.573 45.000 C 192.887 45.000,193.856 44.931,193.917 44.833 C 193.973 44.742,193.959 44.683,193.885 44.703 C 193.811 44.724,192.681 44.763,191.375 44.791 M189.500 45.754 C 189.500 45.857,190.722 47.067,191.428 47.662 C 191.697 47.889,191.394 47.533,190.754 46.871 C 189.601 45.675,189.500 45.586,189.500 45.754 " stroke="none" fill="#dbdbdb" fill-rule="evenodd"></path></g></svg>