<svg xmlns="http://www.w3.org/2000/svg" xmlns:xlink="http://www.w3.org/1999/xlink" xmlns:fi="http://pattern.flaticon.com/" x="0" y="0" width="1980" height="990" viewBox="0 0 1935.754189944134 967.877094972067"><rect x="0px" y="0px" width="100%" height="100%" opacity="0.91" fill="#1f1f1f"/><defs><g transform="matrix(-0.125 0 0 0.125 117.5 57.5)" id="L1_5"><path d="M303.561,8.525c38.557,10.583,73.23,30.554,101.437,57.281C395.485,64.659,385.822,64,376,64   c-124.27,0-226.479,94.448-238.762,215.477h0c-0.003,0.032-0.006,0.065-0.009,0.097c-0.001,0.014-0.002,0.028-0.004,0.042   C168.915,285.105,204.253,288,240,288c41.859,0,82.789-3.922,118.367-11.344c14.039-2.938,27.203-6.406,39.141-10.328   c4.195-1.391,8.711,0.906,10.094,5.109c1.375,4.195-0.906,8.711-5.109,10.094c-7.778,2.554-16.087,4.897-24.746,7.059   c-0.101,0.083-0.148,0.205-0.254,0.285l-15.656,11.742l16.289,4.492c3.508,0.969,5.922,4.172,5.875,7.805   c-0.047,3.641-2.531,6.789-6.063,7.664C337.57,330.672,289.867,336,240,336c-3.523,0-6.633-2.305-7.656-5.68   s0.289-7.023,3.219-8.977c2.563-1.711,2.469-4.25,2.313-5.258c-0.156-1.016-0.844-3.469-3.813-4.313l-43.789-9.68   c-0.065-0.015-0.112-0.062-0.177-0.078c-18.638-1.396-36.801-3.486-53.936-6.363c-0.095,2.772-0.16,5.552-0.16,8.348   c0,54.205,18.011,104.173,48.33,144.339c18.574-8.458,37.683-17.042,56.006-16.331c28.82,1.266,43.547-6.867,43.688-6.953   c3.828-2.133,8.711-0.82,10.891,2.984c2.18,3.813,0.914,8.656-2.883,10.867c-0.734,0.438-18.305,10.547-52.367,9.086   c-13.441-0.686-29.28,6.086-44.936,13.195c0,0,0.001,0.001,0.002,0.002c-0.001,0.001-0.002,0.001-0.004,0.002   c5.148,5.928,10.579,11.605,16.276,17.003c-12.859-1.55-25.402-4.12-37.553-7.619c-0.001,0-0.003,0.001-0.004,0.002   c-0.035-0.01-0.07-0.022-0.105-0.032c-2.008-0.579-4.005-1.186-5.992-1.816c-1.236-0.389-2.461-0.801-3.688-1.208   c-0.474-0.159-0.949-0.314-1.421-0.475c-5.38-1.822-10.685-3.803-15.878-6.005c0.055,0.002,0.115-0.003,0.171-0.002   c-49.475-20.934-90.472-57.971-116.398-104.552C71.109,430.151,149.727,480,240,480c132.548,0,240-107.452,240-240   C480,129.458,405.259,36.388,303.561,8.525z M272,232c-0.258,0.016-0.68-0.008-1.023-0.008c-11.43,0-18.469,3.594-26.594,7.742   c-8.633,4.406-18.18,9.281-32.875,9.281c-3.891,0-8.133-0.344-12.82-1.125c-4.359-0.727-7.305-4.852-6.578-9.203   c0.719-4.359,4.828-7.352,9.203-6.578c17.211,2.852,25.813-1.531,35.797-6.625c8.938-4.57,18.742-9.945,35.023-9.484   c4.414,0.07,7.938,3.711,7.867,8.133C279.93,228.5,276.359,232,272,232z M334.289,220.945c-7.18,9.141-24.672,10.766-29.859,11.047   C304.281,232,304.141,232,303.992,232c-4.219,0-7.742-3.297-7.977-7.563c-0.242-4.406,3.133-8.18,7.539-8.422   c7.672-0.438,16.492-2.844,18.156-4.961c2.727-3.469,7.75-4.086,11.234-1.344C336.414,212.437,337.023,217.469,334.289,220.945z    M205.68,333.601c-1.523,1.516-3.602,2.398-5.68,2.398s-4.164-0.883-5.68-2.32c-1.445-1.523-2.32-3.602-2.32-5.68   s0.875-4.164,2.32-5.68c2.961-2.961,8.32-2.961,11.359,0c1.516,1.516,2.32,3.602,2.32,5.68S207.195,332.156,205.68,333.601z    M309.679,373.601c-1.523,1.516-3.602,2.398-5.68,2.398c-2.078,0-4.164-0.883-5.68-2.32c-1.445-1.523-2.32-3.602-2.32-5.68   s0.875-4.164,2.32-5.68c2.961-2.961,8.32-2.961,11.359,0c1.516,1.516,2.32,3.602,2.32,5.68S311.195,372.156,309.679,373.601z    M373.679,197.502c-1.523,1.516-3.602,2.398-5.68,2.398s-4.164-0.883-5.68-2.32c-1.445-1.523-2.32-3.602-2.32-5.68   s0.875-4.164,2.32-5.68c2.961-2.961,8.32-2.961,11.359,0c1.516,1.516,2.32,3.602,2.32,5.68S375.195,196.057,373.679,197.502z    M405.679,229.601c-1.523,1.516-3.602,2.398-5.68,2.398s-4.164-0.883-5.68-2.32c-1.445-1.523-2.32-3.602-2.32-5.68   s0.875-4.164,2.32-5.68c2.961-2.961,8.32-2.961,11.359,0c1.516,1.516,2.32,3.602,2.32,5.68S407.195,228.156,405.679,229.601z    M369.773,130.531c-0.602,0.141-1.195,0.203-1.789,0.203c-3.648,0-6.945-2.508-7.789-6.219c-0.984-4.305,1.703-8.594,6.016-9.578   c24.808-5.672,46.328-12.667,64.396-20.713c3.315,4.328,6.492,8.763,9.511,13.315C420.515,116.577,396.919,124.331,369.773,130.531   z" fill="#ff4f19"/><path d="M14.108,321.229c-1.555-4.322-2.983-8.703-4.293-13.136   C11.125,312.525,12.554,316.907,14.108,321.229z" fill="#ff4f19"/><path d="M146.532,461.038c-0.055-0.001-0.116,0.004-0.171,0.002c5.193,2.203,10.499,4.183,15.878,6.005   c0.472,0.162,0.948,0.317,1.421,0.475c1.227,0.407,2.452,0.819,3.688,1.208c1.986,0.63,3.983,1.236,5.992,1.816   c0.035,0.01,0.07,0.022,0.105,0.032c0.001,0,0.003-0.001,0.004-0.002c12.15,3.499,24.694,6.069,37.553,7.619   c-5.697-5.398-11.128-11.075-16.276-17.003c-1.46,0.663-2.921,1.326-4.375,1.989c-5.725,2.606-11.35,5.158-16.817,7.36   c-0.763-0.219-1.527-0.437-2.288-0.663c-2.699-0.804-5.369-1.67-8.03-2.559c-1.713-0.578-3.439-1.131-5.135-1.747   c-1.86-0.668-3.681-1.418-5.519-2.133c-2.014-0.789-4.034-1.565-6.021-2.406c9.272,0.228,23.412-6.149,37.177-12.414   c0.22-0.1,0.441-0.2,0.662-0.3c3.32,4.398,6.74,8.715,10.348,12.87c15.656-7.109,31.495-13.881,44.936-13.195   c34.063,1.461,51.633-8.648,52.367-9.086c3.797-2.211,5.063-7.055,2.883-10.867c-2.18-3.805-7.063-5.117-10.891-2.984   c-0.141,0.086-14.867,8.219-43.688,6.953c-18.323-0.711-37.432,7.873-56.006,16.331C154.011,408.173,136,358.205,136,304   c0-2.796,0.065-5.575,0.16-8.348c17.136,2.878,35.298,4.968,53.936,6.363c0.065,0.016,0.111,0.063,0.177,0.078l43.789,9.68   c2.969,0.844,3.656,3.297,3.813,4.313c0.156,1.008,0.25,3.547-2.313,5.258c-2.93,1.953-4.242,5.602-3.219,8.977   S236.476,336,240,336c49.867,0,97.57-5.328,137.937-15.422c3.531-0.875,6.016-4.023,6.063-7.664   c0.047-3.633-2.367-6.836-5.875-7.805l-16.289-4.492l15.656-11.742c0.106-0.08,0.153-0.201,0.254-0.285   c8.658-2.162,16.968-4.505,24.746-7.059c4.203-1.383,6.484-5.898,5.109-10.094c-1.383-4.203-5.898-6.5-10.094-5.109   c-11.938,3.922-25.102,7.391-39.141,10.328C322.789,284.078,281.859,288,240,288c-35.747,0-71.085-2.895-102.775-8.384   c0.001-0.014,0.002-0.028,0.004-0.042c-0.534,5.292-0.831,10.651-1.017,16.039c-3.252-0.546-6.532-1.072-9.705-1.676   c-4.344-0.828-7.195-5.016-6.367-9.352c0.82-4.344,5.008-7.188,9.352-6.367c2.503,0.477,5.193,0.816,7.745,1.259   C149.521,158.448,251.73,64,376,64c9.822,0,19.485,0.659,28.998,1.806C376.79,39.079,342.118,19.108,303.561,8.525   c-0.079-0.022-0.158-0.043-0.237-0.064c-1.719-0.47-3.447-0.921-5.182-1.353c-0.208-0.052-0.418-0.102-0.627-0.153   c-1.62-0.399-3.246-0.783-4.879-1.149c-0.328-0.074-0.658-0.143-0.986-0.215c-1.528-0.336-3.06-0.66-4.599-0.967   c-0.444-0.088-0.89-0.17-1.334-0.256c-1.437-0.278-2.876-0.548-4.322-0.8c-0.558-0.097-1.12-0.185-1.679-0.278   c-1.347-0.225-2.696-0.446-4.05-0.648c-0.669-0.1-1.342-0.187-2.013-0.282c-1.259-0.177-2.517-0.354-3.782-0.511   c-0.782-0.097-1.57-0.179-2.354-0.269c-1.167-0.134-2.333-0.271-3.506-0.387c-0.901-0.09-1.807-0.161-2.71-0.241   c-1.069-0.094-2.137-0.195-3.21-0.276c-1.036-0.077-2.079-0.134-3.119-0.198c-0.953-0.059-1.904-0.128-2.86-0.175   c-1.244-0.062-2.494-0.099-3.743-0.142c-0.763-0.026-1.523-0.065-2.288-0.084C244.059,0.027,242.033,0,240,0   C134.986,0,45.739,67.453,13.186,161.39c0.463-1.356,0.939-2.706,1.431-4.048c0.176,0.157,0.398,0.225,0.563,0.4   c12.797,13.672,36.086,26.328,67.344,36.594c4.203,1.383,6.484,5.898,5.109,10.094c-1.109,3.375-4.234,5.508-7.602,5.508   c-0.828,0-1.664-0.125-2.492-0.398c-29.783-9.778-53.172-21.912-68.33-35.342c1.216-4.272,2.51-8.51,3.935-12.688   C4.635,186.105,0,212.51,0,240c0,1.997,0.027,3.987,0.076,5.973c0.016,0.669,0.049,1.334,0.07,2.001   c0.043,1.314,0.086,2.628,0.15,3.937c0.039,0.795,0.093,1.585,0.14,2.378c0.069,1.176,0.137,2.351,0.223,3.522   c0.062,0.845,0.137,1.686,0.208,2.529c0.094,1.112,0.187,2.223,0.296,3.33c0.085,0.872,0.181,1.74,0.276,2.609   c0.117,1.071,0.236,2.141,0.367,3.208c0.109,0.889,0.226,1.775,0.345,2.66c0.139,1.037,0.282,2.072,0.434,3.105   c0.133,0.902,0.271,1.802,0.414,2.7c0.16,1.009,0.327,2.015,0.5,3.02c0.157,0.911,0.316,1.821,0.483,2.728   c0.18,0.98,0.37,1.956,0.562,2.932c0.182,0.923,0.364,1.845,0.557,2.764c0.198,0.948,0.408,1.893,0.618,2.837   c0.208,0.935,0.413,1.871,0.632,2.802c0.213,0.907,0.439,1.81,0.662,2.713c0.237,0.961,0.471,1.923,0.72,2.879   c0.217,0.833,0.448,1.66,0.674,2.489c0.277,1.017,0.547,2.036,0.837,3.047c0.185,0.646,0.384,1.286,0.574,1.929   c1.31,4.433,2.738,8.815,4.293,13.136c0.086,0.239,0.167,0.481,0.254,0.72c0.483,1.329,0.986,2.649,1.492,3.967   c0.16,0.418,0.315,0.839,0.477,1.255c0.498,1.276,1.014,2.544,1.533,3.809c0.183,0.445,0.361,0.892,0.546,1.336   c0.528,1.266,1.072,2.523,1.621,3.777c0.187,0.427,0.371,0.856,0.561,1.283c0.567,1.274,1.147,2.541,1.735,3.804   c0.181,0.388,0.36,0.776,0.543,1.163c0.614,1.299,1.24,2.592,1.876,3.878c0.162,0.327,0.324,0.655,0.488,0.981   c0.671,1.342,1.354,2.677,2.05,4.004c0.126,0.241,0.254,0.481,0.381,0.722c0.744,1.407,1.499,2.808,2.269,4.198   c0.067,0.12,0.134,0.239,0.201,0.359C56.061,403.068,97.058,440.104,146.532,461.038z M170.32,74.32   c2.961-2.961,8.32-2.961,11.359,0c1.516,1.516,2.32,3.602,2.32,5.68s-0.805,4.156-2.32,5.602C180.156,87.117,178.078,88,176,88   s-4.164-0.883-5.68-2.32C168.875,84.156,168,82.078,168,80S168.875,75.836,170.32,74.32z M104.835,106.028   c6.196-9.737,17.263-13.784,24.718-9.04c7.455,4.744,8.476,16.483,2.28,26.22s-17.262,13.784-24.718,9.04   S98.639,115.765,104.835,106.028z M55.635,274.818c-1.982-9.17,2.103-17.834,9.124-19.352c7.021-1.518,14.32,4.686,16.302,13.856   s-2.103,17.834-9.124,19.352C64.916,290.191,57.617,283.987,55.635,274.818z" fill="#db3f3d"/><path d="M272.133,216c-16.281-0.461-26.086,4.914-35.023,9.484c-9.984,5.094-18.586,9.477-35.797,6.625   c-4.375-0.773-8.484,2.219-9.203,6.578c-0.727,4.352,2.219,8.477,6.578,9.203c4.688,0.781,8.93,1.125,12.82,1.125   c14.695,0,24.242-4.875,32.875-9.281c8.125-4.148,15.164-7.742,26.594-7.742c0.344,0,0.766,0.023,1.023,0.008   c4.359,0,7.93-3.5,8-7.867C280.07,219.711,276.547,216.07,272.133,216z" fill="#db3f3d"/><path d="M332.945,209.711c-3.484-2.742-8.508-2.125-11.234,1.344c-1.664,2.117-10.484,4.523-18.156,4.961   c-4.406,0.242-7.781,4.016-7.539,8.422c0.234,4.266,3.758,7.563,7.977,7.563c0.148,0,0.289,0,0.438-0.008   c5.187-0.281,22.68-1.906,29.859-11.047C337.023,217.469,336.414,212.437,332.945,209.711z" fill="#db3f3d"/><ellipse cx="118px" cy="114px" rx="20px" ry="16px" transform="matrix(-0.5369 0.8437 -0.8437 -0.5369 278.5632 76.3195)" fill="#a03939"/><ellipse cx="68px" cy="272px" rx="13px" ry="16px" transform="matrix(0.9774 -0.2113 0.2113 0.9774 -55.9416 20.5831)" fill="#a03939"/><path d="M176,88c2.078,0,4.156-0.883,5.68-2.398C183.195,84.156,184,82.078,184,80s-0.805-4.164-2.32-5.68   c-3.039-2.961-8.398-2.961-11.359,0C168.875,75.836,168,77.922,168,80s0.875,4.156,2.32,5.68C171.836,87.117,173.922,88,176,88z" fill="#a03939"/><path d="M362.32,186.221c-1.445,1.516-2.32,3.602-2.32,5.68s0.875,4.156,2.32,5.68   c1.516,1.438,3.602,2.32,5.68,2.32s4.156-0.883,5.68-2.398c1.516-1.445,2.32-3.523,2.32-5.602s-0.805-4.164-2.32-5.68   C370.64,183.26,365.281,183.26,362.32,186.221z" fill="#db3f3d"/><path d="M394.32,218.32c-1.445,1.516-2.32,3.602-2.32,5.68s0.875,4.156,2.32,5.68   c1.516,1.438,3.602,2.32,5.68,2.32s4.156-0.883,5.68-2.398c1.516-1.445,2.32-3.523,2.32-5.602s-0.805-4.164-2.32-5.68   C402.64,215.359,397.281,215.359,394.32,218.32z" fill="#db3f3d"/><path d="M194.32,322.32c-1.445,1.516-2.32,3.602-2.32,5.68s0.875,4.156,2.32,5.68   c1.516,1.438,3.602,2.32,5.68,2.32s4.156-0.883,5.68-2.398c1.516-1.445,2.32-3.523,2.32-5.602s-0.805-4.164-2.32-5.68   C202.641,319.359,197.281,319.359,194.32,322.32z" fill="#db3f3d"/><path d="M298.32,362.32c-1.445,1.516-2.32,3.602-2.32,5.68s0.875,4.156,2.32,5.68   c1.516,1.438,3.602,2.32,5.68,2.32c2.078,0,4.156-0.883,5.68-2.398c1.516-1.445,2.32-3.523,2.32-5.602s-0.805-4.164-2.32-5.68   C306.64,359.359,301.281,359.359,298.32,362.32z" fill="#db3f3d"/><path d="M120.141,284.586c-0.828,4.336,2.023,8.523,6.367,9.352c3.173,0.604,6.453,1.13,9.705,1.676   c0.185-5.388,0.482-10.747,1.017-16.039c0.003-0.032,0.005-0.065,0.009-0.097h0c-2.552-0.443-5.243-0.782-7.745-1.259   C125.148,277.398,120.961,280.242,120.141,284.586z" fill="#a03939"/><path d="M77.539,209.539c0.828,0.273,1.664,0.398,2.492,0.398c3.367,0,6.492-2.133,7.602-5.508   c1.375-4.195-0.906-8.711-5.109-10.094c-31.258-10.266-54.547-22.922-67.344-36.594c-0.164-0.175-0.387-0.243-0.563-0.4   c-0.492,1.342-0.968,2.692-1.431,4.048c-0.014,0.04-0.028,0.079-0.042,0.119c-1.425,4.178-2.719,8.417-3.935,12.688   C24.367,187.627,47.756,199.761,77.539,209.539z" fill="#a03939"/><path d="M184.38,448.317c-0.22,0.1-0.442,0.2-0.662,0.3c-13.765,6.265-27.904,12.642-37.177,12.414   c1.987,0.841,4.007,1.618,6.021,2.406c1.838,0.714,3.659,1.464,5.519,2.133c1.696,0.616,3.421,1.169,5.135,1.747   c2.661,0.889,5.331,1.755,8.03,2.559c0.76,0.227,1.524,0.444,2.288,0.663c5.467-2.202,11.092-4.754,16.817-7.36   c1.454-0.663,2.915-1.326,4.375-1.989c0.001-0.001,0.002-0.001,0.004-0.002c-0.001-0.001-0.001-0.001-0.001-0.001   C191.121,457.032,187.7,452.715,184.38,448.317z" fill="#a03939"/><path d="M430.607,94.224c-18.068,8.047-39.588,15.041-64.396,20.713c-4.313,0.984-7,5.273-6.016,9.578   c0.844,3.711,4.141,6.219,7.789,6.219c0.594,0,1.188-0.063,1.789-0.203c27.146-6.2,50.742-13.954,70.345-22.992   C437.098,102.987,433.922,98.552,430.607,94.224z" fill="#db3f3d"/></g><g transform="matrix(-0.1171875 0 0 0.1171875 205 232.5)" id="L1_6"><path d="M256,148c27.268,0,51.678,12.467,67.832,32h113.963c2.926,5.125,5.883,10.451,8.864,16H334.372   c6.153,12.008,9.628,25.606,9.628,40c0,48.523-39.476,88-88,88v40h248h6.357c0.483,2.097,0.991,4.169,1.456,6.285   C478.679,219.347,397.5,116.754,384,100H256V148z" fill="#d5d9de"/><path d="M8,364h248v-40c-48.523,0-88-39.477-88-88c0-14.394,3.474-27.992,9.627-40H65.34   c2.981-5.549,5.938-10.875,8.864-16h113.963c16.154-19.533,40.564-32,67.833-32v-48H128C114.5,116.754,33.32,219.347,0.188,370.285   c0.464-2.116,0.973-4.188,1.456-6.285H8z" fill="#b6b8be"/><path d="M0.247,388C0.107,386.96,0,385.911,0,384.844c0,10.008,6.313,19.059,15.703,22.52l122.781,45.238   c13.328,4.91,27.289,7.398,41.492,7.398H256v-72H0.247z" fill="#5c546a"/><path d="M256,52H152c-13.234,0-24,10.766-24,24v8h128V52z" fill="#888693"/><path d="M384,84v-8c0-13.234-10.766-24-24-24H256v32H384z" fill="#b6b8be"/><path d="M205.422,184.816C192.206,197.877,184,215.996,184,236c0,39.699,32.297,72,72,72   c20.005,0,38.123-8.207,51.184-21.422L205.422,184.816z" fill="#ffcf00"/><path d="M307.184,286.578C320.044,273.565,328,255.696,328,236c0-39.699-32.297-72-72-72   c-19.698,0-37.566,7.957-50.578,20.816L307.184,286.578z" fill="#ffedb9"/><path d="M256,308c-39.703,0-72-32.301-72-72c0-20.004,8.206-38.123,21.422-51.184   C218.434,171.957,236.302,164,256,164v-16c-27.268,0-51.679,12.467-67.833,32H74.204c-2.926,5.125-5.883,10.451-8.864,16h112.288   c-6.153,12.008-9.627,25.606-9.627,40c0,48.523,39.477,88,88,88V308z" fill="#888693"/><path d="M256,388v72h76.023c14.211,0,28.164-2.488,41.484-7.398l122.789-45.238   c9.391-3.461,15.703-12.512,15.703-22.52c0,1.067-0.107,2.116-0.247,3.156H256z" fill="#888693"/><path d="M344,236c0-14.394-3.474-27.992-9.628-40H446.66c-2.981-5.549-5.938-10.875-8.864-16H323.832   c-16.154-19.533-40.564-32-67.832-32v16c39.703,0,72,32.301,72,72c0,19.696-7.956,37.565-20.816,50.578   C294.123,299.793,276.005,308,256,308v16C304.523,324,344,284.523,344,236z" fill="#b6b8be"/><rect x="128px" y="84px" width="128px" height="16px" fill="#5c546a"/><rect x="256px" y="84px" width="128px" height="16px" fill="#888693"/><path d="M256,388v-16v-8H8H1.643c-0.483,2.097-0.991,4.169-1.456,6.285c0,0.002,0,0.004,0,0.006   c-0.062,0.289,0.017,0.563-0.014,0.851C0.14,371.437,0,371.696,0,372v12.844c0,1.067,0.107,2.116,0.247,3.156H256z" fill="#ff9300"/><path d="M511.826,371.142c-0.031-0.288,0.048-0.562-0.014-0.851c0-0.002,0-0.004,0-0.006   c-0.464-2.116-0.973-4.188-1.456-6.285H504H256v8v16h255.753c0.14-1.04,0.247-2.089,0.247-3.156V372   C512,371.696,511.86,371.437,511.826,371.142z" fill="#ffcf00"/></g><g transform="matrix(0.1875 0 0 0.1875 305 305)" id="L1_7"><path d="M303.561,8.525c38.557,10.583,73.23,30.554,101.437,57.281C395.485,64.659,385.822,64,376,64   c-124.27,0-226.479,94.448-238.762,215.477h0c-0.003,0.032-0.006,0.065-0.009,0.097c-0.001,0.014-0.002,0.028-0.004,0.042   C168.915,285.105,204.253,288,240,288c41.859,0,82.789-3.922,118.367-11.344c14.039-2.938,27.203-6.406,39.141-10.328   c4.195-1.391,8.711,0.906,10.094,5.109c1.375,4.195-0.906,8.711-5.109,10.094c-7.778,2.554-16.087,4.897-24.746,7.059   c-0.101,0.083-0.148,0.205-0.254,0.285l-15.656,11.742l16.289,4.492c3.508,0.969,5.922,4.172,5.875,7.805   c-0.047,3.641-2.531,6.789-6.063,7.664C337.57,330.672,289.867,336,240,336c-3.523,0-6.633-2.305-7.656-5.68   s0.289-7.023,3.219-8.977c2.563-1.711,2.469-4.25,2.313-5.258c-0.156-1.016-0.844-3.469-3.813-4.313l-43.789-9.68   c-0.065-0.015-0.112-0.062-0.177-0.078c-18.638-1.396-36.801-3.486-53.936-6.363c-0.095,2.772-0.16,5.552-0.16,8.348   c0,54.205,18.011,104.173,48.33,144.339c18.574-8.458,37.683-17.042,56.006-16.331c28.82,1.266,43.547-6.867,43.688-6.953   c3.828-2.133,8.711-0.82,10.891,2.984c2.18,3.813,0.914,8.656-2.883,10.867c-0.734,0.438-18.305,10.547-52.367,9.086   c-13.441-0.686-29.28,6.086-44.936,13.195c0,0,0.001,0.001,0.002,0.002c-0.001,0.001-0.002,0.001-0.004,0.002   c5.148,5.928,10.579,11.605,16.276,17.003c-12.859-1.55-25.402-4.12-37.553-7.619c-0.001,0-0.003,0.001-0.004,0.002   c-0.035-0.01-0.07-0.022-0.105-0.032c-2.008-0.579-4.005-1.186-5.992-1.816c-1.236-0.389-2.461-0.801-3.688-1.208   c-0.474-0.159-0.949-0.314-1.421-0.475c-5.38-1.822-10.685-3.803-15.878-6.005c0.055,0.002,0.115-0.003,0.171-0.002   c-49.475-20.934-90.472-57.971-116.398-104.552C71.109,430.151,149.727,480,240,480c132.548,0,240-107.452,240-240   C480,129.458,405.259,36.388,303.561,8.525z M272,232c-0.258,0.016-0.68-0.008-1.023-0.008c-11.43,0-18.469,3.594-26.594,7.742   c-8.633,4.406-18.18,9.281-32.875,9.281c-3.891,0-8.133-0.344-12.82-1.125c-4.359-0.727-7.305-4.852-6.578-9.203   c0.719-4.359,4.828-7.352,9.203-6.578c17.211,2.852,25.813-1.531,35.797-6.625c8.938-4.57,18.742-9.945,35.023-9.484   c4.414,0.07,7.938,3.711,7.867,8.133C279.93,228.5,276.359,232,272,232z M334.289,220.945c-7.18,9.141-24.672,10.766-29.859,11.047   C304.281,232,304.141,232,303.992,232c-4.219,0-7.742-3.297-7.977-7.563c-0.242-4.406,3.133-8.18,7.539-8.422   c7.672-0.438,16.492-2.844,18.156-4.961c2.727-3.469,7.75-4.086,11.234-1.344C336.414,212.437,337.023,217.469,334.289,220.945z    M205.68,333.601c-1.523,1.516-3.602,2.398-5.68,2.398s-4.164-0.883-5.68-2.32c-1.445-1.523-2.32-3.602-2.32-5.68   s0.875-4.164,2.32-5.68c2.961-2.961,8.32-2.961,11.359,0c1.516,1.516,2.32,3.602,2.32,5.68S207.195,332.156,205.68,333.601z    M309.679,373.601c-1.523,1.516-3.602,2.398-5.68,2.398c-2.078,0-4.164-0.883-5.68-2.32c-1.445-1.523-2.32-3.602-2.32-5.68   s0.875-4.164,2.32-5.68c2.961-2.961,8.32-2.961,11.359,0c1.516,1.516,2.32,3.602,2.32,5.68S311.195,372.156,309.679,373.601z    M373.679,197.502c-1.523,1.516-3.602,2.398-5.68,2.398s-4.164-0.883-5.68-2.32c-1.445-1.523-2.32-3.602-2.32-5.68   s0.875-4.164,2.32-5.68c2.961-2.961,8.32-2.961,11.359,0c1.516,1.516,2.32,3.602,2.32,5.68S375.195,196.057,373.679,197.502z    M405.679,229.601c-1.523,1.516-3.602,2.398-5.68,2.398s-4.164-0.883-5.68-2.32c-1.445-1.523-2.32-3.602-2.32-5.68   s0.875-4.164,2.32-5.68c2.961-2.961,8.32-2.961,11.359,0c1.516,1.516,2.32,3.602,2.32,5.68S407.195,228.156,405.679,229.601z    M369.773,130.531c-0.602,0.141-1.195,0.203-1.789,0.203c-3.648,0-6.945-2.508-7.789-6.219c-0.984-4.305,1.703-8.594,6.016-9.578   c24.808-5.672,46.328-12.667,64.396-20.713c3.315,4.328,6.492,8.763,9.511,13.315C420.515,116.577,396.919,124.331,369.773,130.531   z" fill="#ff4f19"/><path d="M14.108,321.229c-1.555-4.322-2.983-8.703-4.293-13.136   C11.125,312.525,12.554,316.907,14.108,321.229z" fill="#ff4f19"/><path d="M146.532,461.038c-0.055-0.001-0.116,0.004-0.171,0.002c5.193,2.203,10.499,4.183,15.878,6.005   c0.472,0.162,0.948,0.317,1.421,0.475c1.227,0.407,2.452,0.819,3.688,1.208c1.986,0.63,3.983,1.236,5.992,1.816   c0.035,0.01,0.07,0.022,0.105,0.032c0.001,0,0.003-0.001,0.004-0.002c12.15,3.499,24.694,6.069,37.553,7.619   c-5.697-5.398-11.128-11.075-16.276-17.003c-1.46,0.663-2.921,1.326-4.375,1.989c-5.725,2.606-11.35,5.158-16.817,7.36   c-0.763-0.219-1.527-0.437-2.288-0.663c-2.699-0.804-5.369-1.67-8.03-2.559c-1.713-0.578-3.439-1.131-5.135-1.747   c-1.86-0.668-3.681-1.418-5.519-2.133c-2.014-0.789-4.034-1.565-6.021-2.406c9.272,0.228,23.412-6.149,37.177-12.414   c0.22-0.1,0.441-0.2,0.662-0.3c3.32,4.398,6.74,8.715,10.348,12.87c15.656-7.109,31.495-13.881,44.936-13.195   c34.063,1.461,51.633-8.648,52.367-9.086c3.797-2.211,5.063-7.055,2.883-10.867c-2.18-3.805-7.063-5.117-10.891-2.984   c-0.141,0.086-14.867,8.219-43.688,6.953c-18.323-0.711-37.432,7.873-56.006,16.331C154.011,408.173,136,358.205,136,304   c0-2.796,0.065-5.575,0.16-8.348c17.136,2.878,35.298,4.968,53.936,6.363c0.065,0.016,0.111,0.063,0.177,0.078l43.789,9.68   c2.969,0.844,3.656,3.297,3.813,4.313c0.156,1.008,0.25,3.547-2.313,5.258c-2.93,1.953-4.242,5.602-3.219,8.977   S236.476,336,240,336c49.867,0,97.57-5.328,137.937-15.422c3.531-0.875,6.016-4.023,6.063-7.664   c0.047-3.633-2.367-6.836-5.875-7.805l-16.289-4.492l15.656-11.742c0.106-0.08,0.153-0.201,0.254-0.285   c8.658-2.162,16.968-4.505,24.746-7.059c4.203-1.383,6.484-5.898,5.109-10.094c-1.383-4.203-5.898-6.5-10.094-5.109   c-11.938,3.922-25.102,7.391-39.141,10.328C322.789,284.078,281.859,288,240,288c-35.747,0-71.085-2.895-102.775-8.384   c0.001-0.014,0.002-0.028,0.004-0.042c-0.534,5.292-0.831,10.651-1.017,16.039c-3.252-0.546-6.532-1.072-9.705-1.676   c-4.344-0.828-7.195-5.016-6.367-9.352c0.82-4.344,5.008-7.188,9.352-6.367c2.503,0.477,5.193,0.816,7.745,1.259   C149.521,158.448,251.73,64,376,64c9.822,0,19.485,0.659,28.998,1.806C376.79,39.079,342.118,19.108,303.561,8.525   c-0.079-0.022-0.158-0.043-0.237-0.064c-1.719-0.47-3.447-0.921-5.182-1.353c-0.208-0.052-0.418-0.102-0.627-0.153   c-1.62-0.399-3.246-0.783-4.879-1.149c-0.328-0.074-0.658-0.143-0.986-0.215c-1.528-0.336-3.06-0.66-4.599-0.967   c-0.444-0.088-0.89-0.17-1.334-0.256c-1.437-0.278-2.876-0.548-4.322-0.8c-0.558-0.097-1.12-0.185-1.679-0.278   c-1.347-0.225-2.696-0.446-4.05-0.648c-0.669-0.1-1.342-0.187-2.013-0.282c-1.259-0.177-2.517-0.354-3.782-0.511   c-0.782-0.097-1.57-0.179-2.354-0.269c-1.167-0.134-2.333-0.271-3.506-0.387c-0.901-0.09-1.807-0.161-2.71-0.241   c-1.069-0.094-2.137-0.195-3.21-0.276c-1.036-0.077-2.079-0.134-3.119-0.198c-0.953-0.059-1.904-0.128-2.86-0.175   c-1.244-0.062-2.494-0.099-3.743-0.142c-0.763-0.026-1.523-0.065-2.288-0.084C244.059,0.027,242.033,0,240,0   C134.986,0,45.739,67.453,13.186,161.39c0.463-1.356,0.939-2.706,1.431-4.048c0.176,0.157,0.398,0.225,0.563,0.4   c12.797,13.672,36.086,26.328,67.344,36.594c4.203,1.383,6.484,5.898,5.109,10.094c-1.109,3.375-4.234,5.508-7.602,5.508   c-0.828,0-1.664-0.125-2.492-0.398c-29.783-9.778-53.172-21.912-68.33-35.342c1.216-4.272,2.51-8.51,3.935-12.688   C4.635,186.105,0,212.51,0,240c0,1.997,0.027,3.987,0.076,5.973c0.016,0.669,0.049,1.334,0.07,2.001   c0.043,1.314,0.086,2.628,0.15,3.937c0.039,0.795,0.093,1.585,0.14,2.378c0.069,1.176,0.137,2.351,0.223,3.522   c0.062,0.845,0.137,1.686,0.208,2.529c0.094,1.112,0.187,2.223,0.296,3.33c0.085,0.872,0.181,1.74,0.276,2.609   c0.117,1.071,0.236,2.141,0.367,3.208c0.109,0.889,0.226,1.775,0.345,2.66c0.139,1.037,0.282,2.072,0.434,3.105   c0.133,0.902,0.271,1.802,0.414,2.7c0.16,1.009,0.327,2.015,0.5,3.02c0.157,0.911,0.316,1.821,0.483,2.728   c0.18,0.98,0.37,1.956,0.562,2.932c0.182,0.923,0.364,1.845,0.557,2.764c0.198,0.948,0.408,1.893,0.618,2.837   c0.208,0.935,0.413,1.871,0.632,2.802c0.213,0.907,0.439,1.81,0.662,2.713c0.237,0.961,0.471,1.923,0.72,2.879   c0.217,0.833,0.448,1.66,0.674,2.489c0.277,1.017,0.547,2.036,0.837,3.047c0.185,0.646,0.384,1.286,0.574,1.929   c1.31,4.433,2.738,8.815,4.293,13.136c0.086,0.239,0.167,0.481,0.254,0.72c0.483,1.329,0.986,2.649,1.492,3.967   c0.16,0.418,0.315,0.839,0.477,1.255c0.498,1.276,1.014,2.544,1.533,3.809c0.183,0.445,0.361,0.892,0.546,1.336   c0.528,1.266,1.072,2.523,1.621,3.777c0.187,0.427,0.371,0.856,0.561,1.283c0.567,1.274,1.147,2.541,1.735,3.804   c0.181,0.388,0.36,0.776,0.543,1.163c0.614,1.299,1.24,2.592,1.876,3.878c0.162,0.327,0.324,0.655,0.488,0.981   c0.671,1.342,1.354,2.677,2.05,4.004c0.126,0.241,0.254,0.481,0.381,0.722c0.744,1.407,1.499,2.808,2.269,4.198   c0.067,0.12,0.134,0.239,0.201,0.359C56.061,403.068,97.058,440.104,146.532,461.038z M170.32,74.32   c2.961-2.961,8.32-2.961,11.359,0c1.516,1.516,2.32,3.602,2.32,5.68s-0.805,4.156-2.32,5.602C180.156,87.117,178.078,88,176,88   s-4.164-0.883-5.68-2.32C168.875,84.156,168,82.078,168,80S168.875,75.836,170.32,74.32z M104.835,106.028   c6.196-9.737,17.263-13.784,24.718-9.04c7.455,4.744,8.476,16.483,2.28,26.22s-17.262,13.784-24.718,9.04   S98.639,115.765,104.835,106.028z M55.635,274.818c-1.982-9.17,2.103-17.834,9.124-19.352c7.021-1.518,14.32,4.686,16.302,13.856   s-2.103,17.834-9.124,19.352C64.916,290.191,57.617,283.987,55.635,274.818z" fill="#db3f3d"/><path d="M272.133,216c-16.281-0.461-26.086,4.914-35.023,9.484c-9.984,5.094-18.586,9.477-35.797,6.625   c-4.375-0.773-8.484,2.219-9.203,6.578c-0.727,4.352,2.219,8.477,6.578,9.203c4.688,0.781,8.93,1.125,12.82,1.125   c14.695,0,24.242-4.875,32.875-9.281c8.125-4.148,15.164-7.742,26.594-7.742c0.344,0,0.766,0.023,1.023,0.008   c4.359,0,7.93-3.5,8-7.867C280.07,219.711,276.547,216.07,272.133,216z" fill="#db3f3d"/><path d="M332.945,209.711c-3.484-2.742-8.508-2.125-11.234,1.344c-1.664,2.117-10.484,4.523-18.156,4.961   c-4.406,0.242-7.781,4.016-7.539,8.422c0.234,4.266,3.758,7.563,7.977,7.563c0.148,0,0.289,0,0.438-0.008   c5.187-0.281,22.68-1.906,29.859-11.047C337.023,217.469,336.414,212.437,332.945,209.711z" fill="#db3f3d"/><ellipse cx="118px" cy="114px" rx="20px" ry="16px" transform="matrix(-0.5369 0.8437 -0.8437 -0.5369 278.5632 76.3195)" fill="#a03939"/><ellipse cx="68px" cy="272px" rx="13px" ry="16px" transform="matrix(0.9774 -0.2113 0.2113 0.9774 -55.9416 20.5831)" fill="#a03939"/><path d="M176,88c2.078,0,4.156-0.883,5.68-2.398C183.195,84.156,184,82.078,184,80s-0.805-4.164-2.32-5.68   c-3.039-2.961-8.398-2.961-11.359,0C168.875,75.836,168,77.922,168,80s0.875,4.156,2.32,5.68C171.836,87.117,173.922,88,176,88z" fill="#a03939"/><path d="M362.32,186.221c-1.445,1.516-2.32,3.602-2.32,5.68s0.875,4.156,2.32,5.68   c1.516,1.438,3.602,2.32,5.68,2.32s4.156-0.883,5.68-2.398c1.516-1.445,2.32-3.523,2.32-5.602s-0.805-4.164-2.32-5.68   C370.64,183.26,365.281,183.26,362.32,186.221z" fill="#db3f3d"/><path d="M394.32,218.32c-1.445,1.516-2.32,3.602-2.32,5.68s0.875,4.156,2.32,5.68   c1.516,1.438,3.602,2.32,5.68,2.32s4.156-0.883,5.68-2.398c1.516-1.445,2.32-3.523,2.32-5.602s-0.805-4.164-2.32-5.68   C402.64,215.359,397.281,215.359,394.32,218.32z" fill="#db3f3d"/><path d="M194.32,322.32c-1.445,1.516-2.32,3.602-2.32,5.68s0.875,4.156,2.32,5.68   c1.516,1.438,3.602,2.32,5.68,2.32s4.156-0.883,5.68-2.398c1.516-1.445,2.32-3.523,2.32-5.602s-0.805-4.164-2.32-5.68   C202.641,319.359,197.281,319.359,194.32,322.32z" fill="#db3f3d"/><path d="M298.32,362.32c-1.445,1.516-2.32,3.602-2.32,5.68s0.875,4.156,2.32,5.68   c1.516,1.438,3.602,2.32,5.68,2.32c2.078,0,4.156-0.883,5.68-2.398c1.516-1.445,2.32-3.523,2.32-5.602s-0.805-4.164-2.32-5.68   C306.64,359.359,301.281,359.359,298.32,362.32z" fill="#db3f3d"/><path d="M120.141,284.586c-0.828,4.336,2.023,8.523,6.367,9.352c3.173,0.604,6.453,1.13,9.705,1.676   c0.185-5.388,0.482-10.747,1.017-16.039c0.003-0.032,0.005-0.065,0.009-0.097h0c-2.552-0.443-5.243-0.782-7.745-1.259   C125.148,277.398,120.961,280.242,120.141,284.586z" fill="#a03939"/><path d="M77.539,209.539c0.828,0.273,1.664,0.398,2.492,0.398c3.367,0,6.492-2.133,7.602-5.508   c1.375-4.195-0.906-8.711-5.109-10.094c-31.258-10.266-54.547-22.922-67.344-36.594c-0.164-0.175-0.387-0.243-0.563-0.4   c-0.492,1.342-0.968,2.692-1.431,4.048c-0.014,0.04-0.028,0.079-0.042,0.119c-1.425,4.178-2.719,8.417-3.935,12.688   C24.367,187.627,47.756,199.761,77.539,209.539z" fill="#a03939"/><path d="M184.38,448.317c-0.22,0.1-0.442,0.2-0.662,0.3c-13.765,6.265-27.904,12.642-37.177,12.414   c1.987,0.841,4.007,1.618,6.021,2.406c1.838,0.714,3.659,1.464,5.519,2.133c1.696,0.616,3.421,1.169,5.135,1.747   c2.661,0.889,5.331,1.755,8.03,2.559c0.76,0.227,1.524,0.444,2.288,0.663c5.467-2.202,11.092-4.754,16.817-7.36   c1.454-0.663,2.915-1.326,4.375-1.989c0.001-0.001,0.002-0.001,0.004-0.002c-0.001-0.001-0.001-0.001-0.001-0.001   C191.121,457.032,187.7,452.715,184.38,448.317z" fill="#a03939"/><path d="M430.607,94.224c-18.068,8.047-39.588,15.041-64.396,20.713c-4.313,0.984-7,5.273-6.016,9.578   c0.844,3.711,4.141,6.219,7.789,6.219c0.594,0,1.188-0.063,1.789-0.203c27.146-6.2,50.742-13.954,70.345-22.992   C437.098,102.987,433.922,98.552,430.607,94.224z" fill="#db3f3d"/></g><g transform="matrix(0.08333246409893036 0 0 0.08333246409893036 242.5 67.5)" id="L1_8"><path d="M134.534,41.724l13.36,38.967c27.089-15.696,58.548-24.686,92.108-24.686   c101.62,0,184,82.38,184,184c0,42.147-14.181,80.977-38.019,112h66.321c18.151-34.365,27.697-72.8,27.697-112   c0-65.352-25.805-126.445-72.648-172.031C360.518,22.412,298.721-1.682,233.26,0.091c-37.724,1.039-74.848,11.261-107.811,29.629   C129.64,32.588,132.825,36.742,134.534,41.724z" fill="#ffcf00"/><path d="M240.003,56.005c-33.56,0-65.019,8.99-92.108,24.686l72.787,212.288   c5.728-3.167,12.313-4.975,19.322-4.975c22.091,0,40,17.909,40,40c0,5.864-1.272,11.428-3.54,16.446   c11.849,5.008,24.404,7.554,37.329,7.554h72.192c23.837-31.023,38.019-69.852,38.019-112   C424.003,138.385,341.623,56.005,240.003,56.005z" fill="#ff9300"/><path d="M480.003,376.005c0-13.234-10.766-24-24-24h-3.697h-66.321h-72.192   c-12.925,0-25.48-2.545-37.329-7.554c-6.274,13.885-20.233,23.553-36.46,23.553c-22.091,0-40-17.909-40-40   c0-15.083,8.351-28.211,20.678-35.025L147.894,80.691l-13.36-38.967c-1.709-4.982-4.894-9.136-9.085-12.004   c-1.901-1.301-4.01-2.338-6.282-3.067c-7.313-2.344-15.047-1.133-21.281,3.32l-40.93,29.234l13.703-9.788l50.106,271.383   c4.558,24.687,20.439,45.802,42.893,57.029l37.22,18.61h267.695C475.424,392.208,480.003,384.63,480.003,376.005z" fill="#e3e6e9"/><path d="M200.878,396.443l-37.22-18.61c-22.454-11.227-38.335-32.342-42.893-57.029L70.659,49.421   l-13.703,9.788C21.447,84.571,0.289,125.422,0.016,169.024c-0.002,0.285-0.013,0.568-0.013,0.853v206.128   c0,8.625,4.578,16.203,11.43,20.438H200.878z" fill="#b6b8be"/><path d="M200.878,396.443H11.432l-2.023,3.031c-6.156,9.227-9.406,19.969-9.406,31.062v1.469h256   c4.422,0,8,3.578,8,8s-3.578,8-8,8h-256v24c0,4.422,3.578,8,8,8h344c-4.422,0-8-3.578-8-8v-32c0-13.234,10.766-24,24-24h104   c3.048,0,5.695,1.701,7.045,4.207c-1.378-7.375-4.231-14.413-8.452-20.738l-2.023-3.031H200.878z M293.682,445.685   c-1.523,1.438-3.523,2.32-5.68,2.32c-2.078,0-4.164-0.883-5.68-2.32c-1.445-1.523-2.32-3.602-2.32-5.68s0.875-4.164,2.32-5.68   c2.961-2.961,8.398-2.961,11.359,0c1.438,1.516,2.32,3.516,2.32,5.68C296.003,442.083,295.12,444.161,293.682,445.685z    M325.682,445.685c-1.523,1.438-3.523,2.32-5.68,2.32c-2.078,0-4.164-0.883-5.68-2.32c-1.445-1.523-2.32-3.602-2.32-5.68   s0.875-4.164,2.32-5.68c2.961-2.961,8.477-2.961,11.359,0c1.438,1.516,2.32,3.516,2.32,5.68   C328.003,442.083,327.12,444.161,325.682,445.685z" fill="#888693"/><path d="M240.003,288.005c-7.009,0-13.593,1.808-19.322,4.975c-12.327,6.815-20.678,19.943-20.678,35.025   c0,22.091,17.909,40,40,40c16.227,0,30.187-9.668,36.46-23.553c2.267-5.018,3.54-10.582,3.54-16.446   C280.003,305.914,262.094,288.005,240.003,288.005z" fill="#5c546a"/><path d="M314.323,434.326c-1.445,1.516-2.32,3.602-2.32,5.68s0.875,4.156,2.32,5.68   c1.516,1.438,3.602,2.32,5.68,2.32c2.156,0,4.156-0.883,5.68-2.32c1.438-1.523,2.32-3.602,2.32-5.68c0-2.164-0.883-4.164-2.32-5.68   C322.799,431.365,317.284,431.365,314.323,434.326z" fill="#5c546a"/><path d="M282.323,434.326c-1.445,1.516-2.32,3.602-2.32,5.68s0.875,4.156,2.32,5.68   c1.516,1.438,3.602,2.32,5.68,2.32c2.156,0,4.156-0.883,5.68-2.32c1.438-1.523,2.32-3.602,2.32-5.68c0-2.164-0.883-4.164-2.32-5.68   C290.721,431.365,285.284,431.365,282.323,434.326z" fill="#5c546a"/><path d="M472.003,416.005h-104c-13.234,0-24,10.766-24,24v32c0,4.422,3.578,8,8,8h120c4.422,0,8-3.578,8-8   v-41.469v-6.531c0-1.373-0.346-2.665-0.955-3.793C477.698,417.706,475.051,416.005,472.003,416.005z" fill="#5c546a"/><path d="M264.003,440.005c0-4.422-3.578-8-8-8h-256v5.867v10.133h256   C260.424,448.005,264.003,444.427,264.003,440.005z" fill="#5c546a"/></g><g transform="matrix(0.0390625 0 0 0.0390625 340 165)" id="L1_9"><path d="M256,148c27.268,0,51.678,12.467,67.832,32h113.963c2.926,5.125,5.883,10.451,8.864,16H334.372   c6.153,12.008,9.628,25.606,9.628,40c0,48.523-39.476,88-88,88v40h248h6.357c0.483,2.097,0.991,4.169,1.456,6.285   C478.679,219.347,397.5,116.754,384,100H256V148z" fill="#d5d9de"/><path d="M8,364h248v-40c-48.523,0-88-39.477-88-88c0-14.394,3.474-27.992,9.627-40H65.34   c2.981-5.549,5.938-10.875,8.864-16h113.963c16.154-19.533,40.564-32,67.833-32v-48H128C114.5,116.754,33.32,219.347,0.188,370.285   c0.464-2.116,0.973-4.188,1.456-6.285H8z" fill="#b6b8be"/><path d="M0.247,388C0.107,386.96,0,385.911,0,384.844c0,10.008,6.313,19.059,15.703,22.52l122.781,45.238   c13.328,4.91,27.289,7.398,41.492,7.398H256v-72H0.247z" fill="#5c546a"/><path d="M256,52H152c-13.234,0-24,10.766-24,24v8h128V52z" fill="#888693"/><path d="M384,84v-8c0-13.234-10.766-24-24-24H256v32H384z" fill="#b6b8be"/><path d="M205.422,184.816C192.206,197.877,184,215.996,184,236c0,39.699,32.297,72,72,72   c20.005,0,38.123-8.207,51.184-21.422L205.422,184.816z" fill="#ffcf00"/><path d="M307.184,286.578C320.044,273.565,328,255.696,328,236c0-39.699-32.297-72-72-72   c-19.698,0-37.566,7.957-50.578,20.816L307.184,286.578z" fill="#ffedb9"/><path d="M256,308c-39.703,0-72-32.301-72-72c0-20.004,8.206-38.123,21.422-51.184   C218.434,171.957,236.302,164,256,164v-16c-27.268,0-51.679,12.467-67.833,32H74.204c-2.926,5.125-5.883,10.451-8.864,16h112.288   c-6.153,12.008-9.627,25.606-9.627,40c0,48.523,39.477,88,88,88V308z" fill="#888693"/><path d="M256,388v72h76.023c14.211,0,28.164-2.488,41.484-7.398l122.789-45.238   c9.391-3.461,15.703-12.512,15.703-22.52c0,1.067-0.107,2.116-0.247,3.156H256z" fill="#888693"/><path d="M344,236c0-14.394-3.474-27.992-9.628-40H446.66c-2.981-5.549-5.938-10.875-8.864-16H323.832   c-16.154-19.533-40.564-32-67.832-32v16c39.703,0,72,32.301,72,72c0,19.696-7.956,37.565-20.816,50.578   C294.123,299.793,276.005,308,256,308v16C304.523,324,344,284.523,344,236z" fill="#b6b8be"/><rect x="128px" y="84px" width="128px" height="16px" fill="#5c546a"/><rect x="256px" y="84px" width="128px" height="16px" fill="#888693"/><path d="M256,388v-16v-8H8H1.643c-0.483,2.097-0.991,4.169-1.456,6.285c0,0.002,0,0.004,0,0.006   c-0.062,0.289,0.017,0.563-0.014,0.851C0.14,371.437,0,371.696,0,372v12.844c0,1.067,0.107,2.116,0.247,3.156H256z" fill="#ff9300"/><path d="M511.826,371.142c-0.031-0.288,0.048-0.562-0.014-0.851c0-0.002,0-0.004,0-0.006   c-0.464-2.116-0.973-4.188-1.456-6.285H504H256v8v16h255.753c0.14-1.04,0.247-2.089,0.247-3.156V372   C512,371.696,511.86,371.437,511.826,371.142z" fill="#ffcf00"/></g><g transform="matrix(0.0390625 0 0 0.0390625 165 165)" id="L1_10"><path d="M264,116 264,100 256,100 248,100 248,116 256,116z" fill="#5c546a"/><path d="M256,180h31.438c0.188,0,0.375,0.013,0.563,0.018V164h-32h-32v16.018   c0.188-0.004,0.374-0.018,0.563-0.018H256z" fill="#5c546a"/><path d="M209,372l5.248,41.984c1.001,8.007,7.807,14.016,15.876,14.016H256v-56H209z" fill="#5c546a"/><path d="M256,428h25.875c8.069,0,14.875-6.009,15.876-14.016L303,372h-47V428z" fill="#888693"/><path d="M0,284v32c0,4.418,3.582,8,8,8h24v-40H0z" fill="#5c546a"/><path d="M32,228H8c-4.418,0-8,3.582-8,8v32h32V228z" fill="#5c546a"/><rect x="48px" y="284px" width="32px" height="40px" fill="#5c546a"/><path d="M144,324h24c4.418,0,8-3.582,8-8v-32h-32V324z" fill="#5c546a"/><path d="M176,268v-32c0-4.418-3.582-8-8-8h-24v40H176z" fill="#5c546a"/><rect x="96px" y="228px" width="32px" height="40px" fill="#5c546a"/><rect x="48px" y="228px" width="32px" height="40px" fill="#5c546a"/><rect x="96px" y="284px" width="32px" height="40px" fill="#5c546a"/><path d="M176,268 144,268 144,228 128,228 128,268 96,268 96,228 80,228 80,268 48,268 48,228    32,228 32,268 0,268 0,284 32,284 32,324 48,324 48,284 80,284 80,324 96,324 96,284 128,284 128,324 144,324 144,284 176,284    192,284 192,268z" fill="#888693"/><rect x="384px" y="284px" width="32px" height="40px" fill="#5c546a"/><path d="M368,228h-24c-4.418,0-8,3.582-8,8v32h32V228z" fill="#5c546a"/><path d="M336,284v32c0,4.418,3.582,8,8,8h24v-40H336z" fill="#5c546a"/><path d="M480,324h24c4.418,0,8-3.582,8-8v-32h-32V324z" fill="#5c546a"/><rect x="432px" y="284px" width="32px" height="40px" fill="#5c546a"/><path d="M504,228h-24v40h32v-32C512,231.581,508.418,228,504,228z" fill="#5c546a"/><rect x="432px" y="228px" width="32px" height="40px" fill="#5c546a"/><rect x="384px" y="228px" width="32px" height="40px" fill="#5c546a"/><path d="M480,228 464,228 464,268 432,268 432,228 416,228 416,268 384,268 384,228 368,228 368,268    336,268 320,268 320,284 336,284 368,284 368,324 384,324 384,284 416,284 416,324 432,324 432,284 464,284 464,324 480,324    480,284 512,284 512,268 480,268z" fill="#888693"/><path d="M256,364v-48h-16v39c0,0.552-0.448,1-1,1h-14c-0.552,0-1-0.448-1-1v-39h-8c-4.418,0-8-3.582-8-8v-32   c0-4.418,3.582-8,8-8h8v-39c0-0.552,0.448-1,1-1h14c0.552,0,1,0.448,1,1v39h16v-56h-64v56v16v80c0,4.418,3.578,8,8,8h9h47V364z" fill="#ff9300"/><path d="M320,212h-64v56h16v-39c0-0.552,0.448-1,1-1h14c0.552,0,1,0.448,1,1v39h8c4.418,0,8,3.582,8,8v32   c0,0.276-0.014,0.549-0.041,0.818c-0.041,0.407-0.122,0.802-0.223,1.188c-0.05,0.192-0.104,0.383-0.168,0.569   c-0.789,2.319-2.611,4.155-4.92,4.966c-0.83,0.292-1.719,0.458-2.648,0.458h-8v39c0,0.552-0.448,1-1,1h-14c-0.552,0-1-0.448-1-1   v-39h-16v48v8h47h9c4.422,0,8-3.582,8-8v-80v-16V212z" fill="#ffcf00"/><path d="M256,180h-31.437c-0.188,0-0.375,0.013-0.563,0.018c-7.823,0.182-15.05,4.135-19.406,10.67   l-11.25,16.875C192.469,208.875,192,210.422,192,212h64V180z" fill="#888693"/><path d="M256,180v32h64c0-1.578-0.469-3.125-1.344-4.438l-11.25-16.875   c-4.356-6.535-11.583-10.488-19.406-10.67c-0.188-0.004-0.374-0.018-0.563-0.018H256z" fill="#b6b8be"/><path d="M256,116h-8h-6.461c-2.031,0-4.023,0.383-5.938,1.145l-33.539,13.414   c-6.109,2.445-10.063,8.277-10.063,14.859V156c0,4.418,3.578,8,8,8h24h32V116z" fill="#888693"/><path d="M224,268h-8c-4.418,0-8,3.582-8,8v32c0,4.418,3.582,8,8,8h8h16h16v-48h-16H224z" fill="#b6b8be"/><path d="M264,100h8c4.422,0,8-3.582,8-8s-3.578-8-8-8h-16v16H264z" fill="#ffcf00"/><path d="M256,164h32h24c4.422,0,8-3.582,8-8v-10.582c0-6.582-3.953-12.414-10.063-14.855l-33.555-13.43   c-1.898-0.75-3.891-1.133-5.922-1.133H264h-8V164z" fill="#b6b8be"/><path d="M256,84h-16c-4.422,0-8,3.582-8,8s3.578,8,8,8h8h8V84z" fill="#ff9300"/><path d="M272,316h16h8c0.93,0,1.818-0.167,2.648-0.458c2.309-0.811,4.131-2.646,4.92-4.966   c0.064-0.187,0.118-0.377,0.168-0.569c0.1-0.387,0.181-0.781,0.223-1.188c0.027-0.269,0.041-0.542,0.041-0.818v-32   c0-4.418-3.582-8-8-8h-8h-16h-16v48H272z" fill="#d5d9de"/><path d="M240,229c0-0.552-0.448-1-1-1h-14c-0.552,0-1,0.448-1,1v39h16V229z" fill="#5c546a"/><path d="M224,355c0,0.552,0.448,1,1,1h14c0.552,0,1-0.448,1-1v-39h-16V355z" fill="#5c546a"/><path d="M288,229c0-0.552-0.448-1-1-1h-14c-0.552,0-1,0.448-1,1v39h16V229z" fill="#888693"/><path d="M272,355c0,0.552,0.448,1,1,1h14c0.552,0,1-0.448,1-1v-39h-16V355z" fill="#888693"/></g><path d="M165,0C74.019,0,0,74.019,0,165s74.019,165,165,165c90.982,0,165-74.019,165-165S255.982,0,165,0z" transform="matrix(0.03030303120613098 0 0 0.03030303120613098 82.5 257.5)" id="L1_12" fill="#b9c5dc"/><path d="M165,0C74.019,0,0,74.019,0,165s74.019,165,165,165c90.982,0,165-74.019,165-165S255.982,0,165,0z" transform="matrix(0.03030303120613098 0 0 0.03030303120613098 345 82.5)" id="L1_13" fill="#7f4536"/></defs><g fi:class="KUsePattern"><pattern id="pattern_L1_5" width="350" height="350" patternUnits="userSpaceOnUse"><use xlink:href="#L1_5" x="-350" y="-350"/><use xlink:href="#L1_5" x="0" y="-350"/><use xlink:href="#L1_5" x="350" y="-350"/><use xlink:href="#L1_5" x="-350" y="0"/><use xlink:href="#L1_5" x="0" y="0"/><use xlink:href="#L1_5" x="350" y="0"/><use xlink:href="#L1_5" x="-350" y="350"/><use xlink:href="#L1_5" x="0" y="350"/><use xlink:href="#L1_5" x="350" y="350"/></pattern><rect x="0" y="0" width="100%" height="100%" fill="url(#pattern_L1_5)"/></g><g fi:class="KUsePattern"><pattern id="pattern_L1_6" width="350" height="350" patternUnits="userSpaceOnUse"><use xlink:href="#L1_6" x="-350" y="-350"/><use xlink:href="#L1_6" x="0" y="-350"/><use xlink:href="#L1_6" x="350" y="-350"/><use xlink:href="#L1_6" x="-350" y="0"/><use xlink:href="#L1_6" x="0" y="0"/><use xlink:href="#L1_6" x="350" y="0"/><use xlink:href="#L1_6" x="-350" y="350"/><use xlink:href="#L1_6" x="0" y="350"/><use xlink:href="#L1_6" x="350" y="350"/></pattern><rect x="0" y="0" width="100%" height="100%" fill="url(#pattern_L1_6)"/></g><g fi:class="KUsePattern"><pattern id="pattern_L1_7" width="350" height="350" patternUnits="userSpaceOnUse"><use xlink:href="#L1_7" x="-350" y="-350"/><use xlink:href="#L1_7" x="0" y="-350"/><use xlink:href="#L1_7" x="350" y="-350"/><use xlink:href="#L1_7" x="-350" y="0"/><use xlink:href="#L1_7" x="0" y="0"/><use xlink:href="#L1_7" x="350" y="0"/><use xlink:href="#L1_7" x="-350" y="350"/><use xlink:href="#L1_7" x="0" y="350"/><use xlink:href="#L1_7" x="350" y="350"/></pattern><rect x="0" y="0" width="100%" height="100%" fill="url(#pattern_L1_7)"/></g><g fi:class="KUsePattern"><pattern id="pattern_L1_8" width="350" height="350" patternUnits="userSpaceOnUse"><use xlink:href="#L1_8" x="-350" y="-350"/><use xlink:href="#L1_8" x="0" y="-350"/><use xlink:href="#L1_8" x="350" y="-350"/><use xlink:href="#L1_8" x="-350" y="0"/><use xlink:href="#L1_8" x="0" y="0"/><use xlink:href="#L1_8" x="350" y="0"/><use xlink:href="#L1_8" x="-350" y="350"/><use xlink:href="#L1_8" x="0" y="350"/><use xlink:href="#L1_8" x="350" y="350"/></pattern><rect x="0" y="0" width="100%" height="100%" fill="url(#pattern_L1_8)"/></g><g fi:class="KUsePattern"><pattern id="pattern_L1_9" width="350" height="350" patternUnits="userSpaceOnUse"><use xlink:href="#L1_9" x="-350" y="-350"/><use xlink:href="#L1_9" x="0" y="-350"/><use xlink:href="#L1_9" x="350" y="-350"/><use xlink:href="#L1_9" x="-350" y="0"/><use xlink:href="#L1_9" x="0" y="0"/><use xlink:href="#L1_9" x="350" y="0"/><use xlink:href="#L1_9" x="-350" y="350"/><use xlink:href="#L1_9" x="0" y="350"/><use xlink:href="#L1_9" x="350" y="350"/></pattern><rect x="0" y="0" width="100%" height="100%" fill="url(#pattern_L1_9)"/></g><g fi:class="KUsePattern"><pattern id="pattern_L1_10" width="350" height="350" patternUnits="userSpaceOnUse"><use xlink:href="#L1_10" x="-350" y="-350"/><use xlink:href="#L1_10" x="0" y="-350"/><use xlink:href="#L1_10" x="350" y="-350"/><use xlink:href="#L1_10" x="-350" y="0"/><use xlink:href="#L1_10" x="0" y="0"/><use xlink:href="#L1_10" x="350" y="0"/><use xlink:href="#L1_10" x="-350" y="350"/><use xlink:href="#L1_10" x="0" y="350"/><use xlink:href="#L1_10" x="350" y="350"/></pattern><rect x="0" y="0" width="100%" height="100%" fill="url(#pattern_L1_10)"/></g><g fi:class="KUsePattern"><pattern id="pattern_L1_12" width="350" height="350" patternUnits="userSpaceOnUse"><use xlink:href="#L1_12" x="-350" y="-350"/><use xlink:href="#L1_12" x="0" y="-350"/><use xlink:href="#L1_12" x="350" y="-350"/><use xlink:href="#L1_12" x="-350" y="0"/><use xlink:href="#L1_12" x="0" y="0"/><use xlink:href="#L1_12" x="350" y="0"/><use xlink:href="#L1_12" x="-350" y="350"/><use xlink:href="#L1_12" x="0" y="350"/><use xlink:href="#L1_12" x="350" y="350"/></pattern><rect x="0" y="0" width="100%" height="100%" fill="url(#pattern_L1_12)"/></g><g fi:class="KUsePattern"><pattern id="pattern_L1_13" width="350" height="350" patternUnits="userSpaceOnUse"><use xlink:href="#L1_13" x="-350" y="-350"/><use xlink:href="#L1_13" x="0" y="-350"/><use xlink:href="#L1_13" x="350" y="-350"/><use xlink:href="#L1_13" x="-350" y="0"/><use xlink:href="#L1_13" x="0" y="0"/><use xlink:href="#L1_13" x="350" y="0"/><use xlink:href="#L1_13" x="-350" y="350"/><use xlink:href="#L1_13" x="0" y="350"/><use xlink:href="#L1_13" x="350" y="350"/></pattern><rect x="0" y="0" width="100%" height="100%" fill="url(#pattern_L1_13)"/></g></svg>